<svg width="626" height="160" viewBox="0 0 626 160" fill="none" xmlns="http://www.w3.org/2000/svg">
<path d="M0 24C0 10.7452 10.7452 0 24 0H602C615.255 0 626 10.7452 626 24V160H0V24Z" fill="#2241AC"/>
<mask id="mask0_12222_290" style="mask-type:alpha" maskUnits="userSpaceOnUse" x="0" y="0" width="626" height="160">
<path d="M0 24C0 10.7452 10.7452 0 24 0H602C615.255 0 626 10.7452 626 24V160H0V24Z" fill="#2241AC"/>
</mask>
<g mask="url(#mask0_12222_290)">
<rect x="36" y="54" width="553.846" height="144" rx="20" fill="#171C2C"/>
<rect x="36.5" y="54.5" width="552.846" height="143" rx="19.5" stroke="white" stroke-opacity="0.14"/>
<rect x="52.6172" y="70.6152" width="110.769" height="110.769" rx="15" fill="#0C101A"/>
<rect x="53.1172" y="71.1152" width="109.769" height="109.769" rx="14.5" stroke="white" stroke-opacity="0.14"/>
<g clip-path="url(#clip0_12222_290)">
<path d="M135.916 86.123H80.0881C73.4811 86.123 68.125 91.4791 68.125 98.0861V153.914C68.125 160.521 73.4811 165.877 80.0881 165.877H135.916C142.523 165.877 147.879 160.521 147.879 153.914V98.0861C147.879 91.4791 142.523 86.123 135.916 86.123Z" fill="#FFE6CE"/>
<path d="M132.895 100.258L111.281 116.311L115.278 106.84L132.895 100.258Z" fill="#E2761B" stroke="#E2761B" stroke-width="0.124514" stroke-linecap="round" stroke-linejoin="round"/>
<path d="M82.9997 100.259L104.441 116.465L100.639 106.841L82.9997 100.259ZM125.122 137.471L119.365 146.291L131.682 149.68L135.223 137.667L125.122 137.471ZM80.7188 137.667L84.238 149.68L96.5552 146.291L90.7985 137.471L80.7188 137.667Z" fill="#E4761B" stroke="#E4761B" stroke-width="0.124514" stroke-linecap="round" stroke-linejoin="round"/>
<path d="M95.858 122.568L92.4258 127.76L104.656 128.303L104.221 115.16L95.858 122.568ZM120.035 122.568L111.563 115.008L111.281 128.303L123.489 127.76L120.035 122.568ZM96.5531 146.289L103.895 142.705L97.5524 137.752L96.5531 146.289ZM111.998 142.705L119.362 146.289L118.341 137.752L111.998 142.705Z" fill="#E4761B" stroke="#E4761B" stroke-width="0.124514" stroke-linecap="round" stroke-linejoin="round"/>
<path d="M119.363 146.289L111.999 142.705L112.586 147.505L112.52 149.525L119.363 146.289ZM96.5547 146.289L103.397 149.525L103.354 147.505L103.897 142.705L96.5547 146.289Z" fill="#D7C1B3" stroke="#D7C1B3" stroke-width="0.124514" stroke-linecap="round" stroke-linejoin="round"/>
<path d="M103.505 134.58L97.3789 132.777L101.702 130.801L103.505 134.58ZM112.389 134.58L114.192 130.801L118.536 132.777L112.389 134.58Z" fill="#233447" stroke="#233447" stroke-width="0.124514" stroke-linecap="round" stroke-linejoin="round"/>
<path d="M96.5536 146.29L97.5963 137.47L90.7969 137.666L96.5536 146.29ZM118.321 137.47L119.363 146.29L125.12 137.666L118.321 137.47ZM123.491 127.76L111.282 128.303L112.412 134.581L114.215 130.801L118.56 132.778L123.491 127.76ZM97.3791 132.778L101.724 130.801L103.505 134.581L104.656 128.303L92.4261 127.76L97.3791 132.778Z" fill="#CD6116" stroke="#CD6116" stroke-width="0.124514" stroke-linecap="round" stroke-linejoin="round"/>
<path d="M92.4258 127.76L97.5524 137.752L97.3786 132.778L92.4258 127.76ZM118.558 132.778L118.341 137.752L123.489 127.76L118.558 132.778ZM104.656 128.303L103.504 134.581L104.938 141.988L105.264 132.235L104.656 128.303ZM111.281 128.303L110.695 132.213L110.955 141.988L112.411 134.581L111.281 128.303Z" fill="#E4751F" stroke="#E4751F" stroke-width="0.124514" stroke-linecap="round" stroke-linejoin="round"/>
<path d="M112.411 134.58L110.955 141.987L111.998 142.704L118.341 137.752L118.558 132.777L112.411 134.58ZM97.3789 132.777L97.5527 137.752L103.896 142.704L104.938 141.987L103.505 134.58L97.3789 132.777Z" fill="#F6851B" stroke="#F6851B" stroke-width="0.124514" stroke-linecap="round" stroke-linejoin="round"/>
<path d="M112.52 149.526L112.586 147.506L112.043 147.028H103.853L103.354 147.506L103.397 149.526L96.5547 146.289L98.9441 148.244L103.788 151.611H112.108L116.973 148.244L119.363 146.289L112.52 149.526Z" fill="#C0AD9E" stroke="#C0AD9E" stroke-width="0.124514" stroke-linecap="round" stroke-linejoin="round"/>
<path d="M111.997 142.705L110.954 141.988H104.937L103.895 142.705L103.352 147.505L103.851 147.027H112.04L112.583 147.505L111.997 142.705Z" fill="#161616" stroke="#161616" stroke-width="0.124514" stroke-linecap="round" stroke-linejoin="round"/>
<path d="M133.81 117.355L135.657 108.492L132.898 100.259L112 115.769L120.038 122.569L131.399 125.893L133.919 122.96L132.833 122.178L134.571 120.592L133.224 119.549L134.962 118.224L133.81 117.355ZM80.2617 108.492L82.1083 117.355L80.9352 118.224L82.6731 119.549L81.3479 120.592L83.0858 122.178L81.9996 122.96L84.4978 125.893L95.8593 122.569L103.897 115.769L82.9989 100.259L80.2617 108.492Z" fill="#763D16" stroke="#763D16" stroke-width="0.124514" stroke-linecap="round" stroke-linejoin="round"/>
<path d="M131.4 125.892L120.038 122.568L123.493 127.76L118.344 137.753L125.122 137.666H135.223L131.4 125.892ZM95.86 122.568L84.4986 125.892L80.7188 137.666H90.7985L97.5546 137.753L92.4277 127.76L95.86 122.568ZM111.284 128.303L112.001 115.769L115.303 106.84H100.639L103.898 115.769L104.658 128.303L104.919 132.257L104.941 141.989H110.958L111.001 132.257L111.284 128.303Z" fill="#F6851B" stroke="#F6851B" stroke-width="0.124514" stroke-linecap="round" stroke-linejoin="round"/>
</g>
<rect x="188.863" y="70.6152" width="110.769" height="110.769" rx="15" fill="#0C101A"/>
<rect x="189.363" y="71.1152" width="109.769" height="109.769" rx="14.5" stroke="white" stroke-opacity="0.14"/>
<g clip-path="url(#clip1_12222_290)">
<path d="M272.162 86.123H216.334C209.727 86.123 204.371 91.4791 204.371 98.0861V153.914C204.371 160.521 209.727 165.877 216.334 165.877H272.162C278.769 165.877 284.125 160.521 284.125 153.914V98.0861C284.125 91.4791 278.769 86.123 272.162 86.123Z" fill="#12FF80"/>
<mask id="mask1_12222_290" style="mask-type:luminance" maskUnits="userSpaceOnUse" x="216" y="98" width="57" height="56">
<path d="M244.251 153.916C259.668 153.916 272.166 141.418 272.166 126.001C272.166 110.584 259.668 98.0864 244.251 98.0864C228.834 98.0864 216.336 110.584 216.336 126.001C216.336 141.418 228.834 153.916 244.251 153.916Z" fill="white"/>
</mask>
<g mask="url(#mask1_12222_290)">
<path d="M272.3 93.5269H213.68V157.898H272.3V93.5269Z" fill="#12FF80"/>
</g>
<path d="M259.865 126.004H256.052C254.913 126.004 253.99 126.928 253.99 128.066V133.601C253.99 134.74 253.067 135.662 251.929 135.662H236.757C235.618 135.662 234.695 136.586 234.695 137.724V141.537C234.695 142.676 235.619 143.599 236.757 143.599H252.807C253.946 143.599 254.856 142.676 254.856 141.537V138.478C254.856 137.339 255.779 136.531 256.918 136.531H259.865C261.004 136.531 261.927 135.608 261.927 134.469V128.042C261.927 126.903 261.004 126.004 259.865 126.004Z" fill="#121312"/>
<path d="M234.702 118.423C234.702 117.284 235.626 116.361 236.764 116.361H251.926C253.065 116.361 253.988 115.438 253.988 114.299V110.486C253.988 109.347 253.065 108.424 251.926 108.424H235.885C234.747 108.424 233.824 109.348 233.824 110.486V113.424C233.824 114.563 232.9 115.486 231.762 115.486H228.827C227.688 115.486 226.766 116.409 226.766 117.547V123.982C226.766 125.121 227.692 125.997 228.831 125.997H232.645C233.784 125.997 234.706 125.074 234.706 123.935L234.702 118.423Z" fill="#121312"/>
<path d="M242.545 121.987H246.209C247.402 121.987 248.371 122.956 248.371 124.15V127.813C248.371 129.007 247.402 129.976 246.209 129.976H242.545C241.352 129.976 240.383 129.007 240.383 127.813V124.15C240.383 122.956 241.352 121.987 242.545 121.987Z" fill="#121312"/>
</g>
<rect x="325.109" y="70.6152" width="110.769" height="110.769" rx="15" fill="#0C101A"/>
<rect x="325.609" y="71.1152" width="109.769" height="109.769" rx="14.5" stroke="white" stroke-opacity="0.14"/>
<g clip-path="url(#clip2_12222_290)">
<path d="M408.408 86.123H352.58C345.973 86.123 340.617 91.4791 340.617 98.0861V153.914C340.617 160.521 345.973 165.877 352.58 165.877H408.408C415.015 165.877 420.371 160.521 420.371 153.914V98.0861C420.371 91.4791 415.015 86.123 408.408 86.123Z" fill="#1C7DFC"/>
<path d="M408.408 86.123H352.58C345.973 86.123 340.617 91.4791 340.617 98.0861V153.914C340.617 160.521 345.973 165.877 352.58 165.877H408.408C415.015 165.877 420.371 160.521 420.371 153.914V98.0861C420.371 91.4791 415.015 86.123 408.408 86.123Z" fill="url(#paint0_radial_12222_290)"/>
<path d="M366.96 117.499C374.432 110.224 386.561 110.224 394.032 117.499L394.932 118.382C395.309 118.743 395.309 119.336 394.932 119.698L391.856 122.692C391.668 122.88 391.363 122.88 391.174 122.692L389.941 121.491C384.718 116.415 376.275 116.415 371.052 121.491L369.731 122.779C369.543 122.967 369.238 122.967 369.05 122.779L365.974 119.785C365.597 119.423 365.597 118.83 365.974 118.468L366.96 117.499ZM400.402 123.69L403.144 126.351C403.521 126.713 403.521 127.306 403.144 127.667L390.797 139.687C390.42 140.048 389.811 140.048 389.448 139.687L380.685 131.153C380.598 131.066 380.438 131.066 380.351 131.153L371.589 139.687C371.211 140.048 370.602 140.048 370.239 139.687L357.849 127.667C357.472 127.306 357.472 126.713 357.849 126.351L360.591 123.69C360.969 123.328 361.578 123.328 361.941 123.69L370.704 132.223C370.791 132.31 370.95 132.31 371.037 132.223L379.8 123.69C380.177 123.328 380.787 123.328 381.149 123.69L389.912 132.223C389.999 132.31 390.159 132.31 390.246 132.223L399.009 123.69C399.415 123.328 400.024 123.328 400.402 123.69Z" fill="white"/>
</g>
<rect x="461.355" y="70.6152" width="110.769" height="110.769" rx="15" fill="#0C101A"/>
<rect x="461.855" y="71.1152" width="109.769" height="109.769" rx="14.5" stroke="white" stroke-opacity="0.14"/>
<g clip-path="url(#clip3_12222_290)">
<path d="M544.654 86.123H488.826C482.219 86.123 476.863 91.4791 476.863 98.0861V153.914C476.863 160.521 482.219 165.877 488.826 165.877H544.654C551.261 165.877 556.617 160.521 556.617 153.914V98.0861C556.617 91.4791 551.261 86.123 544.654 86.123Z" fill="#1C7DFC"/>
<path d="M544.654 86.123H488.826C482.219 86.123 476.863 91.4791 476.863 98.0861V153.914C476.863 160.521 482.219 165.877 488.826 165.877H544.654C551.261 165.877 556.617 160.521 556.617 153.914V98.0861C556.617 91.4791 551.261 86.123 544.654 86.123Z" fill="white"/>
<g clip-path="url(#clip4_12222_290)">
<path d="M489.16 135.647V149.224H510.229V146.213H492.23V135.647H489.16ZM542.104 135.647V146.213H524.105V149.223H545.174V135.647H542.104ZM510.26 114.985V135.646H524.105V132.931H513.33V114.985H510.26ZM489.16 101.407V114.985H492.23V104.418H510.229V101.407H489.16ZM524.105 101.407V104.418H542.104V114.985H545.174V101.407H524.105Z" fill="black"/>
</g>
</g>
</g>
<defs>
<radialGradient id="paint0_radial_12222_290" cx="0" cy="0" r="1" gradientUnits="userSpaceOnUse" gradientTransform="translate(340.617 126.001) scale(79.7538)">
<stop stop-color="#5D9DF6"/>
<stop offset="1" stop-color="#006FFF"/>
</radialGradient>
<clipPath id="clip0_12222_290">
<rect width="79.7538" height="79.7538" fill="white" transform="translate(68.125 86.123)"/>
</clipPath>
<clipPath id="clip1_12222_290">
<rect width="79.7538" height="79.7538" fill="white" transform="translate(204.371 86.123)"/>
</clipPath>
<clipPath id="clip2_12222_290">
<rect width="79.7538" height="79.7538" fill="white" transform="translate(340.617 86.123)"/>
</clipPath>
<clipPath id="clip3_12222_290">
<rect width="79.7538" height="79.7538" fill="white" transform="translate(476.863 86.123)"/>
</clipPath>
<clipPath id="clip4_12222_290">
<rect width="56.0141" height="47.8169" fill="white" transform="translate(489.16 101.407)"/>
</clipPath>
</defs>
</svg>
