<svg width="410" height="160" viewBox="0 0 410 160" fill="none" xmlns="http://www.w3.org/2000/svg">
<path d="M0 24C0 10.7452 10.7452 0 24 0H386C399.255 0 410 10.7452 410 24V160H0V24Z" fill="#2241AC"/>
<path d="M25 45C25 33.9543 33.9543 25 45 25H175C186.046 25 195 33.9543 195 45V160H25V45Z" fill="#171C2C"/>
<path d="M45 25.5H175C185.77 25.5 194.5 34.2304 194.5 45V159.5H25.5V45C25.5 34.2304 34.2304 25.5 45 25.5Z" stroke="white" stroke-opacity="0.14"/>
<path d="M89.8442 58V94.3298H101.828V102.151H68.7148V94.3298H81.5816V66.8302L74.7067 70.9929L70.4178 64.5595L81.5816 58.0631V58H89.8442Z" fill="url(#paint0_linear_12223_295)"/>
<path d="M118.533 80.3908C116.431 80.3908 114.56 79.9493 112.92 79.0662C111.322 78.1412 110.082 76.8797 109.199 75.2819C108.316 73.684 107.874 71.918 107.874 69.9838C107.874 68.0075 108.316 66.2205 109.199 64.6226C110.082 63.0248 111.322 61.7633 112.92 60.8383C114.56 59.9132 116.431 59.4507 118.533 59.4507C120.636 59.4507 122.486 59.9132 124.084 60.8383C125.724 61.7633 126.985 63.0248 127.868 64.6226C128.793 66.2205 129.256 68.0075 129.256 69.9838C129.256 71.918 128.814 73.684 127.931 75.2819C127.048 76.8797 125.787 78.1412 124.147 79.0662C122.507 79.9493 120.636 80.3908 118.533 80.3908ZM119.101 102.151H114.434L141.302 60.0814H146.033L119.101 102.151ZM118.533 75.5972C120.005 75.5972 121.224 75.0927 122.192 74.0835C123.159 73.0323 123.642 71.6657 123.642 69.9838C123.642 68.2178 123.159 66.8302 122.192 65.821C121.224 64.7698 120.005 64.2442 118.533 64.2442C117.062 64.2442 115.842 64.7698 114.875 65.821C113.95 66.8302 113.487 68.2178 113.487 69.9838C113.487 71.6657 113.95 73.0323 114.875 74.0835C115.842 75.0927 117.062 75.5972 118.533 75.5972ZM141.618 102.908C139.515 102.908 137.644 102.466 136.004 101.583C134.407 100.658 133.166 99.3966 132.283 97.7988C131.4 96.2009 130.959 94.4349 130.959 92.5007C130.959 90.5244 131.4 88.7374 132.283 87.1395C133.166 85.5417 134.407 84.2802 136.004 83.3552C137.644 82.4301 139.515 81.9676 141.618 81.9676C143.72 81.9676 145.57 82.4301 147.168 83.3552C148.766 84.2802 150.006 85.5417 150.89 87.1395C151.815 88.7374 152.277 90.5244 152.277 92.5007C152.277 94.4349 151.836 96.2009 150.953 97.7988C150.07 99.3966 148.808 100.658 147.168 101.583C145.57 102.466 143.72 102.908 141.618 102.908ZM141.618 98.1141C143.09 98.1141 144.309 97.6096 145.276 96.6004C146.243 95.5492 146.727 94.1826 146.727 92.5007C146.727 90.7347 146.243 89.3471 145.276 88.3379C144.309 87.2867 143.09 86.7611 141.618 86.7611C140.104 86.7611 138.864 87.2867 137.897 88.3379C136.972 89.3471 136.509 90.7347 136.509 92.5007C136.509 94.1826 136.972 95.5492 137.897 96.6004C138.864 97.6096 140.104 98.1141 141.618 98.1141Z" fill="url(#paint1_linear_12223_295)"/>
<path d="M56 125.457C56 124.386 56.2624 123.397 56.7871 122.489C57.3228 121.582 58.0444 120.866 58.9518 120.341C59.8592 119.805 60.8486 119.537 61.92 119.537C63.0132 119.537 64.0245 119.822 64.9538 120.39C65.883 120.948 66.5991 121.691 67.102 122.62L65.2162 123.621C64.8882 123.041 64.429 122.577 63.8387 122.227C63.2483 121.866 62.6087 121.686 61.92 121.686C61.2422 121.686 60.6081 121.855 60.0177 122.194C59.4383 122.533 58.9791 122.992 58.6402 123.571C58.3013 124.151 58.1319 124.779 58.1319 125.457C58.1319 126.135 58.3013 126.764 58.6402 127.343C58.9791 127.923 59.4383 128.382 60.0177 128.721C60.6081 129.06 61.2422 129.229 61.92 129.229C62.6306 129.229 63.2756 129.049 63.8551 128.688C64.4454 128.327 64.9046 127.846 65.2326 127.245L67.1184 128.278C66.6155 129.218 65.8994 129.972 64.9702 130.541C64.0409 131.099 63.0242 131.377 61.92 131.377C60.8486 131.377 59.8592 131.115 58.9518 130.59C58.0444 130.054 57.3228 129.333 56.7871 128.425C56.2624 127.518 56 126.529 56 125.457Z" fill="white"/>
<path d="M73.3747 122.965L73.2271 124.9C73.1178 124.867 72.9975 124.851 72.8663 124.851C72.1885 124.851 71.6309 125.042 71.1936 125.424C70.7563 125.796 70.5377 126.315 70.5377 126.982V131.164H68.5042V122.965H70.5377V124.457C70.7235 124.031 71.0406 123.675 71.4888 123.391C71.937 123.107 72.4782 122.965 73.1123 122.965H73.3747Z" fill="white"/>
<path d="M80.7003 122.965H82.8322L79.9624 131.18C79.536 132.307 78.9456 133.148 78.1913 133.706C77.4479 134.274 76.5678 134.52 75.5511 134.444V132.476C75.6167 132.487 75.7151 132.492 75.8462 132.492C76.7208 132.492 77.4041 131.962 77.8961 130.902L74.2884 122.965H76.4694L78.88 128.18L80.7003 122.965Z" fill="white"/>
<path d="M88.5425 122.751C89.3624 122.751 90.084 122.937 90.7072 123.309C91.3303 123.681 91.8059 124.195 92.1339 124.851C92.4728 125.506 92.6422 126.244 92.6422 127.064C92.6422 127.884 92.4728 128.622 92.1339 129.278C91.8059 129.934 91.3303 130.453 90.7072 130.836C90.084 131.208 89.3624 131.394 88.5425 131.394C87.5804 131.394 86.7878 131.038 86.1647 130.328V134.444H84.1312V122.965H86.1647V123.817C86.7878 123.107 87.5804 122.751 88.5425 122.751ZM88.4769 129.475C89.111 129.475 89.6303 129.24 90.0348 128.77C90.4502 128.3 90.658 127.731 90.658 127.064C90.658 126.387 90.4502 125.813 90.0348 125.342C89.6303 124.872 89.111 124.637 88.4769 124.637C87.81 124.637 87.2579 124.872 86.8206 125.342C86.3833 125.802 86.1647 126.381 86.1647 127.081C86.1647 127.78 86.3779 128.354 86.8042 128.803C87.2415 129.251 87.7991 129.475 88.4769 129.475Z" fill="white"/>
<path d="M97.0635 128.36C97.0635 128.732 97.1509 128.989 97.3258 129.131C97.5008 129.273 97.7795 129.344 98.1622 129.344C98.3918 129.344 98.6432 129.327 98.9165 129.295V131.164C98.4027 131.219 97.9763 131.246 97.6374 131.246C96.7628 131.246 96.1069 131.049 95.6696 130.656C95.2432 130.251 95.03 129.53 95.03 128.491V124.785H93.4885V122.965H95.03V120.948L97.0635 120.259V122.965H98.8837V124.785H97.0635V128.36Z" fill="white"/>
<path d="M104.5 131.394C103.713 131.394 102.986 131.202 102.319 130.82C101.663 130.426 101.138 129.901 100.745 129.245C100.362 128.579 100.171 127.857 100.171 127.081C100.171 126.305 100.362 125.588 100.745 124.933C101.138 124.266 101.663 123.741 102.319 123.358C102.986 122.965 103.713 122.768 104.5 122.768C105.276 122.768 105.992 122.965 106.648 123.358C107.304 123.741 107.824 124.266 108.206 124.933C108.6 125.588 108.797 126.305 108.797 127.081C108.797 127.857 108.6 128.579 108.206 129.245C107.824 129.901 107.304 130.426 106.648 130.82C105.992 131.202 105.276 131.394 104.5 131.394ZM104.484 129.36C104.899 129.36 105.282 129.262 105.632 129.065C105.981 128.857 106.26 128.579 106.468 128.229C106.676 127.879 106.779 127.496 106.779 127.081C106.779 126.665 106.676 126.283 106.468 125.933C106.26 125.583 105.981 125.304 105.632 125.097C105.282 124.889 104.899 124.785 104.484 124.785C104.068 124.785 103.686 124.889 103.336 125.097C102.986 125.304 102.707 125.583 102.499 125.933C102.303 126.283 102.204 126.665 102.204 127.081C102.204 127.496 102.303 127.879 102.499 128.229C102.707 128.579 102.986 128.857 103.336 129.065C103.686 129.262 104.068 129.36 104.484 129.36Z" fill="white"/>
<path d="M118.037 128.36C118.037 128.732 118.124 128.989 118.299 129.131C118.474 129.273 118.753 129.344 119.135 129.344C119.365 129.344 119.616 129.327 119.89 129.295V131.164C119.376 131.219 118.949 131.246 118.611 131.246C117.736 131.246 117.08 131.049 116.643 130.656C116.216 130.251 116.003 129.53 116.003 128.491V124.785H114.462V122.965H116.003V120.948L118.037 120.259V122.965H119.857V124.785H118.037V128.36Z" fill="white"/>
<path d="M125.473 131.394C124.686 131.394 123.959 131.202 123.292 130.82C122.636 130.426 122.111 129.901 121.718 129.245C121.335 128.579 121.144 127.857 121.144 127.081C121.144 126.305 121.335 125.588 121.718 124.933C122.111 124.266 122.636 123.741 123.292 123.358C123.959 122.965 124.686 122.768 125.473 122.768C126.249 122.768 126.965 122.965 127.621 123.358C128.277 123.741 128.797 124.266 129.179 124.933C129.573 125.588 129.77 126.305 129.77 127.081C129.77 127.857 129.573 128.579 129.179 129.245C128.797 129.901 128.277 130.426 127.621 130.82C126.965 131.202 126.249 131.394 125.473 131.394ZM125.457 129.36C125.872 129.36 126.255 129.262 126.605 129.065C126.955 128.857 127.233 128.579 127.441 128.229C127.649 127.879 127.753 127.496 127.753 127.081C127.753 126.665 127.649 126.283 127.441 125.933C127.233 125.583 126.955 125.304 126.605 125.097C126.255 124.889 125.872 124.785 125.457 124.785C125.041 124.785 124.659 124.889 124.309 125.097C123.959 125.304 123.68 125.583 123.472 125.933C123.276 126.283 123.177 126.665 123.177 127.081C123.177 127.496 123.276 127.879 123.472 128.229C123.68 128.579 123.959 128.857 124.309 129.065C124.659 129.262 125.041 129.36 125.457 129.36Z" fill="white"/>
<path d="M143.011 119.685V121.718H138.272V124.473H142.831V126.507H138.272V131.164H136.14V119.685H143.011Z" fill="white"/>
<path d="M144.928 131.164V122.965H146.945V131.164H144.928ZM145.944 121.062C145.649 121.062 145.392 120.959 145.174 120.751C144.966 120.543 144.862 120.286 144.862 119.98C144.862 119.674 144.966 119.417 145.174 119.209C145.392 118.991 145.649 118.881 145.944 118.881C146.239 118.881 146.491 118.991 146.699 119.209C146.917 119.417 147.027 119.674 147.027 119.98C147.027 120.286 146.917 120.543 146.699 120.751C146.491 120.959 146.239 121.062 145.944 121.062Z" fill="white"/>
<path d="M155.047 122.965H157.08V131.164H155.047V130.311C154.435 131.033 153.642 131.394 152.669 131.394C151.849 131.394 151.127 131.208 150.504 130.836C149.881 130.464 149.4 129.951 149.061 129.295C148.722 128.639 148.553 127.901 148.553 127.081C148.553 126.261 148.722 125.523 149.061 124.867C149.4 124.211 149.881 123.697 150.504 123.325C151.127 122.943 151.849 122.751 152.669 122.751C153.62 122.751 154.413 123.112 155.047 123.834V122.965ZM152.718 129.491C153.385 129.491 153.937 129.262 154.374 128.803C154.823 128.343 155.047 127.764 155.047 127.064C155.047 126.365 154.828 125.791 154.391 125.342C153.953 124.894 153.396 124.67 152.718 124.67C152.084 124.67 151.565 124.905 151.16 125.375C150.756 125.845 150.553 126.414 150.553 127.081C150.553 127.759 150.756 128.333 151.16 128.803C151.565 129.262 152.084 129.491 152.718 129.491Z" fill="white"/>
<path d="M161.824 128.36C161.824 128.732 161.912 128.989 162.087 129.131C162.262 129.273 162.541 129.344 162.923 129.344C163.153 129.344 163.404 129.327 163.678 129.295V131.164C163.164 131.219 162.737 131.246 162.398 131.246C161.524 131.246 160.868 131.049 160.431 130.656C160.004 130.251 159.791 129.53 159.791 128.491V124.785H158.249V122.965H159.791V120.948L161.824 120.259V122.965H163.645V124.785H161.824V128.36Z" fill="white"/>
<path d="M205 45C205 33.9543 213.954 25 225 25H365C376.046 25 385 33.9543 385 45V160H205V45Z" fill="#171C2C"/>
<path d="M225 25.5H365C375.77 25.5 384.5 34.2304 384.5 45V159.5H205.5V45C205.5 34.2304 214.23 25.5 225 25.5Z" stroke="white" stroke-opacity="0.14"/>
<path d="M270.71 101.791C267.052 101.791 263.856 100.845 261.123 98.9524C258.432 97.0182 256.351 94.3271 254.879 90.8791C253.449 87.4312 252.734 83.4366 252.734 78.8953C252.734 74.3541 253.449 70.3595 254.879 66.9116C256.351 63.4636 258.432 60.7935 261.123 58.9013C263.856 56.9671 267.052 56 270.71 56C274.368 56 277.543 56.9671 280.234 58.9013C282.925 60.7935 284.985 63.4636 286.415 66.9116C287.887 70.3595 288.623 74.3541 288.623 78.8953C288.623 83.4366 287.887 87.4312 286.415 90.8791C284.985 94.3271 282.925 97.0182 280.234 98.9524C277.543 100.845 274.368 101.791 270.71 101.791ZM270.71 93.5282C273.695 93.5282 276.05 92.3298 277.774 89.933C279.54 87.4942 280.423 83.815 280.423 78.8953C280.423 73.9757 279.54 70.3175 277.774 67.9207C276.05 65.4819 273.695 64.2625 270.71 64.2625C267.725 64.2625 265.349 65.4819 263.583 67.9207C261.859 70.3175 260.997 73.9757 260.997 78.8953C260.997 83.815 261.859 87.4942 263.583 89.933C265.349 92.3298 267.725 93.5282 270.71 93.5282Z" fill="url(#paint2_linear_12223_295)"/>
<path d="M303.94 79.2107C301.838 79.2107 299.967 78.7692 298.327 77.8862C296.729 76.9611 295.489 75.6997 294.606 74.1018C293.723 72.504 293.281 70.738 293.281 68.8037C293.281 66.8275 293.723 65.0404 294.606 63.4426C295.489 61.8447 296.729 60.5833 298.327 59.6582C299.967 58.7331 301.838 58.2706 303.94 58.2706C306.043 58.2706 307.893 58.7331 309.491 59.6582C311.131 60.5833 312.392 61.8447 313.275 63.4426C314.2 65.0404 314.663 66.8275 314.663 68.8037C314.663 70.738 314.221 72.504 313.338 74.1018C312.455 75.6997 311.194 76.9611 309.554 77.8862C307.914 78.7692 306.043 79.2107 303.94 79.2107ZM304.508 100.971H299.841L326.71 58.9013H331.44L304.508 100.971ZM303.94 74.4172C305.412 74.4172 306.632 73.9126 307.599 72.9034C308.566 71.8522 309.049 70.4857 309.049 68.8037C309.049 67.0377 308.566 65.6501 307.599 64.6409C306.632 63.5897 305.412 63.0641 303.94 63.0641C302.469 63.0641 301.249 63.5897 300.282 64.6409C299.357 65.6501 298.895 67.0377 298.895 68.8037C298.895 70.4857 299.357 71.8522 300.282 72.9034C301.249 73.9126 302.469 74.4172 303.94 74.4172ZM327.025 101.728C324.923 101.728 323.051 101.286 321.412 100.403C319.814 99.478 318.573 98.2166 317.69 96.6187C316.807 95.0209 316.366 93.2549 316.366 91.3206C316.366 89.3444 316.807 87.5573 317.69 85.9595C318.573 84.3616 319.814 83.1002 321.412 82.1751C323.051 81.25 324.923 80.7875 327.025 80.7875C329.127 80.7875 330.978 81.25 332.575 82.1751C334.173 83.1002 335.414 84.3616 336.297 85.9595C337.222 87.5573 337.684 89.3444 337.684 91.3206C337.684 93.2549 337.243 95.0209 336.36 96.6187C335.477 98.2166 334.215 99.478 332.575 100.403C330.978 101.286 329.127 101.728 327.025 101.728ZM327.025 96.9341C328.497 96.9341 329.716 96.4295 330.683 95.4204C331.65 94.3691 332.134 93.0026 332.134 91.3206C332.134 89.5546 331.65 88.167 330.683 87.1578C329.716 86.1066 328.497 85.581 327.025 85.581C325.511 85.581 324.271 86.1066 323.304 87.1578C322.379 88.167 321.916 89.5546 321.916 91.3206C321.916 93.0026 322.379 94.3691 323.304 95.4204C324.271 96.4295 325.511 96.9341 327.025 96.9341Z" fill="url(#paint3_linear_12223_295)"/>
<path d="M229 124.277C229 123.206 229.262 122.217 229.787 121.309C230.323 120.402 231.044 119.686 231.952 119.161C232.859 118.625 233.849 118.357 234.92 118.357C236.013 118.357 237.025 118.642 237.954 119.21C238.883 119.768 239.599 120.511 240.102 121.44L238.216 122.441C237.888 121.861 237.429 121.397 236.839 121.047C236.248 120.686 235.609 120.506 234.92 120.506C234.242 120.506 233.608 120.675 233.018 121.014C232.438 121.353 231.979 121.812 231.64 122.392C231.301 122.971 231.132 123.6 231.132 124.277C231.132 124.955 231.301 125.584 231.64 126.163C231.979 126.743 232.438 127.202 233.018 127.541C233.608 127.88 234.242 128.049 234.92 128.049C235.631 128.049 236.276 127.869 236.855 127.508C237.445 127.147 237.905 126.666 238.233 126.065L240.118 127.098C239.616 128.038 238.899 128.793 237.97 129.361C237.041 129.919 236.024 130.197 234.92 130.197C233.849 130.197 232.859 129.935 231.952 129.41C231.044 128.875 230.323 128.153 229.787 127.246C229.262 126.338 229 125.349 229 124.277Z" fill="white"/>
<path d="M246.375 121.785L246.227 123.72C246.118 123.687 245.998 123.671 245.866 123.671C245.188 123.671 244.631 123.862 244.194 124.245C243.756 124.616 243.538 125.136 243.538 125.803V129.984H241.504V121.785H243.538V123.277C243.724 122.851 244.041 122.495 244.489 122.211C244.937 121.927 245.478 121.785 246.112 121.785H246.375Z" fill="white"/>
<path d="M253.7 121.785H255.832L252.962 130.001C252.536 131.127 251.946 131.968 251.191 132.526C250.448 133.095 249.568 133.341 248.551 133.264V131.296C248.617 131.307 248.715 131.313 248.846 131.313C249.721 131.313 250.404 130.782 250.896 129.722L247.288 121.785H249.469L251.88 127L253.7 121.785Z" fill="white"/>
<path d="M261.543 121.572C262.362 121.572 263.084 121.757 263.707 122.129C264.33 122.501 264.806 123.015 265.134 123.671C265.473 124.327 265.642 125.065 265.642 125.885C265.642 126.704 265.473 127.442 265.134 128.098C264.806 128.754 264.33 129.274 263.707 129.656C263.084 130.028 262.362 130.214 261.543 130.214C260.58 130.214 259.788 129.858 259.165 129.148V133.264H257.131V121.785H259.165V122.638C259.788 121.927 260.58 121.572 261.543 121.572ZM261.477 128.295C262.111 128.295 262.63 128.06 263.035 127.59C263.45 127.12 263.658 126.551 263.658 125.885C263.658 125.207 263.45 124.633 263.035 124.163C262.63 123.693 262.111 123.457 261.477 123.457C260.81 123.457 260.258 123.693 259.821 124.163C259.383 124.622 259.165 125.201 259.165 125.901C259.165 126.601 259.378 127.175 259.804 127.623C260.242 128.071 260.799 128.295 261.477 128.295Z" fill="white"/>
<path d="M270.063 127.18C270.063 127.552 270.151 127.809 270.326 127.951C270.501 128.093 270.78 128.164 271.162 128.164C271.392 128.164 271.643 128.148 271.917 128.115V129.984C271.403 130.039 270.976 130.066 270.637 130.066C269.763 130.066 269.107 129.869 268.67 129.476C268.243 129.071 268.03 128.35 268.03 127.311V123.605H266.489V121.785H268.03V119.768L270.063 119.079V121.785H271.884V123.605H270.063V127.18Z" fill="white"/>
<path d="M277.5 130.214C276.713 130.214 275.986 130.022 275.319 129.64C274.663 129.246 274.138 128.722 273.745 128.066C273.362 127.399 273.171 126.677 273.171 125.901C273.171 125.125 273.362 124.409 273.745 123.753C274.138 123.086 274.663 122.561 275.319 122.178C275.986 121.785 276.713 121.588 277.5 121.588C278.276 121.588 278.992 121.785 279.648 122.178C280.304 122.561 280.824 123.086 281.206 123.753C281.6 124.409 281.797 125.125 281.797 125.901C281.797 126.677 281.6 127.399 281.206 128.066C280.824 128.722 280.304 129.246 279.648 129.64C278.992 130.022 278.276 130.214 277.5 130.214ZM277.484 128.18C277.899 128.18 278.282 128.082 278.632 127.885C278.981 127.677 279.26 127.399 279.468 127.049C279.676 126.699 279.779 126.316 279.779 125.901C279.779 125.485 279.676 125.103 279.468 124.753C279.26 124.403 278.981 124.124 278.632 123.917C278.282 123.709 277.899 123.605 277.484 123.605C277.068 123.605 276.686 123.709 276.336 123.917C275.986 124.124 275.707 124.403 275.499 124.753C275.303 125.103 275.204 125.485 275.204 125.901C275.204 126.316 275.303 126.699 275.499 127.049C275.707 127.399 275.986 127.677 276.336 127.885C276.686 128.082 277.068 128.18 277.484 128.18Z" fill="white"/>
<path d="M291.037 127.18C291.037 127.552 291.124 127.809 291.299 127.951C291.474 128.093 291.753 128.164 292.135 128.164C292.365 128.164 292.616 128.148 292.89 128.115V129.984C292.376 130.039 291.949 130.066 291.611 130.066C290.736 130.066 290.08 129.869 289.643 129.476C289.216 129.071 289.003 128.35 289.003 127.311V123.605H287.462V121.785H289.003V119.768L291.037 119.079V121.785H292.857V123.605H291.037V127.18Z" fill="white"/>
<path d="M298.473 130.214C297.686 130.214 296.959 130.022 296.292 129.64C295.636 129.246 295.111 128.722 294.718 128.066C294.335 127.399 294.144 126.677 294.144 125.901C294.144 125.125 294.335 124.409 294.718 123.753C295.111 123.086 295.636 122.561 296.292 122.178C296.959 121.785 297.686 121.588 298.473 121.588C299.249 121.588 299.965 121.785 300.621 122.178C301.277 122.561 301.797 123.086 302.179 123.753C302.573 124.409 302.77 125.125 302.77 125.901C302.77 126.677 302.573 127.399 302.179 128.066C301.797 128.722 301.277 129.246 300.621 129.64C299.965 130.022 299.249 130.214 298.473 130.214ZM298.457 128.18C298.872 128.18 299.255 128.082 299.605 127.885C299.955 127.677 300.233 127.399 300.441 127.049C300.649 126.699 300.753 126.316 300.753 125.901C300.753 125.485 300.649 125.103 300.441 124.753C300.233 124.403 299.955 124.124 299.605 123.917C299.255 123.709 298.872 123.605 298.457 123.605C298.041 123.605 297.659 123.709 297.309 123.917C296.959 124.124 296.68 124.403 296.472 124.753C296.276 125.103 296.177 125.485 296.177 125.901C296.177 126.316 296.276 126.699 296.472 127.049C296.68 127.399 296.959 127.677 297.309 127.885C297.659 128.082 298.041 128.18 298.457 128.18Z" fill="white"/>
<path d="M308.845 124.277C308.845 123.206 309.107 122.217 309.632 121.309C310.168 120.402 310.889 119.686 311.796 119.161C312.704 118.625 313.693 118.357 314.765 118.357C315.858 118.357 316.869 118.642 317.798 119.21C318.728 119.768 319.444 120.511 319.947 121.44L318.061 122.441C317.733 121.861 317.274 121.397 316.683 121.047C316.093 120.686 315.453 120.506 314.765 120.506C314.087 120.506 313.453 120.675 312.862 121.014C312.283 121.353 311.824 121.812 311.485 122.392C311.146 122.971 310.977 123.6 310.977 124.277C310.977 124.955 311.146 125.584 311.485 126.163C311.824 126.743 312.283 127.202 312.862 127.541C313.453 127.88 314.087 128.049 314.765 128.049C315.475 128.049 316.12 127.869 316.7 127.508C317.29 127.147 317.749 126.666 318.077 126.065L319.963 127.098C319.46 128.038 318.744 128.793 317.815 129.361C316.886 129.919 315.869 130.197 314.765 130.197C313.693 130.197 312.704 129.935 311.796 129.41C310.889 128.875 310.168 128.153 309.632 127.246C309.107 126.338 308.845 125.349 308.845 124.277Z" fill="white"/>
<path d="M326.219 121.785L326.072 123.72C325.962 123.687 325.842 123.671 325.711 123.671C325.033 123.671 324.476 123.862 324.038 124.245C323.601 124.616 323.382 125.136 323.382 125.803V129.984H321.349V121.785H323.382V123.277C323.568 122.851 323.885 122.495 324.333 122.211C324.782 121.927 325.323 121.785 325.957 121.785H326.219Z" fill="white"/>
<path d="M333.545 121.785H335.677L332.807 130.001C332.381 131.127 331.79 131.968 331.036 132.526C330.293 133.095 329.412 133.341 328.396 133.264V131.296C328.461 131.307 328.56 131.313 328.691 131.313C329.566 131.313 330.249 130.782 330.741 129.722L327.133 121.785H329.314L331.725 127L333.545 121.785Z" fill="white"/>
<path d="M341.387 121.572C342.207 121.572 342.929 121.757 343.552 122.129C344.175 122.501 344.651 123.015 344.979 123.671C345.317 124.327 345.487 125.065 345.487 125.885C345.487 126.704 345.317 127.442 344.979 128.098C344.651 128.754 344.175 129.274 343.552 129.656C342.929 130.028 342.207 130.214 341.387 130.214C340.425 130.214 339.633 129.858 339.009 129.148V133.264H336.976V121.785H339.009V122.638C339.633 121.927 340.425 121.572 341.387 121.572ZM341.322 128.295C341.956 128.295 342.475 128.06 342.879 127.59C343.295 127.12 343.503 126.551 343.503 125.885C343.503 125.207 343.295 124.633 342.879 124.163C342.475 123.693 341.956 123.457 341.322 123.457C340.655 123.457 340.103 123.693 339.665 124.163C339.228 124.622 339.009 125.201 339.009 125.901C339.009 126.601 339.223 127.175 339.649 127.623C340.086 128.071 340.644 128.295 341.322 128.295Z" fill="white"/>
<path d="M349.908 127.18C349.908 127.552 349.996 127.809 350.171 127.951C350.345 128.093 350.624 128.164 351.007 128.164C351.236 128.164 351.488 128.148 351.761 128.115V129.984C351.247 130.039 350.821 130.066 350.482 130.066C349.607 130.066 348.952 129.869 348.514 129.476C348.088 129.071 347.875 128.35 347.875 127.311V123.605H346.333V121.785H347.875V119.768L349.908 119.079V121.785H351.728V123.605H349.908V127.18Z" fill="white"/>
<path d="M357.345 130.214C356.558 130.214 355.831 130.022 355.164 129.64C354.508 129.246 353.983 128.722 353.589 128.066C353.207 127.399 353.015 126.677 353.015 125.901C353.015 125.125 353.207 124.409 353.589 123.753C353.983 123.086 354.508 122.561 355.164 122.178C355.831 121.785 356.558 121.588 357.345 121.588C358.121 121.588 358.837 121.785 359.493 122.178C360.149 122.561 360.668 123.086 361.051 123.753C361.444 124.409 361.641 125.125 361.641 125.901C361.641 126.677 361.444 127.399 361.051 128.066C360.668 128.722 360.149 129.246 359.493 129.64C358.837 130.022 358.121 130.214 357.345 130.214ZM357.328 128.18C357.744 128.18 358.126 128.082 358.476 127.885C358.826 127.677 359.105 127.399 359.313 127.049C359.52 126.699 359.624 126.316 359.624 125.901C359.624 125.485 359.52 125.103 359.313 124.753C359.105 124.403 358.826 124.124 358.476 123.917C358.126 123.709 357.744 123.605 357.328 123.605C356.913 123.605 356.53 123.709 356.18 123.917C355.831 124.124 355.552 124.403 355.344 124.753C355.147 125.103 355.049 125.485 355.049 125.901C355.049 126.316 355.147 126.699 355.344 127.049C355.552 127.399 355.831 127.677 356.18 127.885C356.53 128.082 356.913 128.18 357.328 128.18Z" fill="white"/>
<defs>
<linearGradient id="paint0_linear_12223_295" x1="52.4416" y1="14.4449" x2="163.453" y2="78.7799" gradientUnits="userSpaceOnUse">
<stop stop-color="#2241AC"/>
<stop offset="1" stop-color="#4FC0FF"/>
</linearGradient>
<linearGradient id="paint1_linear_12223_295" x1="52.4416" y1="14.4449" x2="163.453" y2="78.7799" gradientUnits="userSpaceOnUse">
<stop stop-color="#2241AC"/>
<stop offset="1" stop-color="#4FC0FF"/>
</linearGradient>
<linearGradient id="paint2_linear_12223_295" x1="239.07" y1="13.2647" x2="344.782" y2="69.1361" gradientUnits="userSpaceOnUse">
<stop stop-color="#2241AC"/>
<stop offset="1" stop-color="#4FC0FF"/>
</linearGradient>
<linearGradient id="paint3_linear_12223_295" x1="239.07" y1="13.2647" x2="344.782" y2="69.1361" gradientUnits="userSpaceOnUse">
<stop stop-color="#2241AC"/>
<stop offset="1" stop-color="#4FC0FF"/>
</linearGradient>
</defs>
</svg>
