<svg width="146" height="45" viewBox="0 0 146 45" fill="none" xmlns="http://www.w3.org/2000/svg">
<rect width="146" height="45" rx="8" fill="#FFE6CE"/>
<g clip-path="url(#clip0_11615_1890)">
<path d="M117.01 22.5974C116.414 22.191 115.757 21.902 115.135 21.5408C114.732 21.306 114.302 21.0982 113.952 20.8002C113.356 20.2944 113.479 19.301 114.101 18.8675C114.995 18.2534 116.475 18.5966 116.633 19.8519C116.633 19.879 116.659 19.8971 116.686 19.8971H118.035C118.07 19.8971 118.097 19.87 118.088 19.8339C118.018 18.9669 117.693 18.2444 117.098 17.7838C116.528 17.3413 115.88 17.1064 115.187 17.1064C111.622 17.1064 111.297 20.9989 113.216 22.2271C113.435 22.3716 115.319 23.347 115.985 23.7714C116.651 24.1959 116.861 24.9726 116.572 25.5867C116.309 26.1466 115.626 26.535 114.942 26.4898C114.197 26.4446 113.619 26.0292 113.418 25.379C113.382 25.2616 113.365 25.0358 113.365 24.9365C113.365 24.9094 113.339 24.8822 113.312 24.8822H111.849C111.823 24.8822 111.797 24.9094 111.797 24.9365C111.797 26.0292 112.06 26.6343 112.778 27.1852C113.453 27.709 114.188 27.9258 114.951 27.9258C116.949 27.9258 117.983 26.7607 118.192 25.5506C118.377 24.3675 118.035 23.3018 117.01 22.5974Z" fill="black"/>
<path d="M53.4784 17.3057H52.83H52.1204C52.094 17.3057 52.0765 17.3237 52.0677 17.3418L50.8675 21.4239C50.8499 21.4781 50.7799 21.4781 50.7623 21.4239L49.562 17.3418C49.5532 17.3147 49.5357 17.3057 49.5094 17.3057H48.7998H48.1514H47.2753C47.249 17.3057 47.2227 17.3328 47.2227 17.3598V27.7818C47.2227 27.8089 47.249 27.836 47.2753 27.836H48.7384C48.7647 27.836 48.791 27.8089 48.791 27.7818V19.8615C48.791 19.7983 48.8786 19.7893 48.8962 19.8434L50.1052 23.9526L50.1928 24.2416C50.2016 24.2687 50.2191 24.2777 50.2454 24.2777H51.3669C51.3931 24.2777 51.4107 24.2596 51.4194 24.2416L51.507 23.9526L52.7161 19.8434C52.7337 19.7802 52.8213 19.7983 52.8213 19.8615V27.7818C52.8213 27.8089 52.8476 27.836 52.8738 27.836H54.337C54.3633 27.836 54.3896 27.8089 54.3896 27.7818V17.3598C54.3896 17.3328 54.3633 17.3057 54.337 17.3057H53.4784Z" fill="black"/>
<path d="M94.6076 17.3057C94.5813 17.3057 94.5638 17.3237 94.555 17.3418L93.3552 21.4239C93.3377 21.4781 93.2675 21.4781 93.25 21.4239L92.0495 17.3418C92.0408 17.3147 92.0232 17.3057 91.9969 17.3057H89.7714C89.745 17.3057 89.7188 17.3328 89.7188 17.3598V27.7818C89.7188 27.8089 89.745 27.836 89.7714 27.836H91.2348C91.2611 27.836 91.2874 27.8089 91.2874 27.7818V19.8615C91.2874 19.7983 91.3751 19.7893 91.3927 19.8434L92.6012 23.9526L92.6889 24.2416C92.6977 24.2687 92.7152 24.2777 92.7415 24.2777H93.863C93.8894 24.2777 93.9069 24.2596 93.9157 24.2416L94.0033 23.9526L95.2126 19.8434C95.2301 19.7802 95.3178 19.7983 95.3178 19.8615V27.7818C95.3178 27.8089 95.3441 27.836 95.3704 27.836H96.8332C96.8595 27.836 96.8858 27.8089 96.8858 27.7818V17.3598C96.8858 17.3328 96.8595 17.3057 96.8332 17.3057H94.6076Z" fill="black"/>
<path d="M75.7349 17.3057H73.0101H71.5469H68.8221C68.7958 17.3057 68.7695 17.3328 68.7695 17.3598V18.6603C68.7695 18.6874 68.7958 18.7145 68.8221 18.7145H71.4944V27.7818C71.4944 27.8089 71.5206 27.836 71.5469 27.836H73.0101C73.0364 27.836 73.0627 27.8089 73.0627 27.7818V18.7145H75.7349C75.7612 18.7145 75.7875 18.6874 75.7875 18.6603V17.3598C75.7875 17.3328 75.77 17.3057 75.7349 17.3057Z" fill="black"/>
<path d="M84.3654 27.836H85.6967C85.7318 27.836 85.7581 27.7999 85.7493 27.7638L82.9984 17.3057C82.9896 17.2786 82.9721 17.2695 82.9458 17.2695H82.4377H81.544H81.0359C81.0096 17.2695 80.992 17.2876 80.9833 17.3057L78.2322 27.7638C78.2234 27.7999 78.2497 27.836 78.2848 27.836H79.6165C79.6428 27.836 79.6603 27.8179 79.6691 27.7999L80.4664 24.7563C80.4751 24.7293 80.4926 24.7202 80.5189 24.7202H83.463C83.4893 24.7202 83.5069 24.7383 83.5156 24.7563L84.3128 27.7999C84.3216 27.8179 84.3479 27.836 84.3654 27.836ZM80.8693 23.2301L81.9383 19.157C81.9558 19.1029 82.0259 19.1029 82.0434 19.157L83.1123 23.2301C83.1211 23.2662 83.0948 23.3023 83.0597 23.3023H80.922C80.8869 23.3023 80.8606 23.2662 80.8693 23.2301Z" fill="black"/>
<path d="M107.076 27.836H108.408C108.443 27.836 108.469 27.7999 108.46 27.7638L105.709 17.3057C105.7 17.2786 105.683 17.2695 105.657 17.2695H105.149H104.255H103.747C103.72 17.2695 103.703 17.2876 103.694 17.3057L100.943 27.7638C100.934 27.7999 100.961 27.836 100.996 27.836H102.328C102.354 27.836 102.372 27.8179 102.38 27.7999L103.177 24.7563C103.186 24.7293 103.204 24.7202 103.23 24.7202H106.174C106.2 24.7202 106.218 24.7383 106.227 24.7563L107.024 27.7999C107.032 27.8179 107.05 27.836 107.076 27.836ZM103.58 23.2301L104.649 19.157C104.667 19.1029 104.737 19.1029 104.754 19.157L105.823 23.2301C105.832 23.2662 105.806 23.3023 105.771 23.3023H103.633C103.598 23.3023 103.571 23.2662 103.58 23.2301Z" fill="black"/>
<path d="M60.33 26.2914V23.0582C60.33 23.0312 60.3563 23.0041 60.3826 23.0041H64.2814C64.3077 23.0041 64.334 22.977 64.334 22.9499V21.6494C64.334 21.6223 64.3077 21.5952 64.2814 21.5952H60.3826C60.3563 21.5952 60.33 21.5681 60.33 21.541V18.7775C60.33 18.7504 60.3563 18.7233 60.3826 18.7233H64.8159C64.8422 18.7233 64.8685 18.6962 64.8685 18.6691V17.3686C64.8685 17.3416 64.8422 17.3145 64.8159 17.3145H60.33H58.8143C58.788 17.3145 58.7617 17.3416 58.7617 17.3686V18.7233V21.6042V23.0131V26.3546V27.7815C58.7617 27.8087 58.788 27.8358 58.8143 27.8358H60.33H64.9999C65.0262 27.8358 65.0525 27.8087 65.0525 27.7815V26.4089C65.0525 26.3817 65.0262 26.3546 64.9999 26.3546H60.3738C60.3475 26.3456 60.33 26.3275 60.33 26.2914Z" fill="black"/>
<path d="M130.378 27.7454L125.314 22.3538C125.297 22.3358 125.297 22.2997 125.314 22.2816L129.87 17.4048C129.906 17.3686 129.879 17.3145 129.835 17.3145H127.969C127.952 17.3145 127.943 17.3235 127.934 17.3325L124.07 21.4688C124.035 21.5049 123.983 21.4778 123.983 21.4326V17.3686C123.983 17.3416 123.956 17.3145 123.93 17.3145H122.467C122.44 17.3145 122.414 17.3416 122.414 17.3686V27.7906C122.414 27.8177 122.44 27.8448 122.467 27.8448H123.93C123.956 27.8448 123.983 27.8177 123.983 27.7906V23.2028C123.983 23.1576 124.044 23.1305 124.07 23.1666L128.451 27.8267C128.46 27.8358 128.477 27.8448 128.486 27.8448H130.352C130.387 27.8358 130.413 27.7725 130.378 27.7454Z" fill="black"/>
<path d="M37.229 11.6973L28.3711 18.4706L30.0183 14.4789L37.229 11.6973Z" fill="#E17726" stroke="#E17726" stroke-width="0.25" stroke-linecap="round" stroke-linejoin="round"/>
<path d="M16.7969 11.6973L25.5759 18.5338L24.0076 14.4789L16.7969 11.6973Z" fill="#E27625" stroke="#E27625" stroke-width="0.25" stroke-linecap="round" stroke-linejoin="round"/>
<path d="M34.0365 27.4023L31.6797 31.1232L36.7263 32.5592L38.172 27.4837L34.0365 27.4023Z" fill="#E27625" stroke="#E27625" stroke-width="0.25" stroke-linecap="round" stroke-linejoin="round"/>
<path d="M15.8594 27.4837L17.2963 32.5592L22.3341 31.1232L19.986 27.4023L15.8594 27.4837Z" fill="#E27625" stroke="#E27625" stroke-width="0.25" stroke-linecap="round" stroke-linejoin="round"/>
<path d="M22.062 21.1162L20.6602 23.3018L25.6542 23.5366L25.4877 17.9824L22.062 21.1162Z" fill="#E27625" stroke="#E27625" stroke-width="0.25" stroke-linecap="round" stroke-linejoin="round"/>
<path d="M31.9632 21.1169L28.485 17.9199L28.3711 23.5373L33.3651 23.3025L31.9632 21.1169Z" fill="#E27625" stroke="#E27625" stroke-width="0.25" stroke-linecap="round" stroke-linejoin="round"/>
<path d="M22.332 31.1229L25.3547 29.6148L22.7526 27.5195L22.332 31.1229Z" fill="#E27625" stroke="#E27625" stroke-width="0.25" stroke-linecap="round" stroke-linejoin="round"/>
<path d="M28.668 29.6148L31.6819 31.1229L31.2701 27.5195L28.668 29.6148Z" fill="#E27625" stroke="#E27625" stroke-width="0.25" stroke-linecap="round" stroke-linejoin="round"/>
<path d="M31.6819 31.1234L28.668 29.6152L28.9133 31.6382L28.887 32.4962L31.6819 31.1234Z" fill="#D5BFB2" stroke="#D5BFB2" stroke-width="0.25" stroke-linecap="round" stroke-linejoin="round"/>
<path d="M22.332 31.1234L25.1357 32.4962L25.1182 31.6382L25.3547 29.6152L22.332 31.1234Z" fill="#D5BFB2" stroke="#D5BFB2" stroke-width="0.25" stroke-linecap="round" stroke-linejoin="round"/>
<path d="M25.1894 26.1825L22.6836 25.4239L24.4534 24.584L25.1894 26.1825Z" fill="#233447" stroke="#233447" stroke-width="0.25" stroke-linecap="round" stroke-linejoin="round"/>
<path d="M28.8359 26.1825L29.5719 24.584L31.3505 25.4239L28.8359 26.1825Z" fill="#233447" stroke="#233447" stroke-width="0.25" stroke-linecap="round" stroke-linejoin="round"/>
<path d="M22.3324 31.1232L22.7705 27.4023L19.9844 27.4837L22.3324 31.1232Z" fill="#CC6228" stroke="#CC6228" stroke-width="0.25" stroke-linecap="round" stroke-linejoin="round"/>
<path d="M31.2539 27.4023L31.6832 31.1232L34.0401 27.4837L31.2539 27.4023Z" fill="#CC6228" stroke="#CC6228" stroke-width="0.25" stroke-linecap="round" stroke-linejoin="round"/>
<path d="M33.3651 23.3018L28.3711 23.5366L28.8354 26.1828L29.5714 24.5842L31.35 25.4241L33.3651 23.3018Z" fill="#CC6228" stroke="#CC6228" stroke-width="0.25" stroke-linecap="round" stroke-linejoin="round"/>
<path d="M22.6841 25.4241L24.4539 24.5842L25.1899 26.1828L25.6542 23.5366L20.6602 23.3018L22.6841 25.4241Z" fill="#CC6228" stroke="#CC6228" stroke-width="0.25" stroke-linecap="round" stroke-linejoin="round"/>
<path d="M20.6602 23.3018L22.7542 27.5193L22.684 25.4241L20.6602 23.3018Z" fill="#E27525" stroke="#E27525" stroke-width="0.25" stroke-linecap="round" stroke-linejoin="round"/>
<path d="M31.3484 25.4241L31.2695 27.5193L33.3635 23.3018L31.3484 25.4241Z" fill="#E27525" stroke="#E27525" stroke-width="0.25" stroke-linecap="round" stroke-linejoin="round"/>
<path d="M25.6558 23.5371L25.1914 26.1833L25.7784 29.308L25.9099 25.1898L25.6558 23.5371Z" fill="#E27525" stroke="#E27525" stroke-width="0.25" stroke-linecap="round" stroke-linejoin="round"/>
<path d="M28.3704 23.5371L28.125 25.1808L28.2477 29.308L28.8347 26.1833L28.3704 23.5371Z" fill="#E27525" stroke="#E27525" stroke-width="0.25" stroke-linecap="round" stroke-linejoin="round"/>
<path d="M28.8331 26.1835L28.2461 29.3082L28.6667 29.6153L31.2688 27.52L31.3477 25.4248L28.8331 26.1835Z" fill="#F5841F" stroke="#F5841F" stroke-width="0.25" stroke-linecap="round" stroke-linejoin="round"/>
<path d="M22.6836 25.4248L22.7537 27.52L25.3558 29.6153L25.7764 29.3082L25.1894 26.1835L22.6836 25.4248Z" fill="#F5841F" stroke="#F5841F" stroke-width="0.25" stroke-linecap="round" stroke-linejoin="round"/>
<path d="M28.8856 32.4958L28.9119 31.6378L28.6841 31.4391H25.3372L25.1182 31.6378L25.1357 32.4958L22.332 31.123L23.3133 31.9539L25.3022 33.3718H28.7103L30.708 31.9539L31.6805 31.123L28.8856 32.4958Z" fill="#C0AC9D" stroke="#C0AC9D" stroke-width="0.25" stroke-linecap="round" stroke-linejoin="round"/>
<path d="M28.6695 29.6146L28.2489 29.3076H25.7782L25.3577 29.6146L25.1211 31.6377L25.3401 31.439H28.687L28.9148 31.6377L28.6695 29.6146Z" fill="#233447"/>
<path d="M37.6046 18.9131L38.3494 15.1743L37.2279 11.6973L28.668 18.2449L31.9622 21.1167L36.6146 22.5166L37.6397 21.2793L37.1929 20.9451L37.9025 20.2769L37.3593 19.8434L38.069 19.2834L37.6046 18.9131Z" fill="#763E1A" stroke="#763E1A" stroke-width="0.25" stroke-linecap="round" stroke-linejoin="round"/>
<path d="M15.6758 15.1743L16.4293 18.9131L15.9474 19.2834L16.6658 19.8434L16.1226 20.2769L16.8323 20.9451L16.3855 21.2793L17.4106 22.5166L22.0629 21.1167L25.3572 18.2449L16.7973 11.6973L15.6758 15.1743Z" fill="#763E1A" stroke="#763E1A" stroke-width="0.25" stroke-linecap="round" stroke-linejoin="round"/>
<path d="M36.614 22.516L31.9617 21.1162L33.3635 23.3018L31.2695 27.5193L34.0382 27.4832H38.1736L36.614 22.516Z" fill="#F5841F" stroke="#F5841F" stroke-width="0.25" stroke-linecap="round" stroke-linejoin="round"/>
<path d="M22.0625 21.1162L17.4102 22.516L15.8594 27.4832H19.986L22.7546 27.5193L20.6607 23.3018L22.0625 21.1162Z" fill="#F5841F" stroke="#F5841F" stroke-width="0.25" stroke-linecap="round" stroke-linejoin="round"/>
<path d="M28.371 23.5368L28.6689 18.2445L30.0182 14.4785H24.0078L25.3571 18.2445L25.6549 23.5368L25.7689 25.1985L25.7776 29.3077H28.2484L28.2571 25.1985L28.371 23.5368Z" fill="#F5841F" stroke="#F5841F" stroke-width="0.25" stroke-linecap="round" stroke-linejoin="round"/>
</g>
<defs>
<clipPath id="clip0_11615_1890">
<rect width="116" height="23" fill="white" transform="translate(15 11)"/>
</clipPath>
</defs>
</svg>
