<svg width="175" height="45" viewBox="0 0 175 45" fill="none" xmlns="http://www.w3.org/2000/svg">
<rect width="175" height="45" rx="8" fill="#3396FF"/>
<path d="M20.6526 17.3135C25.1266 12.9541 32.3159 12.9541 36.7899 17.3135L37.3226 17.8463C37.5575 18.0811 37.5575 18.4363 37.3226 18.6139L35.4952 20.3783C35.3749 20.4986 35.2031 20.4986 35.0828 20.3783L34.3152 19.6737C31.1931 16.6089 26.1864 16.6089 23.0643 19.6737L22.3024 20.4355C22.1821 20.5558 22.0103 20.5558 21.89 20.4355L20.0626 18.6712C19.8277 18.4363 19.8277 18.0811 20.0626 17.9035L20.6526 17.3135ZM40.5592 21.0256L42.2091 22.6181C42.4439 22.853 42.4439 23.2082 42.2091 23.3857L34.8479 30.5693C34.613 30.8042 34.2579 30.8042 34.023 30.5693L28.7814 25.4423C28.7241 25.385 28.6611 25.385 28.6038 25.4423L23.3622 30.5693C23.1273 30.8042 22.7722 30.8042 22.5373 30.5693L15.1762 23.3857C14.9413 23.1509 14.9413 22.7957 15.1762 22.6181L16.826 21.0256C17.0608 20.7907 17.416 20.7907 17.6509 21.0256L22.8925 26.1526C22.9498 26.2099 23.0128 26.2099 23.0701 26.1526L28.3117 21.0256C28.5465 20.7907 28.9017 20.7907 29.1366 21.0256L34.3782 26.1526C34.4355 26.2099 34.4985 26.2099 34.5558 26.1526L39.7974 21.0256C40.0322 20.7907 40.3874 20.7907 40.6223 21.0256H40.5592Z" fill="white"/>
<path d="M52.1665 28.3283L54.1084 20.4344C54.2287 20.022 54.3433 19.5522 54.4636 18.7846C54.5839 19.4892 54.6985 19.9647 54.7558 20.4344L56.4629 28.3283H59.9974L62.9418 16.665H60.2322L58.5824 23.8486C58.4048 24.5532 58.2903 25.086 58.17 25.9109C58.0497 25.1433 57.8778 24.5589 57.7575 23.8486L56.1707 16.665H52.6362L50.9291 23.8486C50.7515 24.5532 50.6369 25.086 50.5166 25.9109C50.3963 25.086 50.2818 24.5589 50.1042 23.8486L48.5117 16.665H45.6875L48.632 28.3283H52.0462H52.1665Z" fill="white"/>
<path d="M65.0046 28.6268C66.3566 28.6268 67.1815 28.0941 67.5939 27.2749C67.5366 27.5098 67.5366 27.8076 67.5366 28.0425V28.3347H69.7765V23.5055C69.7765 21.2084 68.7167 19.8564 66.1847 19.8564C63.9448 19.8564 62.5356 21.0938 62.358 22.8009H64.8328C64.8901 22.0333 65.4228 21.6208 66.2477 21.6208C67.0153 21.6208 67.4278 22.0333 67.4278 22.566C67.4278 22.9212 67.1929 23.1561 66.5456 23.2134L65.3655 23.3337C63.6584 23.5685 62.1289 24.1586 62.1289 26.0433C62.1289 27.6931 63.5439 28.6325 64.9588 28.6325H65.0046V28.6268ZM65.7722 26.914C65.1249 26.914 64.6552 26.5588 64.6552 25.9115C64.6552 25.3215 65.1879 24.9663 66.0701 24.8517L66.6602 24.7314C67.1299 24.6111 67.4278 24.5538 67.6054 24.3763V25.1439C67.6054 26.2037 66.8378 26.851 65.8983 26.851L65.7722 26.914Z" fill="white"/>
<path d="M70.9492 16.6084V28.329H73.3667V16.6084H70.9492Z" fill="white"/>
<path d="M74.7266 16.6084V28.329H77.1956V16.6084H74.7266Z" fill="white"/>
<path d="M82.4383 28.6268C84.7355 28.6268 86.2077 27.3322 86.3853 25.6251H83.9678C83.8475 26.3927 83.2002 26.8051 82.4383 26.8051C81.3786 26.8051 80.6739 25.9802 80.6109 24.8002H86.4426V24.3304C86.4426 21.6208 84.9703 19.8564 82.381 19.8564C79.9063 19.8564 78.1992 21.5635 78.1992 24.2159C78.1992 27.0343 79.9693 28.6268 82.4383 28.6268ZM80.6167 23.2076C80.737 22.2624 81.3843 21.6151 82.381 21.6151C83.3262 21.6151 83.9736 22.2624 83.9736 23.2076H80.6167Z" fill="white"/>
<path d="M91.5675 28.4494C92.1002 28.4494 92.6272 28.3921 92.8621 28.2718V26.4444C92.6845 26.5017 92.4496 26.5017 92.2721 26.5017C91.3899 26.5017 91.092 25.9689 91.092 25.2071V22.0277H93.034V20.143H91.092V17.2559H88.6745V20.143H86.9102V22.0277H88.6745V25.5622C88.6745 27.5042 89.6198 28.5067 91.5617 28.5067V28.4494H91.5675Z" fill="white"/>
<path d="M99.7535 28.6273C103.053 28.6273 105.052 26.6854 105.287 23.9128H102.698C102.52 25.4423 101.403 26.4448 99.8681 26.4448C98.0407 26.4448 96.6888 24.9153 96.6888 22.3832C96.6888 19.9085 98.0407 18.4936 99.8681 18.4936C101.461 18.4936 102.343 19.4388 102.52 20.911H105.23C104.938 18.0238 102.813 16.374 99.8681 16.374C96.5112 16.374 93.9219 18.6712 93.9219 22.4405C93.9219 26.3875 96.1617 28.6273 99.6962 28.6273H99.7535Z" fill="white"/>
<path d="M110.533 28.6277C113.065 28.6277 114.835 27.0351 114.835 24.2683C114.835 21.5587 113.07 19.8516 110.533 19.8516C108.058 19.8516 106.23 21.5587 106.23 24.2683C106.23 27.0351 108.001 28.6277 110.533 28.6277ZM110.533 26.743C109.416 26.743 108.705 25.7978 108.705 24.2683C108.705 22.6757 109.473 21.7362 110.533 21.7362C111.65 21.7362 112.36 22.6184 112.36 24.2683C112.36 25.8551 111.65 26.743 110.533 26.743Z" fill="white"/>
<path d="M118.251 28.3296V23.5578C118.251 22.5553 118.899 21.7934 119.781 21.7934C120.606 21.7934 121.133 22.4407 121.133 23.5005V28.3296H123.55V23.1453C123.55 21.2034 122.49 19.8457 120.663 19.8457C119.368 19.8457 118.601 20.4357 118.188 21.1976C118.246 20.9055 118.246 20.6649 118.246 20.43V20.1379H115.828V28.3239H118.251V28.3296Z" fill="white"/>
<path d="M127.376 28.3296V23.5578C127.376 22.5553 128.024 21.7934 128.906 21.7934C129.731 21.7934 130.258 22.4407 130.258 23.5005V28.3296H132.675V23.1453C132.675 21.2034 131.615 19.8457 129.788 19.8457C128.493 19.8457 127.726 20.4357 127.313 21.1976C127.371 20.9055 127.371 20.6649 127.371 20.43V20.1379H124.953V28.3239H127.376V28.3296Z" fill="white"/>
<path d="M137.923 28.6268C140.22 28.6268 141.692 27.3322 141.87 25.6251H139.452C139.332 26.3927 138.685 26.8051 137.923 26.8051C136.863 26.8051 136.158 25.9802 136.095 24.8002H141.927V24.3304C141.927 21.6208 140.455 19.8564 137.865 19.8564C135.391 19.8564 133.684 21.5635 133.684 24.2159C133.678 27.0343 135.448 28.6268 137.923 28.6268ZM136.095 23.2076C136.216 22.2624 136.863 21.6151 137.86 21.6151C138.805 21.6151 139.452 22.2624 139.452 23.2076H136.095Z" fill="white"/>
<path d="M147.11 28.6277C149.642 28.6277 151.057 27.2127 151.292 25.0932H148.875C148.817 25.9754 148.285 26.743 147.168 26.743C146.05 26.743 145.34 25.7405 145.34 24.211C145.34 22.5612 146.222 21.7362 147.225 21.7362C148.227 21.7362 148.754 22.4409 148.817 23.3288H151.235C151.057 21.3238 149.705 19.8516 147.231 19.8516C144.813 19.8516 142.871 21.4441 142.871 24.211C142.865 26.9148 144.458 28.6277 147.11 28.6277Z" fill="white"/>
<path d="M156.532 28.4494C157.065 28.4494 157.592 28.3921 157.827 28.2718V26.4444C157.649 26.5017 157.414 26.5017 157.237 26.5017C156.355 26.5017 156.057 25.9689 156.057 25.2071V22.0277H157.999V20.143H156.057V17.2559H153.639V20.143H151.875V22.0277H153.639V25.5622C153.639 27.5042 154.585 28.5067 156.527 28.5067V28.4494H156.532Z" fill="white"/>
</svg>
