<svg width="100" height="45" viewBox="0 0 100 45" fill="none" xmlns="http://www.w3.org/2000/svg">
<rect width="100" height="45" rx="8" fill="#12FF80"/>
<path d="M48.6724 21.9148C47.9798 21.6389 47.1338 21.409 46.1345 21.2245H46.1133C45.1425 21.0548 44.4142 20.899 43.9288 20.7571C43.4434 20.616 43.0616 20.4248 42.783 20.1839C42.5044 19.9434 42.3656 19.6107 42.3656 19.1858C42.3656 18.5629 42.6013 18.0887 43.0722 17.7631C43.5436 17.4376 44.1645 17.2746 44.9353 17.2746C45.7778 17.2746 46.459 17.4868 46.9805 17.9118C47.4485 18.2933 47.7351 18.7781 47.8405 19.3652C47.8613 19.4822 47.9611 19.5686 48.0808 19.5698L50.4505 19.5875C50.5958 19.5888 50.7121 19.465 50.6977 19.3214C50.6183 18.5359 50.3571 17.8217 49.9146 17.179C49.422 16.4643 48.7437 15.9084 47.88 15.5117C47.0162 15.1154 46.0347 14.917 44.9353 14.917C43.8931 14.917 42.9546 15.1082 42.1193 15.4906C41.2843 15.873 40.6346 16.4036 40.1704 17.0834C39.7063 17.7631 39.4744 18.5275 39.4744 19.377C39.4744 20.3115 39.6812 21.062 40.0953 21.628C40.5093 22.1944 41.0516 22.6228 41.7226 22.9129C42.3936 23.2031 43.2 23.433 44.1424 23.6032L44.2494 23.6242C45.2483 23.8083 45.9948 23.9713 46.4875 24.1128C46.9801 24.2547 47.3687 24.4526 47.6545 24.7074C47.9398 24.9622 48.0825 25.3093 48.0825 25.7481C48.0825 26.3714 47.8256 26.8595 47.3117 27.2133C46.7979 27.5675 46.1337 27.7443 45.32 27.7443C44.3488 27.7443 43.564 27.5001 42.9644 27.0115C42.4186 26.5672 42.0976 25.9966 42.0012 25.3C41.9846 25.1795 41.8836 25.0882 41.7613 25.0865L39.3945 25.0511C39.2506 25.049 39.1342 25.1694 39.1453 25.3118C39.2124 26.1684 39.4824 26.9404 39.9555 27.6277C40.4766 28.3853 41.1939 28.98 42.1078 29.4117C43.0213 29.8438 44.0706 30.0594 45.2559 30.0594C46.355 30.0594 47.3402 29.8615 48.2112 29.4647C49.0818 29.0684 49.7638 28.5197 50.2564 27.8189C50.7491 27.1181 50.9954 26.3289 50.9954 25.4508C50.9954 24.5162 50.7809 23.7624 50.3528 23.1888C49.9248 22.6152 49.3642 22.1907 48.672 21.9144L48.6724 21.9148Z" fill="#121312"/>
<path d="M63.2227 27.6393H62.8528C62.6388 27.6393 62.4706 27.5829 62.3496 27.4692C62.2281 27.3563 62.1674 27.1719 62.1674 26.9171V22.8606C62.1674 21.5723 61.7533 20.5918 60.9257 19.9193C60.0975 19.2471 59.1225 18.9043 57.5949 18.9043C56.1527 18.9043 55.0261 19.2151 54.1411 19.8237C53.3342 20.3787 52.8479 21.1389 52.6814 22.1054C52.6555 22.2558 52.7702 22.3935 52.9235 22.3935H55.1C55.2091 22.3935 55.3068 22.3223 55.3357 22.2179C55.435 21.8603 55.6542 21.5685 55.9931 21.3423C56.3855 21.0804 56.8517 20.9494 57.4658 20.9494C58.6239 20.9494 59.4474 21.6573 59.4474 22.7119V23.0417C59.4474 23.1764 59.3374 23.2855 59.2015 23.2855H57.2301C55.6312 23.2855 54.4175 23.5972 53.5898 24.22C52.7617 24.8433 52.3477 25.7282 52.3477 26.8745C52.3477 27.8659 52.726 28.6446 53.4828 29.2106C54.0506 29.6352 54.7292 29.8803 55.4278 29.9877C55.9616 30.0698 56.5099 30.0997 57.045 30.0146C57.6056 29.9258 58.0608 29.6967 58.5165 29.3698C58.9259 29.0767 59.2673 28.7011 59.579 28.2428C59.731 27.9838 60.1298 28.0879 60.1298 28.3873V28.7474C60.1294 29.4018 60.6641 29.9325 61.324 29.9325H63.2227C63.3586 29.9325 63.4686 29.8234 63.4686 29.6887V27.8828C63.4686 27.748 63.3586 27.6389 63.2227 27.6389V27.6393ZM59.4478 25.4519C59.4478 25.9758 59.3369 26.4323 59.1157 26.8215C58.6519 27.6377 57.8221 28.0639 56.8883 28.0639C56.3455 28.0639 55.9102 27.9367 55.582 27.6819C55.2533 27.4271 55.0894 27.0872 55.0894 26.6623C55.0894 26.1813 55.2715 25.8095 55.6355 25.5475C55.9994 25.286 56.5167 25.1546 57.1881 25.1546H59.2019C59.3378 25.1546 59.4478 25.2636 59.4478 25.3984V25.4519Z" fill="#121312"/>
<path d="M71.1619 15.0752H68.3297C66.8357 15.0752 65.6246 16.2763 65.6246 17.7579V18.9367C65.6246 19.0715 65.5146 19.1806 65.3787 19.1806H63.7615C63.6256 19.1806 63.5156 19.2896 63.5156 19.4244V21.2513C63.5156 21.3861 63.6256 21.4952 63.7615 21.4952H65.3787C65.5146 21.4952 65.6246 21.6043 65.6246 21.739V29.6912C65.6246 29.8259 65.7345 29.935 65.8704 29.935H68.0771C68.2129 29.935 68.3229 29.8259 68.3229 29.6912V21.739C68.3229 21.6043 68.4329 21.4952 68.5688 21.4952H71.1402C71.2761 21.4952 71.3861 21.3861 71.3861 21.2513V19.4244C71.3861 19.2896 71.2761 19.1806 71.1402 19.1806H68.5688C68.4329 19.1806 68.3229 19.0715 68.3229 18.9367V17.8775C68.3229 17.608 68.5433 17.3898 68.8147 17.3898H71.1615C71.2974 17.3898 71.4074 17.2808 71.4074 17.146V15.319C71.4074 15.1843 71.2974 15.0752 71.1615 15.0752H71.1619Z" fill="#121312"/>
<path d="M81.9656 21.3778C81.4875 20.5852 80.8339 19.9762 80.0062 19.5513C79.1781 19.1268 78.2213 18.9082 77.1367 18.9082C76.0521 18.9082 75.1161 19.1445 74.2884 19.6044C73.4603 20.0647 72.8177 20.7158 72.3612 21.5581C71.9043 22.4008 71.6758 23.388 71.6758 24.5209C71.6758 25.6537 71.9115 26.5988 72.3824 27.4411C72.8538 28.2834 73.5282 28.9311 74.406 29.3843C75.2838 29.8374 76.3154 30.064 77.5006 30.064C78.4141 30.064 79.2316 29.8977 79.9527 29.5649C80.6734 29.2327 81.2552 28.7757 81.6977 28.1954C82.0765 27.6984 82.3351 27.1543 82.4736 26.5634C82.5097 26.4101 82.3929 26.2627 82.234 26.2627H80.0172C79.9111 26.2627 79.8181 26.3309 79.7841 26.4308C79.6278 26.8885 79.3522 27.2503 78.9568 27.5156C78.5139 27.813 77.9644 27.9616 77.3078 27.9616C76.7651 27.9616 76.2907 27.8483 75.8839 27.6218C75.477 27.3956 75.156 27.0768 74.9203 26.6662C74.8273 26.504 74.7513 26.3326 74.6905 26.1562C74.6256 25.9667 74.5789 25.7712 74.5466 25.5733C74.5355 25.5042 74.5253 25.4343 74.5169 25.3644C74.5003 25.2204 74.6154 25.0945 74.7615 25.0945H82.406C82.53 25.0945 82.6362 25.0035 82.6502 24.8809C82.6608 24.7912 82.6681 24.6998 82.6719 24.6059C82.6791 24.4362 82.6825 24.2804 82.6825 24.1389C82.6825 23.0915 82.4434 22.1713 81.9652 21.3782L81.9656 21.3778ZM79.6686 23.2465H74.8808C74.7237 23.2465 74.6052 23.102 74.64 22.95C74.7165 22.6168 74.8489 22.3161 75.0375 22.0466C75.28 21.7 75.5943 21.4343 75.9799 21.2502C76.3655 21.0662 76.7863 20.9739 77.2433 20.9739C77.9856 20.9739 78.5997 21.1723 79.0851 21.5686C79.5017 21.9089 79.776 22.3688 79.9089 22.9487C79.9438 23.1012 79.8261 23.2465 79.6686 23.2465Z" fill="#121312"/>
<path d="M33.6298 22.4932H31.5311C30.9042 22.4932 30.3963 22.9969 30.3963 23.6185V26.6394C30.3963 27.261 29.8884 27.7647 29.2616 27.7647H20.9121C20.2853 27.7647 19.7773 28.2684 19.7773 28.89V30.9713C19.7773 31.5929 20.2853 32.0966 20.9121 32.0966H29.7449C30.3717 32.0966 30.8724 31.5929 30.8724 30.9713V29.3015C30.8724 28.6798 31.3803 28.2389 32.0071 28.2389H33.6294C34.2562 28.2389 34.7641 27.7352 34.7641 27.1136V23.6054C34.7641 22.9838 34.2562 22.4932 33.6294 22.4932H33.6298Z" fill="#121312"/>
<path d="M19.7784 18.3596C19.7784 17.738 20.2863 17.2343 20.9131 17.2343H29.2575C29.8843 17.2343 30.3922 16.7306 30.3922 16.109V14.0277C30.3922 13.406 29.8843 12.9023 29.2575 12.9023H20.4294C19.8026 12.9023 19.2947 13.406 19.2947 14.0277V15.6314C19.2947 16.253 18.7867 16.7567 18.1599 16.7567H16.5449C15.9181 16.7567 15.4102 17.2604 15.4102 17.882V21.394C15.4102 22.0156 15.9202 22.494 16.547 22.494H18.6458C19.2726 22.494 19.7805 21.9903 19.7805 21.3687L19.7784 18.36V18.3596Z" fill="#121312"/>
<path d="M24.1079 20.3066H26.1238C26.7808 20.3066 27.3138 20.8356 27.3138 21.4867V23.4859C27.3138 24.1374 26.7804 24.666 26.1238 24.666H24.1079C23.4509 24.666 22.918 24.137 22.918 23.4859V21.4867C22.918 20.8352 23.4514 20.3066 24.1079 20.3066Z" fill="#121312"/>
</svg>
