<svg width="520" height="153" viewBox="0 0 520 153" fill="none" xmlns="http://www.w3.org/2000/svg">
<path d="M0 20C0 8.9543 8.95431 0 20 0H275C286.046 0 295 8.95431 295 20V153H0V20Z" fill="white"/>
<path d="M315 20C315 8.9543 323.954 0 335 0H500C511.046 0 520 8.95431 520 20V153H315V20Z" fill="white"/>
<mask id="mask0_12064_2528" style="mask-type:alpha" maskUnits="userSpaceOnUse" x="315" y="0" width="205" height="153">
<path d="M315 20C315 8.9543 323.954 0 335 0H500C511.046 0 520 8.95431 520 20V153H315V20Z" fill="white"/>
</mask>
<g mask="url(#mask0_12064_2528)">
<path fill-rule="evenodd" clip-rule="evenodd" d="M350.284 77.2229V96.1459C350.194 117.583 357.392 138.41 370.685 155.178C381.589 169.665 396.8 180.291 414.115 185.514C416.143 186.162 418.322 186.162 420.35 185.514C439.136 179.84 453.939 168.608 465.527 152.931C474.604 140.722 480.591 126.479 482.974 111.429C483.71 106.704 484.092 101.929 484.117 97.1461C484.199 88.9431 484.189 80.7348 484.178 72.5243V72.5235C484.17 66.1271 484.163 59.7292 484.198 53.3314C484.264 52.797 484.134 52.2574 483.834 51.8111C483.534 51.3649 483.084 51.043 482.566 50.9048C461.283 41.4814 440.001 31.9709 418.718 22.3727C417.744 21.8758 416.592 21.8758 415.617 22.3727C394.389 31.905 373.155 41.3996 351.916 50.8556C351.369 51.0451 350.906 51.4214 350.607 51.9189C350.309 52.4169 350.194 53.0041 350.283 53.5779V77.2235L350.284 77.2229ZM361.708 62.1205C361.635 61.6375 361.736 61.1437 361.994 60.7284C362.251 60.3136 362.648 60.0046 363.112 59.8578C380.674 52.0305 398.268 44.1597 415.895 36.245C416.7 35.8356 417.651 35.8356 418.457 36.245C436.116 44.1594 453.803 52.0525 471.517 59.9234C472.393 60.1748 472.955 61.032 472.839 61.94V98.3102C472.814 102.281 472.492 106.244 471.876 110.166C469.892 122.654 464.918 134.472 457.383 144.601C448.189 157.54 434.989 167.054 419.844 171.658C418.161 172.195 416.353 172.195 414.67 171.658C400.263 167.343 387.599 158.526 378.519 146.487C367.473 132.556 361.496 115.252 361.578 97.4414V81.7324C361.578 79.8657 361.58 77.9963 361.583 76.125V76.1246C361.59 71.47 361.596 66.8036 361.562 62.1371L361.708 62.1205ZM372.121 67.319C386.799 60.7599 401.488 54.2008 416.188 47.6417C416.508 47.5055 416.852 47.433 417.2 47.4287V104.001H371.191C371.05 102.219 370.973 100.416 370.962 98.5894V85.4712V69.0734C370.875 68.284 371.363 67.5446 372.121 67.3189L372.121 67.319ZM417.201 104.001H463.194L463.194 104.001C463.064 105.641 462.901 107.428 462.59 109.134C460.941 119.511 456.808 129.33 450.545 137.748C442.91 148.494 431.949 156.399 419.372 160.229C418.669 160.45 417.938 160.566 417.201 160.573V104.001Z" fill="url(#paint0_linear_12064_2528)"/>
</g>
<mask id="mask1_12064_2528" style="mask-type:alpha" maskUnits="userSpaceOnUse" x="0" y="0" width="295" height="153">
<path d="M0 20C0 8.9543 8.95431 0 20 0H275C286.046 0 295 8.95431 295 20V153H0V20Z" fill="white"/>
</mask>
<g mask="url(#mask1_12064_2528)">
<g clip-path="url(#clip0_12064_2528)">
<path d="M68.15 26H-1.15C-9.35143 26 -16 32.7157 -16 41V111C-16 119.284 -9.35143 126 -1.15 126H68.15C76.3514 126 83 119.284 83 111V41C83 32.7157 76.3514 26 68.15 26Z" fill="#FFE6CE"/>
<path d="M64.3995 43.7236L37.5703 63.8513L42.5316 51.9763L64.3995 43.7236Z" fill="#E2761B" stroke="#E2761B" stroke-width="0.124514" stroke-linecap="round" stroke-linejoin="round"/>
<path d="M2.46419 43.7246L29.0795 64.0444L24.3605 51.9779L2.46419 43.7246ZM54.7511 90.3839L47.6052 101.443L62.8949 105.692L67.2903 90.629L54.7511 90.3839ZM-0.367188 90.629L4.00134 105.692L19.2909 101.443L12.145 90.3839L-0.367188 90.629Z" fill="#E4761B" stroke="#E4761B" stroke-width="0.124514" stroke-linecap="round" stroke-linejoin="round"/>
<path d="M18.4284 71.6963L14.168 78.206L29.3493 78.8869L28.81 62.4084L18.4284 71.6963ZM48.4403 71.6963L37.924 62.2178L37.5735 78.8869L52.7277 78.206L48.4403 71.6963ZM19.2913 101.439L28.4054 96.9452L20.5318 90.7351L19.2913 101.439ZM38.4633 96.9452L47.6044 101.439L46.3371 90.7351L38.4633 96.9452Z" fill="#E4761B" stroke="#E4761B" stroke-width="0.124514" stroke-linecap="round" stroke-linejoin="round"/>
<path d="M47.6013 101.439L38.4605 96.9453L39.1886 102.965L39.1077 105.498L47.6013 101.439ZM19.2891 101.439L27.7827 105.498L27.7289 102.965L28.4029 96.9453L19.2891 101.439Z" fill="#D7C1B3" stroke="#D7C1B3" stroke-width="0.124514" stroke-linecap="round" stroke-linejoin="round"/>
<path d="M27.9164 86.7586L20.3125 84.4979L25.6784 82.0195L27.9164 86.7586ZM38.9446 86.7586L41.1827 82.0195L46.5755 84.4979L38.9446 86.7586Z" fill="#233447" stroke="#233447" stroke-width="0.124514" stroke-linecap="round" stroke-linejoin="round"/>
<path d="M19.2905 101.44L20.5848 90.3815L12.1445 90.6266L19.2905 101.44ZM46.3104 90.3815L47.6047 101.44L54.7507 90.6266L46.3104 90.3815ZM52.7283 78.2061L37.5734 78.887L38.9756 86.7589L41.2138 82.0193L46.607 84.498L52.7283 78.2061ZM20.3152 84.498L25.7084 82.0193L27.9196 86.7589L29.3487 78.887L14.1669 78.2061L20.3152 84.498Z" fill="#CD6116" stroke="#CD6116" stroke-width="0.124514" stroke-linecap="round" stroke-linejoin="round"/>
<path d="M14.168 78.2061L20.5318 90.7351L20.316 84.4978L14.168 78.2061ZM46.6067 84.4978L46.3371 90.7351L52.7277 78.2061L46.6067 84.4978ZM29.3493 78.8869L27.9201 86.7585L29.6997 96.0463L30.1043 83.8169L29.3493 78.8869ZM37.5735 78.8869L36.8454 83.7896L37.169 96.0463L38.9756 86.7585L37.5735 78.8869Z" fill="#E4751F" stroke="#E4751F" stroke-width="0.124514" stroke-linecap="round" stroke-linejoin="round"/>
<path d="M38.9716 86.7586L37.165 96.0463L38.4593 96.945L46.3329 90.7351L46.6025 84.498L38.9716 86.7586ZM20.3125 84.498L20.5282 90.7351L28.4017 96.945L29.696 96.0463L27.9164 86.7586L20.3125 84.498Z" fill="#F6851B" stroke="#F6851B" stroke-width="0.124514" stroke-linecap="round" stroke-linejoin="round"/>
<path d="M39.1077 105.498L39.1886 102.965L38.5144 102.366H28.349L27.7289 102.965L27.7827 105.498L19.2891 101.439L22.2551 103.891L28.2682 108.112H38.5954L44.6353 103.891L47.6013 101.439L39.1077 105.498Z" fill="#C0AD9E" stroke="#C0AD9E" stroke-width="0.124514" stroke-linecap="round" stroke-linejoin="round"/>
<path d="M38.4621 96.9456L37.1678 96.0469H29.6988L28.4045 96.9456L27.7305 102.965L28.3506 102.366H38.516L39.1902 102.965L38.4621 96.9456Z" fill="#161616" stroke="#161616" stroke-width="0.124514" stroke-linecap="round" stroke-linejoin="round"/>
<path d="M65.5375 65.1612L67.8295 54.048L64.4049 43.7246L38.4636 63.1728L48.4411 71.6983L62.5442 75.8659L65.6722 72.1886L64.3239 71.2081L66.4812 69.2196L64.8094 67.9122L66.9666 66.2506L65.5375 65.1612ZM-0.933594 54.048L1.35858 65.1612L-0.0976332 66.2506L2.05965 67.9122L0.414709 69.2196L2.572 71.2081L1.22369 72.1886L4.32473 75.8659L18.428 71.6983L28.4053 63.1728L2.46408 43.7246L-0.933594 54.048Z" fill="#763D16" stroke="#763D16" stroke-width="0.124514" stroke-linecap="round" stroke-linejoin="round"/>
<path d="M62.5443 75.8645L48.4412 71.6971L52.7287 78.2071L46.3378 90.7367L54.7511 90.6278H67.2903L62.5443 75.8645ZM18.428 71.6971L4.32483 75.8645L-0.367188 90.6278H12.145L20.5315 90.7367L14.1674 78.2071L18.428 71.6971ZM37.5739 78.888L38.4637 63.1716L42.5626 51.9766H24.3605L28.4054 63.1716L29.3492 78.888L29.6728 83.8454L29.6998 96.0481H37.1694L37.2233 83.8454L37.5739 78.888Z" fill="#F6851B" stroke="#F6851B" stroke-width="0.124514" stroke-linecap="round" stroke-linejoin="round"/>
</g>
<g clip-path="url(#clip1_12064_2528)">
<path d="M182.15 26H112.85C104.649 26 98 32.7157 98 41V111C98 119.284 104.649 126 112.85 126H182.15C190.351 126 197 119.284 197 111V41C197 32.7157 190.351 26 182.15 26Z" fill="#12FF80"/>
<mask id="mask2_12064_2528" style="mask-type:luminance" maskUnits="userSpaceOnUse" x="112" y="41" width="71" height="71">
<path d="M147.503 111.003C166.64 111.003 182.154 95.3329 182.154 76.0022C182.154 56.6715 166.64 41.001 147.503 41.001C128.365 41.001 112.852 56.6715 112.852 76.0022C112.852 95.3329 128.365 111.003 147.503 111.003Z" fill="white"/>
</mask>
<g mask="url(#mask2_12064_2528)">
<path d="M182.321 35.2842H109.555V115.996H182.321V35.2842Z" fill="#12FF80"/>
</g>
<path d="M166.889 76.0055H162.155C160.741 76.0055 159.596 77.1633 159.596 78.5905V85.5302C159.596 86.9581 158.45 88.1152 157.037 88.1152H138.204C136.79 88.1152 135.645 89.2729 135.645 90.7001V95.4817C135.645 96.9096 136.791 98.0667 138.204 98.0667H158.127C159.54 98.0667 160.671 96.9089 160.671 95.4817V91.6458C160.671 90.2179 161.817 89.2043 163.23 89.2043H166.889C168.302 89.2043 169.448 88.0466 169.448 86.6193V78.5598C169.448 77.1318 168.302 76.0055 166.889 76.0055Z" fill="#121312"/>
<path d="M135.649 66.4994C135.649 65.0715 136.795 63.9144 138.208 63.9144H157.029C158.443 63.9144 159.588 62.7567 159.588 61.3295V56.5479C159.588 55.12 158.442 53.9629 157.029 53.9629H137.117C135.704 53.9629 134.558 55.1207 134.558 56.5479V60.2319C134.558 61.6599 133.412 62.817 131.999 62.817H128.356C126.942 62.817 125.797 63.9747 125.797 65.4019V73.4698C125.797 74.8978 126.947 75.9967 128.361 75.9967H133.095C134.508 75.9967 135.654 74.839 135.654 73.4117L135.649 66.4994Z" fill="#121312"/>
<path d="M145.388 70.9688H149.935C151.417 70.9688 152.62 72.1838 152.62 73.6804V78.2736C152.62 79.7702 151.417 80.9854 149.935 80.9854H145.388C143.906 80.9854 142.703 79.7702 142.703 78.2736V73.6804C142.703 72.1838 143.906 70.9688 145.388 70.9688Z" fill="#121312"/>
</g>
<g clip-path="url(#clip2_12064_2528)">
<path d="M296.15 26H226.85C218.649 26 212 32.7157 212 41V111C212 119.284 218.649 126 226.85 126H296.15C304.351 126 311 119.284 311 111V41C311 32.7157 304.351 26 296.15 26Z" fill="#1C7DFC"/>
<path d="M296.15 26H226.85C218.649 26 212 32.7157 212 41V111C212 119.284 218.649 126 226.85 126H296.15C304.351 126 311 119.284 311 111V41C311 32.7157 304.351 26 296.15 26Z" fill="url(#paint1_radial_12064_2528)"/>
<path d="M244.7 65.3416C253.975 56.2195 269.03 56.2195 278.305 65.3416L279.422 66.4478C279.89 66.9012 279.89 67.6447 279.422 68.0981L275.604 71.8521C275.37 72.0879 274.991 72.0879 274.757 71.8521L273.227 70.3469C266.743 63.9815 256.262 63.9815 249.779 70.3469L248.14 71.961C247.906 72.1968 247.527 72.1968 247.293 71.961L243.475 68.207C243.007 67.7536 243.007 67.0101 243.475 66.5567L244.7 65.3416ZM286.211 73.1035L289.615 76.4404C290.083 76.8938 290.083 77.6373 289.615 78.0907L274.289 93.1612C273.821 93.6146 273.064 93.6146 272.614 93.1612L261.737 82.4614C261.629 82.3525 261.431 82.3525 261.323 82.4614L250.445 93.1612C249.977 93.6146 249.22 93.6146 248.77 93.1612L233.39 78.0907C232.922 77.6373 232.922 76.8938 233.39 76.4404L236.794 73.1035C237.262 72.6502 238.019 72.6502 238.469 73.1035L249.346 83.8034C249.454 83.9122 249.652 83.9122 249.761 83.8034L260.638 73.1035C261.106 72.6502 261.863 72.6502 262.313 73.1035L273.191 83.8034C273.299 83.9122 273.497 83.9122 273.605 83.8034L284.482 73.1035C284.987 72.6502 285.743 72.6502 286.211 73.1035Z" fill="white"/>
</g>
</g>
<defs>
<linearGradient id="paint0_linear_12064_2528" x1="426.517" y1="104.001" x2="473.4" y2="117.416" gradientUnits="userSpaceOnUse">
<stop stop-color="#2241AC"/>
<stop offset="1" stop-color="#4FC0FF"/>
</linearGradient>
<radialGradient id="paint1_radial_12064_2528" cx="0" cy="0" r="1" gradientUnits="userSpaceOnUse" gradientTransform="translate(212 76.0015) scale(99 100)">
<stop stop-color="#5D9DF6"/>
<stop offset="1" stop-color="#006FFF"/>
</radialGradient>
<clipPath id="clip0_12064_2528">
<rect width="99" height="100" fill="white" transform="translate(-16 26)"/>
</clipPath>
<clipPath id="clip1_12064_2528">
<rect width="99" height="100" fill="white" transform="translate(98 26)"/>
</clipPath>
<clipPath id="clip2_12064_2528">
<rect width="99" height="100" fill="white" transform="translate(212 26)"/>
</clipPath>
</defs>
</svg>
