<svg width="447" height="447" viewBox="0 0 447 447" fill="none" xmlns="http://www.w3.org/2000/svg">
<circle opacity="0.06" cx="223.5" cy="223.5" r="223.5" fill="#2241AC"/>
<circle opacity="0.3" cx="223.501" cy="223.501" r="205.378" fill="#2241AC"/>
<circle opacity="0.4" cx="223.502" cy="223.499" r="183.632" fill="#2241AC"/>
<circle opacity="0.4" cx="223.502" cy="223.499" r="183.632" fill="#2241AC"/>
<circle cx="223.499" cy="223.499" r="163.095" fill="white"/>
<path d="M222.898 145.936C211.975 145.936 201.499 150.288 193.775 158.036C186.051 165.783 181.712 176.291 181.712 187.247C181.712 198.204 186.051 208.711 193.775 216.459C201.498 224.206 211.974 228.559 222.898 228.559C233.821 228.559 244.296 224.206 252.02 216.459C259.744 208.712 264.084 198.204 264.084 187.247C264.071 176.295 259.728 165.795 252.007 158.048C244.286 150.304 233.817 145.948 222.898 145.936ZM161.119 207.903C164.759 207.898 168.248 206.445 170.821 203.864C173.395 201.283 174.843 197.783 174.848 194.132V180.362C174.848 175.442 172.231 170.896 167.983 168.436C163.735 165.977 158.503 165.977 154.255 168.436C150.007 170.896 147.391 175.442 147.391 180.362V194.132C147.396 197.783 148.844 201.283 151.417 203.864C153.99 206.445 157.48 207.898 161.119 207.903ZM222.898 132.165C232.124 132.174 241.199 134.517 249.286 138.977C257.37 143.437 264.203 149.869 269.154 157.679C273.089 155.005 277.653 153.41 282.393 153.052C274.373 138.951 261.634 128.157 246.435 122.577C231.237 116.999 214.559 116.999 199.361 122.577C184.163 128.155 171.424 138.951 163.403 153.052C168.143 153.41 172.707 155.005 176.643 157.679C181.593 149.869 188.426 143.436 196.511 138.977C204.596 134.518 213.671 132.174 222.899 132.165H222.898ZM284.676 166.591C281.036 166.596 277.547 168.049 274.974 170.63C272.4 173.211 270.952 176.711 270.947 180.362V194.132C270.955 198.801 273.324 203.147 277.238 205.674C276.19 210.215 273.642 214.267 270.007 217.172C266.373 220.076 261.866 221.662 257.219 221.673C254.766 221.673 252.501 222.986 251.274 225.116C250.048 227.246 250.048 229.871 251.274 232.001C252.5 234.131 254.766 235.444 257.219 235.444C265.393 235.422 273.291 232.47 279.487 227.121C285.682 221.773 289.769 214.38 291.01 206.275C293.23 205.121 295.094 203.379 296.397 201.238C297.701 199.097 298.395 196.639 298.404 194.131V180.361C298.399 176.71 296.951 173.21 294.378 170.629C291.804 168.048 288.316 166.596 284.676 166.591Z" fill="#2241AC"/>
<path d="M147.391 310.271C147.391 279.827 168.257 237.824 222.672 237.824C277.087 237.824 297.953 279.827 297.953 310.271C297.953 333.105 147.391 333.105 147.391 310.271Z" fill="#2241AC"/>
<mask id="mask0_12259_822" style="mask-type:alpha" maskUnits="userSpaceOnUse" x="86" y="356" width="275" height="78">
<rect x="86.9805" y="356.394" width="273.032" height="76.7904" rx="38.3952" fill="#D9D9D9"/>
</mask>
<g mask="url(#mask0_12259_822)">
<rect x="86.9805" y="356.394" width="273.032" height="76.7904" rx="38.3952" fill="#E9EEFD"/>
</g>
<path d="M146.959 399.007L146.052 399.962C146.052 399.962 143.896 402.231 138.013 396.037C132.13 389.843 134.286 387.574 134.286 387.574L134.857 386.973C136.263 385.492 136.396 383.114 135.169 381.379L132.658 377.828C131.139 375.68 128.204 375.396 126.463 377.229L123.338 380.519C122.475 381.428 121.897 382.606 121.967 383.913C122.146 387.256 123.575 394.45 131.548 402.844C140.002 411.745 147.935 412.099 151.179 411.779C152.206 411.678 153.098 411.125 153.817 410.367L156.645 407.39C158.554 405.38 158.016 401.935 155.573 400.529L151.77 398.339C150.166 397.416 148.212 397.687 146.959 399.007Z" fill="#2241AC"/>
<path fill-rule="evenodd" clip-rule="evenodd" d="M139.931 384.666C140.134 383.956 140.874 383.545 141.584 383.748L141.216 385.034C141.584 383.748 141.584 383.748 141.584 383.748L141.586 383.749L141.589 383.75L141.595 383.751L141.609 383.755L141.644 383.766C141.671 383.775 141.705 383.786 141.744 383.8C141.825 383.829 141.93 383.869 142.06 383.925C142.32 384.036 142.675 384.208 143.111 384.466C143.983 384.983 145.175 385.84 146.574 387.24C147.974 388.639 148.831 389.831 149.348 390.703C149.606 391.139 149.778 391.494 149.889 391.754C149.945 391.884 149.985 391.989 150.013 392.069C150.028 392.109 150.039 392.143 150.047 392.17L150.058 392.205L150.062 392.219L150.064 392.225L150.065 392.228C150.065 392.228 150.066 392.23 148.78 392.598L150.066 392.23C150.269 392.94 149.857 393.68 149.148 393.883C148.443 394.084 147.71 393.682 147.5 392.983L147.493 392.964C147.484 392.937 147.464 392.884 147.431 392.807C147.365 392.653 147.245 392.401 147.047 392.065C146.649 391.394 145.931 390.379 144.683 389.131C143.435 387.883 142.42 387.165 141.749 386.767C141.413 386.568 141.161 386.449 141.007 386.383C140.93 386.35 140.877 386.33 140.85 386.321L140.831 386.314C140.132 386.104 139.73 385.37 139.931 384.666Z" fill="#2241AC" fill-opacity="0.6"/>
<path d="M197.206 397.961V387.45H200.335V404.173H197.683L190.397 392.849V404.173H187.291V387.45H190.397V387.474L190.421 387.45L197.206 397.961Z" fill="#2543A5"/>
<path d="M209.617 391.917C210.764 391.917 211.791 392.204 212.699 392.777C213.623 393.335 214.339 394.091 214.849 395.047C215.359 396.002 215.613 397.062 215.613 398.224C215.613 398.607 215.582 398.957 215.518 399.275H206.272C206.479 400.088 206.901 400.741 207.538 401.234C208.176 401.712 208.948 401.951 209.856 401.951C210.445 401.951 211.003 401.824 211.528 401.569C212.07 401.314 212.476 400.988 212.747 400.589L215.016 401.927C214.459 402.755 213.734 403.393 212.842 403.839C211.966 404.269 210.955 404.484 209.808 404.484C208.534 404.484 207.403 404.213 206.416 403.671C205.428 403.13 204.664 402.381 204.122 401.426C203.581 400.47 203.31 399.395 203.31 398.2C203.31 397.022 203.573 395.955 204.098 394.999C204.64 394.043 205.388 393.295 206.344 392.753C207.315 392.196 208.406 391.917 209.617 391.917ZM212.818 396.958C212.707 396.194 212.356 395.596 211.767 395.166C211.178 394.72 210.445 394.497 209.569 394.497C208.964 394.497 208.406 394.609 207.897 394.832C207.403 395.055 207.005 395.357 206.702 395.74C206.4 396.122 206.24 396.528 206.225 396.958H212.818Z" fill="#2543A5"/>
<path d="M224.204 391.917C225.351 391.917 226.378 392.204 227.286 392.777C228.21 393.335 228.927 394.091 229.436 395.047C229.946 396.002 230.201 397.062 230.201 398.224C230.201 398.607 230.169 398.957 230.105 399.275H220.86C221.067 400.088 221.489 400.741 222.126 401.234C222.763 401.712 223.536 401.951 224.443 401.951C225.033 401.951 225.59 401.824 226.116 401.569C226.657 401.314 227.063 400.988 227.334 400.589L229.604 401.927C229.046 402.755 228.322 403.393 227.43 403.839C226.554 404.269 225.542 404.484 224.396 404.484C223.121 404.484 221.991 404.213 221.003 403.671C220.016 403.13 219.251 402.381 218.71 401.426C218.168 400.47 217.897 399.395 217.897 398.2C217.897 397.022 218.16 395.955 218.686 394.999C219.227 394.043 219.976 393.295 220.931 392.753C221.903 392.196 222.994 391.917 224.204 391.917ZM227.406 396.958C227.294 396.194 226.944 395.596 226.355 395.166C225.765 394.72 225.033 394.497 224.157 394.497C223.551 394.497 222.994 394.609 222.484 394.832C221.991 395.055 221.592 395.357 221.29 395.74C220.987 396.122 220.828 396.528 220.812 396.958H227.406Z" fill="#2543A5"/>
<path d="M241.945 387.45H244.884V404.173H241.945V402.931C241.054 403.982 239.899 404.507 238.481 404.507C237.287 404.507 236.236 404.237 235.328 403.695C234.42 403.154 233.719 402.405 233.225 401.449C232.732 400.494 232.485 399.419 232.485 398.224C232.485 397.03 232.732 395.955 233.225 394.999C233.719 394.043 234.42 393.295 235.328 392.753C236.236 392.196 237.287 391.917 238.481 391.917C239.867 391.917 241.022 392.443 241.945 393.494V387.45ZM238.553 401.736C239.525 401.736 240.329 401.402 240.966 400.733C241.619 400.064 241.945 399.22 241.945 398.2C241.945 397.181 241.627 396.345 240.99 395.692C240.353 395.039 239.541 394.712 238.553 394.712C237.629 394.712 236.873 395.055 236.283 395.74C235.694 396.425 235.4 397.253 235.4 398.224C235.4 399.212 235.694 400.048 236.283 400.733C236.873 401.402 237.629 401.736 238.553 401.736Z" fill="#2543A5"/>
<path d="M265.626 404.173H262.663V397.101C262.663 396.21 262.409 395.572 261.899 395.19C261.405 394.792 260.824 394.593 260.155 394.593C259.613 394.593 259.128 394.752 258.698 395.071C258.268 395.373 257.981 395.875 257.838 396.576V404.173H254.875V387.45H257.838V393.207C258.252 392.841 258.714 392.546 259.223 392.323C259.733 392.1 260.274 391.989 260.848 391.989C261.549 391.989 262.257 392.14 262.974 392.443C263.691 392.729 264.312 393.247 264.837 393.996C265.363 394.744 265.626 395.756 265.626 397.03V404.173Z" fill="#2543A5"/>
<path d="M274.435 391.917C275.582 391.917 276.609 392.204 277.517 392.777C278.441 393.335 279.158 394.091 279.667 395.047C280.177 396.002 280.432 397.062 280.432 398.224C280.432 398.607 280.4 398.957 280.336 399.275H271.091C271.298 400.088 271.72 400.741 272.357 401.234C272.994 401.712 273.767 401.951 274.674 401.951C275.264 401.951 275.821 401.824 276.347 401.569C276.888 401.314 277.294 400.988 277.565 400.589L279.835 401.927C279.277 402.755 278.553 403.393 277.661 403.839C276.785 404.269 275.773 404.484 274.627 404.484C273.352 404.484 272.222 404.213 271.234 403.671C270.247 403.13 269.482 402.381 268.941 401.426C268.399 400.47 268.128 399.395 268.128 398.2C268.128 397.022 268.391 395.955 268.917 394.999C269.458 394.043 270.207 393.295 271.162 392.753C272.134 392.196 273.225 391.917 274.435 391.917ZM277.637 396.958C277.525 396.194 277.175 395.596 276.586 395.166C275.996 394.72 275.264 394.497 274.388 394.497C273.782 394.497 273.225 394.609 272.715 394.832C272.222 395.055 271.823 395.357 271.521 395.74C271.218 396.122 271.059 396.528 271.043 396.958H277.637Z" fill="#2543A5"/>
<path d="M285.869 400.804C285.869 401.059 285.925 401.242 286.037 401.354C286.164 401.465 286.363 401.521 286.634 401.521C286.825 401.521 287.08 401.497 287.398 401.449V404.173C286.809 404.269 286.26 404.316 285.75 404.316C284.826 404.316 284.117 404.077 283.624 403.6C283.146 403.106 282.907 402.238 282.907 400.996V387.45H285.869V400.804Z" fill="#2543A5"/>
<path d="M296.665 391.917C297.86 391.917 298.911 392.188 299.819 392.729C300.727 393.271 301.419 394.02 301.897 394.975C302.391 395.931 302.638 397.006 302.638 398.2C302.638 399.395 302.391 400.47 301.897 401.426C301.419 402.381 300.727 403.138 299.819 403.695C298.911 404.237 297.86 404.507 296.665 404.507C295.264 404.507 294.109 403.99 293.201 402.955V408.951H290.239V392.228H293.201V393.47C294.109 392.435 295.264 391.917 296.665 391.917ZM296.57 401.712C297.493 401.712 298.25 401.37 298.839 400.685C299.445 400 299.747 399.172 299.747 398.2C299.747 397.213 299.445 396.377 298.839 395.692C298.25 395.007 297.493 394.665 296.57 394.665C295.598 394.665 294.794 395.007 294.157 395.692C293.52 396.361 293.201 397.205 293.201 398.224C293.201 399.244 293.512 400.08 294.133 400.733C294.77 401.386 295.582 401.712 296.57 401.712Z" fill="#2543A5"/>
<path d="M307.579 399.108V396.361C307.579 395.644 307.739 395.071 308.057 394.641C308.376 394.195 308.845 393.725 309.467 393.231C309.897 392.897 310.215 392.61 310.422 392.371C310.645 392.116 310.757 391.822 310.757 391.487C310.757 391.057 310.589 390.715 310.255 390.46C309.936 390.189 309.459 390.054 308.822 390.054C307.643 390.054 306.64 390.555 305.811 391.559L303.948 389.457C304.585 388.692 305.357 388.119 306.265 387.736C307.173 387.338 308.145 387.139 309.18 387.139C310.693 387.139 311.895 387.49 312.787 388.19C313.679 388.875 314.125 389.783 314.125 390.914C314.125 391.519 314.022 392.045 313.815 392.491C313.608 392.937 313.361 393.311 313.074 393.613C312.787 393.9 312.405 394.243 311.927 394.641C311.434 395.039 311.059 395.389 310.804 395.692C310.566 395.979 310.446 396.313 310.446 396.695V399.108H307.579ZM307.412 402.811C307.412 402.302 307.547 401.911 307.818 401.641C308.105 401.354 308.503 401.211 309.013 401.211C309.522 401.211 309.913 401.354 310.183 401.641C310.454 401.911 310.589 402.302 310.589 402.811C310.589 403.337 310.454 403.743 310.183 404.03C309.913 404.3 309.522 404.436 309.013 404.436C308.503 404.436 308.105 404.3 307.818 404.03C307.547 403.743 307.412 403.337 307.412 402.811Z" fill="#2543A5"/>
</svg>
