<svg width="410" height="160" viewBox="0 0 410 160" fill="none" xmlns="http://www.w3.org/2000/svg">
<path d="M0 24C0 10.7452 10.7452 0 24 0H386C399.255 0 410 10.7452 410 24V160H0V24Z" fill="#1F2639" fill-opacity="0.4"/>
<mask id="mask0_12158_10" style="mask-type:alpha" maskUnits="userSpaceOnUse" x="0" y="0" width="410" height="160">
<path d="M0 24C0 10.7452 10.7452 0 24 0H386C399.255 0 410 10.7452 410 24V160H0V24Z" fill="#1F2639"/>
</mask>
<g mask="url(#mask0_12158_10)">
<rect opacity="0.5" x="156" y="84" width="9" height="146" transform="rotate(-90 156 84)" fill="#D9D9D9"/>
<path d="M355.267 39H297.4C290.552 39 285 44.5517 285 51.4V109.267C285 116.115 290.552 121.667 297.4 121.667H355.267C362.115 121.667 367.667 116.115 367.667 109.267V51.4C367.667 44.5517 362.115 39 355.267 39Z" fill="#1C7DFC"/>
<path d="M355.267 39H297.4C290.552 39 285 44.5517 285 51.4V109.267C285 116.115 290.552 121.667 297.4 121.667H355.267C362.115 121.667 367.667 116.115 367.667 109.267V51.4C367.667 44.5517 362.115 39 355.267 39Z" fill="white"/>
<path fill-rule="evenodd" clip-rule="evenodd" d="M301.633 55.6348H316.519V55.6362L348.656 55.6362L335.518 70.696L316.519 70.696V90.0414L301.633 77.8665V65.8195V55.6348ZM350.409 105.115H335.522V105.11H303.386L316.523 90.0507H335.522V70.7083L350.409 82.8832V94.9301V105.115Z" fill="url(#paint0_linear_12158_10)"/>
<path d="M42 40C42 26.7452 52.7452 16 66 16H146C159.255 16 170 26.7452 170 40V129C170 137.284 163.284 144 155 144H57C48.7157 144 42 137.284 42 129V40Z" fill="#0C101A"/>
<path d="M66 16.5H146C158.979 16.5 169.5 27.0213 169.5 40V129C169.5 137.008 163.008 143.5 155 143.5H57C48.9919 143.5 42.5 137.008 42.5 129V40C42.5 27.0213 53.0213 16.5 66 16.5Z" stroke="white" stroke-opacity="0.14"/>
<path d="M94.0057 26.8164H60.0883C56.0743 26.8164 52.8203 30.0704 52.8203 34.0844V68.0018C52.8203 72.0158 56.0743 75.2698 60.0883 75.2698H94.0057C98.0197 75.2698 101.274 72.0158 101.274 68.0018V34.0844C101.274 30.0704 98.0197 26.8164 94.0057 26.8164Z" fill="#FFE6CE"/>
<path d="M92.172 35.4053L79.041 45.1578L81.4692 39.404L92.172 35.4053Z" fill="#E2761B" stroke="#E2761B" stroke-width="0.124514" stroke-linecap="round" stroke-linejoin="round"/>
<path d="M61.8584 35.4053L74.8847 45.2509L72.5751 39.4043L61.8584 35.4053ZM87.4491 58.0133L83.9517 63.3716L91.4349 65.4305L93.5862 58.1321L87.4491 58.0133ZM60.4727 58.1321L62.6107 65.4305L70.0939 63.3716L66.5965 58.0133L60.4727 58.1321Z" fill="#E4761B" stroke="#E4761B" stroke-width="0.124514" stroke-linecap="round" stroke-linejoin="round"/>
<path d="M69.6692 48.9579L67.584 52.1121L75.0142 52.442L74.7502 44.4576L69.6692 48.9579ZM84.3579 48.9579L79.2109 44.3652L79.0393 52.442L86.4562 52.1121L84.3579 48.9579ZM70.0915 63.3694L74.5522 61.1918L70.6986 58.1828L70.0915 63.3694ZM79.4748 61.1918L83.9487 63.3694L83.3285 58.1828L79.4748 61.1918Z" fill="#E4761B" stroke="#E4761B" stroke-width="0.124514" stroke-linecap="round" stroke-linejoin="round"/>
<path d="M83.9486 63.3689L79.4748 61.1914L79.8312 64.108L79.7916 65.3352L83.9486 63.3689ZM70.0918 63.3689L74.2488 65.3352L74.2225 64.108L74.5524 61.1914L70.0918 63.3689Z" fill="#D7C1B3" stroke="#D7C1B3" stroke-width="0.124514" stroke-linecap="round" stroke-linejoin="round"/>
<path d="M74.3153 56.2562L70.5938 55.1608L73.22 53.96L74.3153 56.2562ZM79.7128 56.2562L80.8082 53.96L83.4476 55.1608L79.7128 56.2562Z" fill="#233447" stroke="#233447" stroke-width="0.124514" stroke-linecap="round" stroke-linejoin="round"/>
<path d="M70.0931 63.371L70.7266 58.0127L66.5957 58.1315L70.0931 63.371ZM83.3174 58.0127L83.9509 63.371L87.4484 58.1315L83.3174 58.0127ZM86.4585 52.1133L79.0413 52.4432L79.7276 56.2574L80.823 53.9609L83.4626 55.162L86.4585 52.1133ZM70.5946 55.162L73.2342 53.9609L74.3165 56.2574L75.0159 52.4432L67.5855 52.1133L70.5946 55.162Z" fill="#CD6116" stroke="#CD6116" stroke-width="0.124514" stroke-linecap="round" stroke-linejoin="round"/>
<path d="M67.584 52.1133L70.6986 58.184L70.593 55.1618L67.584 52.1133ZM83.4604 55.1618L83.3285 58.184L86.4562 52.1133L83.4604 55.1618ZM75.0142 52.4432L74.3147 56.2572L75.1857 60.7575L75.3837 54.8319L75.0142 52.4432ZM79.0393 52.4432L78.683 54.8187L78.8413 60.7575L79.7256 56.2572L79.0393 52.4432Z" fill="#E4751F" stroke="#E4751F" stroke-width="0.124514" stroke-linecap="round" stroke-linejoin="round"/>
<path d="M79.7261 56.2555L78.8419 60.7557L79.4753 61.1911L83.3289 58.1822L83.4608 55.1602L79.7261 56.2555ZM70.5938 55.1602L70.6993 58.1822L74.5529 61.1911L75.1863 60.7557L74.3153 56.2555L70.5938 55.1602Z" fill="#F6851B" stroke="#F6851B" stroke-width="0.124514" stroke-linecap="round" stroke-linejoin="round"/>
<path d="M79.7916 65.3365L79.8312 64.1092L79.5012 63.8188H74.526L74.2225 64.1092L74.2488 65.3365L70.0918 63.3701L71.5435 64.5579L74.4864 66.6034H79.5409L82.497 64.5579L83.9486 63.3701L79.7916 65.3365Z" fill="#C0AD9E" stroke="#C0AD9E" stroke-width="0.124514" stroke-linecap="round" stroke-linejoin="round"/>
<path d="M79.475 61.1923L78.8416 60.7568H75.186L74.5525 61.1923L74.2227 64.1088L74.5261 63.8185H79.5014L79.8314 64.1088L79.475 61.1923Z" fill="#161616" stroke="#161616" stroke-width="0.124514" stroke-linecap="round" stroke-linejoin="round"/>
<path d="M92.7262 45.7921L93.848 40.4073L92.1719 35.4053L79.4755 44.8286L84.3587 48.9595L91.2612 50.9788L92.7922 49.1971L92.1323 48.722L93.1881 47.7585L92.3699 47.125L93.4256 46.3199L92.7262 45.7921ZM60.1934 40.4073L61.3152 45.7921L60.6025 46.3199L61.6583 47.125L60.8533 47.7585L61.9091 48.722L61.2492 49.1971L62.7669 50.9788L69.6695 48.9595L74.5527 44.8286L61.8563 35.4053L60.1934 40.4073Z" fill="#763D16" stroke="#763D16" stroke-width="0.124514" stroke-linecap="round" stroke-linejoin="round"/>
<path d="M91.2633 50.9769L84.3609 48.9576L86.4593 52.1119L83.3314 58.1829L87.4491 58.1302H93.5862L91.2633 50.9769ZM69.6716 48.9576L62.7691 50.9769L60.4727 58.1302H66.5965L70.701 58.1829L67.5863 52.1119L69.6716 48.9576ZM79.0421 52.4419L79.4776 44.8267L81.4837 39.4023H72.5751L74.5548 44.8267L75.0167 52.4419L75.1751 54.8439L75.1883 60.7565H78.8441L78.8705 54.8439L79.0421 52.4419Z" fill="#F6851B" stroke="#F6851B" stroke-width="0.124514" stroke-linecap="round" stroke-linejoin="round"/>
<path d="M94.0038 84.4287H60.0864C56.0724 84.4287 52.8184 87.6827 52.8184 91.6967V125.614C52.8184 129.628 56.0724 132.882 60.0864 132.882H94.0038C98.0178 132.882 101.272 129.628 101.272 125.614V91.6967C101.272 87.6827 98.0178 84.4287 94.0038 84.4287Z" fill="#12FF80"/>
<path d="M86.534 108.659H84.2171C83.5252 108.659 82.9646 109.22 82.9646 109.912V113.275C82.9646 113.966 82.4036 114.527 81.7121 114.527H72.4947C71.8028 114.527 71.2422 115.088 71.2422 115.78V118.096C71.2422 118.788 71.8031 119.349 72.4947 119.349H82.2456C82.9375 119.349 83.4907 118.788 83.4907 118.096V116.238C83.4907 115.546 84.0516 115.055 84.7432 115.055H86.534C87.2259 115.055 87.7865 114.494 87.7865 113.802V109.897C87.7865 109.205 87.2255 108.659 86.534 108.659Z" fill="#121312"/>
<path d="M71.5986 104.497C71.5986 103.755 72.2007 103.153 72.9428 103.153H82.8287C83.5713 103.153 84.1729 102.551 84.1729 101.809V99.3222C84.1729 98.5797 83.5709 97.978 82.8287 97.978H72.3699C71.6274 97.978 71.0257 98.5801 71.0257 99.3222V101.238C71.0257 101.98 70.4237 102.582 69.6815 102.582H67.768C67.0255 102.582 66.4238 103.184 66.4238 103.926V108.122C66.4238 108.864 67.028 109.436 67.7706 109.436H70.257C70.9995 109.436 71.6012 108.834 71.6012 108.091L71.5986 104.497Z" fill="#121312"/>
<path d="M76.0131 106.219H78.2387C78.9638 106.219 79.5526 106.808 79.5526 107.533V109.758C79.5526 110.483 78.9638 111.072 78.2387 111.072H76.0131C75.288 111.072 74.6992 110.483 74.6992 109.758V107.533C74.6992 106.808 75.288 106.219 76.0131 106.219Z" fill="#121312"/>
<path d="M151.344 84.4287H117.426C113.412 84.4287 110.158 87.6827 110.158 91.6967V125.614C110.158 129.628 113.412 132.882 117.426 132.882H151.344C155.358 132.882 158.612 129.628 158.612 125.614V91.6967C158.612 87.6827 155.358 84.4287 151.344 84.4287Z" fill="url(#paint1_radial_12158_10)"/>
<path d="M126.162 103.491C130.702 99.0713 138.07 99.0713 142.61 103.491L143.156 104.027C143.385 104.247 143.385 104.607 143.156 104.827L141.287 106.646C141.173 106.76 140.988 106.76 140.873 106.646L140.124 105.917C136.951 102.832 131.821 102.832 128.648 105.917L127.846 106.699C127.731 106.813 127.546 106.813 127.432 106.699L125.563 104.88C125.334 104.66 125.334 104.3 125.563 104.08L126.162 103.491ZM146.479 107.252L148.145 108.869C148.374 109.089 148.374 109.449 148.145 109.669L140.644 116.971C140.415 117.191 140.045 117.191 139.824 116.971L134.501 111.786C134.448 111.734 134.351 111.734 134.298 111.786L128.974 116.971C128.745 117.191 128.375 117.191 128.154 116.971L120.627 109.669C120.398 109.449 120.398 109.089 120.627 108.869L122.293 107.252C122.522 107.033 122.892 107.033 123.113 107.252L128.436 112.437C128.489 112.489 128.586 112.489 128.639 112.437L133.963 107.252C134.192 107.033 134.562 107.033 134.783 107.252L140.106 112.437C140.159 112.489 140.256 112.489 140.309 112.437L145.633 107.252C145.88 107.033 146.25 107.033 146.479 107.252Z" fill="white"/>
<path d="M151.344 26.8164H117.426C113.412 26.8164 110.158 30.0704 110.158 34.0844V68.0018C110.158 72.0158 113.412 75.2698 117.426 75.2698H151.344C155.358 75.2698 158.612 72.0158 158.612 68.0018V34.0844C158.612 30.0704 155.358 26.8164 151.344 26.8164Z" fill="#1C7DFC"/>
<path d="M151.344 26.8164H117.426C113.412 26.8164 110.158 30.0704 110.158 34.0844V68.0018C110.158 72.0158 113.412 75.2698 117.426 75.2698H151.344C155.358 75.2698 158.612 72.0158 158.612 68.0018V34.0844C158.612 30.0704 155.358 26.8164 151.344 26.8164Z" fill="white"/>
<g clip-path="url(#clip0_12158_10)">
<path d="M117.631 56.9043V65.1531H130.431V63.3238H119.496V56.9043H117.631ZM149.796 56.9043V63.3238H138.861V65.1527H151.662V56.9043H149.796ZM130.45 44.3514V56.9039H138.861V55.2542H132.315V44.3514H130.45ZM117.631 36.1025V44.3514H119.496V37.9315H130.431V36.1025H117.631ZM138.861 36.1025V37.9315H149.796V44.3514H151.662V36.1025H138.861Z" fill="black"/>
</g>
</g>
<defs>
<linearGradient id="paint0_linear_12158_10" x1="306.971" y1="64.9011" x2="322.734" y2="70.1382" gradientUnits="userSpaceOnUse">
<stop stop-color="#0129BA"/>
<stop offset="1" stop-color="#1648F8"/>
</linearGradient>
<radialGradient id="paint1_radial_12158_10" cx="0" cy="0" r="1" gradientUnits="userSpaceOnUse" gradientTransform="translate(110.158 108.656) scale(48.4534)">
<stop stop-color="#5D9DF6"/>
<stop offset="1" stop-color="#006FFF"/>
</radialGradient>
<clipPath id="clip0_12158_10">
<rect width="34.0307" height="29.0506" fill="white" transform="translate(117.631 36.1025)"/>
</clipPath>
</defs>
</svg>
