<svg width="349" height="302" viewBox="0 0 349 302" fill="none" xmlns="http://www.w3.org/2000/svg">
<path fill-rule="evenodd" clip-rule="evenodd" d="M120.133 238.396L232.372 54.6417L236.639 57.248L124.4 241.003L120.133 238.396Z" fill="#6C6D6F"/>
<path fill-rule="evenodd" clip-rule="evenodd" d="M70.7273 145.322L286.049 145.322L286.049 150.322L70.7273 150.322L70.7273 145.322Z" fill="#6C6D6F"/>
<path fill-rule="evenodd" clip-rule="evenodd" d="M126.72 53.3366L234.381 239.811L230.051 242.311L122.39 55.8366L126.72 53.3366Z" fill="#6C6D6F"/>
<rect x="71" width="73.9998" height="73.9998" rx="36.9999" fill="#2241AC"/>
<mask id="mask0_17438_36616" style="mask-type:alpha" maskUnits="userSpaceOnUse" x="71" y="0" width="74" height="74">
<rect x="71" width="73.9998" height="73.9998" rx="36.9999" fill="#2241AC"/>
</mask>
<g mask="url(#mask0_17438_36616)">
<path d="M113.49 17.0416V15.7048H110.816V13.031H109.479V5.00977H106.805V13.031H105.469V15.7048H102.795V17.0416V18.3784H100.121V76.3693V82.5483H112.153H113.49H116.163V69.1797V66.506V65.1692V62.4954V61.1586V58.4847V57.1479V54.4742V53.1374V50.4636V49.1268V46.4531V45.1163V42.4422V41.1054V38.8073V38.4209V37.3783V18.3785H113.49V17.0416ZM102.795 21.0523H113.49V23.726H102.795V21.0523ZM102.795 25.063H113.49V27.7367H102.795V25.063ZM102.795 29.0735H113.49V31.7473H102.795V29.0735ZM102.795 33.0841H113.49V35.7578H102.795V33.0841ZM113.49 67.8429H112.153H102.795V65.1692H112.153H113.49V67.8429ZM113.49 63.8322H112.153H102.795V61.1585H112.153H113.49V63.8322ZM113.49 59.8215H112.153H102.795V57.1478H112.153H113.49V59.8215ZM113.49 55.811H112.153H102.795V53.1372H112.153H113.49V55.811ZM113.49 51.8004H112.153H102.795V49.1267H112.153H113.49V51.8004ZM113.49 47.7897H112.153H102.795V45.116H112.153H113.49V47.7897ZM113.49 43.7791H112.153H102.795V41.1053H112.153H113.49V43.7791ZM113.49 39.7685H112.153H102.795V37.0947H113.49V38.909L113.49 39.7685Z" fill="white"/>
<path fill-rule="evenodd" clip-rule="evenodd" d="M118.357 42.4396V41.1028L118.358 38.032L134.654 31.0762V31.7446V77.6446V78.7168V79.8825V82.5457H123.625H118.626H118.357V81.8773V79.3399V69.177V66.5029V65.1661V62.4923V61.1555V58.4818V57.145V54.4712V53.1344V50.4607V49.1239V46.4501V45.1133V42.4396ZM131.98 66.5033H129.306V69.177H131.98V66.5033ZM129.306 62.4926V65.1664H131.98V62.4926H129.306ZM129.306 58.4821V61.1558H131.98V58.4821H129.306ZM129.306 54.4715V57.1453H131.98V54.4715H129.306ZM129.306 50.4608V53.1346H131.98V50.4608H129.306ZM129.306 46.4501V49.1239H131.98V46.4501H129.306ZM129.306 42.4396V45.1133H131.98V42.4396H129.306ZM127.97 42.4396H125.296V45.1133H127.97V42.4396ZM127.97 46.4503H125.296V49.124H127.97V46.4503ZM127.97 50.4608H125.296V53.1346H127.97V50.4608ZM127.97 54.4714H125.296V57.1451H127.97V54.4714ZM127.97 58.4821H125.296V61.1558H127.97V58.4821ZM127.97 62.4927H125.296V65.1665H127.97V62.4927ZM127.97 66.5033H125.296V69.177H127.97V66.5033ZM123.748 42.4395H121.074V45.1132H123.748V42.4395ZM123.748 46.4501H121.074V49.1239H123.748V46.4501ZM121.074 50.4607H123.748V53.1344H121.074V50.4607ZM123.748 54.4713H121.074V57.145H123.748V54.4713ZM121.074 58.4819H123.748V61.1557H121.074V58.4819ZM123.748 62.4926H121.074V65.1664H123.748V62.4926ZM121.074 66.5032H123.748V69.1769H121.074V66.5032Z" fill="white"/>
<path fill-rule="evenodd" clip-rule="evenodd" d="M81.1387 42.4396V41.1028L81.1388 38.032L97.4352 31.0762V31.7446V77.6446V78.7168V79.8825V82.5457H86.406H81.4074H81.1387V81.8773V79.3399V69.177V66.5029V65.1661V62.4923V61.1555V58.4818V57.145V54.4712V53.1344V50.4607V49.1239V46.4501V45.1133V42.4396ZM94.7614 66.5033H92.0876V69.177H94.7614V66.5033ZM92.0876 62.4926V65.1664H94.7614V62.4926H92.0876ZM92.0876 58.4821V61.1558H94.7614V58.4821H92.0876ZM92.0876 54.4715V57.1453H94.7614V54.4715H92.0876ZM92.0876 50.4608V53.1346H94.7614V50.4608H92.0876ZM92.0876 46.4501V49.1239H94.7614V46.4501H92.0876ZM92.0876 42.4396V45.1133H94.7614V42.4396H92.0876ZM90.7508 42.4396H88.077V45.1133H90.7508V42.4396ZM90.7508 46.4503H88.077V49.124H90.7508V46.4503ZM90.7508 50.4608H88.077V53.1346H90.7508V50.4608ZM90.7508 54.4714H88.077V57.1451H90.7508V54.4714ZM90.7508 58.4821H88.077V61.1558H90.7508V58.4821ZM90.7508 62.4927H88.077V65.1665H90.7508V62.4927ZM90.7508 66.5033H88.077V69.177H90.7508V66.5033ZM86.5273 42.4395H83.8535V45.1132H86.5273V42.4395ZM86.5273 46.4501H83.8535V49.1239H86.5273V46.4501ZM83.8535 50.4607H86.5273V53.1344H83.8535V50.4607ZM86.5273 54.4713H83.8535V57.145H86.5273V54.4713ZM83.8535 58.4819H86.5273V61.1557H83.8535V58.4819ZM86.5273 62.4926H83.8535V65.1664H86.5273V62.4926ZM83.8535 66.5032H86.5273V69.1769H83.8535V66.5032Z" fill="white"/>
</g>
<path fill-rule="evenodd" clip-rule="evenodd" d="M73.2522 36.9999C73.2522 56.1906 88.8093 71.7477 108 71.7477C127.191 71.7477 142.748 56.1906 142.748 36.9999C142.748 17.8093 127.191 2.25217 108 2.25217C88.8093 2.25217 73.2522 17.8093 73.2522 36.9999ZM108 0C87.5654 0 71 16.5654 71 36.9999C71 57.4344 87.5654 73.9998 108 73.9998C128.434 73.9998 145 57.4344 145 36.9999C145 16.5654 128.434 0 108 0Z" fill="#191919"/>
<rect x="108" y="37" width="37" height="37" rx="18.5" fill="#2A2323"/>
<path d="M133.844 60.3201C133.185 59.1489 132.106 57.8224 130.349 57.0684C129.345 57.7713 128.124 58.1851 126.808 58.1851C125.492 58.1851 124.271 57.7713 123.266 57.0684C121.51 57.8224 120.431 59.149 119.772 60.3201C118.898 61.8734 119.583 64.0713 121.095 64.0713C122.606 64.0713 126.808 64.0713 126.808 64.0713C126.808 64.0713 131.01 64.0713 132.521 64.0713C134.033 64.0713 134.718 61.8734 133.844 60.3201Z" fill="white"/>
<path d="M126.807 56.7134C129.388 56.7134 131.479 54.6214 131.479 52.0413V50.9221C131.479 48.342 129.388 46.25 126.807 46.25C124.226 46.25 122.135 48.342 122.135 50.9221V52.0413C122.135 54.6214 124.226 56.7134 126.807 56.7134Z" fill="white"/>
<rect y="113" width="73.9998" height="73.9998" rx="36.9999" fill="#2241AC"/>
<mask id="mask1_17438_36616" style="mask-type:alpha" maskUnits="userSpaceOnUse" x="0" y="113" width="74" height="74">
<rect y="113" width="73.9998" height="73.9998" rx="36.9999" fill="#2241AC"/>
</mask>
<g mask="url(#mask1_17438_36616)">
<path d="M42.4858 130.04V128.703H39.812V126.029H38.4752V118.008H35.8015V126.029H34.4647V128.703H31.7909V130.04V131.376H29.1172V189.367V195.546H41.149H42.4858H45.1595V182.178V179.504V178.167V175.493V174.157V171.483V170.146V167.472V166.135V163.462V162.125V159.451V158.114V155.44V154.103V151.805V151.419V150.376V131.377H42.4858V130.04ZM31.7908 134.05H42.4858V136.724H31.7908V134.05ZM31.7908 138.061H42.4858V140.735H31.7908V138.061ZM31.7908 142.072H42.4858V144.745H31.7908V142.072ZM31.7908 146.082H42.4858V148.756H31.7908V146.082ZM42.4858 180.841H41.149H31.7909V178.167H41.149H42.4858V180.841ZM42.4858 176.83H41.149H31.7909V174.157H41.149H42.4858V176.83ZM42.4858 172.82H41.149H31.7909V170.146H41.149H42.4858V172.82ZM42.4858 168.809H41.149H31.7909V166.135H41.149H42.4858V168.809ZM42.4858 164.798H41.149H31.7909V162.125H41.149H42.4858V164.798ZM42.4858 160.788H41.149H31.7909V158.114H41.149H42.4858V160.788ZM42.4858 156.777H41.149H31.7909V154.103H41.149H42.4858V156.777ZM42.4858 152.767H41.149H31.7909V150.093H42.4859V151.907L42.4858 152.767Z" fill="white"/>
<path fill-rule="evenodd" clip-rule="evenodd" d="M47.3555 155.438V154.101L47.3556 151.03L63.652 144.074V144.743V190.643V191.715V192.881V195.544H52.6228H47.6242H47.3555V194.875V192.338V182.175V179.501V178.164V175.49V174.154V171.48V170.143V167.469V166.132V163.459V162.122V159.448V158.111V155.438ZM60.9782 179.501H58.3044V182.175H60.9782V179.501ZM58.3044 175.491V178.164H60.9782V175.491H58.3044ZM58.3044 171.48V174.154H60.9782V171.48H58.3044ZM58.3044 167.47V170.143H60.9782V167.47H58.3044ZM58.3044 163.459V166.133H60.9782V163.459H58.3044ZM58.3044 159.448V162.122H60.9782V159.448H58.3044ZM58.3044 155.438V158.111H60.9782V155.438H58.3044ZM56.9676 155.438H54.2938V158.111H56.9676V155.438ZM56.9676 159.448H54.2938V162.122H56.9676V159.448ZM56.9676 163.459H54.2938V166.133H56.9676V163.459ZM56.9676 167.469H54.2938V170.143H56.9676V167.469ZM56.9676 171.48H54.2938V174.154H56.9676V171.48ZM56.9676 175.491H54.2938V178.165H56.9676V175.491ZM56.9676 179.501H54.2938V182.175H56.9676V179.501ZM52.748 155.438H50.0742V158.111H52.748V155.438ZM52.748 159.448H50.0742V162.122H52.748V159.448ZM50.0742 163.459H52.748V166.132H50.0742V163.459ZM52.748 167.469H50.0742V170.143H52.748V167.469ZM50.0742 171.48H52.748V174.154H50.0742V171.48ZM52.748 175.491H50.0742V178.164H52.748V175.491ZM50.0742 179.501H52.748V182.175H50.0742V179.501Z" fill="white"/>
<path fill-rule="evenodd" clip-rule="evenodd" d="M10.1367 155.438V154.101L10.1369 151.03L26.4333 144.074V144.743V190.643V191.715V192.881V195.544H15.404H10.4054H10.1367V194.875V192.338V182.175V179.501V178.164V175.49V174.154V171.48V170.143V167.469V166.132V163.459V162.122V159.448V158.111V155.438ZM23.7594 179.501H21.0857V182.175H23.7594V179.501ZM21.0857 175.491V178.164H23.7594V175.491H21.0857ZM21.0857 171.48V174.154H23.7594V171.48H21.0857ZM21.0857 167.47V170.143H23.7594V167.47H21.0857ZM21.0857 163.459V166.133H23.7594V163.459H21.0857ZM21.0857 159.448V162.122H23.7594V159.448H21.0857ZM21.0857 155.438V158.111H23.7594V155.438H21.0857ZM19.7488 155.438H17.0751V158.111H19.7488V155.438ZM19.7488 159.448H17.0751V162.122H19.7488V159.448ZM19.7488 163.459H17.0751V166.133H19.7488V163.459ZM19.7488 167.469H17.0751V170.143H19.7488V167.469ZM19.7488 171.48H17.0751V174.154H19.7488V171.48ZM19.7488 175.491H17.0751V178.165H19.7488V175.491ZM19.7488 179.501H17.0751V182.175H19.7488V179.501ZM15.5253 155.438H12.8516V158.111H15.5253V155.438ZM15.5253 159.448H12.8516V162.122H15.5253V159.448ZM12.8516 163.459H15.5253V166.132H12.8516V163.459ZM15.5253 167.469H12.8516V170.143H15.5253V167.469ZM12.8516 171.48H15.5253V174.154H12.8516V171.48ZM15.5253 175.491H12.8516V178.164H15.5253V175.491ZM12.8516 179.501H15.5253V182.175H12.8516V179.501Z" fill="white"/>
</g>
<path fill-rule="evenodd" clip-rule="evenodd" d="M2.25217 150C2.25217 169.191 17.8093 184.748 36.9999 184.748C56.1906 184.748 71.7477 169.191 71.7477 150C71.7477 130.809 56.1906 115.252 36.9999 115.252C17.8093 115.252 2.25217 130.809 2.25217 150ZM36.9999 113C16.5654 113 0 129.565 0 150C0 170.434 16.5654 187 36.9999 187C57.4344 187 73.9998 170.434 73.9998 150C73.9998 129.565 57.4344 113 36.9999 113Z" fill="#191919"/>
<rect x="37" y="150" width="37" height="37" rx="18.5" fill="#2A2323"/>
<path d="M62.8438 173.318C62.185 172.147 61.1059 170.82 59.3492 170.066C58.3445 170.769 57.1239 171.183 55.8081 171.183C54.4916 171.183 53.271 170.769 52.2663 170.066C50.5096 170.82 49.4305 172.147 48.7721 173.318C47.8982 174.871 48.5833 177.069 50.0947 177.069C51.6061 177.069 55.8082 177.069 55.8082 177.069C55.8082 177.069 60.0098 177.069 61.5213 177.069C63.0326 177.069 63.7177 174.871 62.8438 173.318Z" fill="white"/>
<path d="M55.8092 169.713C58.3896 169.713 60.4809 167.621 60.4809 165.041V163.922C60.4809 161.342 58.3896 159.25 55.8092 159.25C53.2283 159.25 51.1367 161.342 51.1367 163.922V165.041C51.1367 167.621 53.2283 169.713 55.8092 169.713Z" fill="white"/>
<rect x="69" y="228" width="73.9998" height="73.9998" rx="36.9999" fill="#2241AC"/>
<mask id="mask2_17438_36616" style="mask-type:alpha" maskUnits="userSpaceOnUse" x="69" y="228" width="74" height="74">
<rect x="69" y="228" width="73.9998" height="73.9998" rx="36.9999" fill="#2241AC"/>
</mask>
<g mask="url(#mask2_17438_36616)">
<path d="M111.49 245.042V243.705H108.816V241.031H107.479V233.01H104.805V241.031H103.469V243.705H100.795V245.042V246.378H98.1211V304.369V310.548H110.153H111.49H114.163V297.18V294.506V293.169V290.495V289.159V286.485V285.148V282.474V281.137V278.464V277.127V274.453V273.116V270.442V269.105V266.807V266.421V265.378V246.379H111.49V245.042ZM100.795 249.052H111.49V251.726H100.795V249.052ZM100.795 253.063H111.49V255.737H100.795V253.063ZM100.795 257.074H111.49V259.747H100.795V257.074ZM100.795 261.084H111.49V263.758H100.795V261.084ZM111.49 295.843H110.153H100.795V293.169H110.153H111.49V295.843ZM111.49 291.832H110.153H100.795V289.158H110.153H111.49V291.832ZM111.49 287.822H110.153H100.795V285.148H110.153H111.49V287.822ZM111.49 283.811H110.153H100.795V281.137H110.153H111.49V283.811ZM111.49 279.8H110.153H100.795V277.127H110.153H111.49V279.8ZM111.49 275.79H110.153H100.795V273.116H110.153H111.49V275.79ZM111.49 271.779H110.153H100.795V269.105H110.153H111.49V271.779ZM111.49 267.768H110.153H100.795V265.095H111.49V266.909L111.49 267.768Z" fill="white"/>
<path fill-rule="evenodd" clip-rule="evenodd" d="M116.357 270.44V269.103L116.358 266.032L132.654 259.076V259.745V305.645V306.717V307.883V310.546H121.625H116.626H116.357V309.877V307.34V297.177V294.503V293.166V290.492V289.156V286.482V285.145V282.471V281.134V278.461V277.124V274.45V273.113V270.44ZM129.98 294.503H127.306V297.177H129.98V294.503ZM127.306 290.493V293.166H129.98V290.493H127.306ZM127.306 286.482V289.156H129.98V286.482H127.306ZM127.306 282.472V285.145H129.98V282.472H127.306ZM127.306 278.461V281.135H129.98V278.461H127.306ZM127.306 274.45V277.124H129.98V274.45H127.306ZM127.306 270.44V273.113H129.98V270.44H127.306ZM125.97 270.44H123.296V273.113H125.97V270.44ZM125.97 274.45H123.296V277.124H125.97V274.45ZM125.97 278.461H123.296V281.135H125.97V278.461ZM125.97 282.471H123.296V285.145H125.97V282.471ZM125.97 286.482H123.296V289.156H125.97V286.482ZM125.97 290.493H123.296V293.166H125.97V290.493ZM125.97 294.503H123.296V297.177H125.97V294.503ZM121.748 270.439H119.074V273.113H121.748V270.439ZM121.748 274.45H119.074V277.124H121.748V274.45ZM119.074 278.461H121.748V281.134H119.074V278.461ZM121.748 282.471H119.074V285.145H121.748V282.471ZM119.074 286.482H121.748V289.156H119.074V286.482ZM121.748 290.493H119.074V293.166H121.748V290.493ZM119.074 294.503H121.748V297.177H119.074V294.503Z" fill="white"/>
<path fill-rule="evenodd" clip-rule="evenodd" d="M79.1387 270.44V269.103L79.1388 266.032L95.4352 259.076V259.745V305.645V306.717V307.883V310.546H84.406H79.4074H79.1387V309.877V307.34V297.177V294.503V293.166V290.492V289.156V286.482V285.145V282.471V281.134V278.461V277.124V274.45V273.113V270.44ZM92.7614 294.503H90.0876V297.177H92.7614V294.503ZM90.0876 290.493V293.166H92.7614V290.493H90.0876ZM90.0876 286.482V289.156H92.7614V286.482H90.0876ZM90.0876 282.472V285.145H92.7614V282.472H90.0876ZM90.0876 278.461V281.135H92.7614V278.461H90.0876ZM90.0876 274.45V277.124H92.7614V274.45H90.0876ZM90.0876 270.44V273.113H92.7614V270.44H90.0876ZM88.7508 270.44H86.077V273.113H88.7508V270.44ZM88.7508 274.45H86.077V277.124H88.7508V274.45ZM88.7508 278.461H86.077V281.135H88.7508V278.461ZM88.7508 282.471H86.077V285.145H88.7508V282.471ZM88.7508 286.482H86.077V289.156H88.7508V286.482ZM88.7508 290.493H86.077V293.166H88.7508V290.493ZM88.7508 294.503H86.077V297.177H88.7508V294.503ZM84.5273 270.439H81.8535V273.113H84.5273V270.439ZM84.5273 274.45H81.8535V277.124H84.5273V274.45ZM81.8535 278.461H84.5273V281.134H81.8535V278.461ZM84.5273 282.471H81.8535V285.145H84.5273V282.471ZM81.8535 286.482H84.5273V289.156H81.8535V286.482ZM84.5273 290.493H81.8535V293.166H84.5273V290.493ZM81.8535 294.503H84.5273V297.177H81.8535V294.503Z" fill="white"/>
</g>
<path fill-rule="evenodd" clip-rule="evenodd" d="M71.2522 265C71.2522 284.191 86.8093 299.748 106 299.748C125.191 299.748 140.748 284.191 140.748 265C140.748 245.809 125.191 230.252 106 230.252C86.8093 230.252 71.2522 245.809 71.2522 265ZM106 228C85.5654 228 69 244.565 69 265C69 285.434 85.5654 302 106 302C126.434 302 143 285.434 143 265C143 244.565 126.434 228 106 228Z" fill="#191919"/>
<rect x="106" y="265" width="37" height="37" rx="18.5" fill="#2A2323"/>
<path d="M131.844 288.32C131.185 287.149 130.106 285.822 128.349 285.068C127.345 285.771 126.124 286.185 124.808 286.185C123.492 286.185 122.271 285.771 121.266 285.068C119.51 285.822 118.431 287.149 117.772 288.32C116.898 289.873 117.583 292.071 119.095 292.071C120.606 292.071 124.808 292.071 124.808 292.071C124.808 292.071 129.01 292.071 130.521 292.071C132.033 292.071 132.718 289.873 131.844 288.32Z" fill="white"/>
<path d="M124.807 284.713C127.388 284.713 129.479 282.621 129.479 280.041V278.922C129.479 276.342 127.388 274.25 124.807 274.25C122.226 274.25 120.135 276.342 120.135 278.922V280.041C120.135 282.621 122.226 284.713 124.807 284.713Z" fill="white"/>
<rect x="202" y="228" width="73.9998" height="73.9998" rx="36.9999" fill="#2241AC"/>
<mask id="mask3_17438_36616" style="mask-type:alpha" maskUnits="userSpaceOnUse" x="202" y="228" width="74" height="74">
<rect x="202" y="228" width="73.9998" height="73.9998" rx="36.9999" fill="#2241AC"/>
</mask>
<g mask="url(#mask3_17438_36616)">
<path d="M244.49 245.042V243.705H241.816V241.031H240.479V233.01H237.805V241.031H236.469V243.705H233.795V245.042V246.378H231.121V304.369V310.548H243.153H244.49H247.163V297.18V294.506V293.169V290.495V289.159V286.485V285.148V282.474V281.137V278.464V277.127V274.453V273.116V270.442V269.105V266.807V266.421V265.378V246.379H244.49V245.042ZM233.795 249.052H244.49V251.726H233.795V249.052ZM233.795 253.063H244.49V255.737H233.795V253.063ZM233.795 257.074H244.49V259.747H233.795V257.074ZM233.795 261.084H244.49V263.758H233.795V261.084ZM244.49 295.843H243.153H233.795V293.169H243.153H244.49V295.843ZM244.49 291.832H243.153H233.795V289.158H243.153H244.49V291.832ZM244.49 287.822H243.153H233.795V285.148H243.153H244.49V287.822ZM244.49 283.811H243.153H233.795V281.137H243.153H244.49V283.811ZM244.49 279.8H243.153H233.795V277.127H243.153H244.49V279.8ZM244.49 275.79H243.153H233.795V273.116H243.153H244.49V275.79ZM244.49 271.779H243.153H233.795V269.105H243.153H244.49V271.779ZM244.49 267.768H243.153H233.795V265.095H244.49V266.909L244.49 267.768Z" fill="white"/>
<path fill-rule="evenodd" clip-rule="evenodd" d="M249.357 270.44V269.103L249.358 266.032L265.654 259.076V259.745V305.645V306.717V307.883V310.546H254.625H249.626H249.357V309.877V307.34V297.177V294.503V293.166V290.492V289.156V286.482V285.145V282.471V281.134V278.461V277.124V274.45V273.113V270.44ZM262.98 294.503H260.306V297.177H262.98V294.503ZM260.306 290.493V293.166H262.98V290.493H260.306ZM260.306 286.482V289.156H262.98V286.482H260.306ZM260.306 282.472V285.145H262.98V282.472H260.306ZM260.306 278.461V281.135H262.98V278.461H260.306ZM260.306 274.45V277.124H262.98V274.45H260.306ZM260.306 270.44V273.113H262.98V270.44H260.306ZM258.97 270.44H256.296V273.113H258.97V270.44ZM258.97 274.45H256.296V277.124H258.97V274.45ZM258.97 278.461H256.296V281.135H258.97V278.461ZM258.97 282.471H256.296V285.145H258.97V282.471ZM258.97 286.482H256.296V289.156H258.97V286.482ZM258.97 290.493H256.296V293.166H258.97V290.493ZM258.97 294.503H256.296V297.177H258.97V294.503ZM254.748 270.439H252.074V273.113H254.748V270.439ZM254.748 274.45H252.074V277.124H254.748V274.45ZM252.074 278.461H254.748V281.134H252.074V278.461ZM254.748 282.471H252.074V285.145H254.748V282.471ZM252.074 286.482H254.748V289.156H252.074V286.482ZM254.748 290.493H252.074V293.166H254.748V290.493ZM252.074 294.503H254.748V297.177H252.074V294.503Z" fill="white"/>
<path fill-rule="evenodd" clip-rule="evenodd" d="M212.139 270.44V269.103L212.139 266.032L228.435 259.076V259.745V305.645V306.717V307.883V310.546H217.406H212.407H212.139V309.877V307.34V297.177V294.503V293.166V290.492V289.156V286.482V285.145V282.471V281.134V278.461V277.124V274.45V273.113V270.44ZM225.761 294.503H223.088V297.177H225.761V294.503ZM223.088 290.493V293.166H225.761V290.493H223.088ZM223.088 286.482V289.156H225.761V286.482H223.088ZM223.088 282.472V285.145H225.761V282.472H223.088ZM223.088 278.461V281.135H225.761V278.461H223.088ZM223.088 274.45V277.124H225.761V274.45H223.088ZM223.088 270.44V273.113H225.761V270.44H223.088ZM221.751 270.44H219.077V273.113H221.751V270.44ZM221.751 274.45H219.077V277.124H221.751V274.45ZM221.751 278.461H219.077V281.135H221.751V278.461ZM221.751 282.471H219.077V285.145H221.751V282.471ZM221.751 286.482H219.077V289.156H221.751V286.482ZM221.751 290.493H219.077V293.166H221.751V290.493ZM221.751 294.503H219.077V297.177H221.751V294.503ZM217.527 270.439H214.854V273.113H217.527V270.439ZM217.527 274.45H214.854V277.124H217.527V274.45ZM214.854 278.461H217.527V281.134H214.854V278.461ZM217.527 282.471H214.854V285.145H217.527V282.471ZM214.854 286.482H217.527V289.156H214.854V286.482ZM217.527 290.493H214.854V293.166H217.527V290.493ZM214.854 294.503H217.527V297.177H214.854V294.503Z" fill="white"/>
</g>
<path fill-rule="evenodd" clip-rule="evenodd" d="M204.252 265C204.252 284.191 219.809 299.748 239 299.748C258.191 299.748 273.748 284.191 273.748 265C273.748 245.809 258.191 230.252 239 230.252C219.809 230.252 204.252 245.809 204.252 265ZM239 228C218.565 228 202 244.565 202 265C202 285.434 218.565 302 239 302C259.434 302 276 285.434 276 265C276 244.565 259.434 228 239 228Z" fill="#191919"/>
<rect x="239" y="265" width="37" height="37" rx="18.5" fill="#2A2323"/>
<path d="M264.844 288.32C264.185 287.149 263.106 285.822 261.349 285.068C260.345 285.771 259.124 286.185 257.808 286.185C256.492 286.185 255.271 285.771 254.266 285.068C252.51 285.822 251.431 287.149 250.772 288.32C249.898 289.873 250.583 292.071 252.095 292.071C253.606 292.071 257.808 292.071 257.808 292.071C257.808 292.071 262.01 292.071 263.521 292.071C265.033 292.071 265.718 289.873 264.844 288.32Z" fill="white"/>
<path d="M257.807 284.713C260.388 284.713 262.479 282.621 262.479 280.041V278.922C262.479 276.342 260.388 274.25 257.807 274.25C255.226 274.25 253.135 276.342 253.135 278.922V280.041C253.135 282.621 255.226 284.713 257.807 284.713Z" fill="white"/>
<rect x="275" y="113" width="73.9998" height="73.9998" rx="36.9999" fill="#2241AC"/>
<mask id="mask4_17438_36616" style="mask-type:alpha" maskUnits="userSpaceOnUse" x="275" y="113" width="74" height="74">
<rect x="275" y="113" width="73.9998" height="73.9998" rx="36.9999" fill="#2241AC"/>
</mask>
<g mask="url(#mask4_17438_36616)">
<path d="M317.486 130.04V128.703H314.812V126.029H313.475V118.008H310.801V126.029H309.465V128.703H306.791V130.04V131.376H304.117V189.367V195.546H316.149H317.486H320.16V182.178V179.504V178.167V175.493V174.157V171.483V170.146V167.472V166.135V163.462V162.125V159.451V158.114V155.44V154.103V151.805V151.419V150.376V131.377H317.486V130.04ZM306.791 134.05H317.486V136.724H306.791V134.05ZM306.791 138.061H317.486V140.735H306.791V138.061ZM306.791 142.072H317.486V144.745H306.791V142.072ZM306.791 146.082H317.486V148.756H306.791V146.082ZM317.486 180.841H316.149H306.791V178.167H316.149H317.486V180.841ZM317.486 176.83H316.149H306.791V174.157H316.149H317.486V176.83ZM317.486 172.82H316.149H306.791V170.146H316.149H317.486V172.82ZM317.486 168.809H316.149H306.791V166.135H316.149H317.486V168.809ZM317.486 164.798H316.149H306.791V162.125H316.149H317.486V164.798ZM317.486 160.788H316.149H306.791V158.114H316.149H317.486V160.788ZM317.486 156.777H316.149H306.791V154.103H316.149H317.486V156.777ZM317.486 152.767H316.149H306.791V150.093H317.486V151.907L317.486 152.767Z" fill="white"/>
<path fill-rule="evenodd" clip-rule="evenodd" d="M322.355 155.438V154.101L322.356 151.03L338.652 144.074V144.743V190.643V191.715V192.881V195.544H327.623H322.624H322.355V194.875V192.338V182.175V179.501V178.164V175.49V174.154V171.48V170.143V167.469V166.132V163.459V162.122V159.448V158.111V155.438ZM335.978 179.501H333.304V182.175H335.978V179.501ZM333.304 175.491V178.164H335.978V175.491H333.304ZM333.304 171.48V174.154H335.978V171.48H333.304ZM333.304 167.47V170.143H335.978V167.47H333.304ZM333.304 163.459V166.133H335.978V163.459H333.304ZM333.304 159.448V162.122H335.978V159.448H333.304ZM333.304 155.438V158.111H335.978V155.438H333.304ZM331.968 155.438H329.294V158.111H331.968V155.438ZM331.968 159.448H329.294V162.122H331.968V159.448ZM331.968 163.459H329.294V166.133H331.968V163.459ZM331.968 167.469H329.294V170.143H331.968V167.469ZM331.968 171.48H329.294V174.154H331.968V171.48ZM331.968 175.491H329.294V178.165H331.968V175.491ZM331.968 179.501H329.294V182.175H331.968V179.501ZM327.748 155.438H325.074V158.111H327.748V155.438ZM327.748 159.448H325.074V162.122H327.748V159.448ZM325.074 163.459H327.748V166.132H325.074V163.459ZM327.748 167.469H325.074V170.143H327.748V167.469ZM325.074 171.48H327.748V174.154H325.074V171.48ZM327.748 175.491H325.074V178.164H327.748V175.491ZM325.074 179.501H327.748V182.175H325.074V179.501Z" fill="white"/>
<path fill-rule="evenodd" clip-rule="evenodd" d="M285.137 155.438V154.101L285.137 151.03L301.433 144.074V144.743V190.643V191.715V192.881V195.544H290.404H285.405H285.137V194.875V192.338V182.175V179.501V178.164V175.49V174.154V171.48V170.143V167.469V166.132V163.459V162.122V159.448V158.111V155.438ZM298.759 179.501H296.086V182.175H298.759V179.501ZM296.086 175.491V178.164H298.759V175.491H296.086ZM296.086 171.48V174.154H298.759V171.48H296.086ZM296.086 167.47V170.143H298.759V167.47H296.086ZM296.086 163.459V166.133H298.759V163.459H296.086ZM296.086 159.448V162.122H298.759V159.448H296.086ZM296.086 155.438V158.111H298.759V155.438H296.086ZM294.749 155.438H292.075V158.111H294.749V155.438ZM294.749 159.448H292.075V162.122H294.749V159.448ZM294.749 163.459H292.075V166.133H294.749V163.459ZM294.749 167.469H292.075V170.143H294.749V167.469ZM294.749 171.48H292.075V174.154H294.749V171.48ZM294.749 175.491H292.075V178.165H294.749V175.491ZM294.749 179.501H292.075V182.175H294.749V179.501ZM290.525 155.438H287.852V158.111H290.525V155.438ZM290.525 159.448H287.852V162.122H290.525V159.448ZM287.852 163.459H290.525V166.132H287.852V163.459ZM290.525 167.469H287.852V170.143H290.525V167.469ZM287.852 171.48H290.525V174.154H287.852V171.48ZM290.525 175.491H287.852V178.164H290.525V175.491ZM287.852 179.501H290.525V182.175H287.852V179.501Z" fill="white"/>
</g>
<path fill-rule="evenodd" clip-rule="evenodd" d="M277.252 150C277.252 169.191 292.809 184.748 312 184.748C331.191 184.748 346.748 169.191 346.748 150C346.748 130.809 331.191 115.252 312 115.252C292.809 115.252 277.252 130.809 277.252 150ZM312 113C291.565 113 275 129.565 275 150C275 170.434 291.565 187 312 187C332.434 187 349 170.434 349 150C349 129.565 332.434 113 312 113Z" fill="#191919"/>
<rect x="312" y="150" width="37" height="37" rx="18.5" fill="#2A2323"/>
<path d="M337.844 173.318C337.185 172.147 336.106 170.82 334.349 170.066C333.345 170.769 332.124 171.183 330.808 171.183C329.492 171.183 328.271 170.769 327.266 170.066C325.51 170.82 324.431 172.147 323.772 173.318C322.898 174.871 323.583 177.069 325.095 177.069C326.606 177.069 330.808 177.069 330.808 177.069C330.808 177.069 335.01 177.069 336.521 177.069C338.033 177.069 338.718 174.871 337.844 173.318Z" fill="white"/>
<path d="M330.809 169.713C333.39 169.713 335.481 167.621 335.481 165.041V163.922C335.481 161.342 333.39 159.25 330.809 159.25C328.228 159.25 326.137 161.342 326.137 163.922V165.041C326.137 167.621 328.228 169.713 330.809 169.713Z" fill="white"/>
<rect x="209" width="73.9998" height="73.9998" rx="36.9999" fill="#2241AC"/>
<mask id="mask5_17438_36616" style="mask-type:alpha" maskUnits="userSpaceOnUse" x="209" y="0" width="74" height="74">
<rect x="209" width="73.9998" height="73.9998" rx="36.9999" fill="#2241AC"/>
</mask>
<g mask="url(#mask5_17438_36616)">
<path d="M251.49 17.0416V15.7048H248.816V13.031H247.479V5.00977H244.805V13.031H243.469V15.7048H240.795V17.0416V18.3784H238.121V76.3693V82.5483H250.153H251.49H254.163V69.1797V66.506V65.1692V62.4954V61.1586V58.4847V57.1479V54.4742V53.1374V50.4636V49.1268V46.4531V45.1163V42.4422V41.1054V38.8073V38.4209V37.3783V18.3785H251.49V17.0416ZM240.795 21.0523H251.49V23.726H240.795V21.0523ZM240.795 25.063H251.49V27.7367H240.795V25.063ZM240.795 29.0735H251.49V31.7473H240.795V29.0735ZM240.795 33.0841H251.49V35.7578H240.795V33.0841ZM251.49 67.8429H250.153H240.795V65.1692H250.153H251.49V67.8429ZM251.49 63.8322H250.153H240.795V61.1585H250.153H251.49V63.8322ZM251.49 59.8215H250.153H240.795V57.1478H250.153H251.49V59.8215ZM251.49 55.811H250.153H240.795V53.1372H250.153H251.49V55.811ZM251.49 51.8004H250.153H240.795V49.1267H250.153H251.49V51.8004ZM251.49 47.7897H250.153H240.795V45.116H250.153H251.49V47.7897ZM251.49 43.7791H250.153H240.795V41.1053H250.153H251.49V43.7791ZM251.49 39.7685H250.153H240.795V37.0947H251.49V38.909L251.49 39.7685Z" fill="white"/>
<path fill-rule="evenodd" clip-rule="evenodd" d="M256.357 42.4396V41.1028L256.358 38.032L272.654 31.0762V31.7446V77.6446V78.7168V79.8825V82.5457H261.625H256.626H256.357V81.8773V79.3399V69.177V66.5029V65.1661V62.4923V61.1555V58.4818V57.145V54.4712V53.1344V50.4607V49.1239V46.4501V45.1133V42.4396ZM269.98 66.5033H267.306V69.177H269.98V66.5033ZM267.306 62.4926V65.1664H269.98V62.4926H267.306ZM267.306 58.4821V61.1558H269.98V58.4821H267.306ZM267.306 54.4715V57.1453H269.98V54.4715H267.306ZM267.306 50.4608V53.1346H269.98V50.4608H267.306ZM267.306 46.4501V49.1239H269.98V46.4501H267.306ZM267.306 42.4396V45.1133H269.98V42.4396H267.306ZM265.97 42.4396H263.296V45.1133H265.97V42.4396ZM265.97 46.4503H263.296V49.124H265.97V46.4503ZM265.97 50.4608H263.296V53.1346H265.97V50.4608ZM265.97 54.4714H263.296V57.1451H265.97V54.4714ZM265.97 58.4821H263.296V61.1558H265.97V58.4821ZM265.97 62.4927H263.296V65.1665H265.97V62.4927ZM265.97 66.5033H263.296V69.177H265.97V66.5033ZM261.748 42.4395H259.074V45.1132H261.748V42.4395ZM261.748 46.4501H259.074V49.1239H261.748V46.4501ZM259.074 50.4607H261.748V53.1344H259.074V50.4607ZM261.748 54.4713H259.074V57.145H261.748V54.4713ZM259.074 58.4819H261.748V61.1557H259.074V58.4819ZM261.748 62.4926H259.074V65.1664H261.748V62.4926ZM259.074 66.5032H261.748V69.1769H259.074V66.5032Z" fill="white"/>
<path fill-rule="evenodd" clip-rule="evenodd" d="M219.139 42.4396V41.1028L219.139 38.032L235.435 31.0762V31.7446V77.6446V78.7168V79.8825V82.5457H224.406H219.407H219.139V81.8773V79.3399V69.177V66.5029V65.1661V62.4923V61.1555V58.4818V57.145V54.4712V53.1344V50.4607V49.1239V46.4501V45.1133V42.4396ZM232.761 66.5033H230.088V69.177H232.761V66.5033ZM230.088 62.4926V65.1664H232.761V62.4926H230.088ZM230.088 58.4821V61.1558H232.761V58.4821H230.088ZM230.088 54.4715V57.1453H232.761V54.4715H230.088ZM230.088 50.4608V53.1346H232.761V50.4608H230.088ZM230.088 46.4501V49.1239H232.761V46.4501H230.088ZM230.088 42.4396V45.1133H232.761V42.4396H230.088ZM228.751 42.4396H226.077V45.1133H228.751V42.4396ZM228.751 46.4503H226.077V49.124H228.751V46.4503ZM228.751 50.4608H226.077V53.1346H228.751V50.4608ZM228.751 54.4714H226.077V57.1451H228.751V54.4714ZM228.751 58.4821H226.077V61.1558H228.751V58.4821ZM228.751 62.4927H226.077V65.1665H228.751V62.4927ZM228.751 66.5033H226.077V69.177H228.751V66.5033ZM224.527 42.4395H221.854V45.1132H224.527V42.4395ZM224.527 46.4501H221.854V49.1239H224.527V46.4501ZM221.854 50.4607H224.527V53.1344H221.854V50.4607ZM224.527 54.4713H221.854V57.145H224.527V54.4713ZM221.854 58.4819H224.527V61.1557H221.854V58.4819ZM224.527 62.4926H221.854V65.1664H224.527V62.4926ZM221.854 66.5032H224.527V69.1769H221.854V66.5032Z" fill="white"/>
</g>
<path fill-rule="evenodd" clip-rule="evenodd" d="M211.252 36.9999C211.252 56.1906 226.809 71.7477 246 71.7477C265.191 71.7477 280.748 56.1906 280.748 36.9999C280.748 17.8093 265.191 2.25217 246 2.25217C226.809 2.25217 211.252 17.8093 211.252 36.9999ZM246 0C225.565 0 209 16.5654 209 36.9999C209 57.4344 225.565 73.9998 246 73.9998C266.434 73.9998 283 57.4344 283 36.9999C283 16.5654 266.434 0 246 0Z" fill="#191919"/>
<rect x="246" y="37" width="37" height="37" rx="18.5" fill="#2A2323"/>
<path d="M271.844 60.3201C271.185 59.1489 270.106 57.8224 268.349 57.0684C267.345 57.7713 266.124 58.1851 264.808 58.1851C263.492 58.1851 262.271 57.7713 261.266 57.0684C259.51 57.8224 258.431 59.149 257.772 60.3201C256.898 61.8734 257.583 64.0713 259.095 64.0713C260.606 64.0713 264.808 64.0713 264.808 64.0713C264.808 64.0713 269.01 64.0713 270.521 64.0713C272.033 64.0713 272.718 61.8734 271.844 60.3201Z" fill="white"/>
<path d="M264.807 56.7134C267.388 56.7134 269.479 54.6214 269.479 52.0413V50.9221C269.479 48.342 267.388 46.25 264.807 46.25C262.226 46.25 260.135 48.342 260.135 50.9221V52.0413C260.135 54.6214 262.226 56.7134 264.807 56.7134Z" fill="white"/>
<circle cx="178" cy="150" r="53" fill="white"/>
<path d="M244 150C244 163.054 240.129 175.814 232.877 186.668C225.625 197.521 215.317 205.981 203.257 210.976C191.197 215.971 177.927 217.278 165.124 214.732C152.321 212.185 140.561 205.899 131.331 196.669C122.101 187.439 115.815 175.679 113.268 162.876C110.722 150.073 112.029 136.803 117.024 124.743C122.019 112.683 130.479 102.375 141.332 95.123C152.186 87.8708 164.946 84 178 84C195.504 84 212.292 90.9536 224.669 103.331C237.046 115.708 244 132.496 244 150ZM219.498 150.049C219.498 141.842 217.064 133.819 212.504 126.995C207.944 120.17 201.463 114.852 193.88 111.711C186.298 108.57 177.954 107.748 169.904 109.349C161.855 110.951 154.46 114.903 148.657 120.706C142.853 126.51 138.901 133.904 137.3 141.954C135.699 150.003 136.52 158.347 139.661 165.93C142.802 173.513 148.121 179.994 154.945 184.553C161.769 189.113 169.793 191.547 178 191.547C183.45 191.547 188.846 190.474 193.88 188.388C198.915 186.303 203.49 183.246 207.343 179.393C211.197 175.539 214.253 170.965 216.339 165.93C218.424 160.895 219.498 155.499 219.498 150.049ZM158.588 146.749H143.259C143.859 140.479 146.142 134.487 149.867 129.407C153.592 124.327 158.62 120.348 164.421 117.891C164.971 117.66 165.521 117.443 166.071 117.239C161.222 126.324 158.654 136.452 158.588 146.749ZM158.588 153.349C158.656 163.648 161.227 173.776 166.079 182.86C165.518 182.656 164.965 182.439 164.421 182.208C158.614 179.76 153.58 175.783 149.854 170.702C146.128 165.62 143.849 159.623 143.259 153.349H158.588ZM165.188 146.749C165.334 142.865 165.784 138.998 166.533 135.183C167.282 131.158 168.515 127.239 170.204 123.509C172.588 118.435 175.649 115.152 178 115.152C180.351 115.152 183.412 118.435 185.796 123.509C187.484 127.239 188.717 131.158 189.468 135.183C190.215 138.998 190.665 142.865 190.812 146.749H165.188ZM190.812 153.349C190.665 157.234 190.215 161.101 189.468 164.916C188.716 168.94 187.484 172.86 185.796 176.59C183.412 181.672 180.351 184.947 178 184.947C175.649 184.947 172.588 181.672 170.204 176.59C168.515 172.86 167.283 168.941 166.533 164.916C165.783 161.101 165.334 157.234 165.188 153.349H190.812ZM202.676 125.374C208.425 131.104 211.986 138.667 212.741 146.749H197.412C197.345 136.451 194.774 126.323 189.921 117.239C190.482 117.443 191.035 117.663 191.58 117.899C195.728 119.648 199.497 122.186 202.676 125.374ZM197.412 153.349H212.741C212.14 159.62 209.857 165.611 206.132 170.691C202.407 175.771 197.379 179.75 191.58 182.208C191.03 182.444 190.48 182.664 189.93 182.868C194.781 173.781 197.349 163.65 197.412 153.349Z" fill="#2A2323"/>
</svg>
