<svg width="369" height="236" viewBox="0 0 369 236" fill="none" xmlns="http://www.w3.org/2000/svg">
<path fill-rule="evenodd" clip-rule="evenodd" d="M36 113L118 113L118 118L36 118L36 113Z" fill="#6C6D6F"/>
<path fill-rule="evenodd" clip-rule="evenodd" d="M46 46L156 46L156 51L46 51L46 46Z" fill="#6C6D6F"/>
<path fill-rule="evenodd" clip-rule="evenodd" d="M46 181L156 181L156 186L46 186L46 181Z" fill="#6C6D6F"/>
<rect y="22" width="52" height="52" rx="26" fill="#2241AC"/>
<path d="M36.3181 54.7712C35.3921 53.1252 33.8756 51.261 31.4067 50.2012C29.9947 51.189 28.2793 51.7706 26.4301 51.7706C24.5798 51.7706 22.8644 51.1891 21.4524 50.2012C18.9835 51.261 17.467 53.1253 16.5416 54.7712C15.3134 56.9543 16.2763 60.0432 18.4004 60.0432C20.5245 60.0432 26.4301 60.0432 26.4301 60.0432C26.4301 60.0432 32.3352 60.0432 34.4594 60.0432C36.5834 60.0432 37.5463 56.9543 36.3181 54.7712Z" fill="white"/>
<path d="M26.43 49.7053C30.0566 49.7053 32.9956 46.7652 32.9956 43.1391V41.5661C32.9956 37.9401 30.0566 35 26.43 35C22.8028 35 19.8633 37.9401 19.8633 41.5662V43.1391C19.8633 46.7652 22.8029 49.7053 26.43 49.7053Z" fill="white"/>
<rect y="89" width="52" height="52" rx="26" fill="#2241AC"/>
<path d="M36.3181 121.771C35.3921 120.125 33.8756 118.261 31.4067 117.201C29.9947 118.189 28.2793 118.771 26.4301 118.771C24.5798 118.771 22.8644 118.189 21.4524 117.201C18.9835 118.261 17.467 120.125 16.5416 121.771C15.3134 123.954 16.2763 127.043 18.4004 127.043C20.5245 127.043 26.4301 127.043 26.4301 127.043C26.4301 127.043 32.3352 127.043 34.4594 127.043C36.5834 127.043 37.5463 123.954 36.3181 121.771Z" fill="white"/>
<path d="M26.43 116.705C30.0566 116.705 32.9956 113.765 32.9956 110.139V108.566C32.9956 104.94 30.0566 102 26.43 102C22.8028 102 19.8633 104.94 19.8633 108.566V110.139C19.8633 113.765 22.8029 116.705 26.43 116.705Z" fill="white"/>
<rect y="156" width="52" height="52" rx="26" fill="#2241AC"/>
<path d="M36.3181 188.771C35.3921 187.125 33.8756 185.261 31.4067 184.201C29.9947 185.189 28.2793 185.771 26.4301 185.771C24.5798 185.771 22.8644 185.189 21.4524 184.201C18.9835 185.261 17.467 187.125 16.5416 188.771C15.3134 190.954 16.2763 194.043 18.4004 194.043C20.5245 194.043 26.4301 194.043 26.4301 194.043C26.4301 194.043 32.3352 194.043 34.4594 194.043C36.5834 194.043 37.5463 190.954 36.3181 188.771Z" fill="white"/>
<path d="M26.43 183.705C30.0566 183.705 32.9956 180.765 32.9956 177.139V175.566C32.9956 171.94 30.0566 169 26.43 169C22.8028 169 19.8633 171.94 19.8633 175.566V177.139C19.8633 180.765 22.8029 183.705 26.43 183.705Z" fill="white"/>
<rect x="112" width="230" height="230" rx="115" fill="#2241AC"/>
<mask id="mask0_17438_36769" style="mask-type:alpha" maskUnits="userSpaceOnUse" x="112" y="0" width="230" height="230">
<rect x="112" width="230" height="230" rx="115" fill="#2241AC"/>
</mask>
<g mask="url(#mask0_17438_36769)">
<path d="M241.338 61.5743V58.0662H234.322V51.0496H230.814V30H223.797V51.0496H220.289V58.0662H213.272V61.5743V65.0823H206.256V217.264V233.479H237.83H241.338H248.355V198.397V191.38V187.872V180.856V177.348V170.331V166.823V159.806V156.298V149.282V145.773V138.757V135.249V128.232V124.723V118.693V117.679V114.943V65.0827H241.338V61.5743ZM213.272 72.0993H241.338V79.1158H213.272V72.0993ZM213.272 82.6242H241.338V89.6408H213.272V82.6242ZM213.272 93.1489H241.338V100.165H213.272V93.1489ZM213.272 103.674H241.338V110.69H213.272V103.674ZM241.338 194.889H237.83H213.272V187.872H237.83H241.338V194.889ZM241.338 184.364H237.83H213.272V177.347H237.83H241.338V184.364ZM241.338 173.839H237.83H213.272V166.822H237.83H241.338V173.839ZM241.338 163.314H237.83H213.272V156.298H237.83H241.338V163.314ZM241.338 152.79H237.83H213.272V145.773H237.83H241.338V152.79ZM241.338 142.265H237.83H213.272V135.248H237.83H241.338V142.265ZM241.338 131.74H237.83H213.272V124.723H237.83H241.338V131.74ZM241.338 121.215H237.83H213.272V114.199H241.339V118.959L241.338 121.215Z" fill="white"/>
<path fill-rule="evenodd" clip-rule="evenodd" d="M254.111 128.226V124.718L254.112 116.66L296.877 98.4062V100.16V220.613V223.427V226.486V233.474H267.934H254.816H254.111V231.72V225.062V198.392V191.374V187.866V180.85V177.342V170.325V166.817V159.8V156.292V149.276V145.768V138.751V135.243V128.226ZM289.86 191.375H282.844V198.392H289.86V191.375ZM282.844 180.85V187.867H289.86V180.85H282.844ZM282.844 170.326V177.342H289.86V170.326H282.844ZM282.844 159.801V166.818H289.86V159.801H282.844ZM282.844 149.276V156.293H289.86V149.276H282.844ZM282.844 138.751V145.768H289.86V138.751H282.844ZM282.844 128.226V135.243H289.86V128.226H282.844ZM279.336 128.226H272.319V135.243H279.336V128.226ZM279.336 138.751H272.319V145.768H279.336V138.751ZM279.336 149.276H272.319V156.293H279.336V149.276ZM279.336 159.801H272.319V166.817H279.336V159.801ZM279.336 170.326H272.319V177.342H279.336V170.326ZM279.336 180.851H272.319V187.867H279.336V180.851ZM279.336 191.375H272.319V198.392H279.336V191.375ZM268.255 128.227H261.238V135.243H268.255V128.227ZM268.255 138.752H261.238V145.768H268.255V138.752ZM261.238 149.276H268.255V156.293H261.238V149.276ZM268.255 159.801H261.238V166.817H268.255V159.801ZM261.238 170.326H268.255V177.342H261.238V170.326ZM268.255 180.851H261.238V187.867H268.255V180.851ZM261.238 191.375H268.255V198.392H261.238V191.375Z" fill="white"/>
<path fill-rule="evenodd" clip-rule="evenodd" d="M156.441 128.226V124.718L156.442 116.66L199.207 98.4062V100.16V220.613V223.427V226.486V233.474H170.264H157.147H156.441V231.72V225.062V198.392V191.374V187.866V180.85V177.342V170.325V166.817V159.8V156.292V149.276V145.768V138.751V135.243V128.226ZM192.191 191.375H185.174V198.392H192.191V191.375ZM185.174 180.85V187.867H192.191V180.85H185.174ZM185.174 170.326V177.342H192.191V170.326H185.174ZM185.174 159.801V166.818H192.191V159.801H185.174ZM185.174 149.276V156.293H192.191V149.276H185.174ZM185.174 138.751V145.768H192.191V138.751H185.174ZM185.174 128.226V135.243H192.191V128.226H185.174ZM181.666 128.226H174.649V135.243H181.666V128.226ZM181.666 138.751H174.649V145.768H181.666V138.751ZM181.666 149.276H174.649V156.293H181.666V149.276ZM181.666 159.801H174.649V166.817H181.666V159.801ZM181.666 170.326H174.649V177.342H181.666V170.326ZM181.666 180.851H174.649V187.867H181.666V180.851ZM181.666 191.375H174.649V198.392H181.666V191.375ZM170.575 128.227H163.559V135.243H170.575V128.227ZM170.575 138.752H163.559V145.768H170.575V138.752ZM163.559 149.276H170.575V156.293H163.559V149.276ZM170.575 159.801H163.559V166.817H170.575V159.801ZM163.559 170.326H170.575V177.342H163.559V170.326ZM170.575 180.851H163.559V187.867H170.575V180.851ZM163.559 191.375H170.575V198.392H163.559V191.375Z" fill="white"/>
</g>
<path fill-rule="evenodd" clip-rule="evenodd" d="M119 115C119 174.647 167.353 223 227 223C286.647 223 335 174.647 335 115C335 55.3532 286.647 7 227 7C167.353 7 119 55.3532 119 115ZM227 0C163.487 0 112 51.4873 112 115C112 178.513 163.487 230 227 230C290.513 230 342 178.513 342 115C342 51.4873 290.513 0 227 0Z" fill="#191919"/>
<g clip-path="url(#clip0_17438_36769)">
<path d="M342 142C356.963 142 369 129.963 369 115C369 100.037 356.963 88 342 88C327.037 88 315 100.037 315 115C315 129.963 327.037 142 342 142Z" fill="#2775CA"/>
<path d="M349.425 119.275C349.425 115.337 347.062 113.987 342.337 113.425C338.962 112.975 338.287 112.075 338.287 110.5C338.287 108.924 339.412 107.912 341.662 107.912C343.687 107.912 344.812 108.587 345.375 110.275C345.487 110.612 345.825 110.837 346.162 110.837H347.962C348.412 110.837 348.75 110.5 348.75 110.05V109.937C348.299 107.462 346.274 105.55 343.687 105.325V102.625C343.687 102.175 343.35 101.837 342.787 101.725H341.1C340.65 101.725 340.312 102.062 340.199 102.625V105.212C336.824 105.662 334.687 107.912 334.687 110.725C334.687 114.437 336.937 115.9 341.662 116.462C344.812 117.025 345.825 117.7 345.825 119.5C345.825 121.3 344.249 122.537 342.112 122.537C339.187 122.537 338.174 121.3 337.837 119.612C337.725 119.162 337.387 118.937 337.05 118.937H335.137C334.687 118.937 334.35 119.275 334.35 119.725V119.837C334.799 122.65 336.6 124.675 340.312 125.237V127.937C340.312 128.387 340.65 128.725 341.212 128.837H342.899C343.35 128.837 343.687 128.5 343.8 127.937V125.237C347.175 124.675 349.425 122.312 349.425 119.275Z" fill="white"/>
<path d="M336.263 131.087C327.488 127.938 322.988 118.15 326.25 109.487C327.938 104.762 331.65 101.162 336.263 99.4749C336.713 99.25 336.938 98.9125 336.938 98.3498V96.7749C336.938 96.3248 336.713 95.9873 336.263 95.875C336.15 95.875 335.925 95.875 335.813 95.9873C325.125 99.3623 319.275 110.725 322.65 121.412C324.675 127.712 329.513 132.55 335.813 134.575C336.263 134.8 336.713 134.575 336.825 134.125C336.938 134.013 336.938 133.9 336.938 133.675V132.1C336.938 131.762 336.6 131.313 336.263 131.087ZM348.188 95.9873C347.738 95.7624 347.288 95.9873 347.175 96.4374C347.063 96.55 347.063 96.6623 347.063 96.8875V98.4624C347.063 98.9125 347.4 99.3623 347.738 99.5875C356.513 102.737 361.013 112.525 357.75 121.188C356.063 125.913 352.35 129.512 347.738 131.2C347.288 131.425 347.063 131.762 347.063 132.325V133.9C347.063 134.35 347.288 134.688 347.738 134.8C347.85 134.8 348.075 134.8 348.188 134.688C358.875 131.313 364.725 119.95 361.35 109.262C359.325 102.85 354.375 98.0123 348.188 95.9873Z" fill="white"/>
</g>
<g clip-path="url(#clip1_17438_36769)">
<path d="M293 1C307.911 1 320 13.089 320 28C320 42.911 307.91 55 293 55C278.09 55 266 42.9143 266 28C266 13.0857 278.087 1 293 1Z" fill="#53AE94"/>
<path d="M296.332 24.402V20.3854H305.517V14.2656H280.506V20.3854H289.692V24.3987C282.227 24.7416 276.613 26.2201 276.613 27.9913C276.613 29.7625 282.229 31.2411 289.692 31.5861V44.4516H296.334V31.585C303.786 31.2411 309.388 29.7636 309.388 27.994C309.388 26.2245 303.786 24.747 296.334 24.403M296.334 30.4953V30.4921C296.147 30.504 295.184 30.5617 293.04 30.5617C291.326 30.5617 290.12 30.5131 289.695 30.491V30.4964C283.1 30.2043 278.177 29.0557 278.177 27.6814C278.177 26.3071 283.1 25.1601 289.695 24.8674V29.3521C290.127 29.3818 291.363 29.4547 293.068 29.4547C295.116 29.4547 296.146 29.3694 296.335 29.3521V24.8674C302.918 25.1607 307.83 26.3103 307.83 27.6798C307.83 29.0492 302.916 30.1994 296.335 30.4926" fill="white"/>
</g>
<g clip-path="url(#clip2_17438_36769)">
<path d="M292 179C306.913 179 319 191.089 319 206C319 220.913 306.913 233 292 233C277.089 233 265 220.912 265 206C265 191.089 277.089 179 292 179Z" fill="#F5AC37"/>
<path d="M292.996 207.907H303.255C303.474 207.907 303.577 207.907 303.593 207.62C303.677 206.577 303.677 205.527 303.593 204.482C303.593 204.279 303.492 204.195 303.272 204.195H282.854C282.601 204.195 282.533 204.279 282.533 204.516V207.519C282.533 207.907 282.533 207.907 282.938 207.907H292.996ZM302.448 200.685C302.477 200.608 302.477 200.525 302.448 200.449C302.276 200.076 302.073 199.72 301.838 199.386C301.483 198.815 301.065 198.289 300.589 197.816C300.364 197.531 300.104 197.274 299.812 197.057C298.352 195.814 296.615 194.934 294.749 194.492C293.808 194.281 292.845 194.18 291.881 194.188H282.819C282.566 194.188 282.532 194.289 282.532 194.509V200.499C282.532 200.752 282.532 200.82 282.853 200.82H302.326C302.326 200.82 302.495 200.786 302.529 200.685H302.446H302.448ZM302.448 211.417C302.161 211.386 301.872 211.386 301.585 211.417H282.871C282.619 211.417 282.533 211.417 282.533 211.755V217.611C282.533 217.881 282.533 217.949 282.871 217.949H291.511C291.924 217.981 292.337 217.952 292.742 217.865C293.996 217.775 295.229 217.503 296.405 217.055C296.833 216.907 297.246 216.713 297.636 216.481H297.754C299.779 215.428 301.424 213.773 302.462 211.742C302.462 211.742 302.58 211.486 302.448 211.42V211.417ZM279.142 220.985V220.885V216.953V215.62V211.654C279.142 211.434 279.142 211.401 278.873 211.401H275.211C275.008 211.401 274.924 211.401 274.924 211.132V207.925H278.839C279.057 207.925 279.142 207.925 279.142 207.639V204.466C279.142 204.263 279.142 204.213 278.873 204.213H275.211C275.008 204.213 274.924 204.213 274.924 203.944V200.974C274.924 200.788 274.924 200.738 275.194 200.738H278.822C279.074 200.738 279.142 200.738 279.142 200.418V191.322C279.142 191.052 279.142 190.984 279.48 190.984H292.136C293.054 191.021 293.967 191.122 294.869 191.288C296.73 191.632 298.517 192.297 300.151 193.246C301.235 193.883 302.232 194.654 303.121 195.541C303.789 196.234 304.392 196.985 304.926 197.785C305.457 198.595 305.898 199.462 306.244 200.367C306.287 200.602 306.513 200.762 306.749 200.721H309.769C310.157 200.721 310.157 200.721 310.174 201.093V203.861C310.174 204.131 310.073 204.199 309.802 204.199H307.473C307.237 204.199 307.169 204.199 307.186 204.503C307.278 205.53 307.278 206.562 307.186 207.59C307.186 207.877 307.186 207.911 307.508 207.911H310.173C310.29 208.063 310.173 208.214 310.173 208.368C310.19 208.563 310.19 208.761 310.173 208.957V210.999C310.173 211.286 310.089 211.371 309.835 211.371H306.645C306.423 211.329 306.207 211.471 306.156 211.692C305.396 213.666 304.181 215.436 302.612 216.856C302.038 217.372 301.435 217.858 300.806 218.306C300.13 218.695 299.473 219.1 298.781 219.421C297.506 219.994 296.17 220.417 294.798 220.685C293.495 220.919 292.175 221.024 290.849 221.006H279.137V220.989L279.142 220.985Z" fill="#FEFEFD"/>
</g>
<rect x="138" y="182" width="54.9818" height="54" rx="27" fill="#3E5C98"/>
<path fill-rule="evenodd" clip-rule="evenodd" d="M162.374 220.669L165.192 211.336L169.583 210.113L170.5 207.023L166.175 208.311L170.762 192.991V192.747C170.759 192.649 170.736 192.552 170.695 192.463C170.653 192.374 170.594 192.293 170.521 192.226C170.448 192.159 170.363 192.107 170.269 192.073C170.175 192.038 170.076 192.022 169.976 192.026H164.143C163.922 192.019 163.706 192.085 163.527 192.214C163.349 192.342 163.22 192.525 163.16 192.734L157.721 210.885L153.395 212.173L152.412 215.133L156.738 213.846L152.871 226.784H175.94C176.161 226.793 176.379 226.728 176.558 226.599C176.736 226.47 176.865 226.286 176.923 226.076L178.234 221.634V221.39C178.23 221.292 178.207 221.195 178.166 221.106C178.124 221.017 178.066 220.936 177.993 220.869C177.92 220.802 177.834 220.75 177.74 220.716C177.647 220.681 177.547 220.666 177.447 220.669H162.374Z" fill="white"/>
<rect x="138" y="1" width="54" height="54" rx="27" fill="#EDEFF0"/>
<path d="M165.036 35.0127C164.922 35.0515 164.857 34.9521 164.779 34.9065C160.972 32.6594 157.169 30.4109 153.37 28.1609C153.333 28.1423 153.295 28.1266 153.256 28.114V28.0638L153.323 28.0249C153.419 27.9998 153.513 27.9693 153.605 27.9336L162.577 23.8515C163.377 23.4871 164.176 23.1285 164.976 22.7676H165.033C165.033 22.8818 165.033 22.9834 165.033 23.092C165.036 27.0659 165.037 31.0395 165.036 35.0127Z" fill="#393939"/>
<path d="M165.043 22.7743H164.986C164.986 22.66 164.998 22.5458 164.998 22.4259C164.998 17.9623 164.998 13.4984 164.998 9.03405C164.985 8.9194 164.992 8.80331 165.021 8.69141H165.045C165.514 9.3847 165.923 10.1157 166.355 10.8318C169.775 16.5053 173.194 22.178 176.61 27.85C176.643 27.906 176.669 27.9642 176.699 28.0259C176.602 28.0052 176.507 27.9774 176.415 27.9425C175.788 27.6593 175.158 27.3715 174.537 27.0825C173.564 26.637 172.59 26.1924 171.617 25.7484L166.925 23.6229C166.3 23.3351 165.672 23.0552 165.043 22.7743Z" fill="#343434"/>
<path d="M165.024 8.68436C164.996 8.79626 164.989 8.91235 165.002 9.02701C165.002 13.4906 165.002 17.9545 165.002 22.4188C165.002 22.5331 164.995 22.6473 164.99 22.7672C164.191 23.1281 163.391 23.4868 162.592 23.8511L153.62 27.9332C153.528 27.9689 153.434 27.9995 153.338 28.0246C153.597 27.4855 153.934 26.9966 154.241 26.4804C157.801 20.5632 161.363 14.6472 164.929 8.73233C164.952 8.69956 164.978 8.66828 165.005 8.63867L165.024 8.68436Z" fill="#8C8C8C"/>
<path d="M165.043 22.7734C165.671 23.0544 166.299 23.3342 166.926 23.6175L171.618 25.7431C172.593 26.1862 173.566 26.6309 174.539 27.0771C175.165 27.3638 175.795 27.6539 176.416 27.9371C176.509 27.972 176.604 27.9999 176.701 28.0205C176.815 28.1633 176.646 28.169 176.595 28.1998C175.62 28.7823 174.642 29.3569 173.665 29.9348C170.862 31.5932 168.06 33.2512 165.259 34.9089C165.188 34.95 165.111 34.9809 165.037 35.0163C165.037 31.0438 165.037 27.071 165.037 23.0978C165.038 22.9893 165.042 22.8819 165.043 22.7734Z" fill="#141414"/>
<path d="M164.995 37.2726L172.334 32.9473C173.735 32.1203 175.135 31.2926 176.535 30.4642L176.661 30.3945C176.674 30.5087 176.595 30.5693 176.547 30.6355C173.349 35.144 170.151 39.651 166.953 44.1564C166.348 45.0108 165.744 45.8697 165.132 46.7172C165.1 46.7617 165.051 46.9707 164.953 46.7491C165.031 46.6829 164.997 46.5938 164.997 46.5207C164.997 43.4369 164.997 40.3542 164.995 37.2726Z" fill="#3D3D3C"/>
<path d="M164.995 37.273C164.995 40.3546 164.995 43.4354 164.995 46.5154C164.995 46.5942 165.029 46.6833 164.951 46.7438C164.788 46.6456 164.717 46.4697 164.609 46.3247C160.9 41.1012 157.194 35.8769 153.49 30.6519C153.443 30.5857 153.4 30.5149 153.352 30.4418C153.448 30.3858 153.499 30.4623 153.555 30.4954C157.305 32.7097 161.054 34.9259 164.803 37.144C164.873 37.1874 164.932 37.2319 164.995 37.273Z" fill="#8C8C8C"/>
<path d="M165.026 8.68491L164.998 8.64187C165.049 8.6093 165.042 8.657 165.05 8.68142L165.026 8.68491Z" fill="#393939"/>
<rect x="91" y="88" width="54" height="54" rx="27" fill="#F6931A"/>
<path d="M127.893 115.969C128.398 116.236 128.879 116.547 129.331 116.897C130.907 118.147 131.573 119.773 131.32 121.765C131.152 123.242 130.63 124.658 129.798 125.89C128.774 127.377 127.322 128.18 125.569 128.481C124.117 128.731 122.665 128.65 121.216 128.456C120.688 128.386 120.164 128.297 119.642 128.2C119.472 128.168 119.42 128.222 119.381 128.383C118.982 130.01 118.568 131.633 118.172 133.262C118.116 133.492 118.048 133.533 117.817 133.47C116.902 133.223 115.978 132.998 115.056 132.777C114.887 132.74 114.869 132.692 114.908 132.533C115.317 130.916 115.714 129.296 116.125 127.679C116.171 127.497 116.154 127.42 115.956 127.373C115.243 127.197 114.531 127.011 113.822 126.815C113.641 126.764 113.588 126.815 113.546 126.984C113.147 128.611 112.734 130.236 112.337 131.863C112.291 132.046 112.239 132.077 112.058 132.033C111.127 131.791 110.191 131.558 109.252 131.334C109.083 131.293 109.059 131.222 109.098 131.062C109.511 129.43 109.91 127.794 110.326 126.157C110.38 125.946 110.336 125.876 110.13 125.819C108.1 125.311 106.086 124.804 104.063 124.297C103.92 124.261 103.876 124.226 103.943 124.073C104.437 122.946 104.925 121.818 105.406 120.691C105.467 120.547 105.543 120.551 105.672 120.586C106.368 120.769 107.064 120.958 107.765 121.114C108.642 121.308 109.159 120.965 109.376 120.099C110.042 117.426 110.709 114.753 111.378 112.081C111.885 110.051 112.393 108.022 112.9 105.992C113.105 105.17 112.673 104.379 111.83 104.054C111.172 103.83 110.501 103.649 109.82 103.511C109.621 103.462 109.423 103.41 109.222 103.372C109.112 103.352 109.096 103.31 109.122 103.203C109.387 102.15 109.653 101.096 109.908 100.039C109.952 99.8495 110.066 99.9104 110.169 99.9358C110.97 100.134 111.769 100.34 112.572 100.536C113.786 100.83 114.991 101.17 116.212 101.443C116.413 101.488 116.489 101.463 116.541 101.25C116.93 99.6449 117.336 98.0365 117.725 96.4399C117.774 96.2387 117.835 96.1812 118.047 96.237C118.963 96.4805 119.885 96.7088 120.807 96.9287C121.001 96.9761 121.02 97.0505 120.976 97.2314C120.573 98.8162 120.183 100.404 119.782 101.989C119.74 102.158 119.757 102.207 119.936 102.248C120.653 102.405 121.37 102.574 122.082 102.755C122.287 102.809 122.344 102.743 122.39 102.561C122.769 101.011 123.158 99.4656 123.535 97.9164C123.587 97.7033 123.646 97.6272 123.89 97.6932C124.796 97.9384 125.711 98.1616 126.625 98.3798C126.804 98.4221 126.84 98.4813 126.794 98.6622C126.385 100.279 125.991 101.899 125.576 103.514C125.524 103.721 125.576 103.782 125.759 103.853C127.028 104.266 128.236 104.847 129.351 105.581C130.398 106.297 131.266 107.169 131.736 108.375C132.243 109.696 132.143 111.025 131.748 112.348C131.189 114.221 129.962 115.405 128.066 115.9C128.001 115.91 127.959 115.933 127.893 115.969ZM120.543 123.952H120.763C121.554 123.926 122.332 123.84 123.054 123.49C124.879 122.604 125.27 120.175 123.829 118.697C122.983 117.834 121.931 117.344 120.83 116.935C119.477 116.427 118.052 116.136 116.645 115.796C116.44 115.747 116.401 115.812 116.359 115.984C115.81 118.215 115.254 120.445 114.691 122.671C114.646 122.851 114.701 122.895 114.86 122.932C115.464 123.077 116.063 123.241 116.667 123.389C117.933 123.715 119.232 123.901 120.54 123.943L120.543 123.952ZM122.001 113.364C122.435 113.372 122.87 113.335 123.296 113.253C124.424 113.016 125.24 112.407 125.568 111.269C125.896 110.131 125.627 109.104 124.722 108.282C124.242 107.859 123.697 107.517 123.109 107.267C121.794 106.681 120.392 106.386 118.995 106.072C118.826 106.033 118.813 106.138 118.784 106.254C118.581 107.071 118.376 107.888 118.17 108.705C117.874 109.889 117.58 111.085 117.275 112.272C117.231 112.441 117.26 112.515 117.445 112.556C117.796 112.63 118.14 112.737 118.49 112.823C119.643 113.094 120.802 113.351 121.997 113.356L122.001 113.364Z" fill="white"/>
<defs>
<clipPath id="clip0_17438_36769">
<rect width="54" height="54" fill="white" transform="translate(315 88)"/>
</clipPath>
<clipPath id="clip1_17438_36769">
<rect width="54" height="54" fill="white" transform="translate(266 1)"/>
</clipPath>
<clipPath id="clip2_17438_36769">
<rect width="54" height="54" fill="white" transform="translate(265 179)"/>
</clipPath>
</defs>
</svg>
