<svg width="562" height="450" viewBox="0 0 562 450" fill="none" xmlns="http://www.w3.org/2000/svg">
<rect opacity="0.5" x="81" y="168.062" width="198.255" height="8" transform="rotate(-41.7689 81 168.062)" fill="#D9D9D9"/>
<rect opacity="0.5" x="182.742" y="215.494" width="98" height="8" transform="rotate(-33.9478 182.742 215.494)" fill="#D9D9D9"/>
<rect opacity="0.5" x="201.941" y="265.157" width="122" height="8" transform="rotate(8.41693 201.941 265.157)" fill="#D9D9D9"/>
<rect opacity="0.5" x="127.188" y="322.987" width="136.013" height="8" transform="rotate(39.4264 127.188 322.987)" fill="#D9D9D9"/>
<rect x="219" width="322" height="90" rx="20" fill="#171C2C"/>
<rect x="219.5" y="0.5" width="321" height="89" rx="19.5" stroke="white" stroke-opacity="0.14"/>
<path d="M270.73 46.7203L274.096 34.2381H277.564L272.605 51.9255H268.982L265.282 39.8475L261.582 51.9255H257.959L253 34.2381H256.469L259.835 46.7203L263.535 34.2381H267.03L270.73 46.7203Z" fill="white"/>
<path d="M284.642 52.2792C283.408 52.2792 282.269 51.9844 281.224 51.3949C280.196 50.7884 279.374 49.9799 278.758 48.9692C278.158 47.9416 277.858 46.8298 277.858 45.6338C277.858 44.4378 278.158 43.3345 278.758 42.3238C279.374 41.2962 280.196 40.4877 281.224 39.8981C282.269 39.2916 283.408 38.9884 284.642 38.9884C285.858 38.9884 286.98 39.2916 288.008 39.8981C289.036 40.4877 289.849 41.2962 290.449 42.3238C291.066 43.3345 291.374 44.4378 291.374 45.6338C291.374 46.8298 291.066 47.9416 290.449 48.9692C289.849 49.9799 289.036 50.7884 288.008 51.3949C286.98 51.9844 285.858 52.2792 284.642 52.2792ZM284.616 49.146C285.267 49.146 285.867 48.9944 286.415 48.6912C286.963 48.3712 287.4 47.9416 287.725 47.4026C288.051 46.8635 288.213 46.2739 288.213 45.6338C288.213 44.9937 288.051 44.4041 287.725 43.8651C287.4 43.3261 286.963 42.8965 286.415 42.5764C285.867 42.2564 285.267 42.0964 284.616 42.0964C283.965 42.0964 283.366 42.2564 282.817 42.5764C282.269 42.8965 281.832 43.3261 281.507 43.8651C281.199 44.4041 281.044 44.9937 281.044 45.6338C281.044 46.2739 281.199 46.8635 281.507 47.4026C281.832 47.9416 282.269 48.3712 282.817 48.6912C283.366 48.9944 283.965 49.146 284.616 49.146Z" fill="white"/>
<path d="M301.158 39.2916L300.927 42.2732C300.755 42.2227 300.567 42.1974 300.361 42.1974C299.299 42.1974 298.426 42.4922 297.74 43.0818C297.055 43.6545 296.713 44.4547 296.713 45.4822V51.9255H293.526V39.2916H296.713V41.591C297.004 40.934 297.501 40.3866 298.203 39.9486C298.905 39.5106 299.753 39.2916 300.747 39.2916H301.158Z" fill="white"/>
<path d="M306.482 48.3627C306.482 48.6323 306.542 48.826 306.662 48.9439C306.799 49.0618 307.013 49.1208 307.304 49.1208C307.509 49.1208 307.784 49.0955 308.126 49.045V51.9255C307.492 52.0266 306.901 52.0771 306.353 52.0771C305.36 52.0771 304.597 51.8244 304.066 51.3191C303.552 50.7969 303.295 49.8788 303.295 48.5649V34.2381H306.482V48.3627Z" fill="white"/>
<path d="M319.746 34.2381H322.906V51.9255H319.746V50.6116C318.787 51.7233 317.545 52.2792 316.02 52.2792C314.735 52.2792 313.605 51.9929 312.628 51.4201C311.652 50.8474 310.898 50.0557 310.367 49.045C309.836 48.0343 309.571 46.8972 309.571 45.6338C309.571 44.3704 309.836 43.2334 310.367 42.2227C310.898 41.212 311.652 40.4203 312.628 39.8475C313.605 39.258 314.735 38.9632 316.02 38.9632C317.51 38.9632 318.752 39.5191 319.746 40.6308V34.2381ZM316.097 49.3482C317.142 49.3482 318.007 48.9944 318.692 48.2869C319.395 47.5794 319.746 46.6867 319.746 45.6086C319.746 44.5305 319.403 43.6461 318.718 42.9555C318.033 42.2648 317.159 41.9195 316.097 41.9195C315.104 41.9195 314.29 42.2817 313.656 43.006C313.022 43.7303 312.705 44.6063 312.705 45.6338C312.705 46.6782 313.022 47.5626 313.656 48.2869C314.29 48.9944 315.104 49.3482 316.097 49.3482Z" fill="white"/>
<path d="M338.668 46.9478L341.057 39.2916H344.398L340.235 51.9255H337.075L334.659 44.421L332.244 51.9255H329.135L325.049 39.2916H328.39L330.702 46.8972L332.963 39.2916H336.355L338.668 46.9478Z" fill="white"/>
<path d="M346.709 51.9255V39.2916H349.869V51.9255H346.709ZM348.302 36.3606C347.84 36.3606 347.437 36.2006 347.094 35.8805C346.769 35.5605 346.606 35.1646 346.606 34.6929C346.606 34.2213 346.769 33.8254 347.094 33.5054C347.437 33.1685 347.84 33 348.302 33C348.765 33 349.159 33.1685 349.484 33.5054C349.827 33.8254 349.998 34.2213 349.998 34.6929C349.998 35.1646 349.827 35.5605 349.484 35.8805C349.159 36.2006 348.765 36.3606 348.302 36.3606Z" fill="white"/>
<path d="M362.474 34.2381H365.634V51.9255H362.474V50.6116C361.515 51.7233 360.273 52.2792 358.748 52.2792C357.463 52.2792 356.333 51.9929 355.356 51.4201C354.38 50.8474 353.626 50.0557 353.095 49.045C352.564 48.0343 352.299 46.8972 352.299 45.6338C352.299 44.3704 352.564 43.2334 353.095 42.2227C353.626 41.212 354.38 40.4203 355.356 39.8475C356.333 39.258 357.463 38.9632 358.748 38.9632C360.238 38.9632 361.48 39.5191 362.474 40.6308V34.2381ZM358.825 49.3482C359.87 49.3482 360.735 48.9944 361.42 48.2869C362.123 47.5794 362.474 46.6867 362.474 45.6086C362.474 44.5305 362.131 43.6461 361.446 42.9555C360.761 42.2648 359.887 41.9195 358.825 41.9195C357.832 41.9195 357.018 42.2817 356.384 43.006C355.75 43.7303 355.433 44.6063 355.433 45.6338C355.433 46.6782 355.75 47.5626 356.384 48.2869C357.018 48.9944 357.832 49.3482 358.825 49.3482Z" fill="white"/>
<path d="M374.496 38.9632C375.729 38.9632 376.834 39.2664 377.811 39.8728C378.804 40.4624 379.575 41.2625 380.123 42.2732C380.671 43.2839 380.945 44.4041 380.945 45.6338C380.945 46.0381 380.911 46.4087 380.843 46.7456H370.899C371.121 47.6047 371.575 48.2954 372.26 48.8176C372.946 49.3229 373.776 49.5756 374.753 49.5756C375.387 49.5756 375.986 49.4408 376.551 49.1713C377.134 48.9018 377.571 48.5565 377.862 48.1353L380.303 49.5503C379.703 50.4263 378.924 51.1001 377.965 51.5717C377.023 52.0266 375.935 52.254 374.701 52.254C373.331 52.254 372.115 51.9676 371.053 51.3949C369.991 50.8221 369.168 50.0304 368.586 49.0197C368.004 48.009 367.712 46.8719 367.712 45.6086C367.712 44.362 367.995 43.2334 368.56 42.2227C369.143 41.212 369.948 40.4203 370.976 39.8475C372.021 39.258 373.194 38.9632 374.496 38.9632ZM377.939 44.2946C377.819 43.4861 377.442 42.8544 376.808 42.3996C376.175 41.9279 375.387 41.6921 374.444 41.6921C373.794 41.6921 373.194 41.81 372.646 42.0458C372.115 42.2817 371.687 42.6017 371.361 43.006C371.036 43.4103 370.864 43.8398 370.847 44.2946H377.939Z" fill="white"/>
<path d="M397.101 38.9632C398.385 38.9632 399.516 39.2495 400.492 39.8223C401.469 40.395 402.214 41.1867 402.728 42.1974C403.259 43.2081 403.524 44.3452 403.524 45.6086C403.524 46.8719 403.259 48.009 402.728 49.0197C402.214 50.0304 401.469 50.8305 400.492 51.4201C399.516 51.9929 398.385 52.2792 397.101 52.2792C395.593 52.2792 394.351 51.7318 393.375 50.6368V56.979H390.189V39.2916H393.375V40.6056C394.351 39.5106 395.593 38.9632 397.101 38.9632ZM396.998 49.3229C397.991 49.3229 398.805 48.9607 399.439 48.2364C400.09 47.5121 400.415 46.6361 400.415 45.6086C400.415 44.5642 400.09 43.6798 399.439 42.9555C398.805 42.2311 397.991 41.8689 396.998 41.8689C395.953 41.8689 395.088 42.2311 394.403 42.9555C393.717 43.663 393.375 44.5557 393.375 45.6338C393.375 46.7119 393.709 47.5963 394.377 48.2869C395.062 48.9776 395.936 49.3229 396.998 49.3229Z" fill="white"/>
<path d="M415.572 39.2916H418.758V51.9255H415.572V50.6116C414.613 51.7233 413.371 52.2792 411.846 52.2792C410.562 52.2792 409.431 51.9929 408.455 51.4201C407.478 50.8474 406.724 50.0557 406.193 49.045C405.662 48.0343 405.397 46.8972 405.397 45.6338C405.397 44.3704 405.662 43.2334 406.193 42.2227C406.724 41.212 407.478 40.4203 408.455 39.8475C409.431 39.258 410.562 38.9632 411.846 38.9632C413.337 38.9632 414.579 39.5191 415.572 40.6308V39.2916ZM411.923 49.3482C412.968 49.3482 413.833 48.9944 414.519 48.2869C415.221 47.5794 415.572 46.6867 415.572 45.6086C415.572 44.5305 415.229 43.6461 414.544 42.9555C413.859 42.2648 412.985 41.9195 411.923 41.9195C410.93 41.9195 410.116 42.2817 409.482 43.006C408.848 43.7303 408.532 44.6063 408.532 45.6338C408.532 46.6782 408.848 47.5626 409.482 48.2869C410.116 48.9944 410.93 49.3482 411.923 49.3482Z" fill="white"/>
<path d="M430.818 39.2916H434.159L429.662 51.9507C428.994 53.6858 428.069 54.9829 426.887 55.842C425.722 56.7179 424.343 57.0969 422.75 56.979V53.9469C422.853 53.9637 423.007 53.9722 423.213 53.9722C424.583 53.9722 425.654 53.1552 426.424 51.5212L420.772 39.2916H424.189L427.966 47.3268L430.818 39.2916Z" fill="white"/>
<path d="M450.904 38.9632C451.658 38.9632 452.42 39.1232 453.191 39.4433C453.979 39.7465 454.647 40.3024 455.195 41.1109C455.76 41.9195 456.043 43.006 456.043 44.3704V51.9255H452.857V44.3704C452.857 43.4271 452.583 42.7533 452.034 42.349C451.503 41.9279 450.878 41.7173 450.159 41.7173C449.456 41.7173 448.865 41.97 448.386 42.4754C447.906 42.9639 447.666 43.7556 447.666 44.8505V51.9255H444.48V44.3704C444.48 43.4271 444.206 42.7533 443.658 42.349C443.127 41.9279 442.502 41.7173 441.782 41.7173C441.08 41.7173 440.489 41.9616 440.009 42.4501C439.53 42.9386 439.29 43.7388 439.29 44.8505V51.9255H436.104V39.2916H439.29V40.2771C440.266 39.4011 441.345 38.9632 442.527 38.9632C443.315 38.9632 444.112 39.14 444.917 39.4938C445.739 39.8307 446.39 40.395 446.87 41.1867C447.298 40.5466 447.863 40.016 448.566 39.5949C449.285 39.1737 450.065 38.9632 450.904 38.9632Z" fill="white"/>
<path d="M464.895 38.9632C466.129 38.9632 467.234 39.2664 468.21 39.8728C469.204 40.4624 469.974 41.2625 470.523 42.2732C471.071 43.2839 471.345 44.4041 471.345 45.6338C471.345 46.0381 471.311 46.4087 471.242 46.7456H461.298C461.521 47.6047 461.975 48.2954 462.66 48.8176C463.345 49.3229 464.176 49.5756 465.152 49.5756C465.786 49.5756 466.386 49.4408 466.951 49.1713C467.533 48.9018 467.97 48.5565 468.261 48.1353L470.702 49.5503C470.103 50.4263 469.323 51.1001 468.364 51.5717C467.422 52.0266 466.334 52.254 465.101 52.254C463.73 52.254 462.514 51.9676 461.452 51.3949C460.39 50.8221 459.568 50.0304 458.985 49.0197C458.403 48.009 458.112 46.8719 458.112 45.6086C458.112 44.362 458.394 43.2334 458.96 42.2227C459.542 41.212 460.347 40.4203 461.375 39.8475C462.42 39.258 463.593 38.9632 464.895 38.9632ZM468.338 44.2946C468.219 43.4861 467.842 42.8544 467.208 42.3996C466.574 41.9279 465.786 41.6921 464.844 41.6921C464.193 41.6921 463.593 41.81 463.045 42.0458C462.514 42.2817 462.086 42.6017 461.761 43.006C461.435 43.4103 461.264 43.8398 461.247 44.2946H468.338Z" fill="white"/>
<path d="M480.007 38.9632C480.76 38.9632 481.523 39.1232 482.294 39.4433C483.064 39.7465 483.724 40.3024 484.272 41.1109C484.837 41.9195 485.12 43.006 485.12 44.3704V51.9255H481.934V44.3704C481.934 43.4271 481.66 42.7533 481.112 42.349C480.581 41.9279 479.955 41.7173 479.236 41.7173C478.534 41.7173 477.925 41.97 477.412 42.4754C476.915 42.9639 476.666 43.7556 476.666 44.8505V51.9255H473.48V39.2916H476.666V40.3529C477.129 39.9318 477.643 39.5949 478.208 39.3422C478.773 39.0895 479.373 38.9632 480.007 38.9632Z" fill="white"/>
<path d="M492.147 47.6047C492.147 48.1774 492.284 48.5733 492.558 48.7923C492.833 49.0113 493.269 49.1208 493.869 49.1208C494.229 49.1208 494.623 49.0955 495.051 49.045V51.9255C494.246 52.0097 493.578 52.0518 493.047 52.0518C491.676 52.0518 490.648 51.7486 489.963 51.1422C489.295 50.5189 488.961 49.4071 488.961 47.8069V42.0964H486.546V39.2916H488.961V36.1837L492.147 35.1225V39.2916H494.999V42.0964H492.147V47.6047Z" fill="white"/>
<path d="M500.523 42.8291C500.523 43.1829 500.72 43.4524 501.114 43.6377C501.525 43.8061 502.167 43.983 503.041 44.1683C504.034 44.3704 504.865 44.5979 505.533 44.8505C506.201 45.1032 506.775 45.5075 507.255 46.0634C507.752 46.6024 508 47.3352 508 48.2617C508 49.0871 507.743 49.803 507.229 50.4094C506.732 51.0158 506.056 51.4791 505.199 51.7991C504.36 52.1024 503.443 52.254 502.45 52.254C501.114 52.254 499.957 52.0013 498.981 51.4959C498.022 50.9906 497.311 50.2662 496.848 49.3229L499.469 47.9837C499.897 49.146 500.891 49.7272 502.45 49.7272C503.118 49.7272 503.692 49.6009 504.171 49.3482C504.668 49.0955 504.917 48.7333 504.917 48.2617C504.917 47.8574 504.694 47.5626 504.249 47.3773C503.82 47.1752 503.118 46.9562 502.142 46.7203C501.131 46.4845 500.309 46.2487 499.675 46.0128C499.041 45.777 498.493 45.4148 498.03 44.9263C497.568 44.421 497.337 43.7556 497.337 42.9302C497.337 42.1216 497.568 41.4226 498.03 40.833C498.493 40.2266 499.11 39.7633 499.88 39.4433C500.668 39.1232 501.533 38.9632 502.476 38.9632C503.589 38.9632 504.591 39.1906 505.482 39.6454C506.373 40.1002 507.058 40.7488 507.538 41.591L504.942 42.8797C504.497 41.9363 503.675 41.4647 502.476 41.4647C501.876 41.4647 501.396 41.591 501.037 41.8437C500.694 42.0795 500.523 42.408 500.523 42.8291Z" fill="white"/>
<rect x="261" y="120" width="301" height="90" rx="20" fill="#0C101A"/>
<rect x="261.5" y="120.5" width="300" height="89" rx="19.5" stroke="white" stroke-opacity="0.14"/>
<path d="M304.241 156.22V159.308H299.279V173.651H295.911V159.308H291V156.22H304.241Z" fill="white"/>
<path d="M309.805 174C308.571 174 307.431 173.709 306.386 173.128C305.357 172.531 304.535 171.734 303.917 170.738C303.318 169.725 303.018 168.63 303.018 167.451C303.018 166.272 303.318 165.185 303.917 164.189C304.535 163.176 305.357 162.379 306.386 161.798C307.431 161.201 308.571 160.902 309.805 160.902C311.022 160.902 312.145 161.201 313.173 161.798C314.201 162.379 315.016 163.176 315.615 164.189C316.233 165.185 316.541 166.272 316.541 167.451C316.541 168.63 316.233 169.725 315.615 170.738C315.016 171.734 314.201 172.531 313.173 173.128C312.145 173.709 311.022 174 309.805 174ZM309.779 170.912C310.431 170.912 311.031 170.763 311.579 170.464C312.128 170.149 312.565 169.725 312.89 169.194C313.216 168.663 313.379 168.082 313.379 167.451C313.379 166.82 313.216 166.239 312.89 165.708C312.565 165.176 312.128 164.753 311.579 164.438C311.031 164.122 310.431 163.965 309.779 163.965C309.128 163.965 308.528 164.122 307.98 164.438C307.431 164.753 306.994 165.176 306.668 165.708C306.36 166.239 306.206 166.82 306.206 167.451C306.206 168.082 306.36 168.663 306.668 169.194C306.994 169.725 307.431 170.149 307.98 170.464C308.528 170.763 309.128 170.912 309.779 170.912Z" fill="white"/>
<path d="M331.295 173.651H327.31L323.711 169.02L321.834 170.987V173.651H318.646V156.22H321.834V166.455L326.667 161.201H331.089L325.87 166.704L331.295 173.651Z" fill="white"/>
<path d="M338.265 160.877C339.499 160.877 340.605 161.176 341.582 161.773C342.576 162.354 343.347 163.143 343.896 164.139C344.444 165.135 344.718 166.239 344.718 167.451C344.718 167.849 344.684 168.215 344.615 168.547H334.666C334.888 169.393 335.343 170.074 336.028 170.588C336.714 171.087 337.545 171.336 338.522 171.336C339.156 171.336 339.756 171.203 340.322 170.937C340.905 170.671 341.342 170.331 341.633 169.916L344.075 171.311C343.476 172.174 342.696 172.838 341.736 173.303C340.793 173.751 339.705 173.975 338.471 173.975C337.1 173.975 335.883 173.693 334.82 173.128C333.757 172.564 332.935 171.784 332.352 170.788C331.769 169.792 331.478 168.671 331.478 167.426C331.478 166.197 331.76 165.085 332.326 164.089C332.909 163.093 333.714 162.313 334.743 161.748C335.788 161.167 336.962 160.877 338.265 160.877ZM341.71 166.131C341.59 165.334 341.213 164.712 340.579 164.263C339.945 163.799 339.156 163.566 338.214 163.566C337.562 163.566 336.962 163.682 336.414 163.915C335.883 164.147 335.454 164.463 335.128 164.861C334.803 165.26 334.631 165.683 334.614 166.131H341.71Z" fill="white"/>
<path d="M353.385 160.877C354.139 160.877 354.902 161.035 355.673 161.35C356.445 161.649 357.104 162.197 357.653 162.993C358.219 163.79 358.501 164.861 358.501 166.206V173.651H355.313V166.206C355.313 165.276 355.039 164.612 354.491 164.214C353.959 163.799 353.334 163.591 352.614 163.591C351.911 163.591 351.303 163.84 350.788 164.338C350.291 164.82 350.043 165.6 350.043 166.679V173.651H346.855V161.201H350.043V162.246C350.506 161.831 351.02 161.499 351.585 161.25C352.151 161.001 352.751 160.877 353.385 160.877Z" fill="white"/>
<path d="M361.206 173.651V161.201H364.368V173.651H361.206ZM362.8 158.312C362.337 158.312 361.934 158.154 361.591 157.839C361.266 157.523 361.103 157.133 361.103 156.668C361.103 156.204 361.266 155.813 361.591 155.498C361.934 155.166 362.337 155 362.8 155C363.262 155 363.657 155.166 363.982 155.498C364.325 155.813 364.496 156.204 364.496 156.668C364.496 157.133 364.325 157.523 363.982 157.839C363.657 158.154 363.262 158.312 362.8 158.312Z" fill="white"/>
<path d="M376.928 163.193L371.324 170.713H377.185V173.651H366.901V171.659L372.635 164.114H367.159V161.201H376.928V163.193Z" fill="white"/>
<path d="M385.87 160.877C387.104 160.877 388.21 161.176 389.187 161.773C390.181 162.354 390.952 163.143 391.501 164.139C392.049 165.135 392.323 166.239 392.323 167.451C392.323 167.849 392.289 168.215 392.221 168.547H382.271C382.494 169.393 382.948 170.074 383.633 170.588C384.319 171.087 385.15 171.336 386.127 171.336C386.761 171.336 387.361 171.203 387.927 170.937C388.51 170.671 388.947 170.331 389.238 169.916L391.681 171.311C391.081 172.174 390.301 172.838 389.341 173.303C388.398 173.751 387.31 173.975 386.076 173.975C384.705 173.975 383.488 173.693 382.425 173.128C381.362 172.564 380.54 171.784 379.957 170.788C379.374 169.792 379.083 168.671 379.083 167.426C379.083 166.197 379.366 165.085 379.931 164.089C380.514 163.093 381.32 162.313 382.348 161.748C383.393 161.167 384.568 160.877 385.87 160.877ZM389.315 166.131C389.195 165.334 388.818 164.712 388.184 164.263C387.55 163.799 386.761 163.566 385.819 163.566C385.167 163.566 384.568 163.682 384.019 163.915C383.488 164.147 383.059 164.463 382.734 164.861C382.408 165.26 382.237 165.683 382.219 166.131H389.315Z" fill="white"/>
<path d="M404.335 156.22H407.497V173.651H404.335V172.356C403.375 173.452 402.132 174 400.607 174C399.322 174 398.19 173.718 397.213 173.153C396.236 172.589 395.482 171.809 394.951 170.813C394.42 169.817 394.154 168.696 394.154 167.451C394.154 166.206 394.42 165.085 394.951 164.089C395.482 163.093 396.236 162.313 397.213 161.748C398.19 161.167 399.322 160.877 400.607 160.877C402.098 160.877 403.341 161.425 404.335 162.52V156.22ZM400.684 171.111C401.73 171.111 402.595 170.763 403.281 170.066C403.984 169.368 404.335 168.488 404.335 167.426C404.335 166.363 403.992 165.492 403.307 164.811C402.621 164.131 401.747 163.79 400.684 163.79C399.69 163.79 398.876 164.147 398.242 164.861C397.608 165.575 397.29 166.438 397.29 167.451C397.29 168.48 397.608 169.352 398.242 170.066C398.876 170.763 399.69 171.111 400.684 171.111Z" fill="white"/>
<path d="M420.388 164.687C420.388 165.035 420.585 165.301 420.98 165.484C421.391 165.65 422.034 165.824 422.908 166.007C423.902 166.206 424.733 166.43 425.402 166.679C426.07 166.928 426.644 167.326 427.124 167.874C427.621 168.405 427.87 169.128 427.87 170.041C427.87 170.854 427.613 171.56 427.099 172.157C426.602 172.755 425.925 173.211 425.068 173.527C424.228 173.826 423.311 173.975 422.317 173.975C420.98 173.975 419.823 173.726 418.846 173.228C417.886 172.73 417.175 172.016 416.712 171.087L419.334 169.767C419.763 170.912 420.757 171.485 422.317 171.485C422.985 171.485 423.559 171.36 424.039 171.111C424.536 170.862 424.785 170.505 424.785 170.041C424.785 169.642 424.562 169.352 424.116 169.169C423.688 168.97 422.985 168.754 422.008 168.522C420.997 168.289 420.174 168.057 419.54 167.824C418.906 167.592 418.357 167.235 417.894 166.754C417.432 166.256 417.2 165.6 417.2 164.786C417.2 163.99 417.432 163.301 417.894 162.72C418.357 162.122 418.974 161.665 419.746 161.35C420.534 161.035 421.4 160.877 422.342 160.877C423.456 160.877 424.459 161.101 425.35 161.549C426.242 161.997 426.927 162.637 427.407 163.467L424.81 164.737C424.365 163.807 423.542 163.342 422.342 163.342C421.742 163.342 421.262 163.467 420.903 163.716C420.56 163.948 420.388 164.272 420.388 164.687Z" fill="white"/>
<path d="M436.513 160.877C437.747 160.877 438.853 161.176 439.83 161.773C440.824 162.354 441.595 163.143 442.144 164.139C442.692 165.135 442.967 166.239 442.967 167.451C442.967 167.849 442.932 168.215 442.864 168.547H432.914C433.137 169.393 433.591 170.074 434.277 170.588C434.962 171.087 435.793 171.336 436.77 171.336C437.405 171.336 438.005 171.203 438.57 170.937C439.153 170.671 439.59 170.331 439.881 169.916L442.324 171.311C441.724 172.174 440.944 172.838 439.984 173.303C439.041 173.751 437.953 173.975 436.719 173.975C435.348 173.975 434.131 173.693 433.068 173.128C432.006 172.564 431.183 171.784 430.6 170.788C430.017 169.792 429.726 168.671 429.726 167.426C429.726 166.197 430.009 165.085 430.574 164.089C431.157 163.093 431.963 162.313 432.991 161.748C434.037 161.167 435.211 160.877 436.513 160.877ZM439.958 166.131C439.838 165.334 439.461 164.712 438.827 164.263C438.193 163.799 437.405 163.566 436.462 163.566C435.811 163.566 435.211 163.682 434.662 163.915C434.131 164.147 433.702 164.463 433.377 164.861C433.051 165.26 432.88 165.683 432.863 166.131H439.958Z" fill="white"/>
<path d="M457.086 171.236C456.452 172.083 455.655 172.755 454.695 173.253C453.735 173.751 452.699 174 451.584 174C450.35 174 449.211 173.709 448.165 173.128C447.137 172.531 446.314 171.734 445.697 170.738C445.097 169.725 444.797 168.63 444.797 167.451C444.797 166.272 445.097 165.185 445.697 164.189C446.314 163.176 447.137 162.379 448.165 161.798C449.211 161.201 450.35 160.902 451.584 160.902C452.681 160.902 453.71 161.151 454.67 161.649C455.629 162.13 456.426 162.786 457.061 163.616L454.413 165.334C453.624 164.421 452.681 163.965 451.584 163.965C450.933 163.965 450.333 164.122 449.785 164.438C449.236 164.753 448.799 165.176 448.474 165.708C448.148 166.239 447.985 166.82 447.985 167.451C447.985 168.082 448.148 168.663 448.474 169.194C448.799 169.725 449.236 170.149 449.785 170.464C450.333 170.763 450.933 170.912 451.584 170.912C452.15 170.912 452.673 170.796 453.153 170.564C453.633 170.315 454.053 169.974 454.413 169.543L457.086 171.236Z" fill="white"/>
<path d="M467.959 161.201H471.121V173.651H467.959V172.606C467.496 173.021 466.982 173.353 466.416 173.602C465.851 173.851 465.251 173.975 464.617 173.975C463.863 173.975 463.091 173.826 462.303 173.527C461.532 173.211 460.863 172.655 460.298 171.858C459.749 171.062 459.475 169.991 459.475 168.646V161.201H462.663V168.646C462.663 169.576 462.929 170.248 463.46 170.663C464.008 171.062 464.643 171.261 465.362 171.261C466.082 171.261 466.691 171.02 467.188 170.539C467.702 170.041 467.959 169.252 467.959 168.173V161.201Z" fill="white"/>
<path d="M481.348 161.201L481.117 164.139C480.946 164.089 480.757 164.064 480.551 164.064C479.489 164.064 478.615 164.355 477.929 164.936C477.243 165.5 476.901 166.289 476.901 167.301V173.651H473.713V161.201H476.901V163.467C477.192 162.819 477.689 162.28 478.392 161.848C479.094 161.416 479.943 161.201 480.937 161.201H481.348Z" fill="white"/>
<path d="M483.821 173.651V161.201H486.984V173.651H483.821ZM485.415 158.312C484.953 158.312 484.55 158.154 484.207 157.839C483.881 157.523 483.719 157.133 483.719 156.668C483.719 156.204 483.881 155.813 484.207 155.498C484.55 155.166 484.953 155 485.415 155C485.878 155 486.272 155.166 486.598 155.498C486.941 155.813 487.112 156.204 487.112 156.668C487.112 157.133 486.941 157.523 486.598 157.839C486.272 158.154 485.878 158.312 485.415 158.312Z" fill="white"/>
<path d="M494.608 169.393C494.608 169.958 494.745 170.348 495.019 170.564C495.293 170.779 495.73 170.887 496.33 170.887C496.69 170.887 497.085 170.862 497.513 170.813V173.651C496.707 173.734 496.039 173.776 495.508 173.776C494.136 173.776 493.108 173.477 492.422 172.879C491.754 172.265 491.42 171.17 491.42 169.592V163.965H489.003V161.201H491.42V158.138L494.608 157.092V161.201H497.462V163.965H494.608V169.393Z" fill="white"/>
<path d="M500.431 173.651V161.201H503.593V173.651H500.431ZM502.025 158.312C501.562 158.312 501.159 158.154 500.816 157.839C500.491 157.523 500.328 157.133 500.328 156.668C500.328 156.204 500.491 155.813 500.816 155.498C501.159 155.166 501.562 155 502.025 155C502.488 155 502.882 155.166 503.207 155.498C503.55 155.813 503.722 156.204 503.722 156.668C503.722 157.133 503.55 157.523 503.207 157.839C502.882 158.154 502.488 158.312 502.025 158.312Z" fill="white"/>
<path d="M512.811 160.877C514.045 160.877 515.151 161.176 516.128 161.773C517.122 162.354 517.893 163.143 518.442 164.139C518.99 165.135 519.264 166.239 519.264 167.451C519.264 167.849 519.23 168.215 519.161 168.547H509.212C509.435 169.393 509.889 170.074 510.574 170.588C511.26 171.087 512.091 171.336 513.068 171.336C513.702 171.336 514.302 171.203 514.868 170.937C515.451 170.671 515.888 170.331 516.179 169.916L518.622 171.311C518.022 172.174 517.242 172.838 516.282 173.303C515.339 173.751 514.251 173.975 513.017 173.975C511.646 173.975 510.429 173.693 509.366 173.128C508.303 172.564 507.481 171.784 506.898 170.788C506.315 169.792 506.024 168.671 506.024 167.426C506.024 166.197 506.307 165.085 506.872 164.089C507.455 163.093 508.26 162.313 509.289 161.748C510.334 161.167 511.508 160.877 512.811 160.877ZM516.256 166.131C516.136 165.334 515.759 164.712 515.125 164.263C514.491 163.799 513.702 163.566 512.76 163.566C512.108 163.566 511.508 163.682 510.96 163.915C510.429 164.147 510 164.463 509.675 164.861C509.349 165.26 509.177 165.683 509.16 166.131H516.256Z" fill="white"/>
<path d="M524.518 164.687C524.518 165.035 524.716 165.301 525.11 165.484C525.521 165.65 526.164 165.824 527.038 166.007C528.032 166.206 528.863 166.43 529.532 166.679C530.2 166.928 530.775 167.326 531.254 167.874C531.751 168.405 532 169.128 532 170.041C532 170.854 531.743 171.56 531.229 172.157C530.732 172.755 530.055 173.211 529.198 173.527C528.358 173.826 527.441 173.975 526.447 173.975C525.11 173.975 523.953 173.726 522.976 173.228C522.016 172.73 521.305 172.016 520.842 171.087L523.464 169.767C523.893 170.912 524.887 171.485 526.447 171.485C527.115 171.485 527.689 171.36 528.169 171.111C528.666 170.862 528.915 170.505 528.915 170.041C528.915 169.642 528.692 169.352 528.246 169.169C527.818 168.97 527.115 168.754 526.138 168.522C525.127 168.289 524.304 168.057 523.67 167.824C523.036 167.592 522.487 167.235 522.025 166.754C521.562 166.256 521.33 165.6 521.33 164.786C521.33 163.99 521.562 163.301 522.025 162.72C522.487 162.122 523.104 161.665 523.876 161.35C524.664 161.035 525.53 160.877 526.472 160.877C527.586 160.877 528.589 161.101 529.48 161.549C530.372 161.997 531.057 162.637 531.537 163.467L528.941 164.737C528.495 163.807 527.672 163.342 526.472 163.342C525.872 163.342 525.393 163.467 525.033 163.716C524.69 163.948 524.518 164.272 524.518 164.687Z" fill="white"/>
<rect x="315" y="240" width="193" height="90" rx="20" fill="#171C2C"/>
<rect x="315.5" y="240.5" width="192" height="89" rx="19.5" stroke="white" stroke-opacity="0.14"/>
<path d="M380.311 274V288.521H387.851V291.647H377V274H380.311Z" fill="white"/>
<path d="M395.58 292C394.357 292 393.228 291.706 392.192 291.118C391.173 290.513 390.358 289.706 389.747 288.697C389.153 287.672 388.855 286.563 388.855 285.37C388.855 284.176 389.153 283.076 389.747 282.067C390.358 281.042 391.173 280.235 392.192 279.647C393.228 279.042 394.357 278.739 395.58 278.739C396.785 278.739 397.898 279.042 398.917 279.647C399.935 280.235 400.742 281.042 401.336 282.067C401.948 283.076 402.253 284.176 402.253 285.37C402.253 286.563 401.948 287.672 401.336 288.697C400.742 289.706 399.935 290.513 398.917 291.118C397.898 291.706 396.785 292 395.58 292ZM395.554 288.874C396.2 288.874 396.794 288.723 397.337 288.42C397.881 288.101 398.314 287.672 398.636 287.134C398.959 286.597 399.12 286.008 399.12 285.37C399.12 284.731 398.959 284.143 398.636 283.605C398.314 283.067 397.881 282.639 397.337 282.319C396.794 282 396.2 281.84 395.554 281.84C394.909 281.84 394.315 282 393.771 282.319C393.228 282.639 392.795 283.067 392.472 283.605C392.167 284.143 392.014 284.731 392.014 285.37C392.014 286.008 392.167 286.597 392.472 287.134C392.795 287.672 393.228 288.101 393.771 288.42C394.315 288.723 394.909 288.874 395.554 288.874Z" fill="white"/>
<path d="M414.221 279.042H417.38V291.647H414.221V290.336C413.27 291.445 412.039 292 410.528 292C409.255 292 408.134 291.714 407.166 291.143C406.198 290.571 405.451 289.782 404.924 288.773C404.398 287.765 404.135 286.63 404.135 285.37C404.135 284.109 404.398 282.975 404.924 281.966C405.451 280.958 406.198 280.168 407.166 279.597C408.134 279.008 409.255 278.714 410.528 278.714C412.005 278.714 413.237 279.269 414.221 280.378V279.042ZM410.604 289.076C411.64 289.076 412.498 288.723 413.177 288.017C413.873 287.311 414.221 286.42 414.221 285.345C414.221 284.269 413.882 283.387 413.203 282.697C412.523 282.008 411.657 281.664 410.604 281.664C409.62 281.664 408.813 282.025 408.185 282.748C407.556 283.471 407.242 284.345 407.242 285.37C407.242 286.412 407.556 287.294 408.185 288.017C408.813 288.723 409.62 289.076 410.604 289.076Z" fill="white"/>
<path d="M426.56 278.714C427.307 278.714 428.063 278.874 428.827 279.193C429.591 279.496 430.245 280.05 430.788 280.857C431.349 281.664 431.629 282.748 431.629 284.109V291.647H428.471V284.109C428.471 283.168 428.199 282.496 427.655 282.092C427.129 281.672 426.509 281.462 425.796 281.462C425.1 281.462 424.497 281.714 423.988 282.218C423.495 282.706 423.249 283.496 423.249 284.588V291.647H420.091V279.042H423.249V280.101C423.707 279.681 424.217 279.345 424.777 279.092C425.338 278.84 425.932 278.714 426.56 278.714Z" fill="white"/>
<path d="M437.588 282.571C437.588 282.924 437.783 283.193 438.174 283.378C438.581 283.546 439.218 283.723 440.084 283.908C441.069 284.109 441.893 284.336 442.555 284.588C443.217 284.84 443.786 285.244 444.261 285.798C444.754 286.336 445 287.067 445 287.992C445 288.815 444.745 289.529 444.236 290.134C443.743 290.739 443.073 291.202 442.224 291.521C441.392 291.824 440.483 291.975 439.498 291.975C438.174 291.975 437.028 291.723 436.06 291.218C435.109 290.714 434.404 289.992 433.946 289.05L436.544 287.714C436.968 288.874 437.953 289.454 439.498 289.454C440.16 289.454 440.729 289.328 441.205 289.076C441.697 288.824 441.943 288.462 441.943 287.992C441.943 287.588 441.723 287.294 441.281 287.109C440.857 286.908 440.16 286.689 439.193 286.454C438.191 286.218 437.376 285.983 436.747 285.748C436.119 285.513 435.576 285.151 435.117 284.664C434.659 284.16 434.429 283.496 434.429 282.672C434.429 281.866 434.659 281.168 435.117 280.58C435.576 279.975 436.187 279.513 436.951 279.193C437.732 278.874 438.59 278.714 439.524 278.714C440.627 278.714 441.621 278.941 442.504 279.395C443.387 279.849 444.066 280.496 444.542 281.336L441.969 282.622C441.527 281.681 440.712 281.21 439.524 281.21C438.929 281.21 438.454 281.336 438.097 281.588C437.758 281.824 437.588 282.151 437.588 282.571Z" fill="white"/>
<rect x="219" y="360" width="241" height="90" rx="20" fill="#0C101A"/>
<rect x="219.5" y="360.5" width="240" height="89" rx="19.5" stroke="white" stroke-opacity="0.14"/>
<path d="M305 404.487C305 402.77 305.413 401.184 306.238 399.73C307.081 398.276 308.217 397.129 309.644 396.288C311.072 395.429 312.628 395 314.314 395C316.034 395 317.625 395.456 319.087 396.367C320.549 397.26 321.676 398.451 322.467 399.941L319.5 401.544C318.984 400.615 318.262 399.87 317.333 399.31C316.404 398.732 315.398 398.443 314.314 398.443C313.248 398.443 312.25 398.714 311.321 399.257C310.41 399.8 309.687 400.536 309.154 401.465C308.621 402.393 308.354 403.401 308.354 404.487C308.354 405.573 308.621 406.58 309.154 407.509C309.687 408.438 310.41 409.173 311.321 409.716C312.25 410.26 313.248 410.531 314.314 410.531C315.432 410.531 316.447 410.242 317.359 409.664C318.287 409.086 319.01 408.315 319.526 407.351L322.493 409.007C321.702 410.514 320.575 411.722 319.113 412.633C317.651 413.527 316.051 413.974 314.314 413.974C312.628 413.974 311.072 413.553 309.644 412.712C308.217 411.854 307.081 410.698 306.238 409.243C305.413 407.789 305 406.204 305 404.487Z" fill="white"/>
<path d="M334.04 400.492H337.239V413.632H334.04V412.266C333.077 413.422 331.83 414 330.299 414C329.009 414 327.874 413.702 326.893 413.107C325.913 412.511 325.156 411.687 324.623 410.636C324.089 409.585 323.823 408.402 323.823 407.089C323.823 405.775 324.089 404.592 324.623 403.541C325.156 402.49 325.913 401.666 326.893 401.071C327.874 400.457 329.009 400.151 330.299 400.151C331.795 400.151 333.042 400.729 334.04 401.885V400.492ZM330.376 410.952C331.426 410.952 332.294 410.584 332.982 409.848C333.687 409.112 334.04 408.183 334.04 407.062C334.04 405.941 333.696 405.021 333.008 404.303C332.32 403.585 331.443 403.225 330.376 403.225C329.379 403.225 328.562 403.602 327.925 404.355C327.289 405.109 326.971 406.02 326.971 407.089C326.971 408.175 327.289 409.095 327.925 409.848C328.562 410.584 329.379 410.952 330.376 410.952Z" fill="white"/>
<path d="M347.596 400.492L347.364 403.593C347.192 403.541 347.003 403.515 346.797 403.515C345.73 403.515 344.853 403.821 344.165 404.434C343.477 405.03 343.133 405.862 343.133 406.931V413.632H339.934V400.492H343.133V402.884C343.425 402.201 343.924 401.631 344.629 401.176C345.335 400.72 346.186 400.492 347.184 400.492H347.596Z" fill="white"/>
<path d="M358.62 395.237H361.793V413.632H358.62V412.266C357.657 413.422 356.409 414 354.879 414C353.589 414 352.453 413.702 351.473 413.107C350.492 412.511 349.736 411.687 349.202 410.636C348.669 409.585 348.403 408.402 348.403 407.089C348.403 405.775 348.669 404.592 349.202 403.541C349.736 402.49 350.492 401.666 351.473 401.071C352.453 400.457 353.589 400.151 354.879 400.151C356.375 400.151 357.622 400.729 358.62 401.885V395.237ZM354.956 410.952C356.005 410.952 356.874 410.584 357.562 409.848C358.267 409.112 358.62 408.183 358.62 407.062C358.62 405.941 358.276 405.021 357.588 404.303C356.9 403.585 356.022 403.225 354.956 403.225C353.958 403.225 353.141 403.602 352.505 404.355C351.869 405.109 351.55 406.02 351.55 407.089C351.55 408.175 351.869 409.095 352.505 409.848C353.141 410.584 353.958 410.952 354.956 410.952Z" fill="white"/>
<path d="M367.492 404.172C367.492 404.539 367.69 404.82 368.085 405.012C368.498 405.188 369.143 405.372 370.02 405.564C371.018 405.775 371.852 406.011 372.523 406.274C373.194 406.537 373.77 406.957 374.252 407.535C374.751 408.096 375 408.858 375 409.822C375 410.68 374.742 411.425 374.226 412.055C373.727 412.686 373.048 413.168 372.188 413.501C371.345 413.816 370.425 413.974 369.427 413.974C368.085 413.974 366.924 413.711 365.944 413.185C364.981 412.66 364.267 411.906 363.802 410.925L366.434 409.533C366.864 410.741 367.862 411.346 369.427 411.346C370.098 411.346 370.674 411.214 371.156 410.952C371.654 410.689 371.904 410.312 371.904 409.822C371.904 409.401 371.68 409.095 371.233 408.902C370.803 408.692 370.098 408.464 369.117 408.219C368.103 407.973 367.277 407.728 366.641 407.483C366.004 407.237 365.454 406.861 364.989 406.353C364.525 405.827 364.293 405.135 364.293 404.277C364.293 403.436 364.525 402.709 364.989 402.095C365.454 401.465 366.073 400.983 366.847 400.65C367.638 400.317 368.507 400.151 369.453 400.151C370.571 400.151 371.577 400.387 372.472 400.86C373.366 401.333 374.054 402.008 374.536 402.884L371.93 404.224C371.482 403.243 370.657 402.752 369.453 402.752C368.851 402.752 368.369 402.884 368.008 403.147C367.664 403.392 367.492 403.734 367.492 404.172Z" fill="white"/>
<rect x="4" y="143" width="201" height="201" rx="36" fill="white" stroke="#2241AC" stroke-width="8"/>
<path fill-rule="evenodd" clip-rule="evenodd" d="M57.3242 196.321H85.8803V196.326L147.532 196.326L122.332 225.214L85.8803 225.214V262.322L57.3242 238.967L57.3242 215.858L57.3242 196.321ZM150.912 291.233H122.356V291.225H60.7043L85.9046 262.337H122.356V225.233L150.912 248.587V271.696V291.233Z" fill="url(#paint0_linear_11668_1525)"/>
<defs>
<linearGradient id="paint0_linear_11668_1525" x1="67.5662" y1="214.096" x2="97.8095" y2="224.147" gradientUnits="userSpaceOnUse">
<stop stop-color="#0129BA"/>
<stop offset="1" stop-color="#1648F8"/>
</linearGradient>
</defs>
</svg>
