<svg width="410" height="160" viewBox="0 0 410 160" fill="none" xmlns="http://www.w3.org/2000/svg">
<path d="M0 24C0 10.7452 10.7452 0 24 0H386C399.255 0 410 10.7452 410 24V160H0V24Z" fill="#1F2639" fill-opacity="0.4"/>
<mask id="mask0_12158_136" style="mask-type:alpha" maskUnits="userSpaceOnUse" x="0" y="0" width="410" height="160">
<path d="M0 40C0 17.9086 17.9086 0 40 0H370C392.091 0 410 17.9086 410 40V160H0V40Z" fill="#1F2639"/>
</mask>
<g mask="url(#mask0_12158_136)">
<path d="M351.528 87.4937H58.4721C47.718 87.4937 39 96.2116 39 106.966V121.57C39 132.324 47.718 141.042 58.4721 141.042H351.528C362.282 141.042 371 132.324 371 121.57V106.966C371 96.2116 362.282 87.4937 351.528 87.4937Z" fill="white" stroke="black" stroke-opacity="0.14"/>
<path d="M127.008 113.736V116.993H131.186V117.876H126.074V108.793H131.134V109.662H127.008V112.854H130.797V113.736H127.008ZM133.75 113.14C133.75 113.416 133.88 113.62 134.139 113.75C134.399 113.879 134.809 114.013 135.372 114.152C135.89 114.281 136.306 114.407 136.618 114.528C136.929 114.64 137.197 114.826 137.422 115.086C137.656 115.337 137.772 115.674 137.772 116.098C137.772 116.479 137.663 116.816 137.448 117.11C137.231 117.404 136.932 117.633 136.552 117.798C136.172 117.953 135.743 118.031 135.268 118.031C134.619 118.031 134.07 117.901 133.62 117.642C133.17 117.374 132.85 117.015 132.66 116.565L133.387 116.176C133.533 116.548 133.771 116.825 134.1 117.006C134.428 117.188 134.818 117.279 135.268 117.279C135.717 117.279 136.102 117.175 136.423 116.967C136.751 116.751 136.916 116.461 136.916 116.098C136.916 115.864 136.838 115.678 136.682 115.54C136.526 115.393 136.331 115.281 136.099 115.203C135.873 115.125 135.557 115.038 135.151 114.943C134.658 114.813 134.26 114.692 133.958 114.58C133.663 114.467 133.408 114.299 133.192 114.074C132.984 113.84 132.881 113.533 132.881 113.153C132.881 112.789 132.98 112.461 133.179 112.167C133.387 111.872 133.667 111.643 134.022 111.479C134.386 111.315 134.792 111.232 135.242 111.232C135.777 111.232 136.25 111.349 136.657 111.583C137.071 111.816 137.383 112.141 137.59 112.556L136.864 112.919C136.735 112.625 136.526 112.396 136.241 112.231C135.964 112.067 135.631 111.985 135.242 111.985C134.783 111.985 134.42 112.089 134.152 112.296C133.883 112.504 133.75 112.785 133.75 113.14ZM141.158 115.942C141.158 116.392 141.236 116.703 141.391 116.876C141.547 117.041 141.806 117.123 142.17 117.123C142.273 117.123 142.499 117.106 142.845 117.071V117.876C142.481 117.919 142.191 117.94 141.975 117.94C141.396 117.94 140.968 117.798 140.69 117.512C140.414 117.218 140.276 116.708 140.276 115.981V112.192H138.744V111.388H140.276V109.533L141.158 109.208V111.388H142.819V112.192H141.158V115.942ZM150.105 117.876H149.223V114.009C149.223 113.308 149.028 112.807 148.639 112.504C148.249 112.201 147.803 112.05 147.302 112.05C146.905 112.05 146.532 112.167 146.186 112.4C145.849 112.625 145.621 112.997 145.499 113.516V117.876H144.63V108.793H145.499V112.205C145.733 111.929 146.018 111.704 146.355 111.531C146.693 111.349 147.061 111.258 147.458 111.258C147.839 111.258 148.228 111.336 148.626 111.492C149.033 111.647 149.379 111.929 149.664 112.335C149.958 112.742 150.105 113.295 150.105 113.996V117.876ZM155.001 111.232C155.632 111.232 156.19 111.388 156.675 111.699C157.168 112.011 157.548 112.43 157.817 112.958C158.085 113.477 158.219 114.039 158.219 114.645C158.219 114.688 158.209 114.805 158.193 114.995H152.51C152.544 115.41 152.674 115.791 152.899 116.137C153.123 116.474 153.427 116.742 153.808 116.941C154.187 117.14 154.616 117.24 155.092 117.24C155.524 117.24 155.935 117.14 156.324 116.941C156.723 116.734 157.012 116.479 157.194 116.176L157.895 116.591C157.61 117.041 157.22 117.395 156.727 117.655C156.242 117.906 155.689 118.031 155.066 118.031C154.391 118.031 153.79 117.884 153.262 117.59C152.744 117.296 152.337 116.889 152.043 116.37C151.757 115.851 151.615 115.272 151.615 114.632C151.615 113.992 151.757 113.416 152.043 112.906C152.329 112.387 152.726 111.98 153.236 111.686C153.755 111.384 154.343 111.232 155.001 111.232ZM157.389 114.255C157.301 113.563 157.047 113.019 156.623 112.621C156.208 112.223 155.663 112.024 154.989 112.024C154.512 112.024 154.083 112.132 153.704 112.348C153.323 112.556 153.024 112.833 152.809 113.179C152.6 113.516 152.497 113.875 152.497 114.255H157.389ZM162.694 111.388C162.797 111.388 162.88 111.392 162.94 111.401L162.85 112.244C162.797 112.227 162.719 112.218 162.616 112.218C162.053 112.218 161.578 112.378 161.189 112.698C160.808 113.01 160.617 113.507 160.617 114.191V117.876H159.735V111.388H160.617V112.569C160.773 112.223 161.028 111.942 161.383 111.725C161.747 111.5 162.183 111.388 162.694 111.388ZM174.216 112.776V108.793H175.15V117.876H174.216V113.659H169.221V117.876H168.287V108.793H169.221V112.776H174.216ZM180.349 118.031C179.736 118.031 179.168 117.88 178.649 117.577C178.13 117.274 177.72 116.863 177.417 116.344C177.115 115.817 176.962 115.246 176.962 114.632C176.962 114.018 177.115 113.455 177.417 112.945C177.72 112.426 178.13 112.015 178.649 111.712C179.168 111.41 179.736 111.258 180.349 111.258C180.964 111.258 181.529 111.41 182.049 111.712C182.568 112.015 182.979 112.426 183.282 112.945C183.585 113.455 183.735 114.018 183.735 114.632C183.735 115.246 183.585 115.817 183.282 116.344C182.979 116.863 182.568 117.274 182.049 117.577C181.529 117.88 180.964 118.031 180.349 118.031ZM180.336 117.149C180.795 117.149 181.215 117.036 181.594 116.812C181.984 116.587 182.292 116.284 182.516 115.903C182.741 115.514 182.853 115.09 182.853 114.632C182.853 114.173 182.741 113.754 182.516 113.373C182.292 112.984 181.984 112.677 181.594 112.452C181.215 112.227 180.795 112.115 180.336 112.115C179.878 112.115 179.458 112.227 179.078 112.452C178.697 112.677 178.394 112.984 178.169 113.373C177.944 113.754 177.831 114.173 177.831 114.632C177.831 115.09 177.944 115.514 178.169 115.903C178.394 116.284 178.697 116.587 179.078 116.812C179.458 117.036 179.878 117.149 180.336 117.149ZM191.327 116.565L192.961 111.388H193.896L191.794 117.876H190.859L189.212 112.763L187.59 117.876H186.682L184.67 111.388H185.578L187.136 116.591L188.732 111.388H189.692L191.327 116.565ZM200.425 111.388H201.294V117.876H200.425V116.552C200.157 117.011 199.812 117.374 199.387 117.642C198.964 117.901 198.479 118.031 197.934 118.031C197.311 118.031 196.762 117.884 196.286 117.59C195.81 117.287 195.443 116.881 195.183 116.37C194.923 115.851 194.794 115.276 194.794 114.645C194.794 114.013 194.923 113.438 195.183 112.919C195.443 112.4 195.81 111.994 196.286 111.699C196.762 111.397 197.311 111.245 197.934 111.245C198.479 111.245 198.964 111.379 199.387 111.647C199.812 111.916 200.157 112.279 200.425 112.737V111.388ZM197.947 117.201C198.406 117.201 198.821 117.088 199.192 116.863C199.573 116.639 199.872 116.332 200.088 115.942C200.304 115.544 200.412 115.107 200.412 114.632C200.412 114.156 200.304 113.728 200.088 113.347C199.872 112.958 199.573 112.651 199.192 112.426C198.821 112.201 198.406 112.089 197.947 112.089C197.497 112.089 197.095 112.205 196.74 112.439C196.394 112.664 196.127 112.971 195.936 113.36C195.746 113.75 195.65 114.178 195.65 114.645C195.65 115.112 195.746 115.54 195.936 115.929C196.127 116.319 196.394 116.63 196.74 116.863C197.095 117.088 197.497 117.201 197.947 117.201ZM206.164 111.388C206.269 111.388 206.351 111.392 206.411 111.401L206.32 112.244C206.269 112.227 206.191 112.218 206.087 112.218C205.524 112.218 205.049 112.378 204.659 112.698C204.279 113.01 204.089 113.507 204.089 114.191V117.876H203.207V111.388H204.089V112.569C204.244 112.223 204.5 111.942 204.854 111.725C205.217 111.5 205.654 111.388 206.164 111.388ZM212.745 108.793H213.627V117.876H212.745V116.565C212.485 117.015 212.138 117.374 211.707 117.642C211.283 117.901 210.803 118.031 210.266 118.031C209.644 118.031 209.094 117.884 208.619 117.59C208.143 117.287 207.776 116.881 207.516 116.37C207.257 115.851 207.126 115.276 207.126 114.645C207.126 114.013 207.257 113.438 207.516 112.919C207.776 112.4 208.143 111.994 208.619 111.699C209.094 111.397 209.644 111.245 210.266 111.245C210.803 111.245 211.283 111.379 211.707 111.647C212.131 111.907 212.476 112.262 212.745 112.711V108.793ZM210.28 117.201C210.737 117.201 211.152 117.088 211.525 116.863C211.905 116.639 212.204 116.332 212.421 115.942C212.636 115.544 212.745 115.107 212.745 114.632C212.745 114.156 212.636 113.728 212.421 113.347C212.204 112.958 211.905 112.651 211.525 112.426C211.152 112.201 210.737 112.089 210.28 112.089C209.829 112.089 209.427 112.205 209.073 112.439C208.726 112.664 208.458 112.971 208.268 113.36C208.078 113.75 207.983 114.178 207.983 114.645C207.983 115.112 208.078 115.54 208.268 115.929C208.458 116.319 208.726 116.63 209.073 116.863C209.427 117.088 209.829 117.201 210.28 117.201Z" fill="#000205"/>
<path d="M70.4215 130.847C80.1467 130.847 88.0306 122.964 88.0306 113.238C88.0306 103.513 80.1467 95.6294 70.4215 95.6294C60.6964 95.6294 52.8125 103.513 52.8125 113.238C52.8125 122.964 60.6964 130.847 70.4215 130.847Z" fill="#E8EEFE"/>
<path fill-rule="evenodd" clip-rule="evenodd" d="M70.4119 107.833C67.426 107.833 65.0057 110.254 65.0057 113.24C65.0057 113.469 65.0199 113.695 65.0474 113.916C65.1003 114.34 64.7999 114.725 64.3766 114.778C63.9534 114.831 63.5675 114.531 63.5147 114.107C63.4792 113.823 63.4609 113.533 63.4609 113.24C63.4609 109.401 66.5731 106.289 70.4119 106.289C71.9082 106.289 73.2942 106.762 74.4281 107.566V107.061C74.4281 106.634 74.774 106.289 75.2004 106.289C75.627 106.289 75.9729 106.634 75.9729 107.061V109.378C75.9729 109.804 75.627 110.15 75.2005 110.15L72.8835 110.15C72.457 110.15 72.1111 109.804 72.1111 109.378C72.1111 108.951 72.457 108.606 72.8835 108.606H73.1984C72.3845 108.115 71.4313 107.833 70.4119 107.833ZM76.447 111.701C76.8702 111.648 77.2563 111.948 77.309 112.371C77.3447 112.656 77.3628 112.946 77.3628 113.24C77.3628 117.078 74.2508 120.19 70.4119 120.19C68.983 120.19 67.6546 119.759 66.5502 119.02V119.418C66.5502 119.845 66.2045 120.19 65.7779 120.19C65.3514 120.19 65.0057 119.845 65.0057 119.418V117.101C65.0057 116.675 65.3514 116.329 65.7779 116.329H68.0949C68.5215 116.329 68.8672 116.675 68.8672 117.101C68.8672 117.528 68.5215 117.873 68.0949 117.873H67.6254C68.4392 118.364 69.3924 118.646 70.4119 118.646C73.3978 118.646 75.8182 116.225 75.8182 113.24C75.8182 113.01 75.8039 112.784 75.7764 112.563C75.7235 112.14 76.0238 111.754 76.447 111.701Z" fill="#2241AC"/>
<path d="M81.5305 130.851C85.1135 130.851 88.018 127.946 88.018 124.364C88.018 120.781 85.1135 117.876 81.5305 117.876C77.9475 117.876 75.043 120.781 75.043 124.364C75.043 127.946 77.9475 130.851 81.5305 130.851Z" fill="#CF7A2C"/>
<path d="M351.528 149.992H58.4721C47.718 149.992 39 158.71 39 169.464V184.068C39 194.823 47.718 203.541 58.4721 203.541H351.528C362.282 203.541 371 194.823 371 184.068V169.464C371 158.71 362.282 149.992 351.528 149.992Z" fill="white" stroke="black" stroke-opacity="0.14"/>
<path d="M70.4215 194.474C80.1467 194.474 88.0306 186.591 88.0306 176.865C88.0306 167.14 80.1467 159.256 70.4215 159.256C60.6964 159.256 52.8125 167.14 52.8125 176.865C52.8125 186.591 60.6964 194.474 70.4215 194.474Z" fill="#E8EEFE"/>
<path d="M351.528 25H58.4721C47.718 25 39 33.7436 39 44.5294V59.1765C39 69.9623 47.718 78.7059 58.4721 78.7059H351.528C362.282 78.7059 371 69.9623 371 59.1765V44.5294C371 33.7436 362.282 25 351.528 25Z" fill="white" stroke="black" stroke-opacity="0.14"/>
<path d="M129.295 47.4931C130.143 47.4931 130.921 47.6926 131.63 48.0916C132.339 48.4907 132.902 49.0416 133.317 49.7443C133.732 50.4384 133.94 51.2105 133.94 52.0607C133.94 52.9109 133.732 53.683 133.317 54.3771C132.902 55.0624 132.339 55.6047 131.63 56.0037C130.921 56.4028 130.143 56.6024 129.295 56.6024H126.09V47.4931H129.295ZM129.295 55.7174C129.978 55.7174 130.601 55.5568 131.163 55.2359C131.734 54.9149 132.184 54.4768 132.513 53.9215C132.842 53.3664 133.006 52.7461 133.006 52.0607C133.006 51.3754 132.842 50.7508 132.513 50.1867C132.184 49.6228 131.734 49.1804 131.163 48.8594C130.601 48.5298 129.978 48.3649 129.295 48.3649H127.024V55.7174H129.295ZM140.867 50.0957H141.736V56.6024H140.867V55.2749C140.598 55.7348 140.253 56.0992 139.829 56.3681C139.405 56.6283 138.921 56.7585 138.376 56.7585C137.752 56.7585 137.203 56.6109 136.727 56.316C136.251 56.0124 135.884 55.6047 135.625 55.0928C135.365 54.5723 135.235 53.9953 135.235 53.362C135.235 52.7287 135.365 52.1518 135.625 51.6312C135.884 51.1107 136.251 50.7029 136.727 50.408C137.203 50.1043 137.752 49.9526 138.376 49.9526C138.921 49.9526 139.405 50.087 139.829 50.356C140.253 50.6249 140.598 50.9892 140.867 51.449V50.0957ZM138.388 55.9257C138.846 55.9257 139.261 55.8129 139.634 55.5873C140.014 55.3616 140.312 55.0538 140.529 54.6634C140.745 54.2643 140.853 53.8261 140.853 53.349C140.853 52.8718 140.745 52.4425 140.529 52.0607C140.312 51.6703 140.014 51.3623 139.634 51.1368C139.261 50.9112 138.846 50.7984 138.388 50.7984C137.938 50.7984 137.535 50.9155 137.182 51.1497C136.835 51.3754 136.568 51.6833 136.378 52.0737C136.186 52.4641 136.091 52.8935 136.091 53.362C136.091 53.8305 136.186 54.2599 136.378 54.6503C136.568 55.0407 136.835 55.3531 137.182 55.5873C137.535 55.8129 137.938 55.9257 138.388 55.9257ZM146.605 50.0957C146.71 50.0957 146.791 50.1 146.852 50.1087L146.761 50.9545C146.71 50.9372 146.632 50.9286 146.528 50.9286C145.966 50.9286 145.49 51.0891 145.1 51.4101C144.72 51.7223 144.53 52.2212 144.53 52.9065V56.6024H143.647V50.0957H144.53V51.2799C144.685 50.9329 144.941 50.6509 145.295 50.4341C145.658 50.2084 146.095 50.0957 146.605 50.0957ZM151.289 50.0957C151.393 50.0957 151.474 50.1 151.536 50.1087L151.445 50.9545C151.393 50.9372 151.316 50.9286 151.212 50.9286C150.649 50.9286 150.174 51.0891 149.784 51.4101C149.404 51.7223 149.214 52.2212 149.214 52.9065V56.6024H148.331V50.0957H149.214V51.2799C149.369 50.9329 149.624 50.6509 149.979 50.4341C150.342 50.2084 150.778 50.0957 151.289 50.0957ZM155.637 49.9395C156.269 49.9395 156.827 50.0957 157.31 50.408C157.804 50.7203 158.184 51.1411 158.452 51.6703C158.721 52.1909 158.854 52.7548 158.854 53.362C158.854 53.4054 158.847 53.5226 158.829 53.7134H153.146C153.181 54.1298 153.311 54.5115 153.535 54.8586C153.76 55.1969 154.063 55.4658 154.443 55.6653C154.824 55.8649 155.252 55.9646 155.728 55.9646C156.16 55.9646 156.571 55.8649 156.961 55.6653C157.359 55.4571 157.648 55.2012 157.83 54.8975L158.53 55.314C158.245 55.7651 157.855 56.1209 157.363 56.3811C156.879 56.6327 156.325 56.7585 155.702 56.7585C155.027 56.7585 154.426 56.6109 153.899 56.316C153.379 56.0211 152.974 55.6133 152.679 55.0928C152.393 54.5723 152.25 53.991 152.25 53.349C152.25 52.707 152.393 52.1301 152.679 51.6182C152.964 51.0977 153.362 50.6899 153.872 50.395C154.391 50.0913 154.979 49.9395 155.637 49.9395ZM158.024 52.9716C157.938 52.2776 157.683 51.731 157.259 51.3319C156.844 50.9329 156.299 50.7334 155.624 50.7334C155.149 50.7334 154.72 50.8419 154.34 51.0586C153.959 51.2669 153.661 51.5445 153.444 51.8916C153.237 52.2299 153.132 52.5898 153.132 52.9716H158.024ZM161.204 55.4442C161.204 55.5916 161.234 55.6958 161.295 55.7564C161.363 55.8085 161.468 55.8346 161.607 55.8346C161.726 55.8346 161.866 55.8216 162.021 55.7955V56.6024C161.788 56.6457 161.58 56.6674 161.398 56.6674C161.069 56.6674 160.81 56.5807 160.62 56.4072C160.43 56.2335 160.335 55.9257 160.335 55.4832V47.4931H161.204V55.4442ZM164.278 55.4442C164.278 55.5916 164.308 55.6958 164.369 55.7564C164.439 55.8085 164.542 55.8346 164.68 55.8346C164.802 55.8346 164.94 55.8216 165.096 55.7955V56.6024C164.862 56.6457 164.654 56.6674 164.473 56.6674C164.144 56.6674 163.884 56.5807 163.694 56.4072C163.504 56.2335 163.409 55.9257 163.409 55.4832V47.4931H164.278V55.4442ZM173.576 56.7585C172.685 56.7585 171.933 56.5633 171.318 56.1729C170.704 55.7825 170.276 55.2533 170.033 54.5853L170.916 54.1167C171.106 54.646 171.427 55.0668 171.876 55.379C172.335 55.6914 172.905 55.8475 173.589 55.8475C174.074 55.8475 174.48 55.7651 174.809 55.6003C175.146 55.4355 175.397 55.2229 175.561 54.9627C175.735 54.7023 175.82 54.4291 175.82 54.1428C175.82 53.7178 175.618 53.3794 175.211 53.1278C174.804 52.8761 174.186 52.6246 173.355 52.3731C172.698 52.1735 172.174 51.9913 171.785 51.8264C171.404 51.6529 171.085 51.4101 170.825 51.0977C170.566 50.7854 170.435 50.3733 170.435 49.8615C170.435 49.3583 170.566 48.9159 170.825 48.5341C171.085 48.1437 171.439 47.8488 171.889 47.6492C172.339 47.441 172.831 47.3369 173.368 47.3369C174.113 47.3369 174.752 47.5147 175.289 47.8705C175.833 48.2262 176.244 48.6989 176.521 49.2889L175.639 49.7183C175.44 49.2585 175.146 48.8985 174.756 48.6383C174.376 48.3779 173.913 48.2479 173.368 48.2479C172.953 48.2479 172.594 48.3259 172.291 48.482C171.997 48.6296 171.772 48.8291 171.616 49.0807C171.461 49.3323 171.383 49.5969 171.383 49.8745C171.383 50.1782 171.465 50.4254 171.63 50.6162C171.794 50.7984 172.011 50.946 172.278 51.0586C172.546 51.1714 172.932 51.306 173.433 51.4621L173.693 51.5401C174.402 51.7658 174.956 51.9696 175.353 52.1518C175.76 52.3253 176.098 52.5769 176.366 52.9065C176.642 53.2275 176.78 53.6439 176.78 54.1558C176.78 54.6764 176.646 55.1318 176.378 55.5222C176.111 55.9126 175.73 56.2163 175.236 56.4331C174.752 56.65 174.198 56.7585 173.576 56.7585ZM180.141 54.6634C180.141 55.1144 180.219 55.4268 180.375 55.6003C180.531 55.7651 180.79 55.8475 181.153 55.8475C181.257 55.8475 181.482 55.8302 181.828 55.7955V56.6024C181.464 56.6457 181.175 56.6674 180.959 56.6674C180.38 56.6674 179.951 56.5242 179.674 56.2379C179.397 55.943 179.259 55.4311 179.259 54.7023V50.9025H177.728V50.0957H179.259V48.2348L180.141 47.9095V50.0957H181.802V50.9025H180.141V54.6634ZM186.552 49.9395C187.183 49.9395 187.741 50.0957 188.225 50.408C188.719 50.7203 189.098 51.1411 189.367 51.6703C189.635 52.1909 189.769 52.7548 189.769 53.362C189.769 53.4054 189.761 53.5226 189.744 53.7134H184.061C184.095 54.1298 184.225 54.5115 184.449 54.8586C184.674 55.1969 184.977 55.4658 185.358 55.6653C185.739 55.8649 186.166 55.9646 186.643 55.9646C187.074 55.9646 187.486 55.8649 187.876 55.6653C188.273 55.4571 188.563 55.2012 188.745 54.8975L189.445 55.314C189.16 55.7651 188.77 56.1209 188.278 56.3811C187.793 56.6327 187.24 56.7585 186.617 56.7585C185.942 56.7585 185.34 56.6109 184.814 56.316C184.294 56.0211 183.888 55.6133 183.594 55.0928C183.308 54.5723 183.165 53.991 183.165 53.349C183.165 52.707 183.308 52.1301 183.594 51.6182C183.879 51.0977 184.276 50.6899 184.787 50.395C185.306 50.0913 185.893 49.9395 186.552 49.9395ZM188.939 52.9716C188.852 52.2776 188.597 51.731 188.174 51.3319C187.759 50.9329 187.214 50.7334 186.539 50.7334C186.063 50.7334 185.634 50.8419 185.255 51.0586C184.873 51.2669 184.575 51.5445 184.359 51.8916C184.152 52.2299 184.047 52.5898 184.047 52.9716H188.939ZM197.325 55.288L198.961 50.0957H199.895L197.793 56.6024H196.859L195.211 51.4751L193.589 56.6024H192.68L190.67 50.0957H191.578L193.135 55.314L194.731 50.0957H195.691L197.325 55.288ZM206.425 50.0957H207.294V56.6024H206.425V55.2749C206.156 55.7348 205.81 56.0992 205.387 56.3681C204.962 56.6283 204.479 56.7585 203.933 56.7585C203.311 56.7585 202.761 56.6109 202.286 56.316C201.81 56.0124 201.443 55.6047 201.183 55.0928C200.924 54.5723 200.793 53.9953 200.793 53.362C200.793 52.7287 200.924 52.1518 201.183 51.6312C201.443 51.1107 201.81 50.7029 202.286 50.408C202.761 50.1043 203.311 49.9526 203.933 49.9526C204.479 49.9526 204.962 50.087 205.387 50.356C205.81 50.6249 206.156 50.9892 206.425 51.449V50.0957ZM203.947 55.9257C204.405 55.9257 204.82 55.8129 205.192 55.5873C205.572 55.3616 205.871 55.0538 206.088 54.6634C206.304 54.2643 206.412 53.8261 206.412 53.349C206.412 52.8718 206.304 52.4425 206.088 52.0607C205.871 51.6703 205.572 51.3623 205.192 51.1368C204.82 50.9112 204.405 50.7984 203.947 50.7984C203.496 50.7984 203.094 50.9155 202.74 51.1497C202.393 51.3754 202.125 51.6833 201.935 52.0737C201.745 52.4641 201.65 52.8935 201.65 53.362C201.65 53.8305 201.745 54.2599 201.935 54.6503C202.125 55.0407 202.393 55.3531 202.74 55.5873C203.094 55.8129 203.496 55.9257 203.947 55.9257ZM212.163 50.0957C212.267 50.0957 212.35 50.1 212.41 50.1087L212.319 50.9545C212.267 50.9372 212.189 50.9286 212.086 50.9286C211.525 50.9286 211.047 51.0891 210.659 51.4101C210.278 51.7223 210.087 52.2212 210.087 52.9065V56.6024H209.205V50.0957H210.087V51.2799C210.243 50.9329 210.499 50.6509 210.853 50.4341C211.217 50.2084 211.654 50.0957 212.163 50.0957ZM218.744 47.4931H219.626V56.6024H218.744V55.288C218.485 55.7391 218.138 56.0992 217.706 56.3681C217.282 56.6283 216.802 56.7585 216.266 56.7585C215.643 56.7585 215.093 56.6109 214.618 56.316C214.143 56.0124 213.775 55.6047 213.515 55.0928C213.256 54.5723 213.126 53.9953 213.126 53.362C213.126 52.7287 213.256 52.1518 213.515 51.6312C213.775 51.1107 214.143 50.7029 214.618 50.408C215.093 50.1043 215.643 49.9526 216.266 49.9526C216.802 49.9526 217.282 50.087 217.706 50.356C218.129 50.6162 218.476 50.9719 218.744 51.4231V47.4931ZM216.279 55.9257C216.737 55.9257 217.153 55.8129 217.524 55.5873C217.906 55.3616 218.203 55.0538 218.42 54.6634C218.636 54.2643 218.744 53.8261 218.744 53.349C218.744 52.8718 218.636 52.4425 218.42 52.0607C218.203 51.6703 217.906 51.3623 217.524 51.1368C217.153 50.9112 216.737 50.7984 216.279 50.7984C215.829 50.7984 215.427 50.9155 215.072 51.1497C214.727 51.3754 214.457 51.6833 214.267 52.0737C214.077 52.4641 213.982 52.8935 213.982 53.362C213.982 53.8305 214.077 54.2599 214.267 54.6503C214.457 55.0407 214.727 55.3531 215.072 55.5873C215.427 55.8129 215.829 55.9257 216.279 55.9257ZM221.927 56.7324C221.762 56.7064 221.65 56.6544 221.589 56.5763C221.537 56.4982 221.511 56.3725 221.511 56.1989C221.511 56.0254 221.559 55.8952 221.654 55.8085C221.749 55.7131 221.879 55.6653 222.043 55.6653C222.217 55.6653 222.351 55.7174 222.445 55.8216C222.541 55.917 222.589 56.0514 222.589 56.2249C222.589 56.4245 222.562 56.5937 222.511 56.7324C222.458 56.88 222.359 57.0665 222.212 57.292L221.849 57.8386L221.55 57.5913L221.927 56.7324ZM229.072 52.4511V55.7174H233.25V56.6024H228.138V47.4931H233.198V48.3649H229.072V51.5662H232.861V52.4511H229.072ZM235.812 51.8525C235.812 52.1301 235.943 52.334 236.202 52.4641C236.462 52.5942 236.872 52.7287 237.434 52.8675C237.953 52.9976 238.369 53.1234 238.68 53.2449C238.992 53.3576 239.261 53.5442 239.485 53.8045C239.718 54.0561 239.835 54.3945 239.835 54.8195C239.835 55.2012 239.727 55.5396 239.511 55.8346C239.295 56.1294 238.996 56.3594 238.615 56.5242C238.235 56.6804 237.807 56.7585 237.331 56.7585C236.682 56.7585 236.133 56.6283 235.683 56.3681C235.234 56.0992 234.913 55.7391 234.723 55.288L235.449 54.8975C235.597 55.2706 235.835 55.5483 236.163 55.7305C236.492 55.9126 236.881 56.0037 237.331 56.0037C237.781 56.0037 238.165 55.8996 238.486 55.6914C238.815 55.4745 238.978 55.1838 238.978 54.8195C238.978 54.5853 238.9 54.3987 238.745 54.2599C238.589 54.1124 238.395 53.9997 238.161 53.9215C237.937 53.8435 237.621 53.7568 237.214 53.6613C236.72 53.5312 236.323 53.4097 236.02 53.297C235.726 53.1842 235.471 53.015 235.254 52.7894C235.047 52.5552 234.944 52.2473 234.944 51.8655C234.944 51.5012 235.043 51.1714 235.242 50.8765C235.449 50.5815 235.731 50.3516 236.085 50.1867C236.448 50.022 236.855 49.9395 237.305 49.9395C237.841 49.9395 238.313 50.0567 238.719 50.2909C239.134 50.5251 239.446 50.8505 239.653 51.2669L238.927 51.6312C238.797 51.3363 238.589 51.1064 238.304 50.9416C238.028 50.7767 237.694 50.6943 237.305 50.6943C236.847 50.6943 236.484 50.7984 236.215 51.0066C235.947 51.2149 235.812 51.4968 235.812 51.8525ZM243.221 54.6634C243.221 55.1144 243.299 55.4268 243.455 55.6003C243.611 55.7651 243.87 55.8475 244.234 55.8475C244.337 55.8475 244.562 55.8302 244.909 55.7955V56.6024C244.544 56.6457 244.254 56.6674 244.039 56.6674C243.459 56.6674 243.03 56.5242 242.754 56.2379C242.477 55.943 242.339 55.4311 242.339 54.7023V50.9025H240.808V50.0957H242.339V48.2348L243.221 47.9095V50.0957H244.882V50.9025H243.221V54.6634ZM252.169 56.6024H251.287V52.7244C251.287 52.0216 251.092 51.5186 250.702 51.2149C250.313 50.9112 249.867 50.7593 249.366 50.7593C248.967 50.7593 248.596 50.8765 248.25 51.1107C247.913 51.3363 247.683 51.7094 247.563 52.2299V56.6024H246.693V47.4931H247.563V50.9155C247.796 50.6379 248.082 50.4124 248.418 50.2389C248.756 50.0567 249.123 49.9656 249.521 49.9656C249.901 49.9656 250.291 50.0437 250.69 50.1998C251.096 50.356 251.442 50.6379 251.728 51.0456C252.022 51.4534 252.169 52.0086 252.169 52.7113V56.6024ZM257.064 49.9395C257.696 49.9395 258.254 50.0957 258.738 50.408C259.23 50.7203 259.612 51.1411 259.88 51.6703C260.148 52.1909 260.282 52.7548 260.282 53.362C260.282 53.4054 260.273 53.5226 260.255 53.7134H254.573C254.608 54.1298 254.738 54.5115 254.962 54.8586C255.187 55.1969 255.491 55.4658 255.87 55.6653C256.251 55.8649 256.679 55.9646 257.155 55.9646C257.588 55.9646 257.998 55.8649 258.387 55.6653C258.786 55.4571 259.075 55.2012 259.257 54.8975L259.958 55.314C259.672 55.7651 259.283 56.1209 258.789 56.3811C258.305 56.6327 257.751 56.7585 257.129 56.7585C256.455 56.7585 255.854 56.6109 255.325 56.316C254.806 56.0211 254.4 55.6133 254.105 55.0928C253.82 54.5723 253.678 53.991 253.678 53.349C253.678 52.707 253.82 52.1301 254.105 51.6182C254.391 51.0977 254.79 50.6899 255.299 50.395C255.818 50.0913 256.407 49.9395 257.064 49.9395ZM259.451 52.9716C259.365 52.2776 259.111 51.731 258.686 51.3319C258.27 50.9329 257.726 50.7334 257.051 50.7334C256.575 50.7334 256.147 50.8419 255.766 51.0586C255.386 51.2669 255.088 51.5445 254.871 51.8916C254.663 52.2299 254.56 52.5898 254.56 52.9716H259.451ZM264.757 50.0957C264.861 50.0957 264.942 50.1 265.004 50.1087L264.913 50.9545C264.861 50.9372 264.783 50.9286 264.68 50.9286C264.117 50.9286 263.642 51.0891 263.252 51.4101C262.872 51.7223 262.681 52.2212 262.681 52.9065V56.6024H261.799V50.0957H262.681V51.2799C262.837 50.9329 263.092 50.6509 263.447 50.4341C263.81 50.2084 264.246 50.0957 264.757 50.0957ZM276.279 51.4881V47.4931H277.213V56.6024H276.279V52.3731H271.284V56.6024H270.35V47.4931H271.284V51.4881H276.279ZM282.413 56.7585C281.798 56.7585 281.232 56.6066 280.713 56.303C280.194 55.9994 279.783 55.5873 279.48 55.0668C279.178 54.5376 279.026 53.965 279.026 53.349C279.026 52.733 279.178 52.1692 279.48 51.6573C279.783 51.1368 280.194 50.7247 280.713 50.421C281.232 50.1173 281.798 49.9656 282.413 49.9656C283.027 49.9656 283.593 50.1173 284.113 50.421C284.632 50.7247 285.042 51.1368 285.345 51.6573C285.648 52.1692 285.799 52.733 285.799 53.349C285.799 53.965 285.648 54.5376 285.345 55.0668C285.042 55.5873 284.632 55.9994 284.113 56.303C283.593 56.6066 283.027 56.7585 282.413 56.7585ZM282.399 55.8736C282.859 55.8736 283.277 55.7608 283.658 55.5353C284.048 55.3096 284.354 55.006 284.579 54.6243C284.805 54.2339 284.917 53.8089 284.917 53.349C284.917 52.8891 284.805 52.4685 284.579 52.0868C284.354 51.6964 284.048 51.3884 283.658 51.1628C283.277 50.9372 282.859 50.8245 282.399 50.8245C281.941 50.8245 281.522 50.9372 281.141 51.1628C280.76 51.3884 280.458 51.6964 280.233 52.0868C280.007 52.4685 279.895 52.8891 279.895 53.349C279.895 53.8089 280.007 54.2339 280.233 54.6243C280.458 55.006 280.76 55.3096 281.141 55.5353C281.522 55.7608 281.941 55.8736 282.399 55.8736ZM293.39 55.288L295.025 50.0957H295.96L293.858 56.6024H292.923L291.276 51.4751L289.654 56.6024H288.745L286.734 50.0957H287.642L289.2 55.314L290.796 50.0957H291.756L293.39 55.288ZM302.489 50.0957H303.358V56.6024H302.489V55.2749C302.221 55.7348 301.874 56.0992 301.451 56.3681C301.027 56.6283 300.542 56.7585 299.997 56.7585C299.375 56.7585 298.825 56.6109 298.35 56.316C297.874 56.0124 297.507 55.6047 297.247 55.0928C296.988 54.5723 296.857 53.9953 296.857 53.362C296.857 52.7287 296.988 52.1518 297.247 51.6312C297.507 51.1107 297.874 50.7029 298.35 50.408C298.825 50.1043 299.375 49.9526 299.997 49.9526C300.542 49.9526 301.027 50.087 301.451 50.356C301.874 50.6249 302.221 50.9892 302.489 51.449V50.0957ZM300.011 55.9257C300.469 55.9257 300.884 55.8129 301.256 55.5873C301.637 55.3616 301.936 55.0538 302.152 54.6634C302.367 54.2643 302.476 53.8261 302.476 53.349C302.476 52.8718 302.367 52.4425 302.152 52.0607C301.936 51.6703 301.637 51.3623 301.256 51.1368C300.884 50.9112 300.469 50.7984 300.011 50.7984C299.561 50.7984 299.159 50.9155 298.803 51.1497C298.458 51.3754 298.189 51.6833 297.999 52.0737C297.809 52.4641 297.714 52.8935 297.714 53.362C297.714 53.8305 297.809 54.2599 297.999 54.6503C298.189 55.0407 298.458 55.3531 298.803 55.5873C299.159 55.8129 299.561 55.9257 300.011 55.9257ZM308.228 50.0957C308.332 50.0957 308.414 50.1 308.474 50.1087L308.384 50.9545C308.332 50.9372 308.254 50.9286 308.15 50.9286C307.588 50.9286 307.112 51.0891 306.723 51.4101C306.342 51.7223 306.152 52.2212 306.152 52.9065V56.6024H305.27V50.0957H306.152V51.2799C306.308 50.9329 306.563 50.6509 306.918 50.4341C307.281 50.2084 307.718 50.0957 308.228 50.0957ZM314.808 47.4931H315.69V56.6024H314.808V55.288C314.548 55.7391 314.202 56.0992 313.77 56.3681C313.346 56.6283 312.866 56.7585 312.33 56.7585C311.707 56.7585 311.158 56.6109 310.682 56.316C310.206 56.0124 309.838 55.6047 309.578 55.0928C309.319 54.5723 309.189 53.9953 309.189 53.362C309.189 52.7287 309.319 52.1518 309.578 51.6312C309.838 51.1107 310.206 50.7029 310.682 50.408C311.158 50.1043 311.707 49.9526 312.33 49.9526C312.866 49.9526 313.346 50.087 313.77 50.356C314.194 50.6162 314.54 50.9719 314.808 51.4231V47.4931ZM312.342 55.9257C312.801 55.9257 313.216 55.8129 313.588 55.5873C313.968 55.3616 314.267 55.0538 314.483 54.6634C314.7 54.2643 314.808 53.8261 314.808 53.349C314.808 52.8718 314.7 52.4425 314.483 52.0607C314.267 51.6703 313.968 51.3623 313.588 51.1368C313.216 50.9112 312.801 50.7984 312.342 50.7984C311.893 50.7984 311.491 50.9155 311.135 51.1497C310.79 51.3754 310.522 51.6833 310.331 52.0737C310.141 52.4641 310.046 52.8935 310.046 53.362C310.046 53.8305 310.141 54.2599 310.331 54.6503C310.522 55.0407 310.79 55.3531 311.135 55.5873C311.491 55.8129 311.893 55.9257 312.342 55.9257ZM317.991 56.7324C317.826 56.7064 317.714 56.6544 317.653 56.5763C317.602 56.4982 317.576 56.3725 317.576 56.1989C317.576 56.0254 317.623 55.8952 317.719 55.8085C317.813 55.7131 317.943 55.6653 318.108 55.6653C318.281 55.6653 318.415 55.7174 318.51 55.8216C318.605 55.917 318.652 56.0514 318.652 56.2249C318.652 56.4245 318.627 56.5937 318.575 56.7324C318.523 56.88 318.423 57.0665 318.277 57.292L317.913 57.8386L317.615 57.5913L317.991 56.7324ZM324.149 56.1989C324.149 56.0254 324.197 55.891 324.293 55.7955C324.388 55.7 324.521 55.6523 324.695 55.6523C324.868 55.6523 325.001 55.7 325.097 55.7955C325.192 55.891 325.24 56.0254 325.24 56.1989C325.24 56.3637 325.192 56.4982 325.097 56.6024C325.001 56.6978 324.868 56.7455 324.695 56.7455C324.53 56.7455 324.396 56.6978 324.293 56.6024C324.197 56.4982 324.149 56.3637 324.149 56.1989ZM326.831 56.1989C326.831 56.0254 326.879 55.891 326.974 55.7955C327.069 55.7 327.204 55.6523 327.376 55.6523C327.549 55.6523 327.684 55.7 327.778 55.7955C327.873 55.891 327.921 56.0254 327.921 56.1989C327.921 56.3637 327.873 56.4982 327.778 56.6024C327.684 56.6978 327.549 56.7455 327.376 56.7455C327.211 56.7455 327.077 56.6978 326.974 56.6024C326.879 56.4982 326.831 56.3637 326.831 56.1989ZM329.513 56.1989C329.513 56.0254 329.56 55.891 329.656 55.7955C329.751 55.7 329.885 55.6523 330.058 55.6523C330.231 55.6523 330.365 55.7 330.46 55.7955C330.555 55.891 330.602 56.0254 330.602 56.1989C330.602 56.3637 330.555 56.4982 330.46 56.6024C330.365 56.6978 330.231 56.7455 330.058 56.7455C329.893 56.7455 329.759 56.6978 329.656 56.6024C329.56 56.4982 329.513 56.3637 329.513 56.1989ZM332.194 56.1989C332.194 56.0254 332.241 55.891 332.336 55.7955C332.432 55.7 332.566 55.6523 332.74 55.6523C332.913 55.6523 333.046 55.7 333.142 55.7955C333.237 55.891 333.284 56.0254 333.284 56.1989C333.284 56.3637 333.237 56.4982 333.142 56.6024C333.046 56.6978 332.913 56.7455 332.74 56.7455C332.575 56.7455 332.441 56.6978 332.336 56.6024C332.241 56.4982 332.194 56.3637 332.194 56.1989Z" fill="#000205"/>
<path d="M70.4235 69.6136C80.1487 69.6136 88.0325 61.7066 88.0325 51.9527C88.0325 42.199 80.1487 34.292 70.4235 34.292C60.6983 34.292 52.8145 42.199 52.8145 51.9527C52.8145 61.7066 60.6983 69.6136 70.4235 69.6136Z" fill="#E8EEFE"/>
<path fill-rule="evenodd" clip-rule="evenodd" d="M70.6368 46.6189C70.9653 46.2963 71.498 46.2963 71.8266 46.6189L76.6661 51.3699C76.9947 51.6926 76.9947 52.2156 76.6661 52.5382L71.8266 57.2892C71.498 57.6118 70.9653 57.6118 70.6368 57.2892C70.3081 56.9667 70.3081 56.4436 70.6368 56.1211L74.0399 52.7801H64.7789C64.3143 52.7801 63.9375 52.4103 63.9375 51.9541C63.9375 51.4979 64.3143 51.1281 64.7789 51.1281H74.0399L70.6368 47.7871C70.3081 47.4644 70.3081 46.9415 70.6368 46.6189Z" fill="#2241AC"/>
<path d="M81.5305 69.6197C85.1135 69.6197 88.018 66.7066 88.018 63.1131C88.018 59.5195 85.1135 56.6064 81.5305 56.6064C77.9475 56.6064 75.043 59.5195 75.043 63.1131C75.043 66.7066 77.9475 69.6197 81.5305 69.6197Z" fill="#36993A"/>
</g>
</svg>
