<svg width="1440" height="530" viewBox="0 0 1440 530" fill="none" xmlns="http://www.w3.org/2000/svg">
<rect width="1440" height="530" fill="url(#paint0_linear_8450_6130)"/>
<mask id="mask0_8450_6130" style="mask-type:alpha" maskUnits="userSpaceOnUse" x="0" y="0" width="1440" height="530">
<rect width="1440" height="530" fill="url(#paint1_linear_8450_6130)"/>
</mask>
<g mask="url(#mask0_8450_6130)">
<path fill-rule="evenodd" clip-rule="evenodd" d="M1440 92H0V93H1440V92ZM0 201H1440V202H0V201ZM0 310H1440V311H0V310ZM0 419H1440V420H0V419ZM1440 528H0V529H1440V528Z" fill="url(#paint2_linear_8450_6130)"/>
<path fill-rule="evenodd" clip-rule="evenodd" d="M183.6 528L183.6 10H184.6L184.6 528H183.6ZM337.199 10L337.199 528H338.199L338.199 10H337.199ZM490.799 10L490.799 528H491.799L491.799 10H490.799ZM644.399 10L644.399 528H645.399L645.399 10H644.399ZM797.999 528V10H798.999V528H797.999ZM951.599 10V528H952.599V10H951.599ZM1105.2 528V10H1106.2V528H1105.2ZM1260 10V528H1261V10H1260Z" fill="url(#paint3_linear_8450_6130)"/>
<ellipse cx="1425.5" cy="32.5" rx="302.5" ry="242.5" fill="url(#paint4_radial_8450_6130)" fill-opacity="0.7"/>
</g>
<rect y="287" width="1440" height="243" fill="url(#paint5_linear_8450_6130)"/>
<defs>
<linearGradient id="paint0_linear_8450_6130" x1="720" y1="0" x2="720" y2="530" gradientUnits="userSpaceOnUse">
<stop stop-color="#141A2A"/>
<stop offset="1" stop-color="#0B101E"/>
</linearGradient>
<linearGradient id="paint1_linear_8450_6130" x1="720" y1="0" x2="720" y2="530" gradientUnits="userSpaceOnUse">
<stop stop-color="#141A2A"/>
<stop offset="0.777465" stop-color="#0B101C"/>
</linearGradient>
<linearGradient id="paint2_linear_8450_6130" x1="720.002" y1="226.981" x2="778.603" y2="451.505" gradientUnits="userSpaceOnUse">
<stop stop-color="#161D2D"/>
<stop offset="0.46875" stop-color="#010101"/>
<stop offset="1" stop-color="#0B101C"/>
</linearGradient>
<linearGradient id="paint3_linear_8450_6130" x1="654.929" y1="170" x2="764.749" y2="402.368" gradientUnits="userSpaceOnUse">
<stop stop-color="#161D2D"/>
<stop offset="0.46875" stop-color="#010101"/>
<stop offset="1" stop-color="#0B101C"/>
</linearGradient>
<radialGradient id="paint4_radial_8450_6130" cx="0" cy="0" r="1" gradientUnits="userSpaceOnUse" gradientTransform="translate(1425.5 32.5) rotate(90) scale(242.5 302.5)">
<stop stop-color="#5622AC"/>
<stop offset="0.0001" stop-color="#2241AC" stop-opacity="0.3"/>
<stop offset="1" stop-color="#4622AC" stop-opacity="0"/>
</radialGradient>
<linearGradient id="paint5_linear_8450_6130" x1="720" y1="287" x2="720" y2="530" gradientUnits="userSpaceOnUse">
<stop stop-color="#0B101C" stop-opacity="0"/>
<stop offset="0.681416" stop-color="#0B101C"/>
</linearGradient>
</defs>
</svg>
