<?xml version="1.0" encoding="UTF-8"?>
<!DOCTYPE svg PUBLIC "-//W3C//DTD SVG 1.1//EN" "http://www.w3.org/Graphics/SVG/1.1/DTD/svg11.dtd">
<!-- Creator: CorelDRAW -->
<svg xmlns="http://www.w3.org/2000/svg" xml:space="preserve" width="381mm" height="27.781mm" version="1.1" style="shape-rendering:geometricPrecision; text-rendering:geometricPrecision; image-rendering:optimizeQuality; fill-rule:evenodd; clip-rule:evenodd"
viewBox="0 0 38100 2778.1"
 xmlns:xlink="http://www.w3.org/1999/xlink"
 xmlns:xodm="http://www.corel.com/coreldraw/odm/2003">
 <defs>
  <style type="text/css">
   <![CDATA[
    .fil0 {fill:#2241AC;fill-rule:nonzero}
   ]]>
  </style>
 </defs>
 <g id="Layer_x0020_1">
  <metadata id="CorelCorpID_0Corel-Layer"/>
  <path class="fil0" d="M38100 2653.77l0 132.29 -449.79 0c-935.3,0 -1693.33,-758.14 -1693.33,-1693.33 0,-526.05 -426.51,-952.5 -952.5,-952.5l-31882.3 0c-526.05,0 -952.5,426.45 -952.5,952.5 0,935.19 -758.13,1693.33 -1693.33,1693.33l-476.25 0 0 -132.29 343.96 0c935.2,0 1693.33,-758.14 1693.33,-1693.33 0,-526.05 426.45,-952.5 952.5,-952.5l32146.88 0c525.99,0 952.5,426.45 952.5,952.5 0,935.19 758.03,1693.33 1693.33,1693.33l317.5 0z"/>
 </g>
</svg>
