<svg width="478" height="482" viewBox="0 0 478 482" fill="none" xmlns="http://www.w3.org/2000/svg">
<path fill-rule="evenodd" clip-rule="evenodd" d="M708.22 -192.966L224.203 -192.966V-193.002L-0.00195089 -193.002L-0.00195312 142.225L223.897 325.558L224.203 325.808V34.1176L510.363 34.1177L514.366 29.5226L708.22 -192.966ZM506.512 -11.4177L636.083 -160.127H191.404V-160.164H32.7975L32.7975 126.66L191.404 256.529V1.27933L477.694 1.27934H494.552L506.512 -11.4177ZM510.493 325.942H224.337L26.4794 553.025H510.493V553.074H734.698V217.847L510.493 34.2641V325.942ZM543.293 103.543V358.78H257.002H239.332L228.179 371.486L98.6167 520.187H543.293V520.236H701.899V233.413L543.293 103.543Z" fill="black" fill-opacity="0.25"/>
</svg>
