<svg width="400" height="365" viewBox="0 0 400 365" fill="none" xmlns="http://www.w3.org/2000/svg">
<mask id="mask0_17438_36491" style="mask-type:alpha" maskUnits="userSpaceOnUse" x="0" y="0" width="400" height="365">
<rect width="400" height="365" rx="28" fill="url(#paint0_linear_17438_36491)"/>
</mask>
<g mask="url(#mask0_17438_36491)">
<g opacity="0.08">
<path d="M600.742 272.386C600.742 285.879 573.755 294.875 542.27 299.373C522.03 261.141 481.549 231.905 434.321 211.665C438.819 204.918 443.317 200.42 447.815 193.674H465.806C535.523 191.425 600.742 234.154 600.742 272.386ZM213.927 191.425H195.935C126.219 191.425 61 234.154 61 272.386C61 285.879 87.9871 294.875 119.472 299.373C139.712 261.141 180.193 231.905 227.42 211.665L213.927 191.425ZM330.871 213.914C380.347 213.914 420.828 173.433 420.828 123.957C420.828 74.4806 380.347 34 330.871 34C281.395 34 240.914 74.4806 240.914 123.957C240.914 173.433 281.395 213.914 330.871 213.914ZM330.871 236.403C238.665 236.403 150.957 294.875 150.957 348.849C150.957 393.828 330.871 393.828 330.871 393.828C330.871 393.828 510.785 393.828 510.785 348.849C510.785 294.875 423.077 236.403 330.871 236.403ZM459.06 168.935H465.806C504.038 168.935 533.274 139.699 533.274 101.468C533.274 63.236 504.038 34 465.806 34C454.562 34 445.566 36.2489 436.57 40.7468C454.562 63.236 465.806 92.472 465.806 123.957C465.806 139.699 463.557 155.442 459.06 168.935ZM195.935 168.935H202.682C198.184 155.442 195.935 139.699 195.935 123.957C195.935 92.472 207.18 63.236 225.171 40.7468C216.176 36.2489 207.18 34 195.935 34C157.704 34 128.468 63.236 128.468 101.468C128.468 139.699 157.704 168.935 195.935 168.935Z" fill="white"/>
</g>
</g>
<defs>
<linearGradient id="paint0_linear_17438_36491" x1="200.416" y1="5.38167e-06" x2="426.808" y2="396.809" gradientUnits="userSpaceOnUse">
<stop stop-color="#0B1125"/>
<stop offset="0.57672" stop-color="#161E3A"/>
<stop offset="1" stop-color="#2241AC"/>
</linearGradient>
</defs>
</svg>
