<svg width="523" height="153" viewBox="0 0 523 153" fill="none" xmlns="http://www.w3.org/2000/svg">
<path d="M0 20C0 8.9543 8.9543 0 20 0H256C267.046 0 276 8.95431 276 20V153H0V20Z" fill="white"/>
<path d="M301 20C301 8.9543 309.954 0 321 0H503C514.046 0 523 8.95431 523 20V153H301V20Z" fill="#252D43"/>
<mask id="mask0_12064_2529" style="mask-type:alpha" maskUnits="userSpaceOnUse" x="0" y="0" width="276" height="153">
<path d="M0 20C0 8.9543 8.9543 0 20 0H256C267.046 0 276 8.95431 276 20V153H0V20Z" fill="white"/>
</mask>
<g mask="url(#mask0_12064_2529)">
<path d="M17 35C17 23.9543 25.9543 15 37 15H147C158.046 15 167 23.9543 167 35V153H17V35Z" fill="#171C2C"/>
<path d="M37 15.5H147C157.77 15.5 166.5 24.2304 166.5 35V152.5H17.5V35C17.5 24.2305 26.2304 15.5 37 15.5Z" stroke="white" stroke-opacity="0.14"/>
<path d="M70.5995 43V80.3542H82.8499V88.3957H49V80.3542H62.1531V52.0791L55.1252 56.3593L50.7409 49.7445L62.1531 43.0649V43H70.5995Z" fill="url(#paint0_linear_12064_2529)"/>
<path d="M99.927 66.0221C97.7778 66.0221 95.865 65.5681 94.1887 64.6602C92.5553 63.7091 91.2872 62.4121 90.3846 60.7692C89.4819 59.1263 89.0306 57.3105 89.0306 55.3217C89.0306 53.2897 89.4819 51.4522 90.3846 49.8094C91.2872 48.1665 92.5553 46.8694 94.1887 45.9183C95.865 44.9671 97.7778 44.4916 99.927 44.4916C102.076 44.4916 103.968 44.9671 105.601 45.9183C107.277 46.8694 108.567 48.1665 109.469 49.8094C110.415 51.4522 110.888 53.2897 110.888 55.3217C110.888 57.3105 110.437 59.1263 109.534 60.7692C108.631 62.4121 107.342 63.7091 105.665 64.6602C103.989 65.5681 102.076 66.0221 99.927 66.0221ZM100.507 88.3957H95.7361L123.203 45.1401H128.039L100.507 88.3957ZM99.927 61.0934C101.431 61.0934 102.678 60.5746 103.667 59.537C104.655 58.4562 105.15 57.051 105.15 55.3217C105.15 53.5059 104.655 52.0791 103.667 51.0415C102.678 49.9607 101.431 49.4203 99.927 49.4203C98.4226 49.4203 97.176 49.9607 96.1874 51.0415C95.2418 52.0791 94.7689 53.5059 94.7689 55.3217C94.7689 57.051 95.2418 58.4562 96.1874 59.537C97.176 60.5746 98.4226 61.0934 99.927 61.0934ZM123.525 89.1739C121.376 89.1739 119.463 88.72 117.787 87.812C116.154 86.8609 114.885 85.5639 113.983 83.921C113.08 82.2781 112.629 80.4623 112.629 78.4735C112.629 76.4415 113.08 74.6041 113.983 72.9612C114.885 71.3183 116.154 70.0212 117.787 69.0701C119.463 68.119 121.376 67.6434 123.525 67.6434C125.674 67.6434 127.566 68.119 129.199 69.0701C130.833 70.0212 132.101 71.3183 133.003 72.9612C133.949 74.6041 134.422 76.4415 134.422 78.4735C134.422 80.4623 133.97 82.2781 133.068 83.921C132.165 85.5639 130.876 86.8609 129.199 87.812C127.566 88.72 125.674 89.1739 123.525 89.1739ZM123.525 84.2452C125.03 84.2452 126.276 83.7264 127.265 82.6888C128.254 81.608 128.748 80.2029 128.748 78.4735C128.748 76.6577 128.254 75.2309 127.265 74.1933C126.276 73.1125 125.03 72.5721 123.525 72.5721C121.978 72.5721 120.71 73.1125 119.721 74.1933C118.776 75.2309 118.303 76.6577 118.303 78.4735C118.303 80.2029 118.776 81.608 119.721 82.6888C120.71 83.7264 121.978 84.2452 123.525 84.2452Z" fill="url(#paint1_linear_12064_2529)"/>
<path d="M49 106.37C49 105.576 49.1945 104.842 49.5834 104.17C49.9804 103.497 50.5151 102.967 51.1876 102.578C51.8601 102.181 52.5933 101.982 53.3873 101.982C54.1975 101.982 54.947 102.193 55.6356 102.614C56.3243 103.027 56.855 103.578 57.2277 104.267L55.8301 105.008C55.587 104.579 55.2467 104.235 54.8092 103.975C54.3717 103.708 53.8977 103.574 53.3873 103.574C52.885 103.574 52.415 103.7 51.9775 103.951C51.5481 104.202 51.2078 104.542 50.9567 104.972C50.7055 105.401 50.5799 105.867 50.5799 106.37C50.5799 106.872 50.7055 107.338 50.9567 107.767C51.2078 108.197 51.5481 108.537 51.9775 108.788C52.415 109.039 52.885 109.165 53.3873 109.165C53.9139 109.165 54.392 109.031 54.8214 108.764C55.2589 108.496 55.5992 108.14 55.8422 107.694L57.2399 108.46C56.8672 109.157 56.3365 109.716 55.6478 110.137C54.9591 110.55 54.2056 110.757 53.3873 110.757C52.5933 110.757 51.8601 110.562 51.1876 110.173C50.5151 109.776 49.9804 109.242 49.5834 108.569C49.1945 107.897 49 107.164 49 106.37Z" fill="white"/>
<path d="M61.8764 104.522L61.767 105.956C61.686 105.932 61.5968 105.92 61.4996 105.92C60.9973 105.92 60.5841 106.062 60.26 106.345C59.9359 106.621 59.7739 107.006 59.7739 107.5V110.599H58.2669V104.522H59.7739V105.628C59.9116 105.312 60.1466 105.049 60.4788 104.838C60.8109 104.628 61.212 104.522 61.6819 104.522H61.8764Z" fill="white"/>
<path d="M67.3054 104.522H68.8853L66.7585 110.611C66.4425 111.446 66.005 112.069 65.446 112.483C64.895 112.904 64.2428 113.086 63.4893 113.029V111.571C63.5379 111.579 63.6108 111.583 63.708 111.583C64.3562 111.583 64.8626 111.19 65.2272 110.404L62.5535 104.522H64.1699L65.9564 108.387L67.3054 104.522Z" fill="white"/>
<path d="M73.1172 104.364C73.7249 104.364 74.2596 104.502 74.7215 104.777C75.1833 105.053 75.5357 105.434 75.7788 105.92C76.03 106.406 76.1555 106.953 76.1555 107.561C76.1555 108.168 76.03 108.715 75.7788 109.201C75.5357 109.687 75.1833 110.072 74.7215 110.356C74.2596 110.631 73.7249 110.769 73.1172 110.769C72.4043 110.769 71.8169 110.506 71.355 109.979V113.029H69.848V104.522H71.355V105.154C71.8169 104.628 72.4043 104.364 73.1172 104.364ZM73.0686 109.347C73.5386 109.347 73.9234 109.173 74.2232 108.824C74.5311 108.476 74.685 108.055 74.685 107.561C74.685 107.058 74.5311 106.633 74.2232 106.284C73.9234 105.936 73.5386 105.762 73.0686 105.762C72.5744 105.762 72.1652 105.936 71.8412 106.284C71.5171 106.625 71.355 107.054 71.355 107.573C71.355 108.091 71.513 108.517 71.829 108.849C72.1531 109.181 72.5663 109.347 73.0686 109.347Z" fill="white"/>
<path d="M79.4321 108.521C79.4321 108.796 79.4969 108.987 79.6266 109.092C79.7562 109.197 79.9628 109.25 80.2464 109.25C80.4165 109.25 80.6029 109.238 80.8054 109.213V110.599C80.4246 110.639 80.1086 110.66 79.8575 110.66C79.2093 110.66 78.7232 110.514 78.3991 110.222C78.0831 109.922 77.9251 109.388 77.9251 108.618V105.871H76.7827V104.522H77.9251V103.027L79.4321 102.517V104.522H80.7811V105.871H79.4321V108.521Z" fill="white"/>
<path d="M84.9434 110.769C84.36 110.769 83.8212 110.627 83.327 110.344C82.8409 110.052 82.452 109.663 82.1603 109.177C81.8767 108.683 81.7349 108.148 81.7349 107.573C81.7349 106.997 81.8767 106.467 82.1603 105.981C82.452 105.486 82.8409 105.097 83.327 104.814C83.8212 104.522 84.36 104.376 84.9434 104.376C85.5186 104.376 86.0493 104.522 86.5354 104.814C87.0216 105.097 87.4064 105.486 87.69 105.981C87.9817 106.467 88.1275 106.997 88.1275 107.573C88.1275 108.148 87.9817 108.683 87.69 109.177C87.4064 109.663 87.0216 110.052 86.5354 110.344C86.0493 110.627 85.5186 110.769 84.9434 110.769ZM84.9312 109.262C85.2391 109.262 85.5227 109.189 85.7819 109.043C86.0412 108.889 86.2478 108.683 86.4018 108.423C86.5557 108.164 86.6327 107.881 86.6327 107.573C86.6327 107.265 86.5557 106.981 86.4018 106.722C86.2478 106.463 86.0412 106.256 85.7819 106.102C85.5227 105.948 85.2391 105.871 84.9312 105.871C84.6233 105.871 84.3398 105.948 84.0805 106.102C83.8212 106.256 83.6146 106.463 83.4607 106.722C83.3148 106.981 83.2419 107.265 83.2419 107.573C83.2419 107.881 83.3148 108.164 83.4607 108.423C83.6146 108.683 83.8212 108.889 84.0805 109.043C84.3398 109.189 84.6233 109.262 84.9312 109.262Z" fill="white"/>
<path d="M94.9753 108.521C94.9753 108.796 95.0401 108.987 95.1697 109.092C95.2994 109.197 95.506 109.25 95.7895 109.25C95.9597 109.25 96.146 109.238 96.3486 109.213V110.599C95.9678 110.639 95.6518 110.66 95.4006 110.66C94.7525 110.66 94.2663 110.514 93.9423 110.222C93.6263 109.922 93.4683 109.388 93.4683 108.618V105.871H92.3259V104.522H93.4683V103.027L94.9753 102.517V104.522H96.3243V105.871H94.9753V108.521Z" fill="white"/>
<path d="M100.487 110.769C99.9032 110.769 99.3644 110.627 98.8702 110.344C98.384 110.052 97.9951 109.663 97.7034 109.177C97.4199 108.683 97.2781 108.148 97.2781 107.573C97.2781 106.997 97.4199 106.467 97.7034 105.981C97.9951 105.486 98.384 105.097 98.8702 104.814C99.3644 104.522 99.9032 104.376 100.487 104.376C101.062 104.376 101.592 104.522 102.079 104.814C102.565 105.097 102.95 105.486 103.233 105.981C103.525 106.467 103.671 106.997 103.671 107.573C103.671 108.148 103.525 108.683 103.233 109.177C102.95 109.663 102.565 110.052 102.079 110.344C101.592 110.627 101.062 110.769 100.487 110.769ZM100.474 109.262C100.782 109.262 101.066 109.189 101.325 109.043C101.584 108.889 101.791 108.683 101.945 108.423C102.099 108.164 102.176 107.881 102.176 107.573C102.176 107.265 102.099 106.981 101.945 106.722C101.791 106.463 101.584 106.256 101.325 106.102C101.066 105.948 100.782 105.871 100.474 105.871C100.166 105.871 99.8829 105.948 99.6237 106.102C99.3644 106.256 99.1578 106.463 99.0038 106.722C98.858 106.981 98.7851 107.265 98.7851 107.573C98.7851 107.881 98.858 108.164 99.0038 108.423C99.1578 108.683 99.3644 108.889 99.6237 109.043C99.8829 109.189 100.166 109.262 100.474 109.262Z" fill="white"/>
<path d="M113.484 102.092V103.599H109.972V105.64H113.35V107.147H109.972V110.599H108.392V102.092H113.484Z" fill="white"/>
<path d="M114.904 110.599V104.522H116.399V110.599H114.904ZM115.658 103.112C115.439 103.112 115.249 103.035 115.086 102.882C114.933 102.728 114.856 102.537 114.856 102.31C114.856 102.083 114.933 101.893 115.086 101.739C115.249 101.577 115.439 101.496 115.658 101.496C115.876 101.496 116.063 101.577 116.217 101.739C116.379 101.893 116.46 102.083 116.46 102.31C116.46 102.537 116.379 102.728 116.217 102.882C116.063 103.035 115.876 103.112 115.658 103.112Z" fill="white"/>
<path d="M122.404 104.522H123.911V110.599H122.404V109.967C121.95 110.502 121.362 110.769 120.641 110.769C120.034 110.769 119.499 110.631 119.037 110.356C118.575 110.08 118.219 109.7 117.968 109.213C117.716 108.727 117.591 108.18 117.591 107.573C117.591 106.965 117.716 106.418 117.968 105.932C118.219 105.446 118.575 105.065 119.037 104.79C119.499 104.506 120.034 104.364 120.641 104.364C121.346 104.364 121.934 104.632 122.404 105.166V104.522ZM120.678 109.359C121.172 109.359 121.581 109.189 121.905 108.849C122.237 108.508 122.404 108.079 122.404 107.561C122.404 107.042 122.241 106.617 121.917 106.284C121.593 105.952 121.18 105.786 120.678 105.786C120.208 105.786 119.823 105.96 119.523 106.309C119.223 106.657 119.074 107.078 119.074 107.573C119.074 108.075 119.223 108.5 119.523 108.849C119.823 109.189 120.208 109.359 120.678 109.359Z" fill="white"/>
<path d="M127.426 108.521C127.426 108.796 127.491 108.987 127.621 109.092C127.751 109.197 127.957 109.25 128.241 109.25C128.411 109.25 128.597 109.238 128.8 109.213V110.599C128.419 110.639 128.103 110.66 127.852 110.66C127.204 110.66 126.718 110.514 126.393 110.222C126.077 109.922 125.919 109.388 125.919 108.618V105.871H124.777V104.522H125.919V103.027L127.426 102.517V104.522H128.775V105.871H127.426V108.521Z" fill="white"/>
<g filter="url(#filter0_d_12064_2529)">
<path d="M141 48C141 36.9543 149.954 28 161 28H271C282.046 28 291 36.9543 291 48V153H141V48Z" fill="#252D43"/>
<path d="M161 28.5H271C281.77 28.5 290.5 37.2304 290.5 48V152.5H141.5V48C141.5 37.2305 150.23 28.5 161 28.5Z" stroke="white" stroke-opacity="0.14"/>
</g>
<path d="M193.71 102.174C189.982 102.174 186.725 101.22 183.94 99.3119C181.197 97.3615 179.076 94.6479 177.576 91.171C176.119 87.6942 175.391 83.6662 175.391 79.087C175.391 74.5077 176.119 70.4797 177.576 67.0029C179.076 63.5261 181.197 60.8336 183.94 58.9256C186.725 56.9752 189.982 56 193.71 56C197.439 56 200.674 56.9752 203.417 58.9256C206.159 60.8336 208.259 63.5261 209.716 67.0029C211.216 70.4797 211.966 74.5077 211.966 79.087C211.966 83.6662 211.216 87.6942 209.716 91.171C208.259 94.6479 206.159 97.3615 203.417 99.3119C200.674 101.22 197.439 102.174 193.71 102.174ZM193.71 93.8423C196.753 93.8423 199.153 92.6338 200.91 90.217C202.71 87.7578 203.61 84.0478 203.61 79.087C203.61 74.1261 202.71 70.4373 200.91 68.0205C199.153 65.5613 196.753 64.3317 193.71 64.3317C190.668 64.3317 188.247 65.5613 186.447 68.0205C184.69 70.4373 183.811 74.1261 183.811 79.087C183.811 84.0478 184.69 87.7578 186.447 90.217C188.247 92.6338 190.668 93.8423 193.71 93.8423Z" fill="url(#paint2_linear_12064_2529)"/>
<path d="M227.577 79.405C225.434 79.405 223.527 78.9598 221.856 78.0693C220.228 77.1365 218.963 75.8645 218.063 74.2533C217.164 72.6421 216.714 70.8613 216.714 68.9109C216.714 66.9181 217.164 65.1161 218.063 63.5049C218.963 61.8936 220.228 60.6216 221.856 59.6888C223.527 58.756 225.434 58.2896 227.577 58.2896C229.72 58.2896 231.605 58.756 233.234 59.6888C234.905 60.6216 236.19 61.8936 237.09 63.5049C238.033 65.1161 238.505 66.9181 238.505 68.9109C238.505 70.8613 238.055 72.6421 237.155 74.2533C236.255 75.8645 234.969 77.1365 233.298 78.0693C231.627 78.9598 229.72 79.405 227.577 79.405ZM228.155 101.347H223.399L250.782 58.9256H255.603L228.155 101.347ZM227.577 74.5713C229.077 74.5713 230.32 74.0625 231.305 73.0449C232.291 71.9849 232.784 70.6069 232.784 68.9109C232.784 67.1301 232.291 65.7309 231.305 64.7133C230.32 63.6533 229.077 63.1233 227.577 63.1233C226.077 63.1233 224.834 63.6533 223.849 64.7133C222.906 65.7309 222.435 67.1301 222.435 68.9109C222.435 70.6069 222.906 71.9849 223.849 73.0449C224.834 74.0625 226.077 74.5713 227.577 74.5713ZM251.103 102.11C248.961 102.11 247.054 101.665 245.382 100.775C243.754 99.8419 242.49 98.5699 241.59 96.9587C240.69 95.3475 240.24 93.5667 240.24 91.6162C240.24 89.6234 240.69 87.8214 241.59 86.2102C242.49 84.599 243.754 83.327 245.382 82.3942C247.054 81.4614 248.961 80.995 251.103 80.995C253.246 80.995 255.132 81.4614 256.76 82.3942C258.388 83.327 259.653 84.599 260.553 86.2102C261.495 87.8214 261.967 89.6234 261.967 91.6162C261.967 93.5667 261.517 95.3475 260.617 96.9587C259.717 98.5699 258.431 99.8419 256.76 100.775C255.132 101.665 253.246 102.11 251.103 102.11ZM251.103 97.2767C252.603 97.2767 253.846 96.7679 254.832 95.7503C255.817 94.6903 256.31 93.3122 256.31 91.6162C256.31 89.8354 255.817 88.4362 254.832 87.4186C253.846 86.3586 252.603 85.8286 251.103 85.8286C249.561 85.8286 248.296 86.3586 247.311 87.4186C246.368 88.4362 245.897 89.8354 245.897 91.6162C245.897 93.3122 246.368 94.6903 247.311 95.7503C248.296 96.7679 249.561 97.2767 251.103 97.2767Z" fill="url(#paint3_linear_12064_2529)"/>
<path d="M165 119.076C165 118.247 165.203 117.482 165.609 116.78C166.023 116.078 166.582 115.524 167.284 115.118C167.986 114.703 168.751 114.496 169.58 114.496C170.426 114.496 171.208 114.716 171.927 115.156C172.646 115.587 173.2 116.162 173.589 116.881L172.13 117.655C171.877 117.207 171.521 116.848 171.065 116.577C170.608 116.298 170.113 116.158 169.58 116.158C169.056 116.158 168.565 116.289 168.108 116.551C167.66 116.814 167.305 117.169 167.043 117.617C166.78 118.066 166.649 118.552 166.649 119.076C166.649 119.601 166.78 120.087 167.043 120.535C167.305 120.984 167.66 121.339 168.108 121.601C168.565 121.863 169.056 121.994 169.58 121.994C170.13 121.994 170.629 121.855 171.077 121.576C171.534 121.297 171.889 120.924 172.143 120.459L173.602 121.259C173.213 121.986 172.659 122.57 171.94 123.009C171.221 123.441 170.434 123.656 169.58 123.656C168.751 123.656 167.986 123.453 167.284 123.047C166.582 122.633 166.023 122.075 165.609 121.373C165.203 120.671 165 119.905 165 119.076Z" fill="white"/>
<path d="M178.442 117.148L178.328 118.645C178.244 118.62 178.151 118.607 178.049 118.607C177.525 118.607 177.093 118.755 176.755 119.051C176.417 119.338 176.248 119.74 176.248 120.256V123.492H174.674V117.148H176.248V118.302C176.391 117.972 176.637 117.698 176.983 117.478C177.33 117.258 177.749 117.148 178.239 117.148H178.442Z" fill="white"/>
<path d="M184.11 117.148H185.76L183.539 123.504C183.209 124.375 182.753 125.027 182.169 125.458C181.594 125.898 180.913 126.088 180.126 126.029V124.507C180.177 124.515 180.253 124.519 180.355 124.519C181.031 124.519 181.56 124.109 181.941 123.289L179.149 117.148H180.837L182.702 121.182L184.11 117.148Z" fill="white"/>
<path d="M190.178 116.983C190.812 116.983 191.37 117.127 191.852 117.414C192.334 117.702 192.702 118.099 192.956 118.607C193.218 119.114 193.349 119.685 193.349 120.32C193.349 120.954 193.218 121.525 192.956 122.032C192.702 122.54 192.334 122.942 191.852 123.238C191.37 123.525 190.812 123.669 190.178 123.669C189.433 123.669 188.82 123.394 188.338 122.844V126.029H186.765V117.148H188.338V117.808C188.82 117.258 189.433 116.983 190.178 116.983ZM190.127 122.185C190.617 122.185 191.019 122.003 191.332 121.639C191.654 121.275 191.814 120.836 191.814 120.32C191.814 119.795 191.654 119.351 191.332 118.987C191.019 118.624 190.617 118.442 190.127 118.442C189.611 118.442 189.184 118.624 188.845 118.987C188.507 119.343 188.338 119.791 188.338 120.332C188.338 120.874 188.503 121.318 188.833 121.665C189.171 122.011 189.602 122.185 190.127 122.185Z" fill="white"/>
<path d="M196.77 121.322C196.77 121.61 196.838 121.808 196.973 121.918C197.108 122.028 197.324 122.083 197.62 122.083C197.798 122.083 197.992 122.071 198.204 122.045V123.492C197.806 123.534 197.476 123.555 197.214 123.555C196.537 123.555 196.03 123.403 195.692 123.098C195.362 122.785 195.197 122.227 195.197 121.423V118.556H194.004V117.148H195.197V115.587L196.77 115.054V117.148H198.178V118.556H196.77V121.322Z" fill="white"/>
<path d="M202.524 123.669C201.915 123.669 201.352 123.521 200.836 123.225C200.329 122.921 199.923 122.515 199.618 122.007C199.322 121.491 199.174 120.933 199.174 120.332C199.174 119.732 199.322 119.178 199.618 118.67C199.923 118.154 200.329 117.748 200.836 117.452C201.352 117.148 201.915 116.996 202.524 116.996C203.124 116.996 203.678 117.148 204.186 117.452C204.693 117.748 205.095 118.154 205.391 118.67C205.695 119.178 205.848 119.732 205.848 120.332C205.848 120.933 205.695 121.491 205.391 122.007C205.095 122.515 204.693 122.921 204.186 123.225C203.678 123.521 203.124 123.669 202.524 123.669ZM202.511 122.096C202.832 122.096 203.128 122.02 203.399 121.868C203.67 121.707 203.885 121.491 204.046 121.22C204.207 120.95 204.287 120.654 204.287 120.332C204.287 120.011 204.207 119.715 204.046 119.444C203.885 119.174 203.67 118.958 203.399 118.797C203.128 118.636 202.832 118.556 202.511 118.556C202.189 118.556 201.893 118.636 201.623 118.797C201.352 118.958 201.136 119.174 200.976 119.444C200.823 119.715 200.747 120.011 200.747 120.332C200.747 120.654 200.823 120.95 200.976 121.22C201.136 121.491 201.352 121.707 201.623 121.868C201.893 122.02 202.189 122.096 202.511 122.096Z" fill="white"/>
<path d="M212.997 121.322C212.997 121.61 213.064 121.808 213.2 121.918C213.335 122.028 213.551 122.083 213.847 122.083C214.024 122.083 214.219 122.071 214.43 122.045V123.492C214.033 123.534 213.703 123.555 213.441 123.555C212.764 123.555 212.256 123.403 211.918 123.098C211.588 122.785 211.423 122.227 211.423 121.423V118.556H210.231V117.148H211.423V115.587L212.997 115.054V117.148H214.405V118.556H212.997V121.322Z" fill="white"/>
<path d="M218.75 123.669C218.141 123.669 217.579 123.521 217.063 123.225C216.555 122.921 216.149 122.515 215.845 122.007C215.549 121.491 215.401 120.933 215.401 120.332C215.401 119.732 215.549 119.178 215.845 118.67C216.149 118.154 216.555 117.748 217.063 117.452C217.579 117.148 218.141 116.996 218.75 116.996C219.351 116.996 219.905 117.148 220.412 117.452C220.92 117.748 221.321 118.154 221.617 118.67C221.922 119.178 222.074 119.732 222.074 120.332C222.074 120.933 221.922 121.491 221.617 122.007C221.321 122.515 220.92 122.921 220.412 123.225C219.905 123.521 219.351 123.669 218.75 123.669ZM218.737 122.096C219.059 122.096 219.355 122.02 219.626 121.868C219.896 121.707 220.112 121.491 220.273 121.22C220.433 120.95 220.514 120.654 220.514 120.332C220.514 120.011 220.433 119.715 220.273 119.444C220.112 119.174 219.896 118.958 219.626 118.797C219.355 118.636 219.059 118.556 218.737 118.556C218.416 118.556 218.12 118.636 217.849 118.797C217.579 118.958 217.363 119.174 217.202 119.444C217.05 119.715 216.974 120.011 216.974 120.332C216.974 120.654 217.05 120.95 217.202 121.22C217.363 121.491 217.579 121.707 217.849 121.868C218.12 122.02 218.416 122.096 218.737 122.096Z" fill="white"/>
<path d="M226.774 119.076C226.774 118.247 226.977 117.482 227.383 116.78C227.798 116.078 228.356 115.524 229.058 115.118C229.76 114.703 230.526 114.496 231.355 114.496C232.2 114.496 232.983 114.716 233.702 115.156C234.421 115.587 234.975 116.162 235.364 116.881L233.905 117.655C233.651 117.207 233.296 116.848 232.839 116.577C232.382 116.298 231.887 116.158 231.355 116.158C230.83 116.158 230.34 116.289 229.883 116.551C229.435 116.814 229.079 117.169 228.817 117.617C228.555 118.066 228.424 118.552 228.424 119.076C228.424 119.601 228.555 120.087 228.817 120.535C229.079 120.984 229.435 121.339 229.883 121.601C230.34 121.863 230.83 121.994 231.355 121.994C231.904 121.994 232.403 121.855 232.852 121.576C233.308 121.297 233.664 120.924 233.917 120.459L235.376 121.259C234.987 121.986 234.433 122.57 233.714 123.009C232.995 123.441 232.209 123.656 231.355 123.656C230.526 123.656 229.76 123.453 229.058 123.047C228.356 122.633 227.798 122.075 227.383 121.373C226.977 120.671 226.774 119.905 226.774 119.076Z" fill="white"/>
<path d="M240.217 117.148L240.103 118.645C240.018 118.62 239.925 118.607 239.824 118.607C239.299 118.607 238.868 118.755 238.529 119.051C238.191 119.338 238.022 119.74 238.022 120.256V123.492H236.449V117.148H238.022V118.302C238.166 117.972 238.411 117.698 238.758 117.478C239.105 117.258 239.523 117.148 240.014 117.148H240.217Z" fill="white"/>
<path d="M245.885 117.148H247.534L245.314 123.504C244.984 124.375 244.527 125.027 243.943 125.458C243.368 125.898 242.687 126.088 241.901 126.029V124.507C241.951 124.515 242.028 124.519 242.129 124.519C242.806 124.519 243.334 124.109 243.715 123.289L240.924 117.148H242.611L244.476 121.182L245.885 117.148Z" fill="white"/>
<path d="M251.952 116.983C252.586 116.983 253.145 117.127 253.627 117.414C254.109 117.702 254.477 118.099 254.73 118.607C254.993 119.114 255.124 119.685 255.124 120.32C255.124 120.954 254.993 121.525 254.73 122.032C254.477 122.54 254.109 122.942 253.627 123.238C253.145 123.525 252.586 123.669 251.952 123.669C251.208 123.669 250.594 123.394 250.112 122.844V126.029H248.539V117.148H250.112V117.808C250.594 117.258 251.208 116.983 251.952 116.983ZM251.901 122.185C252.392 122.185 252.794 122.003 253.106 121.639C253.428 121.275 253.589 120.836 253.589 120.32C253.589 119.795 253.428 119.351 253.106 118.987C252.794 118.624 252.392 118.442 251.901 118.442C251.385 118.442 250.958 118.624 250.62 118.987C250.281 119.343 250.112 119.791 250.112 120.332C250.112 120.874 250.277 121.318 250.607 121.665C250.945 122.011 251.377 122.185 251.901 122.185Z" fill="white"/>
<path d="M258.544 121.322C258.544 121.61 258.612 121.808 258.747 121.918C258.883 122.028 259.098 122.083 259.394 122.083C259.572 122.083 259.767 122.071 259.978 122.045V123.492C259.581 123.534 259.251 123.555 258.988 123.555C258.312 123.555 257.804 123.403 257.466 123.098C257.136 122.785 256.971 122.227 256.971 121.423V118.556H255.779V117.148H256.971V115.587L258.544 115.054V117.148H259.953V118.556H258.544V121.322Z" fill="white"/>
<path d="M264.298 123.669C263.689 123.669 263.126 123.521 262.611 123.225C262.103 122.921 261.697 122.515 261.393 122.007C261.096 121.491 260.948 120.933 260.948 120.332C260.948 119.732 261.096 119.178 261.393 118.67C261.697 118.154 262.103 117.748 262.611 117.452C263.126 117.148 263.689 116.996 264.298 116.996C264.899 116.996 265.453 117.148 265.96 117.452C266.468 117.748 266.869 118.154 267.165 118.67C267.47 119.178 267.622 119.732 267.622 120.332C267.622 120.933 267.47 121.491 267.165 122.007C266.869 122.515 266.468 122.921 265.96 123.225C265.453 123.521 264.899 123.669 264.298 123.669ZM264.285 122.096C264.607 122.096 264.903 122.02 265.173 121.868C265.444 121.707 265.66 121.491 265.82 121.22C265.981 120.95 266.062 120.654 266.062 120.332C266.062 120.011 265.981 119.715 265.82 119.444C265.66 119.174 265.444 118.958 265.173 118.797C264.903 118.636 264.607 118.556 264.285 118.556C263.964 118.556 263.668 118.636 263.397 118.797C263.126 118.958 262.911 119.174 262.75 119.444C262.598 119.715 262.522 120.011 262.522 120.332C262.522 120.654 262.598 120.95 262.75 121.22C262.911 121.491 263.126 121.707 263.397 121.868C263.668 122.02 263.964 122.096 264.285 122.096Z" fill="white"/>
</g>
<mask id="mask1_12064_2529" style="mask-type:alpha" maskUnits="userSpaceOnUse" x="301" y="0" width="222" height="153">
<path d="M301 20C301 8.9543 309.954 0 321 0H503C514.046 0 523 8.95431 523 20V153H301V20Z" fill="#252D43"/>
</mask>
<g mask="url(#mask1_12064_2529)">
<path d="M637.528 83.4941H344.472C333.718 83.4941 325 92.2121 325 102.966V117.57C325 128.325 333.718 137.043 344.472 137.043H637.528C648.282 137.043 657 128.325 657 117.57V102.966C657 92.2121 648.282 83.4941 637.528 83.4941Z" fill="white" stroke="black" stroke-opacity="0.14"/>
<path d="M413.008 109.736V112.993H417.186V113.876H412.074V104.793H417.134V105.662H413.008V108.854H416.797V109.736H413.008ZM419.75 109.14C419.75 109.416 419.88 109.62 420.139 109.75C420.399 109.879 420.809 110.013 421.372 110.152C421.89 110.281 422.306 110.407 422.618 110.528C422.929 110.64 423.197 110.826 423.422 111.086C423.656 111.337 423.772 111.674 423.772 112.098C423.772 112.479 423.663 112.816 423.448 113.11C423.231 113.404 422.932 113.633 422.552 113.798C422.172 113.953 421.743 114.031 421.268 114.031C420.619 114.031 420.07 113.901 419.62 113.642C419.17 113.374 418.85 113.015 418.66 112.565L419.387 112.176C419.533 112.548 419.771 112.825 420.1 113.006C420.428 113.188 420.818 113.279 421.268 113.279C421.717 113.279 422.102 113.175 422.423 112.967C422.751 112.751 422.916 112.461 422.916 112.098C422.916 111.864 422.838 111.678 422.682 111.54C422.526 111.393 422.331 111.281 422.099 111.203C421.873 111.125 421.557 111.038 421.151 110.943C420.658 110.813 420.26 110.692 419.958 110.58C419.663 110.467 419.408 110.299 419.192 110.074C418.984 109.84 418.881 109.533 418.881 109.153C418.881 108.789 418.98 108.461 419.179 108.167C419.387 107.872 419.667 107.643 420.022 107.479C420.386 107.315 420.792 107.232 421.242 107.232C421.777 107.232 422.25 107.349 422.657 107.583C423.071 107.816 423.383 108.141 423.59 108.556L422.864 108.919C422.735 108.625 422.526 108.396 422.241 108.231C421.964 108.067 421.631 107.985 421.242 107.985C420.783 107.985 420.42 108.089 420.152 108.296C419.883 108.504 419.75 108.785 419.75 109.14ZM427.158 111.942C427.158 112.392 427.236 112.703 427.391 112.876C427.547 113.041 427.806 113.123 428.17 113.123C428.273 113.123 428.499 113.106 428.845 113.071V113.876C428.481 113.919 428.191 113.94 427.975 113.94C427.396 113.94 426.968 113.798 426.69 113.512C426.414 113.218 426.276 112.708 426.276 111.981V108.192H424.744V107.388H426.276V105.533L427.158 105.208V107.388H428.819V108.192H427.158V111.942ZM436.105 113.876H435.223V110.009C435.223 109.308 435.028 108.807 434.639 108.504C434.249 108.201 433.803 108.05 433.302 108.05C432.905 108.05 432.532 108.167 432.186 108.4C431.849 108.625 431.621 108.997 431.499 109.516V113.876H430.63V104.793H431.499V108.205C431.733 107.929 432.018 107.704 432.355 107.531C432.693 107.349 433.061 107.258 433.458 107.258C433.839 107.258 434.228 107.336 434.626 107.492C435.033 107.647 435.379 107.929 435.664 108.335C435.958 108.742 436.105 109.295 436.105 109.996V113.876ZM441.001 107.232C441.632 107.232 442.19 107.388 442.675 107.699C443.168 108.011 443.548 108.43 443.817 108.958C444.085 109.477 444.219 110.039 444.219 110.645C444.219 110.688 444.209 110.805 444.193 110.995H438.51C438.544 111.41 438.674 111.791 438.899 112.137C439.123 112.474 439.427 112.742 439.808 112.941C440.187 113.14 440.616 113.24 441.092 113.24C441.524 113.24 441.935 113.14 442.324 112.941C442.723 112.734 443.012 112.479 443.194 112.176L443.895 112.591C443.61 113.041 443.22 113.395 442.727 113.655C442.242 113.906 441.689 114.031 441.066 114.031C440.391 114.031 439.79 113.884 439.262 113.59C438.744 113.296 438.337 112.889 438.043 112.37C437.757 111.851 437.615 111.272 437.615 110.632C437.615 109.992 437.757 109.416 438.043 108.906C438.329 108.387 438.726 107.98 439.236 107.686C439.755 107.384 440.343 107.232 441.001 107.232ZM443.389 110.255C443.301 109.563 443.047 109.019 442.623 108.621C442.208 108.223 441.663 108.024 440.989 108.024C440.512 108.024 440.083 108.132 439.704 108.348C439.323 108.556 439.024 108.833 438.809 109.179C438.6 109.516 438.497 109.875 438.497 110.255H443.389ZM448.694 107.388C448.797 107.388 448.88 107.392 448.94 107.401L448.85 108.244C448.797 108.227 448.719 108.218 448.616 108.218C448.053 108.218 447.578 108.378 447.189 108.698C446.808 109.01 446.617 109.507 446.617 110.191V113.876H445.735V107.388H446.617V108.569C446.773 108.223 447.028 107.942 447.383 107.725C447.747 107.5 448.183 107.388 448.694 107.388ZM460.216 108.776V104.793H461.15V113.876H460.216V109.659H455.221V113.876H454.287V104.793H455.221V108.776H460.216ZM466.349 114.031C465.736 114.031 465.168 113.88 464.649 113.577C464.13 113.274 463.72 112.863 463.417 112.344C463.115 111.817 462.962 111.246 462.962 110.632C462.962 110.018 463.115 109.455 463.417 108.945C463.72 108.426 464.13 108.015 464.649 107.712C465.168 107.41 465.736 107.258 466.349 107.258C466.964 107.258 467.529 107.41 468.049 107.712C468.568 108.015 468.979 108.426 469.282 108.945C469.585 109.455 469.735 110.018 469.735 110.632C469.735 111.246 469.585 111.817 469.282 112.344C468.979 112.863 468.568 113.274 468.049 113.577C467.529 113.88 466.964 114.031 466.349 114.031ZM466.336 113.149C466.795 113.149 467.215 113.036 467.594 112.812C467.984 112.587 468.292 112.284 468.516 111.903C468.741 111.514 468.853 111.09 468.853 110.632C468.853 110.173 468.741 109.754 468.516 109.373C468.292 108.984 467.984 108.677 467.594 108.452C467.215 108.227 466.795 108.115 466.336 108.115C465.878 108.115 465.458 108.227 465.078 108.452C464.697 108.677 464.394 108.984 464.169 109.373C463.944 109.754 463.831 110.173 463.831 110.632C463.831 111.09 463.944 111.514 464.169 111.903C464.394 112.284 464.697 112.587 465.078 112.812C465.458 113.036 465.878 113.149 466.336 113.149ZM477.327 112.565L478.961 107.388H479.896L477.794 113.876H476.859L475.212 108.763L473.59 113.876H472.682L470.67 107.388H471.578L473.136 112.591L474.732 107.388H475.692L477.327 112.565ZM486.425 107.388H487.294V113.876H486.425V112.552C486.157 113.011 485.812 113.374 485.387 113.642C484.964 113.901 484.479 114.031 483.934 114.031C483.311 114.031 482.762 113.884 482.286 113.59C481.81 113.287 481.443 112.881 481.183 112.37C480.923 111.851 480.794 111.276 480.794 110.645C480.794 110.013 480.923 109.438 481.183 108.919C481.443 108.4 481.81 107.994 482.286 107.699C482.762 107.397 483.311 107.245 483.934 107.245C484.479 107.245 484.964 107.379 485.387 107.647C485.812 107.916 486.157 108.279 486.425 108.737V107.388ZM483.947 113.201C484.406 113.201 484.821 113.088 485.192 112.863C485.573 112.639 485.872 112.332 486.088 111.942C486.304 111.544 486.412 111.107 486.412 110.632C486.412 110.156 486.304 109.728 486.088 109.347C485.872 108.958 485.573 108.651 485.192 108.426C484.821 108.201 484.406 108.089 483.947 108.089C483.497 108.089 483.095 108.205 482.74 108.439C482.394 108.664 482.127 108.971 481.936 109.36C481.746 109.75 481.65 110.178 481.65 110.645C481.65 111.112 481.746 111.54 481.936 111.929C482.127 112.319 482.394 112.63 482.74 112.863C483.095 113.088 483.497 113.201 483.947 113.201ZM492.164 107.388C492.269 107.388 492.351 107.392 492.411 107.401L492.32 108.244C492.269 108.227 492.191 108.218 492.087 108.218C491.524 108.218 491.049 108.378 490.659 108.698C490.279 109.01 490.089 109.507 490.089 110.191V113.876H489.207V107.388H490.089V108.569C490.244 108.223 490.5 107.942 490.854 107.725C491.217 107.5 491.654 107.388 492.164 107.388ZM498.745 104.793H499.627V113.876H498.745V112.565C498.485 113.015 498.138 113.374 497.707 113.642C497.283 113.901 496.803 114.031 496.266 114.031C495.644 114.031 495.094 113.884 494.619 113.59C494.143 113.287 493.776 112.881 493.516 112.37C493.257 111.851 493.126 111.276 493.126 110.645C493.126 110.013 493.257 109.438 493.516 108.919C493.776 108.4 494.143 107.994 494.619 107.699C495.094 107.397 495.644 107.245 496.266 107.245C496.803 107.245 497.283 107.379 497.707 107.647C498.131 107.907 498.476 108.262 498.745 108.711V104.793ZM496.28 113.201C496.737 113.201 497.152 113.088 497.525 112.863C497.905 112.639 498.204 112.332 498.421 111.942C498.636 111.544 498.745 111.107 498.745 110.632C498.745 110.156 498.636 109.728 498.421 109.347C498.204 108.958 497.905 108.651 497.525 108.426C497.152 108.201 496.737 108.089 496.28 108.089C495.829 108.089 495.427 108.205 495.073 108.439C494.726 108.664 494.458 108.971 494.268 109.36C494.078 109.75 493.983 110.178 493.983 110.645C493.983 111.112 494.078 111.54 494.268 111.929C494.458 112.319 494.726 112.63 495.073 112.863C495.427 113.088 495.829 113.201 496.28 113.201Z" fill="#000205"/>
<path d="M356.422 126.848C366.147 126.848 374.031 118.964 374.031 109.239C374.031 99.5137 366.147 91.6299 356.422 91.6299C346.696 91.6299 338.812 99.5137 338.812 109.239C338.812 118.964 346.696 126.848 356.422 126.848Z" fill="#E8EEFE"/>
<path fill-rule="evenodd" clip-rule="evenodd" d="M356.412 103.834C353.426 103.834 351.006 106.254 351.006 109.24C351.006 109.47 351.02 109.695 351.047 109.917C351.1 110.34 350.8 110.726 350.377 110.779C349.953 110.831 349.567 110.531 349.515 110.108C349.479 109.823 349.461 109.534 349.461 109.24C349.461 105.401 352.573 102.289 356.412 102.289C357.908 102.289 359.294 102.762 360.428 103.566V103.061C360.428 102.635 360.774 102.289 361.2 102.289C361.627 102.289 361.973 102.635 361.973 103.061V105.378C361.973 105.805 361.627 106.151 361.2 106.151L358.884 106.151C358.457 106.151 358.111 105.805 358.111 105.378C358.111 104.952 358.457 104.606 358.884 104.606H359.198C358.385 104.115 357.431 103.834 356.412 103.834ZM362.447 107.701C362.87 107.648 363.256 107.949 363.309 108.372C363.345 108.657 363.363 108.946 363.363 109.24C363.363 113.079 360.251 116.191 356.412 116.191C354.983 116.191 353.655 115.759 352.55 115.02V115.419C352.55 115.845 352.204 116.191 351.778 116.191C351.351 116.191 351.006 115.845 351.006 115.419V113.102C351.006 112.675 351.351 112.329 351.778 112.329H354.095C354.521 112.329 354.867 112.675 354.867 113.102C354.867 113.528 354.521 113.874 354.095 113.874H353.625C354.439 114.365 355.392 114.646 356.412 114.646C359.398 114.646 361.818 112.226 361.818 109.24C361.818 109.01 361.804 108.785 361.776 108.563C361.724 108.14 362.024 107.754 362.447 107.701Z" fill="#2241AC"/>
<path d="M367.531 126.851C371.113 126.851 374.018 123.946 374.018 120.364C374.018 116.781 371.113 113.876 367.531 113.876C363.948 113.876 361.043 116.781 361.043 120.364C361.043 123.946 363.948 126.851 367.531 126.851Z" fill="#CF7A2C"/>
<path d="M637.528 145.992H344.472C333.718 145.992 325 154.71 325 165.464V180.068C325 190.823 333.718 199.541 344.472 199.541H637.528C648.282 199.541 657 190.823 657 180.068V165.464C657 154.71 648.282 145.992 637.528 145.992Z" fill="white" stroke="black" stroke-opacity="0.14"/>
<path d="M637.528 21H344.472C333.718 21 325 29.7436 325 40.5294V55.1765C325 65.9623 333.718 74.7059 344.472 74.7059H637.528C648.282 74.7059 657 65.9623 657 55.1765V40.5294C657 29.7436 648.282 21 637.528 21Z" fill="white" stroke="black" stroke-opacity="0.14"/>
<path d="M415.295 43.4931C416.143 43.4931 416.921 43.6926 417.63 44.0916C418.339 44.4907 418.902 45.0416 419.317 45.7443C419.732 46.4384 419.94 47.2105 419.94 48.0607C419.94 48.9109 419.732 49.683 419.317 50.3771C418.902 51.0624 418.339 51.6047 417.63 52.0037C416.921 52.4028 416.143 52.6024 415.295 52.6024H412.09V43.4931H415.295ZM415.295 51.7174C415.978 51.7174 416.601 51.5568 417.163 51.2359C417.734 50.9149 418.184 50.4768 418.513 49.9215C418.842 49.3664 419.006 48.7461 419.006 48.0607C419.006 47.3754 418.842 46.7508 418.513 46.1867C418.184 45.6228 417.734 45.1804 417.163 44.8594C416.601 44.5298 415.978 44.3649 415.295 44.3649H413.024V51.7174H415.295ZM426.867 46.0957H427.736V52.6024H426.867V51.2749C426.598 51.7348 426.253 52.0992 425.829 52.3681C425.405 52.6283 424.921 52.7585 424.376 52.7585C423.752 52.7585 423.203 52.6109 422.727 52.316C422.251 52.0124 421.884 51.6047 421.625 51.0928C421.365 50.5723 421.235 49.9953 421.235 49.362C421.235 48.7287 421.365 48.1518 421.625 47.6312C421.884 47.1107 422.251 46.7029 422.727 46.408C423.203 46.1043 423.752 45.9526 424.376 45.9526C424.921 45.9526 425.405 46.087 425.829 46.356C426.253 46.6249 426.598 46.9892 426.867 47.449V46.0957ZM424.388 51.9257C424.846 51.9257 425.261 51.8129 425.634 51.5873C426.014 51.3616 426.312 51.0538 426.529 50.6634C426.745 50.2643 426.853 49.8261 426.853 49.349C426.853 48.8718 426.745 48.4425 426.529 48.0607C426.312 47.6703 426.014 47.3623 425.634 47.1368C425.261 46.9112 424.846 46.7984 424.388 46.7984C423.938 46.7984 423.535 46.9155 423.182 47.1497C422.835 47.3754 422.568 47.6833 422.378 48.0737C422.186 48.4641 422.091 48.8935 422.091 49.362C422.091 49.8305 422.186 50.2599 422.378 50.6503C422.568 51.0407 422.835 51.3531 423.182 51.5873C423.535 51.8129 423.938 51.9257 424.388 51.9257ZM432.605 46.0957C432.71 46.0957 432.791 46.1 432.852 46.1087L432.761 46.9545C432.71 46.9372 432.632 46.9286 432.528 46.9286C431.966 46.9286 431.49 47.0891 431.1 47.4101C430.72 47.7223 430.53 48.2212 430.53 48.9065V52.6024H429.647V46.0957H430.53V47.2799C430.685 46.9329 430.941 46.6509 431.295 46.4341C431.658 46.2084 432.095 46.0957 432.605 46.0957ZM437.289 46.0957C437.393 46.0957 437.474 46.1 437.536 46.1087L437.445 46.9545C437.393 46.9372 437.316 46.9286 437.212 46.9286C436.649 46.9286 436.174 47.0891 435.784 47.4101C435.404 47.7223 435.214 48.2212 435.214 48.9065V52.6024H434.331V46.0957H435.214V47.2799C435.369 46.9329 435.624 46.6509 435.979 46.4341C436.342 46.2084 436.778 46.0957 437.289 46.0957ZM441.637 45.9395C442.269 45.9395 442.827 46.0957 443.31 46.408C443.804 46.7203 444.184 47.1411 444.452 47.6703C444.721 48.1909 444.854 48.7548 444.854 49.362C444.854 49.4054 444.847 49.5226 444.829 49.7134H439.146C439.181 50.1298 439.311 50.5115 439.535 50.8586C439.76 51.1969 440.063 51.4658 440.443 51.6653C440.824 51.8649 441.252 51.9646 441.728 51.9646C442.16 51.9646 442.571 51.8649 442.961 51.6653C443.359 51.4571 443.648 51.2012 443.83 50.8975L444.53 51.314C444.245 51.7651 443.855 52.1209 443.363 52.3811C442.879 52.6327 442.325 52.7585 441.702 52.7585C441.027 52.7585 440.426 52.6109 439.899 52.316C439.379 52.0211 438.974 51.6133 438.679 51.0928C438.393 50.5723 438.25 49.991 438.25 49.349C438.25 48.707 438.393 48.1301 438.679 47.6182C438.964 47.0977 439.362 46.6899 439.872 46.395C440.391 46.0913 440.979 45.9395 441.637 45.9395ZM444.024 48.9716C443.938 48.2776 443.683 47.731 443.259 47.3319C442.844 46.9329 442.299 46.7334 441.624 46.7334C441.149 46.7334 440.72 46.8419 440.34 47.0586C439.959 47.2669 439.661 47.5445 439.444 47.8916C439.237 48.2299 439.132 48.5898 439.132 48.9716H444.024ZM447.204 51.4442C447.204 51.5916 447.234 51.6958 447.295 51.7564C447.363 51.8085 447.468 51.8346 447.607 51.8346C447.726 51.8346 447.866 51.8216 448.021 51.7955V52.6024C447.788 52.6457 447.58 52.6674 447.398 52.6674C447.069 52.6674 446.81 52.5807 446.62 52.4072C446.43 52.2335 446.335 51.9257 446.335 51.4832V43.4931H447.204V51.4442ZM450.278 51.4442C450.278 51.5916 450.308 51.6958 450.369 51.7564C450.439 51.8085 450.542 51.8346 450.68 51.8346C450.802 51.8346 450.94 51.8216 451.096 51.7955V52.6024C450.862 52.6457 450.654 52.6674 450.473 52.6674C450.144 52.6674 449.884 52.5807 449.694 52.4072C449.504 52.2335 449.409 51.9257 449.409 51.4832V43.4931H450.278V51.4442ZM459.576 52.7585C458.685 52.7585 457.933 52.5633 457.318 52.1729C456.704 51.7825 456.276 51.2533 456.033 50.5853L456.916 50.1167C457.106 50.646 457.427 51.0668 457.876 51.379C458.335 51.6914 458.905 51.8475 459.589 51.8475C460.074 51.8475 460.48 51.7651 460.809 51.6003C461.146 51.4355 461.397 51.2229 461.561 50.9627C461.735 50.7023 461.82 50.4291 461.82 50.1428C461.82 49.7178 461.618 49.3794 461.211 49.1278C460.804 48.8761 460.186 48.6246 459.355 48.3731C458.698 48.1735 458.174 47.9913 457.785 47.8264C457.404 47.6529 457.085 47.4101 456.825 47.0977C456.566 46.7854 456.435 46.3733 456.435 45.8615C456.435 45.3583 456.566 44.9159 456.825 44.5341C457.085 44.1437 457.439 43.8488 457.889 43.6492C458.339 43.441 458.831 43.3369 459.368 43.3369C460.113 43.3369 460.752 43.5147 461.289 43.8705C461.833 44.2262 462.244 44.6989 462.521 45.2889L461.639 45.7183C461.44 45.2585 461.146 44.8985 460.756 44.6383C460.376 44.3779 459.913 44.2479 459.368 44.2479C458.953 44.2479 458.594 44.3259 458.291 44.482C457.997 44.6296 457.772 44.8291 457.616 45.0807C457.461 45.3323 457.383 45.5969 457.383 45.8745C457.383 46.1782 457.465 46.4254 457.63 46.6162C457.794 46.7984 458.011 46.946 458.278 47.0586C458.546 47.1714 458.932 47.306 459.433 47.4621L459.693 47.5401C460.402 47.7658 460.956 47.9696 461.353 48.1518C461.76 48.3253 462.098 48.5769 462.366 48.9065C462.642 49.2275 462.78 49.6439 462.78 50.1558C462.78 50.6764 462.646 51.1318 462.378 51.5222C462.111 51.9126 461.73 52.2163 461.236 52.4331C460.752 52.65 460.198 52.7585 459.576 52.7585ZM466.141 50.6634C466.141 51.1144 466.219 51.4268 466.375 51.6003C466.531 51.7651 466.79 51.8475 467.153 51.8475C467.257 51.8475 467.482 51.8302 467.828 51.7955V52.6024C467.464 52.6457 467.175 52.6674 466.959 52.6674C466.38 52.6674 465.951 52.5242 465.674 52.2379C465.397 51.943 465.259 51.4311 465.259 50.7023V46.9025H463.728V46.0957H465.259V44.2348L466.141 43.9095V46.0957H467.802V46.9025H466.141V50.6634ZM472.552 45.9395C473.183 45.9395 473.741 46.0957 474.225 46.408C474.719 46.7203 475.098 47.1411 475.367 47.6703C475.635 48.1909 475.769 48.7548 475.769 49.362C475.769 49.4054 475.761 49.5226 475.744 49.7134H470.061C470.095 50.1298 470.225 50.5115 470.449 50.8586C470.674 51.1969 470.977 51.4658 471.358 51.6653C471.739 51.8649 472.166 51.9646 472.643 51.9646C473.074 51.9646 473.486 51.8649 473.876 51.6653C474.273 51.4571 474.563 51.2012 474.745 50.8975L475.445 51.314C475.16 51.7651 474.77 52.1209 474.278 52.3811C473.793 52.6327 473.24 52.7585 472.617 52.7585C471.942 52.7585 471.34 52.6109 470.814 52.316C470.294 52.0211 469.888 51.6133 469.594 51.0928C469.308 50.5723 469.165 49.991 469.165 49.349C469.165 48.707 469.308 48.1301 469.594 47.6182C469.879 47.0977 470.276 46.6899 470.787 46.395C471.306 46.0913 471.893 45.9395 472.552 45.9395ZM474.939 48.9716C474.852 48.2776 474.597 47.731 474.174 47.3319C473.759 46.9329 473.214 46.7334 472.539 46.7334C472.063 46.7334 471.634 46.8419 471.255 47.0586C470.873 47.2669 470.575 47.5445 470.359 47.8916C470.152 48.2299 470.047 48.5898 470.047 48.9716H474.939ZM483.325 51.288L484.961 46.0957H485.895L483.793 52.6024H482.859L481.211 47.4751L479.589 52.6024H478.68L476.67 46.0957H477.578L479.135 51.314L480.731 46.0957H481.691L483.325 51.288ZM492.425 46.0957H493.294V52.6024H492.425V51.2749C492.156 51.7348 491.81 52.0992 491.387 52.3681C490.962 52.6283 490.479 52.7585 489.933 52.7585C489.311 52.7585 488.761 52.6109 488.286 52.316C487.81 52.0124 487.443 51.6047 487.183 51.0928C486.924 50.5723 486.793 49.9953 486.793 49.362C486.793 48.7287 486.924 48.1518 487.183 47.6312C487.443 47.1107 487.81 46.7029 488.286 46.408C488.761 46.1043 489.311 45.9526 489.933 45.9526C490.479 45.9526 490.962 46.087 491.387 46.356C491.81 46.6249 492.156 46.9892 492.425 47.449V46.0957ZM489.947 51.9257C490.405 51.9257 490.82 51.8129 491.192 51.5873C491.572 51.3616 491.871 51.0538 492.088 50.6634C492.304 50.2643 492.412 49.8261 492.412 49.349C492.412 48.8718 492.304 48.4425 492.088 48.0607C491.871 47.6703 491.572 47.3623 491.192 47.1368C490.82 46.9112 490.405 46.7984 489.947 46.7984C489.496 46.7984 489.094 46.9155 488.74 47.1497C488.393 47.3754 488.125 47.6833 487.935 48.0737C487.745 48.4641 487.65 48.8935 487.65 49.362C487.65 49.8305 487.745 50.2599 487.935 50.6503C488.125 51.0407 488.393 51.3531 488.74 51.5873C489.094 51.8129 489.496 51.9257 489.947 51.9257ZM498.163 46.0957C498.267 46.0957 498.35 46.1 498.41 46.1087L498.319 46.9545C498.267 46.9372 498.189 46.9286 498.086 46.9286C497.525 46.9286 497.047 47.0891 496.659 47.4101C496.278 47.7223 496.087 48.2212 496.087 48.9065V52.6024H495.205V46.0957H496.087V47.2799C496.243 46.9329 496.499 46.6509 496.853 46.4341C497.217 46.2084 497.654 46.0957 498.163 46.0957ZM504.744 43.4931H505.626V52.6024H504.744V51.288C504.485 51.7391 504.138 52.0992 503.706 52.3681C503.282 52.6283 502.802 52.7585 502.266 52.7585C501.643 52.7585 501.093 52.6109 500.618 52.316C500.143 52.0124 499.775 51.6047 499.515 51.0928C499.256 50.5723 499.126 49.9953 499.126 49.362C499.126 48.7287 499.256 48.1518 499.515 47.6312C499.775 47.1107 500.143 46.7029 500.618 46.408C501.093 46.1043 501.643 45.9526 502.266 45.9526C502.802 45.9526 503.282 46.087 503.706 46.356C504.129 46.6162 504.476 46.9719 504.744 47.4231V43.4931ZM502.279 51.9257C502.737 51.9257 503.153 51.8129 503.524 51.5873C503.906 51.3616 504.203 51.0538 504.42 50.6634C504.636 50.2643 504.744 49.8261 504.744 49.349C504.744 48.8718 504.636 48.4425 504.42 48.0607C504.203 47.6703 503.906 47.3623 503.524 47.1368C503.153 46.9112 502.737 46.7984 502.279 46.7984C501.829 46.7984 501.427 46.9155 501.072 47.1497C500.727 47.3754 500.457 47.6833 500.267 48.0737C500.077 48.4641 499.982 48.8935 499.982 49.362C499.982 49.8305 500.077 50.2599 500.267 50.6503C500.457 51.0407 500.727 51.3531 501.072 51.5873C501.427 51.8129 501.829 51.9257 502.279 51.9257ZM507.927 52.7324C507.762 52.7064 507.65 52.6544 507.589 52.5763C507.537 52.4982 507.511 52.3725 507.511 52.1989C507.511 52.0254 507.559 51.8952 507.654 51.8085C507.749 51.7131 507.879 51.6653 508.043 51.6653C508.217 51.6653 508.351 51.7174 508.445 51.8216C508.541 51.917 508.589 52.0514 508.589 52.2249C508.589 52.4245 508.562 52.5937 508.511 52.7324C508.458 52.88 508.359 53.0665 508.212 53.292L507.849 53.8386L507.55 53.5913L507.927 52.7324ZM515.072 48.4511V51.7174H519.25V52.6024H514.138V43.4931H519.198V44.3649H515.072V47.5662H518.861V48.4511H515.072ZM521.812 47.8525C521.812 48.1301 521.943 48.334 522.202 48.4641C522.462 48.5942 522.872 48.7287 523.434 48.8675C523.953 48.9976 524.369 49.1234 524.68 49.2449C524.992 49.3576 525.261 49.5442 525.485 49.8045C525.718 50.0561 525.835 50.3945 525.835 50.8195C525.835 51.2012 525.727 51.5396 525.511 51.8346C525.295 52.1294 524.996 52.3594 524.615 52.5242C524.235 52.6804 523.807 52.7585 523.331 52.7585C522.682 52.7585 522.133 52.6283 521.683 52.3681C521.234 52.0992 520.913 51.7391 520.723 51.288L521.449 50.8975C521.597 51.2706 521.835 51.5483 522.163 51.7305C522.492 51.9126 522.881 52.0037 523.331 52.0037C523.781 52.0037 524.165 51.8996 524.486 51.6914C524.815 51.4745 524.978 51.1838 524.978 50.8195C524.978 50.5853 524.9 50.3987 524.745 50.2599C524.589 50.1124 524.395 49.9997 524.161 49.9215C523.937 49.8435 523.621 49.7568 523.214 49.6613C522.72 49.5312 522.323 49.4097 522.02 49.297C521.726 49.1842 521.471 49.015 521.254 48.7894C521.047 48.5552 520.944 48.2473 520.944 47.8655C520.944 47.5012 521.043 47.1714 521.242 46.8765C521.449 46.5815 521.731 46.3516 522.085 46.1867C522.448 46.022 522.855 45.9395 523.305 45.9395C523.841 45.9395 524.313 46.0567 524.719 46.2909C525.134 46.5251 525.446 46.8505 525.653 47.2669L524.927 47.6312C524.797 47.3363 524.589 47.1064 524.304 46.9416C524.028 46.7767 523.694 46.6943 523.305 46.6943C522.847 46.6943 522.484 46.7984 522.215 47.0066C521.947 47.2149 521.812 47.4968 521.812 47.8525ZM529.221 50.6634C529.221 51.1144 529.299 51.4268 529.455 51.6003C529.611 51.7651 529.87 51.8475 530.234 51.8475C530.337 51.8475 530.562 51.8302 530.909 51.7955V52.6024C530.544 52.6457 530.254 52.6674 530.039 52.6674C529.459 52.6674 529.03 52.5242 528.754 52.2379C528.477 51.943 528.339 51.4311 528.339 50.7023V46.9025H526.808V46.0957H528.339V44.2348L529.221 43.9095V46.0957H530.882V46.9025H529.221V50.6634ZM538.169 52.6024H537.287V48.7244C537.287 48.0216 537.092 47.5186 536.702 47.2149C536.313 46.9112 535.867 46.7593 535.366 46.7593C534.967 46.7593 534.596 46.8765 534.25 47.1107C533.913 47.3363 533.683 47.7094 533.563 48.2299V52.6024H532.693V43.4931H533.563V46.9155C533.796 46.6379 534.082 46.4124 534.418 46.2389C534.756 46.0567 535.123 45.9656 535.521 45.9656C535.901 45.9656 536.291 46.0437 536.69 46.1998C537.096 46.356 537.442 46.6379 537.728 47.0456C538.022 47.4534 538.169 48.0086 538.169 48.7113V52.6024ZM543.064 45.9395C543.696 45.9395 544.254 46.0957 544.738 46.408C545.23 46.7203 545.612 47.1411 545.88 47.6703C546.148 48.1909 546.282 48.7548 546.282 49.362C546.282 49.4054 546.273 49.5226 546.255 49.7134H540.573C540.608 50.1298 540.738 50.5115 540.962 50.8586C541.187 51.1969 541.491 51.4658 541.87 51.6653C542.251 51.8649 542.679 51.9646 543.155 51.9646C543.588 51.9646 543.998 51.8649 544.387 51.6653C544.786 51.4571 545.075 51.2012 545.257 50.8975L545.958 51.314C545.672 51.7651 545.283 52.1209 544.789 52.3811C544.305 52.6327 543.751 52.7585 543.129 52.7585C542.455 52.7585 541.854 52.6109 541.325 52.316C540.806 52.0211 540.4 51.6133 540.105 51.0928C539.82 50.5723 539.678 49.991 539.678 49.349C539.678 48.707 539.82 48.1301 540.105 47.6182C540.391 47.0977 540.79 46.6899 541.299 46.395C541.818 46.0913 542.407 45.9395 543.064 45.9395ZM545.451 48.9716C545.365 48.2776 545.111 47.731 544.686 47.3319C544.27 46.9329 543.726 46.7334 543.051 46.7334C542.575 46.7334 542.147 46.8419 541.766 47.0586C541.386 47.2669 541.088 47.5445 540.871 47.8916C540.663 48.2299 540.56 48.5898 540.56 48.9716H545.451ZM550.757 46.0957C550.861 46.0957 550.942 46.1 551.004 46.1087L550.913 46.9545C550.861 46.9372 550.783 46.9286 550.68 46.9286C550.117 46.9286 549.642 47.0891 549.252 47.4101C548.872 47.7223 548.681 48.2212 548.681 48.9065V52.6024H547.799V46.0957H548.681V47.2799C548.837 46.9329 549.092 46.6509 549.447 46.4341C549.81 46.2084 550.246 46.0957 550.757 46.0957ZM562.279 47.4881V43.4931H563.213V52.6024H562.279V48.3731H557.284V52.6024H556.35V43.4931H557.284V47.4881H562.279ZM568.413 52.7585C567.798 52.7585 567.232 52.6066 566.713 52.303C566.194 51.9994 565.783 51.5873 565.48 51.0668C565.178 50.5376 565.026 49.965 565.026 49.349C565.026 48.733 565.178 48.1692 565.48 47.6573C565.783 47.1368 566.194 46.7247 566.713 46.421C567.232 46.1173 567.798 45.9656 568.413 45.9656C569.027 45.9656 569.593 46.1173 570.113 46.421C570.632 46.7247 571.042 47.1368 571.345 47.6573C571.648 48.1692 571.799 48.733 571.799 49.349C571.799 49.965 571.648 50.5376 571.345 51.0668C571.042 51.5873 570.632 51.9994 570.113 52.303C569.593 52.6066 569.027 52.7585 568.413 52.7585ZM568.399 51.8736C568.859 51.8736 569.277 51.7608 569.658 51.5353C570.048 51.3096 570.354 51.006 570.579 50.6243C570.805 50.2339 570.917 49.8089 570.917 49.349C570.917 48.8891 570.805 48.4685 570.579 48.0868C570.354 47.6964 570.048 47.3884 569.658 47.1628C569.277 46.9372 568.859 46.8245 568.399 46.8245C567.941 46.8245 567.522 46.9372 567.141 47.1628C566.76 47.3884 566.458 47.6964 566.233 48.0868C566.007 48.4685 565.895 48.8891 565.895 49.349C565.895 49.8089 566.007 50.2339 566.233 50.6243C566.458 51.006 566.76 51.3096 567.141 51.5353C567.522 51.7608 567.941 51.8736 568.399 51.8736ZM579.39 51.288L581.025 46.0957H581.96L579.858 52.6024H578.923L577.276 47.4751L575.654 52.6024H574.745L572.734 46.0957H573.642L575.2 51.314L576.796 46.0957H577.756L579.39 51.288ZM588.489 46.0957H589.358V52.6024H588.489V51.2749C588.221 51.7348 587.874 52.0992 587.451 52.3681C587.027 52.6283 586.542 52.7585 585.997 52.7585C585.375 52.7585 584.825 52.6109 584.35 52.316C583.874 52.0124 583.507 51.6047 583.247 51.0928C582.988 50.5723 582.857 49.9953 582.857 49.362C582.857 48.7287 582.988 48.1518 583.247 47.6312C583.507 47.1107 583.874 46.7029 584.35 46.408C584.825 46.1043 585.375 45.9526 585.997 45.9526C586.542 45.9526 587.027 46.087 587.451 46.356C587.874 46.6249 588.221 46.9892 588.489 47.449V46.0957ZM586.011 51.9257C586.469 51.9257 586.884 51.8129 587.256 51.5873C587.637 51.3616 587.936 51.0538 588.152 50.6634C588.367 50.2643 588.476 49.8261 588.476 49.349C588.476 48.8718 588.367 48.4425 588.152 48.0607C587.936 47.6703 587.637 47.3623 587.256 47.1368C586.884 46.9112 586.469 46.7984 586.011 46.7984C585.561 46.7984 585.159 46.9155 584.803 47.1497C584.458 47.3754 584.189 47.6833 583.999 48.0737C583.809 48.4641 583.714 48.8935 583.714 49.362C583.714 49.8305 583.809 50.2599 583.999 50.6503C584.189 51.0407 584.458 51.3531 584.803 51.5873C585.159 51.8129 585.561 51.9257 586.011 51.9257ZM594.228 46.0957C594.332 46.0957 594.414 46.1 594.474 46.1087L594.384 46.9545C594.332 46.9372 594.254 46.9286 594.15 46.9286C593.588 46.9286 593.112 47.0891 592.723 47.4101C592.342 47.7223 592.152 48.2212 592.152 48.9065V52.6024H591.27V46.0957H592.152V47.2799C592.308 46.9329 592.563 46.6509 592.918 46.4341C593.281 46.2084 593.718 46.0957 594.228 46.0957ZM600.808 43.4931H601.69V52.6024H600.808V51.288C600.548 51.7391 600.202 52.0992 599.77 52.3681C599.346 52.6283 598.866 52.7585 598.33 52.7585C597.707 52.7585 597.158 52.6109 596.682 52.316C596.206 52.0124 595.838 51.6047 595.578 51.0928C595.319 50.5723 595.189 49.9953 595.189 49.362C595.189 48.7287 595.319 48.1518 595.578 47.6312C595.838 47.1107 596.206 46.7029 596.682 46.408C597.158 46.1043 597.707 45.9526 598.33 45.9526C598.866 45.9526 599.346 46.087 599.77 46.356C600.194 46.6162 600.54 46.9719 600.808 47.4231V43.4931ZM598.342 51.9257C598.801 51.9257 599.216 51.8129 599.588 51.5873C599.968 51.3616 600.267 51.0538 600.483 50.6634C600.7 50.2643 600.808 49.8261 600.808 49.349C600.808 48.8718 600.7 48.4425 600.483 48.0607C600.267 47.6703 599.968 47.3623 599.588 47.1368C599.216 46.9112 598.801 46.7984 598.342 46.7984C597.893 46.7984 597.491 46.9155 597.135 47.1497C596.79 47.3754 596.522 47.6833 596.331 48.0737C596.141 48.4641 596.046 48.8935 596.046 49.362C596.046 49.8305 596.141 50.2599 596.331 50.6503C596.522 51.0407 596.79 51.3531 597.135 51.5873C597.491 51.8129 597.893 51.9257 598.342 51.9257ZM603.991 52.7324C603.826 52.7064 603.714 52.6544 603.653 52.5763C603.602 52.4982 603.576 52.3725 603.576 52.1989C603.576 52.0254 603.623 51.8952 603.719 51.8085C603.813 51.7131 603.943 51.6653 604.108 51.6653C604.28 51.6653 604.415 51.7174 604.51 51.8216C604.605 51.917 604.652 52.0514 604.652 52.2249C604.652 52.4245 604.627 52.5937 604.575 52.7324C604.523 52.88 604.423 53.0665 604.277 53.292L603.913 53.8386L603.615 53.5913L603.991 52.7324ZM610.149 52.1989C610.149 52.0254 610.197 51.891 610.293 51.7955C610.388 51.7 610.521 51.6523 610.695 51.6523C610.868 51.6523 611.001 51.7 611.097 51.7955C611.192 51.891 611.24 52.0254 611.24 52.1989C611.24 52.3637 611.192 52.4982 611.097 52.6024C611.001 52.6978 610.868 52.7455 610.695 52.7455C610.53 52.7455 610.396 52.6978 610.293 52.6024C610.197 52.4982 610.149 52.3637 610.149 52.1989ZM612.831 52.1989C612.831 52.0254 612.879 51.891 612.974 51.7955C613.069 51.7 613.204 51.6523 613.376 51.6523C613.549 51.6523 613.684 51.7 613.778 51.7955C613.873 51.891 613.921 52.0254 613.921 52.1989C613.921 52.3637 613.873 52.4982 613.778 52.6024C613.684 52.6978 613.549 52.7455 613.376 52.7455C613.211 52.7455 613.077 52.6978 612.974 52.6024C612.879 52.4982 612.831 52.3637 612.831 52.1989ZM615.513 52.1989C615.513 52.0254 615.56 51.891 615.656 51.7955C615.751 51.7 615.885 51.6523 616.058 51.6523C616.231 51.6523 616.365 51.7 616.46 51.7955C616.555 51.891 616.602 52.0254 616.602 52.1989C616.602 52.3637 616.555 52.4982 616.46 52.6024C616.365 52.6978 616.231 52.7455 616.058 52.7455C615.893 52.7455 615.759 52.6978 615.656 52.6024C615.56 52.4982 615.513 52.3637 615.513 52.1989ZM618.194 52.1989C618.194 52.0254 618.241 51.891 618.336 51.7955C618.432 51.7 618.566 51.6523 618.74 51.6523C618.913 51.6523 619.046 51.7 619.142 51.7955C619.237 51.891 619.284 52.0254 619.284 52.1989C619.284 52.3637 619.237 52.4982 619.142 52.6024C619.046 52.6978 618.913 52.7455 618.74 52.7455C618.575 52.7455 618.441 52.6978 618.336 52.6024C618.241 52.4982 618.194 52.3637 618.194 52.1989Z" fill="#000205"/>
<path d="M356.422 65.6136C366.147 65.6136 374.031 57.7066 374.031 47.9527C374.031 38.199 366.147 30.292 356.422 30.292C346.696 30.292 338.812 38.199 338.812 47.9527C338.812 57.7066 346.696 65.6136 356.422 65.6136Z" fill="#E8EEFE"/>
<path fill-rule="evenodd" clip-rule="evenodd" d="M356.637 42.6189C356.965 42.2963 357.498 42.2963 357.827 42.6189L362.666 47.3699C362.995 47.6926 362.995 48.2156 362.666 48.5382L357.827 53.2892C357.498 53.6118 356.965 53.6118 356.637 53.2892C356.308 52.9667 356.308 52.4436 356.637 52.1211L360.04 48.7801H350.779C350.314 48.7801 349.938 48.4103 349.938 47.9541C349.938 47.4979 350.314 47.1281 350.779 47.1281H360.04L356.637 43.7871C356.308 43.4644 356.308 42.9415 356.637 42.6189Z" fill="#2241AC"/>
<path d="M367.531 65.6197C371.113 65.6197 374.018 62.7066 374.018 59.1131C374.018 55.5195 371.113 52.6064 367.531 52.6064C363.948 52.6064 361.043 55.5195 361.043 59.1131C361.043 62.7066 363.948 65.6197 367.531 65.6197Z" fill="#36993A"/>
</g>
<defs>
<filter id="filter0_d_12064_2529" x="137" y="28" width="158" height="133" filterUnits="userSpaceOnUse" color-interpolation-filters="sRGB">
<feFlood flood-opacity="0" result="BackgroundImageFix"/>
<feColorMatrix in="SourceAlpha" type="matrix" values="0 0 0 0 0 0 0 0 0 0 0 0 0 0 0 0 0 0 127 0" result="hardAlpha"/>
<feOffset dy="4"/>
<feGaussianBlur stdDeviation="2"/>
<feComposite in2="hardAlpha" operator="out"/>
<feColorMatrix type="matrix" values="0 0 0 0 0 0 0 0 0 0 0 0 0 0 0 0 0 0 0.25 0"/>
<feBlend mode="normal" in2="BackgroundImageFix" result="effect1_dropShadow_12064_2529"/>
<feBlend mode="normal" in="SourceGraphic" in2="effect1_dropShadow_12064_2529" result="shape"/>
</filter>
<linearGradient id="paint0_linear_12064_2529" x1="32.3647" y1="-1.78321" x2="146.176" y2="63.7932" gradientUnits="userSpaceOnUse">
<stop stop-color="#2241AC"/>
<stop offset="1" stop-color="#4FC0FF"/>
</linearGradient>
<linearGradient id="paint1_linear_12064_2529" x1="32.3647" y1="-1.78321" x2="146.176" y2="63.7932" gradientUnits="userSpaceOnUse">
<stop stop-color="#2241AC"/>
<stop offset="1" stop-color="#4FC0FF"/>
</linearGradient>
<linearGradient id="paint2_linear_12064_2529" x1="161.464" y1="12.9071" x2="268.698" y2="70.1877" gradientUnits="userSpaceOnUse">
<stop stop-color="#2241AC"/>
<stop offset="1" stop-color="#4FC0FF"/>
</linearGradient>
<linearGradient id="paint3_linear_12064_2529" x1="161.464" y1="12.9071" x2="268.698" y2="70.1877" gradientUnits="userSpaceOnUse">
<stop stop-color="#2241AC"/>
<stop offset="1" stop-color="#4FC0FF"/>
</linearGradient>
</defs>
</svg>
