<svg width="640" height="492" viewBox="0 0 640 492" fill="none" xmlns="http://www.w3.org/2000/svg">
<g filter="url(#filter0_d_12259_855)">
<circle opacity="0.06" cx="246" cy="242" r="212" fill="white"/>
<circle opacity="0.1" cx="245.999" cy="242" r="193.081" fill="white"/>
<circle cx="246.557" cy="242.557" r="174.719" fill="white"/>
<path fill-rule="evenodd" clip-rule="evenodd" d="M144.116 201.119V230.073C143.979 262.875 154.992 294.741 175.332 320.398C192.016 342.565 215.291 358.824 241.785 366.815C244.888 367.807 248.221 367.807 251.324 366.815C280.068 358.134 302.719 340.947 320.449 316.961C334.338 298.279 343.499 276.486 347.145 253.457C348.271 246.228 348.856 238.922 348.893 231.604C349.019 219.053 349.004 206.493 348.988 193.93V193.929C348.976 184.142 348.963 174.352 349.018 164.563C349.118 163.746 348.92 162.92 348.461 162.237C348.002 161.554 347.313 161.062 346.521 160.85C313.956 146.432 281.392 131.879 248.827 117.193C247.336 116.433 245.574 116.433 244.082 117.193C211.601 131.779 179.111 146.306 146.613 160.775C145.776 161.065 145.068 161.641 144.611 162.402C144.154 163.164 143.979 164.062 144.115 164.94L144.116 201.119ZM322.282 242.66C322.282 284.425 288.425 318.282 246.66 318.282C204.895 318.282 171.038 284.425 171.038 242.66C171.038 200.895 204.895 167.038 246.66 167.038C288.425 167.038 322.282 200.895 322.282 242.66ZM225.623 229.362C222.877 225.252 221.411 220.42 221.411 215.477C221.411 208.849 224.045 202.492 228.731 197.805C233.418 193.118 239.775 190.485 246.403 190.485C251.346 190.485 256.178 191.951 260.288 194.697C264.398 197.443 267.602 201.347 269.493 205.913C271.385 210.48 271.88 215.505 270.915 220.353C269.951 225.201 267.571 229.654 264.076 233.149C260.58 236.645 256.127 239.025 251.279 239.989C246.431 240.953 241.406 240.459 236.839 238.567C232.273 236.675 228.37 233.472 225.623 229.362ZM205.038 284.511C205.038 267.815 216.504 244.78 246.404 244.78C276.304 244.78 287.77 267.815 287.77 284.511C287.77 297.032 205.038 297.032 205.038 284.511Z" fill="#2241AC"/>
</g>
<circle opacity="0.1" cx="497" cy="311" r="143" fill="#2241AC"/>
<circle opacity="0.2" cx="497" cy="311" r="131" fill="#2241AC"/>
<circle cx="497.5" cy="311.5" r="118.5" fill="#2241AC"/>
<path d="M439.399 287.987V304.43C439.321 323.058 445.575 341.156 457.127 355.726C466.602 368.315 479.82 377.549 494.866 382.087C496.628 382.651 498.522 382.651 500.284 382.087C516.608 377.157 529.471 367.396 539.541 353.774C547.428 343.165 552.631 330.788 554.702 317.71C555.341 313.604 555.673 309.455 555.694 305.299C555.822 292.617 555.694 279.922 555.766 267.226C555.822 266.761 555.71 266.292 555.449 265.905C555.189 265.517 554.797 265.237 554.347 265.117C535.853 256.929 517.36 248.664 498.866 240.324C498.019 239.892 497.018 239.892 496.171 240.324C477.724 248.607 459.273 256.857 440.817 265.074C440.342 265.239 439.94 265.566 439.68 265.998C439.421 266.431 439.321 266.941 439.399 267.44V287.987L439.399 287.987ZM449.327 274.863C449.263 274.443 449.351 274.014 449.574 273.653C449.798 273.293 450.143 273.025 450.546 272.897C465.807 266.095 481.095 259.256 496.412 252.378C497.113 252.023 497.939 252.023 498.639 252.378C513.984 259.256 529.353 266.114 544.746 272.954C545.507 273.172 545.995 273.917 545.895 274.706V306.311C545.873 309.761 545.593 313.205 545.058 316.613C543.334 327.464 539.012 337.733 532.464 346.536C524.475 357.779 513.005 366.046 499.844 370.047C498.382 370.514 496.811 370.514 495.348 370.047C482.829 366.298 471.824 358.636 463.934 348.174C454.336 336.069 449.142 321.032 449.213 305.556V291.905C449.213 286.248 449.241 280.563 449.199 274.878L449.327 274.863Z" fill="white"/>
<path d="M458.375 279.381C471.13 273.681 483.894 267.981 496.667 262.282C496.946 262.163 497.245 262.1 497.547 262.097V311.256H457.567C457.444 309.707 457.377 308.14 457.368 306.553V295.154V280.905C457.292 280.219 457.716 279.577 458.375 279.38L458.375 279.381Z" fill="white"/>
<path d="M537.513 311.256H497.547V360.415C498.187 360.408 498.822 360.308 499.433 360.116C510.362 356.788 519.887 349.919 526.522 340.58C531.963 333.266 535.555 324.733 536.988 315.716C537.258 314.234 537.4 312.681 537.513 311.256L537.513 311.256Z" fill="white"/>
<defs>
<filter id="filter0_d_12259_855" x="0" y="0" width="492" height="492" filterUnits="userSpaceOnUse" color-interpolation-filters="sRGB">
<feFlood flood-opacity="0" result="BackgroundImageFix"/>
<feColorMatrix in="SourceAlpha" type="matrix" values="0 0 0 0 0 0 0 0 0 0 0 0 0 0 0 0 0 0 127 0" result="hardAlpha"/>
<feOffset dy="4"/>
<feGaussianBlur stdDeviation="17"/>
<feComposite in2="hardAlpha" operator="out"/>
<feColorMatrix type="matrix" values="0 0 0 0 0 0 0 0 0 0 0 0 0 0 0 0 0 0 0.25 0"/>
<feBlend mode="normal" in2="BackgroundImageFix" result="effect1_dropShadow_12259_855"/>
<feBlend mode="normal" in="SourceGraphic" in2="effect1_dropShadow_12259_855" result="shape"/>
</filter>
</defs>
</svg>
