<svg width="451" height="405" viewBox="0 0 451 405" fill="none" xmlns="http://www.w3.org/2000/svg">
<rect x="224" y="190" width="149" height="7.99999" transform="rotate(90 224 190)" fill="#6C6D6F"/>
<rect x="398" y="258" width="75" height="8" transform="rotate(90 398 258)" fill="#6C6D6F"/>
<rect x="60" y="258" width="75" height="8" transform="rotate(90 60 258)" fill="#6C6D6F"/>
<rect x="52" y="250" width="346" height="8.00001" fill="#6C6D6F"/>
<rect x="124" y="4" width="201" height="201" rx="36" fill="white" stroke="#2241AC" stroke-width="8"/>
<path fill-rule="evenodd" clip-rule="evenodd" d="M177.322 57.3208H205.878V57.3251L267.53 57.3251L242.33 86.2136L205.878 86.2136V123.321L177.322 99.9668V76.8578V57.3208ZM270.91 152.233H242.354V152.225H180.702L205.903 123.336H242.354V86.232L270.91 109.587V132.696V152.233Z" fill="url(#paint0_linear_12259_897)"/>
<rect y="291" width="113.568" height="113.568" rx="20" fill="#171C2C"/>
<rect x="0.5" y="291.5" width="112.568" height="112.568" rx="19.5" stroke="white" stroke-opacity="0.14"/>
<path d="M28.2207 376.168C28.2207 364.834 36.0045 349.196 56.3029 349.196C76.6012 349.196 84.385 364.834 84.385 376.168C84.385 384.669 28.2207 384.669 28.2207 376.168Z" fill="white"/>
<path d="M42.1953 338.73C40.331 335.94 39.3359 332.66 39.3359 329.304C39.3359 324.804 41.1235 320.489 44.3053 317.307C47.487 314.125 51.8025 312.338 56.3022 312.338C59.6579 312.338 62.9381 313.333 65.7282 315.197C68.5183 317.062 70.6929 319.711 71.9771 322.811C73.2612 325.912 73.5972 329.323 72.9425 332.614C72.2879 335.905 70.672 338.928 68.2992 341.301C65.9265 343.674 62.9033 345.29 59.6122 345.944C56.3211 346.599 52.9097 346.263 49.8095 344.979C46.7093 343.695 44.0596 341.52 42.1953 338.73Z" fill="white"/>
<rect x="163" y="291" width="113.568" height="113.568" rx="20" fill="#171C2C"/>
<rect x="163.5" y="291.5" width="112.568" height="112.568" rx="19.5" stroke="white" stroke-opacity="0.14"/>
<path d="M191.221 376.167C191.221 364.833 199.005 349.195 219.303 349.195C239.601 349.195 247.385 364.833 247.385 376.167C247.385 384.668 191.221 384.668 191.221 376.167Z" fill="white"/>
<path d="M205.195 338.73C203.331 335.94 202.336 332.659 202.336 329.304C202.336 324.804 204.123 320.489 207.305 317.307C210.487 314.125 214.802 312.337 219.302 312.337C222.658 312.337 225.938 313.332 228.728 315.197C231.518 317.061 233.693 319.711 234.977 322.811C236.261 325.911 236.597 329.323 235.943 332.614C235.288 335.905 233.672 338.928 231.299 341.301C228.926 343.673 225.903 345.289 222.612 345.944C219.321 346.599 215.91 346.263 212.81 344.979C209.709 343.694 207.06 341.52 205.195 338.73Z" fill="white"/>
<rect x="337" y="291" width="113.568" height="113.568" rx="20" fill="#171C2C"/>
<rect x="337.5" y="291.5" width="112.568" height="112.568" rx="19.5" stroke="white" stroke-opacity="0.14"/>
<path d="M365.221 376.167C365.221 364.833 373.005 349.195 393.303 349.195C413.601 349.195 421.385 364.833 421.385 376.167C421.385 384.668 365.221 384.668 365.221 376.167Z" fill="white"/>
<path d="M379.195 338.73C377.331 335.94 376.336 332.659 376.336 329.304C376.336 324.804 378.123 320.489 381.305 317.307C384.487 314.125 388.802 312.337 393.302 312.337C396.658 312.337 399.938 313.332 402.728 315.197C405.518 317.061 407.693 319.711 408.977 322.811C410.261 325.911 410.597 329.323 409.943 332.614C409.288 335.905 407.672 338.928 405.299 341.301C402.926 343.673 399.903 345.289 396.612 345.944C393.321 346.599 389.91 346.263 386.81 344.979C383.709 343.694 381.06 341.52 379.195 338.73Z" fill="white"/>
<defs>
<linearGradient id="paint0_linear_12259_897" x1="187.564" y1="75.0952" x2="217.808" y2="85.146" gradientUnits="userSpaceOnUse">
<stop stop-color="#0129BA"/>
<stop offset="1" stop-color="#1648F8"/>
</linearGradient>
</defs>
</svg>
