<svg width="83" height="18" viewBox="0 0 83 18" fill="none" xmlns="http://www.w3.org/2000/svg">
<path d="M25.6635 16.84V5.49601H27.358L27.5063 6.41579H27.5953C28.07 5.79271 28.9008 5.34766 30.0316 5.34766C32.1118 5.34766 33.803 7.04216 33.803 9.56414C33.803 12.0861 32.1382 13.7806 30.0283 13.7806C28.9008 13.7806 28.1261 13.3059 27.7107 12.7718H27.6217V16.8103H25.6602V16.84H25.6635ZM31.8415 9.56414C31.8415 8.08062 30.892 7.15755 29.7316 7.15755C28.5711 7.15755 27.6217 8.07733 27.6217 9.56414C27.6217 11.051 28.5711 11.9707 29.7316 11.9707C30.892 11.9707 31.8415 11.051 31.8415 9.56414Z" fill="white"/>
<path d="M34.7812 9.56414C34.7812 7.09821 36.5648 5.34766 38.9087 5.34766C41.2856 5.34766 43.0362 7.13117 43.0362 9.56414C43.0362 12.0301 41.2527 13.7806 38.9087 13.7806C36.5318 13.7806 34.7812 12.0004 34.7812 9.56414ZM41.0747 9.56414C41.0747 8.11029 40.1252 7.15755 38.9054 7.15755C37.7186 7.15755 36.7362 8.107 36.7362 9.56414C36.7362 11.0213 37.7153 11.9707 38.9054 11.9707C40.0955 11.9707 41.0747 11.0213 41.0747 9.56414Z" fill="white"/>
<path d="M44.4609 13.6319V2.37695H46.4225V13.6319H44.4609Z" fill="white"/>
<path d="M53.7286 5.49548H55.8089L52.2748 15.3856C51.9187 16.3647 51.444 16.8394 50.1649 16.8394H48.266V15.0263H49.8682C50.1649 15.0263 50.3132 14.8779 50.4023 14.6405L50.5803 14.1065L47.2539 5.49219H49.3341L51.444 11.1361H51.7704L53.6726 5.49219H53.7286V5.49548Z" fill="white"/>
<path d="M56.195 14.051H58.1862C58.2752 14.585 58.8093 15.2971 60.0587 15.2971C61.2456 15.2971 62.0203 14.5553 62.0203 13.4246V12.2971H61.9313C61.4862 12.7718 60.6851 13.1872 59.673 13.1872C57.5928 13.1872 55.9609 11.585 55.9609 9.26744C55.9609 6.94985 57.5631 5.34766 59.673 5.34766C60.7412 5.34766 61.5456 5.79271 62.0499 6.38612H62.139L62.2873 5.49601H63.9818V13.4246C63.9818 15.5938 62.528 17.018 60.062 17.018C57.2928 17.018 56.2543 15.2081 56.195 14.051ZM61.9873 9.26744C61.9873 7.99161 61.0972 7.09821 59.9368 7.09821C58.8093 7.09821 57.9159 7.98832 57.9159 9.26744C57.9159 10.5466 58.806 11.4367 59.9368 11.4367C61.0675 11.4367 61.9873 10.5433 61.9873 9.26744Z" fill="white"/>
<path d="M65.3125 9.56414C65.3125 7.09821 67.096 5.34766 69.44 5.34766C71.8169 5.34766 73.5674 7.13117 73.5674 9.56414C73.5674 12.0301 71.7839 13.7806 69.44 13.7806C67.0631 13.7806 65.3125 12.0004 65.3125 9.56414ZM71.6092 9.56414C71.6092 8.11029 70.6301 7.15755 69.44 7.15755C68.2532 7.15755 67.2707 8.107 67.2707 9.56414C67.2707 11.0213 68.2499 11.9707 69.44 11.9707C70.6268 11.9707 71.6092 11.0213 71.6092 9.56414Z" fill="white"/>
<path d="M74.9375 13.6323V5.49601H76.632L76.7804 6.26744H76.8694C77.1957 5.91139 77.9968 5.34766 79.2166 5.34766C81.0891 5.34766 82.4243 6.68282 82.4243 8.76304V13.6619H80.4628V9.03007C80.4628 7.99161 79.721 7.21689 78.7089 7.21689C77.6968 7.21689 76.8957 8.01799 76.8957 9.03007V13.6619H74.9375V13.6323Z" fill="white"/>
<path d="M15.089 12.6822L19.8989 9.8899C20.1659 9.74155 20.3143 9.47452 20.3143 9.17782V3.5932C20.3143 3.2965 20.1659 3.02946 19.8989 2.88111L15.089 0.0888028C14.822 -0.0595489 14.5253 -0.0595489 14.2582 0.0888028L9.44505 2.88111C9.17802 3.02946 9.02967 3.2965 9.02967 3.5932V13.5427L5.64396 15.5042L2.25824 13.5427V9.65254L5.64396 7.691L7.87253 8.96683V6.35254L6.05934 5.31408C5.94066 5.25474 5.79231 5.1954 5.64396 5.1954C5.4956 5.1954 5.34725 5.22507 5.22857 5.31408L0.415385 8.10968C0.148352 8.25804 0 8.52507 0 8.82177V14.4064C0 14.7031 0.148352 14.9701 0.415385 15.1185L5.22527 17.9108C5.49231 18.0591 5.78901 18.0591 6.05604 17.9108L10.8659 15.1185C11.133 14.9701 11.2813 14.7031 11.2813 14.4064V4.45694L11.3407 4.42727L14.6703 2.4954L18.056 4.45694V8.34705L14.6703 10.3053L12.4418 9.02946V11.6438L14.2549 12.6822C14.522 12.8306 14.8187 12.8306 15.089 12.6822Z" fill="url(#paint0_linear_12401_1927)"/>
<defs>
<linearGradient id="paint0_linear_12401_1927" x1="-0.0332858" y1="14.9548" x2="19.3311" y2="3.63909" gradientUnits="userSpaceOnUse">
<stop stop-color="#A726C1"/>
<stop offset="0.8784" stop-color="#803BDF"/>
<stop offset="1" stop-color="#7B3FE4"/>
</linearGradient>
</defs>
</svg>
