<svg width="544" height="391" viewBox="0 0 544 391" fill="none" xmlns="http://www.w3.org/2000/svg">
<rect opacity="0.5" x="189" y="187.06" width="160.398" height="5" transform="rotate(-31.1874 189 187.06)" fill="#D9D9D9"/>
<rect opacity="0.5" x="169.293" y="237" width="160.398" height="5" transform="rotate(41.1856 169.293 237)" fill="#D9D9D9"/>
<rect x="281" y="282" width="238.2" height="108.822" rx="20" fill="#0C101A"/>
<rect x="281.5" y="282.5" width="237.2" height="107.822" rx="19.5" stroke="white" stroke-opacity="0.14"/>
<path d="M399.224 336.351C397.548 335.687 395.502 335.133 393.085 334.688H393.034C390.686 334.279 388.924 333.904 387.75 333.562C386.576 333.222 385.652 332.761 384.979 332.181C384.305 331.601 383.969 330.8 383.969 329.776C383.969 328.275 384.539 327.133 385.678 326.348C386.818 325.564 388.32 325.171 390.184 325.171C392.222 325.171 393.87 325.683 395.131 326.706C396.263 327.626 396.957 328.794 397.212 330.208C397.262 330.49 397.503 330.698 397.793 330.701L403.525 330.744C403.876 330.747 404.157 330.449 404.123 330.103C403.93 328.21 403.299 326.489 402.228 324.941C401.037 323.219 399.396 321.879 397.307 320.924C395.218 319.969 392.844 319.491 390.184 319.491C387.664 319.491 385.394 319.951 383.373 320.873C381.354 321.794 379.782 323.073 378.659 324.71C377.536 326.348 376.976 328.19 376.976 330.237C376.976 332.488 377.476 334.297 378.477 335.66C379.479 337.025 380.791 338.057 382.414 338.756C384.037 339.455 385.987 340.009 388.267 340.419L388.525 340.47C390.941 340.913 392.747 341.306 393.939 341.647C395.13 341.989 396.07 342.466 396.762 343.08C397.452 343.694 397.797 344.53 397.797 345.587C397.797 347.089 397.176 348.265 395.933 349.118C394.69 349.971 393.083 350.397 391.115 350.397C388.766 350.397 386.868 349.809 385.417 348.631C384.097 347.561 383.321 346.186 383.087 344.508C383.047 344.217 382.803 343.997 382.507 343.993L376.782 343.908C376.434 343.903 376.153 344.193 376.179 344.536C376.342 346.6 376.995 348.46 378.139 350.116C379.4 351.941 381.135 353.374 383.345 354.414C385.555 355.455 388.093 355.975 390.96 355.975C393.618 355.975 396.001 355.498 398.108 354.542C400.214 353.587 401.864 352.265 403.055 350.577C404.247 348.888 404.843 346.987 404.843 344.871C404.843 342.619 404.324 340.803 403.288 339.421C402.253 338.039 400.897 337.016 399.223 336.35L399.224 336.351Z" fill="white"/>
<path d="M434.428 350.139H433.533C433.015 350.139 432.609 350.003 432.316 349.729C432.022 349.457 431.875 349.012 431.875 348.398V338.625C431.875 335.521 430.874 333.158 428.872 331.538C426.869 329.918 424.51 329.092 420.815 329.092C417.327 329.092 414.602 329.841 412.461 331.307C410.509 332.645 409.333 334.476 408.93 336.805C408.868 337.167 409.145 337.499 409.516 337.499H414.78C415.044 337.499 415.281 337.328 415.35 337.076C415.591 336.215 416.121 335.511 416.941 334.967C417.89 334.335 419.018 334.02 420.503 334.02C423.304 334.02 425.296 335.726 425.296 338.266V339.061C425.296 339.386 425.03 339.648 424.701 339.648H419.933C416.065 339.648 413.13 340.399 411.128 341.9C409.125 343.402 408.123 345.534 408.123 348.296C408.123 350.685 409.038 352.561 410.869 353.925C412.242 354.947 413.884 355.538 415.573 355.797C416.865 355.995 418.191 356.067 419.485 355.862C420.841 355.648 421.942 355.096 423.044 354.308C424.034 353.602 424.86 352.697 425.614 351.593C425.982 350.969 426.947 351.219 426.947 351.941V352.808C426.946 354.385 428.239 355.664 429.835 355.664H434.428C434.756 355.664 435.022 355.401 435.022 355.076V350.725C435.022 350.4 434.756 350.138 434.428 350.138V350.139ZM425.297 344.868C425.297 346.13 425.029 347.23 424.494 348.168C423.372 350.135 421.365 351.161 419.106 351.161C417.793 351.161 416.74 350.855 415.946 350.241C415.151 349.627 414.755 348.808 414.755 347.784C414.755 346.626 415.195 345.73 416.076 345.098C416.956 344.468 418.207 344.152 419.831 344.152H424.702C425.031 344.152 425.297 344.415 425.297 344.739V344.868Z" fill="white"/>
<path d="M453.61 319.868H446.76C443.146 319.868 440.216 322.762 440.216 326.332V329.172C440.216 329.497 439.95 329.76 439.622 329.76H435.71C435.381 329.76 435.115 330.022 435.115 330.347V334.749C435.115 335.074 435.381 335.337 435.71 335.337H439.622C439.95 335.337 440.216 335.599 440.216 335.924V355.084C440.216 355.409 440.482 355.672 440.811 355.672H446.148C446.477 355.672 446.743 355.409 446.743 355.084V335.924C446.743 335.599 447.009 335.337 447.338 335.337H453.558C453.886 335.337 454.152 335.074 454.152 334.749V330.347C454.152 330.022 453.886 329.76 453.558 329.76H447.338C447.009 329.76 446.743 329.497 446.743 329.172V326.62C446.743 325.971 447.276 325.445 447.933 325.445H453.609C453.938 325.445 454.204 325.182 454.204 324.858V320.456C454.204 320.131 453.938 319.868 453.609 319.868H453.61Z" fill="white"/>
<path d="M479.762 335.052C478.606 333.143 477.025 331.675 475.023 330.652C473.02 329.629 470.705 329.102 468.082 329.102C465.458 329.102 463.194 329.671 461.192 330.779C459.189 331.888 457.635 333.457 456.531 335.487C455.426 337.517 454.873 339.896 454.873 342.625C454.873 345.355 455.443 347.632 456.582 349.661C457.723 351.691 459.354 353.251 461.477 354.343C463.6 355.435 466.095 355.981 468.962 355.981C471.172 355.981 473.149 355.58 474.893 354.779C476.636 353.978 478.044 352.877 479.114 351.479C480.03 350.281 480.656 348.97 480.991 347.547C481.078 347.177 480.796 346.822 480.411 346.822H475.049C474.793 346.822 474.568 346.986 474.485 347.227C474.107 348.33 473.441 349.202 472.484 349.841C471.413 350.557 470.084 350.915 468.496 350.915C467.183 350.915 466.036 350.643 465.052 350.097C464.068 349.552 463.291 348.784 462.721 347.794C462.496 347.404 462.312 346.991 462.165 346.565C462.008 346.109 461.895 345.638 461.817 345.161C461.79 344.995 461.766 344.826 461.745 344.658C461.705 344.311 461.983 344.007 462.337 344.007H480.827C481.127 344.007 481.384 343.788 481.418 343.493C481.444 343.277 481.461 343.056 481.47 342.83C481.488 342.421 481.496 342.046 481.496 341.705C481.496 339.181 480.918 336.964 479.761 335.053L479.762 335.052ZM474.206 339.555H462.625C462.245 339.555 461.959 339.207 462.043 338.84C462.228 338.038 462.548 337.313 463.004 336.664C463.591 335.829 464.351 335.188 465.284 334.745C466.216 334.301 467.234 334.079 468.34 334.079C470.135 334.079 471.621 334.557 472.795 335.512C473.802 336.332 474.466 337.44 474.787 338.837C474.872 339.205 474.587 339.555 474.206 339.555Z" fill="white"/>
<path d="M362.866 337.756H357.789C356.273 337.756 355.045 338.97 355.045 340.468V347.746C355.045 349.244 353.816 350.458 352.3 350.458H332.104C330.588 350.458 329.359 351.671 329.359 353.169V358.184C329.359 359.681 330.588 360.895 332.104 360.895H353.469C354.985 360.895 356.196 359.681 356.196 358.184V354.16C356.196 352.663 357.425 351.6 358.941 351.6H362.865C364.381 351.6 365.609 350.387 365.609 348.889V340.436C365.609 338.938 364.381 337.756 362.865 337.756H362.866Z" fill="white"/>
<path d="M329.357 327.795C329.357 326.297 330.585 325.084 332.102 325.084H352.285C353.801 325.084 355.03 323.87 355.03 322.373V317.358C355.03 315.86 353.801 314.646 352.285 314.646H330.932C329.415 314.646 328.187 315.86 328.187 317.358V321.222C328.187 322.72 326.958 323.933 325.442 323.933H321.536C320.02 323.933 318.791 325.147 318.791 326.645V335.106C318.791 336.604 320.025 337.757 321.541 337.757H326.617C328.133 337.757 329.362 336.543 329.362 335.045L329.357 327.796V327.795Z" fill="white"/>
<path d="M339.808 332.484H344.684C346.273 332.484 347.562 333.759 347.562 335.328V340.144C347.562 341.714 346.272 342.988 344.684 342.988H339.808C338.219 342.988 336.93 341.713 336.93 340.144V335.328C336.93 333.758 338.22 332.484 339.808 332.484Z" fill="white"/>
<rect x="196" width="291.401" height="108.822" rx="20" fill="#171C2C"/>
<rect x="196.5" y="0.5" width="290.401" height="107.822" rx="19.5" stroke="white" stroke-opacity="0.14"/>
<g clip-path="url(#clip0_12384_791)">
<path d="M411.773 82.888V87.0555H440.321V68.2592H436.161V82.888H411.773ZM411.773 20.8564V25.0242H436.161V39.6538H440.321V20.8564H411.773ZM397.051 53.0985V43.414H403.576C406.758 43.414 407.899 44.4762 407.899 47.378V49.094C407.899 52.0769 406.798 53.0985 403.576 53.0985H397.051ZM407.409 54.8145C410.386 54.0381 412.465 51.259 412.465 47.9497C412.465 45.8658 411.65 43.9857 410.101 42.4735C408.143 40.5933 405.532 39.6538 402.148 39.6538H392.972V68.2583H397.051V56.8578H403.168C406.308 56.8578 407.573 58.1653 407.573 61.435V68.2592H411.733V62.0887C411.733 57.5936 410.672 55.8777 407.409 55.3872V54.8145ZM373.07 55.754H385.632V51.9948H373.07V43.413H386.855V39.6538H368.91V68.2583H387.467V64.499H373.07V55.754ZM359.407 57.2663V59.2275C359.407 63.3547 357.898 64.7037 354.106 64.7037H353.209C349.415 64.7037 347.58 63.4773 347.58 57.7974V50.1147C347.58 44.3942 349.497 43.2083 353.29 43.2083H354.105C357.816 43.2083 358.999 44.5979 359.039 48.4392H363.526C363.118 42.7999 359.366 39.2453 353.738 39.2453C351.006 39.2453 348.721 40.1038 347.009 41.7377C344.439 44.1489 343.012 48.2355 343.012 53.956C343.012 59.4728 344.236 63.5594 346.764 66.0923C348.477 67.7677 350.842 68.6667 353.167 68.6667C355.614 68.6667 357.858 67.6856 358.999 65.5612H359.569V68.2583H363.321V53.507H352.269V57.2663H359.407ZM323.437 43.413H327.883C332.084 43.413 334.368 44.4753 334.368 50.1968V57.7153C334.368 63.4358 332.084 64.499 327.883 64.499H323.437V43.413ZM328.25 68.2592C336.04 68.2592 338.934 62.334 338.934 53.957C338.934 45.4573 335.835 39.6547 328.168 39.6547H319.358V68.2592H328.25ZM299.661 55.754H312.222V51.9948H299.661V43.413H313.445V39.6538H295.5V68.2583H314.057V64.499H299.661V55.754ZM275.599 39.6538H271.439V68.2583H290.2V64.499H275.599V39.6538ZM242.85 68.2592V87.0566H271.398V82.888H247.009V68.2592H242.85ZM242.85 20.8564V39.6538H247.009V25.0242H271.398V20.8564H242.85Z" fill="white"/>
</g>
<circle cx="132.5" cy="249.5" r="128.5" fill="white" stroke="#2241AC" stroke-width="8"/>
<path fill-rule="evenodd" clip-rule="evenodd" d="M60.5925 220.655V241.039C60.4963 264.132 68.2496 286.567 82.5696 304.63C94.3159 320.237 110.702 331.683 129.354 337.309C131.539 338.008 133.886 338.008 136.071 337.309C156.307 331.197 172.254 319.097 184.737 302.21C194.515 289.058 200.965 273.715 203.532 257.502C204.324 252.412 204.736 247.269 204.762 242.117C204.851 233.28 204.84 224.437 204.829 215.593C204.82 208.702 204.812 201.81 204.85 194.918C204.921 194.342 204.781 193.761 204.458 193.28C204.135 192.799 203.65 192.453 203.092 192.304C180.166 182.153 157.239 171.907 134.313 161.568C133.263 161.033 132.022 161.033 130.972 161.568C108.104 171.837 85.2301 182.064 62.3505 192.251C61.7616 192.455 61.2631 192.86 60.9414 193.396C60.6198 193.933 60.4962 194.565 60.5923 195.183V220.655L60.5925 220.655ZM72.8997 204.386C72.8207 203.865 72.93 203.334 73.207 202.886C73.4846 202.439 73.9115 202.106 74.4118 201.948C93.3297 193.516 112.283 185.038 131.271 176.512C132.139 176.071 133.164 176.071 134.031 176.512C153.055 185.037 172.107 193.54 191.189 202.019C192.133 202.29 192.738 203.213 192.613 204.191V243.371C192.586 247.648 192.24 251.917 191.576 256.142C189.439 269.595 184.081 282.325 175.964 293.237C166.06 307.175 151.84 317.424 135.526 322.383C133.713 322.962 131.765 322.962 129.952 322.383C114.432 317.735 100.79 308.237 91.0085 295.268C79.1094 280.261 72.6708 261.621 72.7587 242.435V225.512C72.7587 223.502 72.7617 221.489 72.7646 219.474L72.7646 219.472C72.7718 214.458 72.7791 209.431 72.7416 204.404L72.8997 204.386ZM84.1167 209.986C99.9285 202.92 115.752 195.854 131.587 188.789C131.932 188.642 132.303 188.564 132.678 188.559V249.501H83.1147C82.9625 247.582 82.8801 245.639 82.8686 243.671V229.54V211.876C82.7742 211.025 83.3001 210.229 84.1168 209.986L84.1167 209.986ZM132.681 249.501H182.226L182.226 249.501C182.085 251.268 181.91 253.193 181.575 255.03C179.799 266.209 175.346 276.787 168.6 285.854C160.375 297.431 148.567 305.946 135.019 310.072C134.262 310.31 133.474 310.435 132.681 310.443V249.501Z" fill="url(#paint0_linear_12384_791)"/>
<defs>
<linearGradient id="paint0_linear_12384_791" x1="142.713" y1="249.501" x2="193.218" y2="263.952" gradientUnits="userSpaceOnUse">
<stop stop-color="#2241AC"/>
<stop offset="1" stop-color="#4FC0FF"/>
</linearGradient>
<clipPath id="clip0_12384_791">
<rect width="197.693" height="66.2001" fill="white" transform="translate(242.85 20.8564)"/>
</clipPath>
</defs>
</svg>
